<?xml version="1.0" encoding="UTF-8" standalone="no"?>
<svg xmlns:xlink="http://www.w3.org/1999/xlink" height="102.8px" width="86.8px" xmlns="http://www.w3.org/2000/svg">
  <g transform="matrix(1.0, 0.0, 0.0, 1.0, 51.75, 97.45)">
    <use height="79.3" id="mc22290" transform="matrix(-0.9781, -0.2069, -0.207, 0.9782, 47.2166, -78.6441)" width="74.0" xlink:href="#sprite0"/>
    <use height="18.55" id="mc21290" transform="matrix(0.9491, 0.3092, -0.3092, 0.9491, -24.0794, -29.8301)" width="15.75" xlink:href="#sprite6"/>
    <use height="37.15" id="mc20290" transform="matrix(0.9827, -0.1565, 0.1565, 0.9827, -51.7363, -38.9767)" width="27.5" xlink:href="#sprite9"/>
    <use height="9.9" id="mc19290" transform="matrix(0.9883, 0.1472, -0.1472, 0.9883, -28.907, -19.4219)" width="9.9" xlink:href="#sprite10"/>
    <use height="18.85" id="mc18290" transform="matrix(-0.9936, -0.0954, -0.0954, 0.9936, -6.8749, -15.3172)" width="10.9" xlink:href="#sprite12"/>
    <use height="18.85" id="mc17290" transform="matrix(0.0481, 0.9973, 0.9973, -0.0481, -4.2124, -7.1797)" width="10.9" xlink:href="#sprite12"/>
    <use height="23.3" id="mc16290" transform="matrix(-0.9984, 0.0533, 0.0533, 0.9984, 2.4724, -35.8351)" width="18.25" xlink:href="#sprite13"/>
    <use height="19.7" id="mc15290" transform="matrix(-1.0, 0.0, 0.0, 1.0, 10.4, -15.0)" width="25.95" xlink:href="#sprite15"/>
    <use height="16.25" id="mc14290" transform="matrix(-0.9984, 0.0533, 0.0533, 0.9984, 6.1958, -28.8563)" width="21.7" xlink:href="#sprite17"/>
    <use height="21.35" transform="matrix(-0.9984, 0.0533, 0.0533, 0.9984, 5.1, -30.85)" width="23.6" xlink:href="#shape17"/>
    <use height="18.55" id="mc12290" transform="matrix(-0.8616, 0.5018, 0.5018, 0.8616, 13.1477, -35.2215)" width="15.75" xlink:href="#sprite6"/>
    <use height="13.0" id="mc11290" transform="matrix(-0.9984, 0.0533, 0.0533, 0.9984, 5.4396, -31.2568)" width="15.0" xlink:href="#sprite20"/>
    <use height="10.9" id="mc10290" transform="matrix(-0.9984, 0.0533, 0.0533, 0.9984, -8.9994, -29.9465)" width="8.25" xlink:href="#sprite23"/>
    <use height="47.15" id="mc9290" transform="matrix(-0.9561, 0.2896, 0.2896, 0.9561, 2.4999, -74.5211)" width="39.4" xlink:href="#sprite26"/>
    <use height="12.05" transform="matrix(1.0, 0.0, 0.0, 1.0, -28.9, -53.7)" width="28.2" xlink:href="#shape24"/>
    <use height="10.0" transform="matrix(-0.9561, 0.2896, 0.2896, 0.9561, -0.2067, -49.7777)" width="13.05" xlink:href="#shape25"/>
    <use height="8.1" transform="matrix(-0.9561, 0.2896, 0.2896, 0.9561, -20.3646, -42.7689)" width="7.6" xlink:href="#shape26"/>
    <use height="5.4" transform="matrix(1.0, 0.0, 0.0, 1.0, -16.3, -28.95)" width="8.6" xlink:href="#shape27"/>
    <use height="8.0" transform="matrix(1.0253, -0.5136, 0.4506, 0.8995, -10.8028, -34.8736)" width="9.7" xlink:href="#shape28"/>
    <use height="8.0" transform="matrix(0.7234, -0.3624, 0.3927, 0.7839, -23.2616, -32.6568)" width="9.7" xlink:href="#shape28"/>
    <use height="68.35" id="mc2290" transform="matrix(-0.9561, 0.2896, 0.2896, 0.9561, 19.8999, -105.5211)" width="69.15" xlink:href="#sprite28"/>
    <use height="20.15" id="hide_hat8" transform="matrix(-0.9561, 0.2896, 0.2896, 0.9561, -4.1501, -81.3842)" width="38.05" xlink:href="#sprite30"/>
    <use height="0.0" id="hat" transform="matrix(1.0, 0.0, 0.0, 1.0, 0.0, 0.0)" width="0.0" xlink:href="#sprite34"/>
  </g>
  <defs>
    <g id="sprite0" transform="matrix(1.0, 0.0, 0.0, 1.0, 0.9, 0.9)">
      <use height="66.3" id="mc200" transform="matrix(1.0, 0.0, 0.0, 1.0, 6.8, 9.25)" width="63.0" xlink:href="#sprite1"/>
      <use height="53.85" id="mc100" transform="matrix(1.0, 0.0, 0.0, 1.0, 16.75, 18.6)" width="50.35" xlink:href="#sprite4"/>
      <use height="79.3" transform="matrix(1.0, 0.0, 0.0, 1.0, -0.9, -0.9)" width="74.0" xlink:href="#shape2"/>
    </g>
    <g id="sprite1" transform="matrix(1.0, 0.0, 0.0, 1.0, 0.0, 0.0)">
      <use height="66.3" id="mc000" transform="matrix(1.0, 0.0, 0.0, 1.0, 0.0, 0.0)" width="63.0" xlink:href="#sprite2"/>
    </g>
    <g id="sprite2" transform="matrix(1.0, 0.0, 0.0, 1.0, 0.0, 0.0)">
      <use height="66.3" id="mc000" transform="matrix(1.0, 0.0, 0.0, 1.0, 0.0, 0.0)" width="63.0" xlink:href="#sprite3"/>
    </g>
    <g id="sprite3" transform="matrix(1.0, 0.0, 0.0, 1.0, 0.0, 0.0)">
      <use height="66.3" transform="matrix(1.0, 0.0, 0.0, 1.0, 0.0, 0.0)" width="63.0" xlink:href="#shape0"/>
    </g>
    <g id="shape0" transform="matrix(1.0, 0.0, 0.0, 1.0, 0.0, 0.0)">
      <path d="M60.3 9.35 L48.15 9.55 51.45 0.8 63.0 0.0 60.3 9.35 M11.2 50.8 L9.95 63.2 0.0 66.3 2.35 55.3 11.2 50.8" fill="#00cc99" fill-rule="evenodd" stroke="none"/>
    </g>
    <g id="sprite4" transform="matrix(1.0, 0.0, 0.0, 1.0, 0.0, 0.0)">
      <use height="53.85" id="mc000" transform="matrix(1.0, 0.0, 0.0, 1.0, 0.0, 0.0)" width="50.35" xlink:href="#sprite5"/>
    </g>
    <g id="sprite5" transform="matrix(1.0, 0.0, 0.0, 1.0, 0.0, 0.0)">
      <use height="53.85" transform="matrix(1.0, 0.0, 0.0, 1.0, 0.0, 0.0)" width="50.35" xlink:href="#shape1"/>
    </g>
    <g id="shape1" transform="matrix(1.0, 0.0, 0.0, 1.0, 0.0, 0.0)">
      <path d="M38.2 0.2 L50.35 0.0 Q44.35 19.8 36.1 40.2 18.3 47.9 0.0 53.85 L1.25 41.45 Q12.7 35.7 24.15 29.9 32.25 15.3 38.2 0.2" fill="#006666" fill-rule="evenodd" stroke="none"/>
    </g>
    <g id="shape2" transform="matrix(1.0, 0.0, 0.0, 1.0, 0.9, 0.9)">
      <path d="M58.25 10.05 L59.4 6.6 Q63.9 -0.95 72.2 0.15 L69.8 9.25 58.25 10.05 M9.15 64.55 L6.8 75.55 0.0 77.5 5.15 66.55 9.15 64.55" fill="#fafff5" fill-rule="evenodd" stroke="none"/>
      <path d="M54.95 18.8 Q49.0 33.9 40.9 48.5 L18.0 60.05 16.75 72.45 Q35.05 66.5 52.85 58.8 61.1 38.4 67.1 18.6 L54.95 18.8 58.25 10.05 59.4 6.6 Q63.9 -0.95 72.2 0.15 L69.8 9.25 67.1 18.6 M58.25 10.05 L69.8 9.25 M9.15 64.55 L6.8 75.55 16.75 72.45 M6.8 75.55 L0.0 77.5 5.15 66.55 9.15 64.55 18.0 60.05" fill="none" stroke="#000000" stroke-linecap="round" stroke-linejoin="round" stroke-width="1.8"/>
    </g>
    <g id="sprite6" transform="matrix(1.0, 0.0, 0.0, 1.0, 7.85, 8.8)">
      <use height="6.5" id="mc400" transform="matrix(1.0, 0.0, 0.0, 1.0, -5.35, 2.35)" width="7.55" xlink:href="#sprite7"/>
      <use height="16.1" transform="matrix(1.0, 0.0, 0.0, 1.0, -6.25, -6.35)" width="14.15" xlink:href="#shape4"/>
      <use height="15.5" id="mc200" transform="matrix(1.0, 0.0, 0.0, 1.0, -6.95, -7.9)" width="13.95" xlink:href="#sprite8"/>
      <use height="17.3" transform="matrix(1.0, 0.0, 0.0, 1.0, -7.85, -8.8)" width="15.75" xlink:href="#shape6"/>
    </g>
    <g id="sprite7" transform="matrix(1.0, 0.0, 0.0, 1.0, 0.0, 0.0)">
      <use height="6.5" transform="matrix(1.0, 0.0, 0.0, 1.0, 0.0, 0.0)" width="7.55" xlink:href="#shape3"/>
    </g>
    <g id="shape3" transform="matrix(1.0, 0.0, 0.0, 1.0, 0.0, 0.0)">
      <path d="M6.45 2.8 L7.55 2.7 7.1 3.95 Q6.5 5.65 5.2 6.2 3.75 6.8 2.3 6.2 0.8 5.55 0.2 4.15 -0.3 2.8 0.5 1.2 L1.1 0.0 Q2.7 2.0 4.75 2.55 L6.3 2.9 6.45 2.8" fill="#b59155" fill-rule="evenodd" stroke="none"/>
    </g>
    <g id="shape4" transform="matrix(1.0, 0.0, 0.0, 1.0, 6.25, 6.35)">
      <path d="M6.8 -4.7 L6.7 -4.4 7.0 -5.45 6.8 -4.7" fill="#ffffff" fill-rule="evenodd" stroke="none"/>
      <path d="M6.8 -4.7 L7.0 -5.45 6.7 -4.4 6.8 -4.7 3.75 2.45 2.2 5.05 1.75 6.3 Q1.15 8.0 -0.15 8.55 -1.6 9.15 -3.05 8.55 -4.55 7.9 -5.15 6.5 -5.65 5.15 -4.85 3.55 L-4.25 2.35 -4.1 1.95 M2.2 5.05 L1.1 5.15 M-2.55 -1.8 L-2.7 -1.55 M-0.6 4.9 Q-2.65 4.35 -4.25 2.35" fill="none" stroke="#000000" stroke-linecap="round" stroke-linejoin="round" stroke-width="1.8"/>
    </g>
    <g id="sprite8" transform="matrix(1.0, 0.0, 0.0, 1.0, 0.0, 0.0)">
      <use height="15.5" transform="matrix(1.0, 0.0, 0.0, 1.0, 0.0, 0.0)" width="13.95" xlink:href="#shape5"/>
    </g>
    <g id="shape5" transform="matrix(1.0, 0.0, 0.0, 1.0, 0.0, 0.0)">
      <path d="M10.4 10.55 L10.7 10.75 8.8 15.5 8.75 15.5 8.5 15.4 7.2 13.05 4.05 14.4 3.95 14.15 3.6 10.9 3.35 10.55 0.0 10.55 4.3 6.05 4.4 6.15 5.05 5.25 Q10.05 0.45 11.25 0.15 12.45 -0.25 13.25 0.4 14.1 1.05 13.95 2.25 L13.95 2.45 13.65 3.5 10.4 10.55" fill="#ffffff" fill-rule="evenodd" stroke="none"/>
    </g>
    <g id="shape6" transform="matrix(1.0, 0.0, 0.0, 1.0, 7.85, 8.8)">
      <path d="M-2.65 -1.85 L-6.95 2.65 -3.4 2.65 -3.0 6.25 M1.85 7.6 L3.75 2.85 M-2.9 6.5 L0.25 5.15 1.55 7.5 M3.35 2.6 L-2.45 -1.7" fill="none" stroke="#000000" stroke-linecap="round" stroke-linejoin="round" stroke-width="1.8"/>
      <path d="M7.0 -5.65 Q7.15 -6.85 6.3 -7.5 5.5 -8.15 4.3 -7.75 3.1 -7.45 -1.9 -2.65 M6.7 -4.4 L3.5 2.9" fill="none" stroke="#000000" stroke-linecap="round" stroke-linejoin="round" stroke-width="1.8"/>
    </g>
    <g id="sprite9" transform="matrix(1.0, 0.0, 0.0, 1.0, 19.6, 26.35)">
      <use height="37.15" transform="matrix(1.0, 0.0, 0.0, 1.0, -19.6, -26.35)" width="27.5" xlink:href="#shape7"/>
    </g>
    <g id="shape7" transform="matrix(1.0, 0.0, 0.0, 1.0, 19.6, 26.35)">
      <path d="M-8.95 -12.8 L-9.8 -12.9 -9.9 -12.3 -10.55 -10.5 Q-19.25 -11.05 -19.0 -18.2 L-17.1 -19.05 Q-15.1 -19.7 -13.05 -18.7 L-12.25 -21.8 -10.2 -21.5 Q-6.0 -20.4 -6.25 -14.5 -6.0 -20.4 -10.2 -21.5 -9.45 -23.15 -8.6 -24.0 -7.0 -25.6 -4.75 -25.3 -1.15 -20.75 -2.45 -15.65 L-2.35 -15.1 -5.8 -14.5 -6.25 -14.5 -6.3 -14.2 -6.4 -12.9 -8.95 -12.8 M-9.8 -12.9 Q-13.95 -13.6 -13.05 -18.7 -13.95 -13.6 -9.8 -12.9" fill="#009999" fill-rule="evenodd" stroke="none"/>
      <path d="M-10.2 -21.5 L-12.25 -21.8 -13.05 -18.7 Q-15.1 -19.7 -17.1 -19.05 -16.9 -23.1 -14.7 -25.65 -11.05 -26.1 -8.6 -24.0 -9.45 -23.15 -10.2 -21.5" fill="#004646" fill-rule="evenodd" stroke="none"/>
      <path d="M-9.9 -12.3 L-8.95 -12.8 -6.4 -12.9 -6.3 -14.2 -5.8 -14.5 -2.35 -15.1 -0.85 -15.4 Q-1.2 -9.4 -4.85 -11.2 L7.3 8.95 5.75 10.2 -1.45 -1.15 Q-1.65 -0.6 -2.4 -0.1 -3.1 0.4 -3.75 0.4 -4.5 0.45 -4.9 -0.05 -5.25 -0.55 -5.0 -1.25 -4.8 -1.95 -4.1 -2.45 L-2.6 -3.0 -6.5 -9.3 Q-7.9 -7.7 -11.15 -9.0 L-10.55 -10.5 -9.9 -12.3 M-5.6 -11.35 Q-5.85 -10.0 -6.5 -9.3 -5.85 -10.0 -5.6 -11.35 L-4.85 -11.2 -5.6 -11.6 -5.6 -11.35" fill="#009900" fill-rule="evenodd" stroke="none"/>
      <path d="M-8.95 -12.8 L-9.8 -12.9 M-9.9 -12.3 L-8.95 -12.8 -6.4 -12.9 -6.3 -14.2 -6.25 -14.5 Q-6.0 -20.4 -10.2 -21.5 L-12.25 -21.8 -13.05 -18.7 Q-13.95 -13.6 -9.8 -12.9 M-5.8 -14.5 L-6.3 -14.2 M-2.35 -15.1 L-0.85 -15.4 Q-1.2 -9.4 -4.85 -11.2 M5.75 10.2 L-1.45 -1.15 M-2.6 -3.0 L-6.5 -9.3 Q-7.9 -7.7 -11.15 -9.0 L-10.55 -10.5 Q-19.25 -11.05 -19.0 -18.2 L-17.1 -19.05 Q-16.9 -23.1 -14.7 -25.65 -11.05 -26.1 -8.6 -24.0 -7.0 -25.6 -4.75 -25.3 -1.15 -20.75 -2.45 -15.65 M-2.35 -15.1 L-5.8 -14.5 M-17.1 -19.05 Q-15.1 -19.7 -13.05 -18.7 M-6.5 -9.3 Q-5.85 -10.0 -5.6 -11.35 L-5.6 -11.6 -4.85 -11.2 M-10.55 -10.5 L-9.9 -12.3 M-8.6 -24.0 Q-9.45 -23.15 -10.2 -21.5" fill="none" stroke="#000000" stroke-linecap="round" stroke-linejoin="round" stroke-width="1.2000000000000002"/>
      <path d="M-4.85 -11.2 L7.3 8.95 5.75 10.2 M-1.45 -1.15 Q-1.65 -0.6 -2.4 -0.1 -3.1 0.4 -3.75 0.4 -4.5 0.45 -4.9 -0.05 -5.25 -0.55 -5.0 -1.25 -4.8 -1.95 -4.1 -2.45 L-2.6 -3.0" fill="none" stroke="#000000" stroke-linecap="round" stroke-linejoin="round" stroke-width="1.2000000000000002"/>
    </g>
    <g id="sprite10" transform="matrix(1.0, 0.0, 0.0, 1.0, 0.9, 0.9)">
      <use height="8.1" id="mc100" transform="matrix(1.0, 0.0, 0.0, 1.0, 0.0, 0.0)" width="8.1" xlink:href="#sprite11"/>
      <use height="9.9" transform="matrix(1.0, 0.0, 0.0, 1.0, -0.9, -0.9)" width="9.9" xlink:href="#shape9"/>
    </g>
    <g id="sprite11" transform="matrix(1.0, 0.0, 0.0, 1.0, 0.0, 0.0)">
      <use height="8.1" transform="matrix(1.0, 0.0, 0.0, 1.0, 0.0, 0.0)" width="8.1" xlink:href="#shape8"/>
    </g>
    <g id="shape8" transform="matrix(1.0, 0.0, 0.0, 1.0, 0.0, 0.0)">
      <path d="M1.15 6.9 Q0.0 5.75 0.0 4.05 0.0 2.35 1.15 1.15 2.35 0.0 4.05 0.0 5.75 0.0 6.9 1.15 8.1 2.35 8.1 4.05 8.1 5.75 6.9 6.9 5.75 8.1 4.05 8.1 2.35 8.1 1.15 6.9" fill="#c4a44a" fill-rule="evenodd" stroke="none"/>
    </g>
    <g id="shape9" transform="matrix(1.0, 0.0, 0.0, 1.0, 0.9, 0.9)">
      <path d="M1.15 6.9 Q0.0 5.75 0.0 4.05 0.0 2.35 1.15 1.15 2.35 0.0 4.05 0.0 5.75 0.0 6.9 1.15 8.1 2.35 8.1 4.05 8.1 5.75 6.9 6.9 5.75 8.1 4.05 8.1 2.35 8.1 1.15 6.9 Z" fill="none" stroke="#000000" stroke-linecap="round" stroke-linejoin="round" stroke-width="1.8"/>
    </g>
    <g id="sprite12" transform="matrix(1.0, 0.0, 0.0, 1.0, 4.95, 9.5)">
      <use height="18.85" transform="matrix(1.0, 0.0, 0.0, 1.0, -4.95, -9.5)" width="10.9" xlink:href="#shape10"/>
    </g>
    <g id="shape10" transform="matrix(1.0, 0.0, 0.0, 1.0, 4.95, 9.5)">
      <path d="M5.05 5.55 L5.05 5.7 Q5.15 6.65 3.9 7.45 2.7 8.25 0.95 8.4 -0.8 8.55 -2.15 7.95 -3.45 7.45 -3.55 6.5 L-3.55 6.35 -3.5 6.35 4.7 5.5 5.05 5.55" fill="#000000" fill-rule="evenodd" stroke="none"/>
      <path d="M-3.55 6.1 L-3.65 3.85 -4.05 -6.3 Q-4.1 -7.15 -3.15 -7.75 -2.1 -8.4 -0.55 -8.55 L2.1 -8.25 Q3.15 -7.75 3.3 -7.0 L3.35 -6.85 3.35 -6.65 4.7 3.05 5.05 5.45 4.7 5.5 -3.5 6.35 -3.55 6.1 M4.7 3.05 L-3.65 3.85 4.7 3.05" fill="#ffffff" fill-rule="evenodd" stroke="none"/>
      <path d="M-3.55 6.1 L-3.65 3.85 -4.05 -6.3 Q-4.1 -7.15 -3.15 -7.75 -2.1 -8.4 -0.55 -8.55 L2.1 -8.25 Q3.15 -7.75 3.3 -7.0 L3.35 -6.85 3.35 -6.65 4.7 3.05 5.05 5.45 5.05 5.55 5.05 5.7 Q5.15 6.65 3.9 7.45 2.7 8.25 0.95 8.4 -0.8 8.55 -2.15 7.95 -3.45 7.45 -3.55 6.5 L-3.55 6.35 -3.55 6.1 M-3.5 6.35 L4.7 5.5 M-3.55 6.35 L-3.5 6.35 M-3.65 3.85 L4.7 3.05" fill="none" stroke="#000000" stroke-linecap="round" stroke-linejoin="round" stroke-width="1.8"/>
    </g>
    <g id="sprite13" transform="matrix(1.0, 0.0, 0.0, 1.0, 0.9, 8.0)">
      <use height="21.5" id="mc100" transform="matrix(1.0, 0.0, 0.0, 1.0, 0.0, -7.1)" width="16.45" xlink:href="#sprite14"/>
      <use height="23.3" transform="matrix(1.0, 0.0, 0.0, 1.0, -0.9, -8.0)" width="18.25" xlink:href="#shape12"/>
    </g>
    <g id="sprite14" transform="matrix(1.0, 0.0, 0.0, 1.0, 0.0, 0.0)">
      <use height="21.5" transform="matrix(1.0, 0.0, 0.0, 1.0, 0.0, 0.0)" width="16.45" xlink:href="#shape11"/>
    </g>
    <g id="shape11" transform="matrix(1.0, 0.0, 0.0, 1.0, 0.0, 0.0)">
      <path d="M16.4 20.85 L11.3 21.3 6.6 21.5 0.0 21.25 0.75 5.1 12.45 0.0 Q16.8 9.45 16.4 20.85" fill="#c4a44a" fill-rule="evenodd" stroke="none"/>
    </g>
    <g id="shape12" transform="matrix(1.0, 0.0, 0.0, 1.0, 0.9, 8.0)">
      <path d="M12.45 -7.1 Q16.8 2.35 16.4 13.75 L11.3 14.2 6.6 14.4 0.0 14.15 0.75 -2.0 12.45 -7.1 Z" fill="none" stroke="#000000" stroke-linecap="round" stroke-linejoin="round" stroke-width="1.8"/>
    </g>
    <g id="sprite15" transform="matrix(1.0, 0.0, 0.0, 1.0, 0.9, 0.9)">
      <use height="17.9" id="mc100" transform="matrix(1.0, 0.0, 0.0, 1.0, 0.0, 0.0)" width="24.15" xlink:href="#sprite16"/>
      <use height="19.7" transform="matrix(1.0, 0.0, 0.0, 1.0, -0.9, -0.9)" width="25.95" xlink:href="#shape14"/>
    </g>
    <g id="sprite16" transform="matrix(1.0, 0.0, 0.0, 1.0, 0.0, 0.0)">
      <use height="17.9" transform="matrix(1.0, 0.0, 0.0, 1.0, 0.0, 0.0)" width="24.15" xlink:href="#shape13"/>
    </g>
    <g id="shape13" transform="matrix(1.0, 0.0, 0.0, 1.0, 0.0, 0.0)">
      <path d="M2.2 0.0 Q12.55 0.65 23.25 0.0 L23.65 5.2 23.65 5.25 24.15 12.4 17.1 17.9 17.1 12.4 Q8.1 13.85 0.0 10.8 L2.2 0.0" fill="#ffcc00" fill-rule="evenodd" stroke="none"/>
    </g>
    <g id="shape14" transform="matrix(1.0, 0.0, 0.0, 1.0, 0.9, 0.9)">
      <path d="M23.45 2.45 L23.65 5.2 23.65 5.25 24.15 12.4 17.1 17.9 17.1 12.4 Q8.1 13.85 0.0 10.8 L1.75 2.25 2.2 0.0 Q12.55 0.65 23.25 0.0 L23.45 2.45 Q12.4 3.25 1.75 2.25 M2.05 3.9 Q8.75 5.35 17.1 5.2 L23.65 5.2 M17.1 5.2 L17.1 12.4" fill="none" stroke="#000000" stroke-linecap="round" stroke-linejoin="round" stroke-width="1.8"/>
    </g>
    <g id="sprite17" transform="matrix(1.0, 0.0, 0.0, 1.0, 3.9, 0.9)">
      <use height="16.25" id="mc000" transform="matrix(1.0, 0.0, 0.0, 1.0, -3.9, -0.9)" width="21.7" xlink:href="#sprite18"/>
    </g>
    <g id="sprite18" transform="matrix(1.0, 0.0, 0.0, 1.0, 3.9, 0.95)">
      <use height="14.45" id="mc100" transform="matrix(1.0, 0.0, 0.0, 1.0, -3.0, -0.05)" width="19.9" xlink:href="#sprite19"/>
      <use height="16.25" transform="matrix(1.0, 0.0, 0.0, 1.0, -3.9, -0.95)" width="21.7" xlink:href="#shape16"/>
    </g>
    <g id="sprite19" transform="matrix(1.0, 0.0, 0.0, 1.0, 0.0, 0.0)">
      <use height="14.45" transform="matrix(1.0, 0.0, 0.0, 1.0, 0.0, 0.0)" width="19.9" xlink:href="#shape15"/>
    </g>
    <g id="shape15" transform="matrix(1.0, 0.0, 0.0, 1.0, 0.0, 0.0)">
      <path d="M19.5 0.0 L19.9 14.05 17.55 14.05 16.7 0.2 19.5 0.0 M0.0 14.25 L1.3 0.45 10.95 0.45 11.5 14.45 0.0 14.25" fill="#ffffff" fill-rule="evenodd" stroke="none"/>
    </g>
    <g id="shape16" transform="matrix(1.0, 0.0, 0.0, 1.0, 3.9, 0.95)">
      <path d="M14.55 14.0 L16.9 14.0 14.55 14.25 14.55 14.0" fill="#ffffff" fill-rule="evenodd" stroke="none"/>
      <path d="M14.55 14.0 L16.9 14.0 16.5 -0.05 13.7 0.15 14.55 14.0 M8.5 14.4 L-3.0 14.2 -1.7 0.4 7.95 0.4 8.5 13.9" fill="none" stroke="#000000" stroke-linecap="round" stroke-linejoin="round" stroke-width="1.8"/>
    </g>
    <g id="shape17" transform="matrix(1.0, 0.0, 0.0, 1.0, 0.0, 0.0)">
      <path d="M22.2 0.0 L23.6 1.6 23.3 2.05 Q11.6 13.1 0.3 21.35 L0.0 21.3 0.7 18.35 22.2 0.0" fill="#000000" fill-rule="evenodd" stroke="none"/>
    </g>
    <g id="sprite20" transform="matrix(1.0, 0.0, 0.0, 1.0, 1.1, 1.1)">
      <use height="10.05" id="mc000" transform="matrix(-0.9659, -0.2588, -0.2588, 0.9659, 13.9023, 2.2136)" width="12.85" xlink:href="#sprite21"/>
    </g>
    <g id="sprite21" transform="matrix(1.0, 0.0, 0.0, 1.0, 0.9, 0.9)">
      <use height="8.25" id="mc100" transform="matrix(1.0, 0.0, 0.0, 1.0, 0.0, 0.0)" width="11.05" xlink:href="#sprite22"/>
      <use height="10.05" transform="matrix(1.0, 0.0, 0.0, 1.0, -0.9, -0.9)" width="12.85" xlink:href="#shape19"/>
    </g>
    <g id="sprite22" transform="matrix(1.0, 0.0, 0.0, 1.0, 0.0, 0.0)">
      <use height="8.25" transform="matrix(1.0, 0.0, 0.0, 1.0, 0.0, 0.0)" width="11.05" xlink:href="#shape18"/>
    </g>
    <g id="shape18" transform="matrix(1.0, 0.0, 0.0, 1.0, 0.0, 0.0)">
      <path d="M7.5 5.75 L3.6 8.25 3.2 4.7 0.0 4.7 3.35 0.0 10.1 1.1 11.05 8.25 7.5 5.75" fill="#ffffff" fill-rule="evenodd" stroke="none"/>
    </g>
    <g id="shape19" transform="matrix(1.0, 0.0, 0.0, 1.0, 0.9, 0.9)">
      <path d="M10.1 1.1 L11.05 8.25 7.5 5.75 3.6 8.25 3.2 4.7 0.0 4.7 3.35 0.0 10.1 1.1 Z" fill="none" stroke="#000000" stroke-linecap="round" stroke-linejoin="round" stroke-width="1.8"/>
    </g>
    <g id="sprite23" transform="matrix(1.0, 0.0, 0.0, 1.0, 0.9, 0.9)">
      <use height="10.9" id="mc000" transform="matrix(-1.0, 0.0, 0.0, 1.0, 7.35, -0.9)" width="8.25" xlink:href="#sprite24"/>
    </g>
    <g id="sprite24" transform="matrix(1.0, 0.0, 0.0, 1.0, -3.8, 1.05)">
      <use height="9.1" id="mc100" transform="matrix(1.0, 0.0, 0.0, 1.0, 4.7, -0.15)" width="6.45" xlink:href="#sprite25"/>
      <use height="10.9" transform="matrix(1.0, 0.0, 0.0, 1.0, 3.8, -1.05)" width="8.25" xlink:href="#shape21"/>
    </g>
    <g id="sprite25" transform="matrix(1.0, 0.0, 0.0, 1.0, 0.0, 0.0)">
      <use height="9.1" transform="matrix(1.0, 0.0, 0.0, 1.0, 0.0, 0.0)" width="6.45" xlink:href="#shape20"/>
    </g>
    <g id="shape20" transform="matrix(1.0, 0.0, 0.0, 1.0, 0.0, 0.0)">
      <path d="M3.05 0.0 L6.45 2.05 5.15 9.1 3.05 6.85 1.05 8.0 1.05 5.2 0.0 4.05 3.05 0.0" fill="#ffffff" fill-rule="evenodd" stroke="none"/>
    </g>
    <g id="shape21" transform="matrix(1.0, 0.0, 0.0, 1.0, -3.8, 1.05)">
      <path d="M4.7 3.9 L7.75 -0.15 11.15 1.9 9.85 8.95 7.75 6.7 5.75 7.85 5.75 5.05 4.7 3.9 Z" fill="none" stroke="#000000" stroke-linecap="round" stroke-linejoin="round" stroke-width="1.8"/>
    </g>
    <g id="sprite26" transform="matrix(1.0, 0.0, 0.0, 1.0, 0.9, 0.9)">
      <use height="45.35" id="mc100" transform="matrix(1.0, 0.0, 0.0, 1.0, 0.0, 0.0)" width="37.6" xlink:href="#sprite27"/>
      <use height="47.15" transform="matrix(1.0, 0.0, 0.0, 1.0, -0.9, -0.9)" width="39.4" xlink:href="#shape23"/>
    </g>
    <g id="sprite27" transform="matrix(1.0, 0.0, 0.0, 1.0, 0.0, 0.0)">
      <use height="45.35" transform="matrix(1.0, 0.0, 0.0, 1.0, 0.0, 0.0)" width="37.6" xlink:href="#shape22"/>
    </g>
    <g id="shape22" transform="matrix(1.0, 0.0, 0.0, 1.0, 0.0, 0.0)">
      <path d="M37.6 21.6 L36.35 34.15 Q35.0 44.5 23.9 45.35 L23.4 45.35 Q14.05 45.65 6.25 41.2 L0.0 11.9 21.15 0.5 21.5 0.0 37.15 10.4 37.6 21.6" fill="#c4a44a" fill-rule="evenodd" stroke="none"/>
    </g>
    <g id="shape23" transform="matrix(1.0, 0.0, 0.0, 1.0, 0.9, 0.9)">
      <path d="M21.5 0.0 L37.15 10.4 37.6 21.6 36.35 34.15 Q35.0 44.5 23.9 45.35 L23.4 45.35 Q14.05 45.65 6.25 41.2 L0.0 11.9 21.15 0.5" fill="none" stroke="#000000" stroke-linecap="round" stroke-linejoin="round" stroke-width="1.8"/>
    </g>
    <g id="shape24" transform="matrix(1.0, 0.0, 0.0, 1.0, 28.9, 53.7)">
      <path d="M-1.6 -52.8 L-11.75 -51.65" fill="none" stroke="#000000" stroke-linecap="round" stroke-linejoin="round" stroke-width="1.8"/>
      <path d="M-23.15 -47.45 L-28.0 -42.55" fill="none" stroke="#000000" stroke-linecap="round" stroke-linejoin="round" stroke-width="1.8"/>
    </g>
    <g id="shape25" transform="matrix(1.0, 0.0, 0.0, 1.0, 0.9, 0.75)">
      <path d="M7.95 0.95 L8.5 1.15 Q10.45 3.15 11.25 6.7 2.25 10.7 1.0 4.95 L0.0 0.3 Q2.85 -0.05 5.25 0.3 L4.75 0.8 Q4.1 1.65 4.1 2.85 4.1 3.95 4.75 4.7 5.35 5.55 6.25 5.55 7.15 5.55 7.85 4.7 8.45 3.95 8.45 2.85 8.45 1.75 7.95 0.95" fill="#ffffff" fill-rule="evenodd" stroke="none"/>
      <path d="M5.25 0.3 Q5.7 0.0 6.25 0.0 7.15 0.0 7.85 0.8 L7.95 0.95 Q8.45 1.75 8.45 2.85 8.45 3.95 7.85 4.7 7.15 5.55 6.25 5.55 5.35 5.55 4.75 4.7 4.1 3.95 4.1 2.85 4.1 1.65 4.75 0.8 L5.25 0.3" fill="#000000" fill-rule="evenodd" stroke="none"/>
      <path d="M11.25 6.7 Q10.45 3.15 8.5 1.15 4.95 -0.25 0.0 0.3 L1.0 4.95 Q2.25 10.7 11.25 6.7 Z" fill="none" stroke="#000000" stroke-linecap="round" stroke-linejoin="round" stroke-width="1.8"/>
    </g>
    <g id="shape26" transform="matrix(1.0, 0.0, 0.0, 1.0, 0.9, 0.95)">
      <path d="M1.75 2.4 Q1.75 1.6 2.15 1.0 L2.5 0.7 Q2.75 0.5 3.1 0.5 3.65 0.5 4.05 1.0 L4.15 1.1 4.45 2.4 Q4.45 3.15 4.05 3.65 3.65 4.25 3.1 4.25 2.55 4.25 2.15 3.65 1.75 3.15 1.75 2.4" fill="#000000" fill-rule="evenodd" stroke="none"/>
      <path d="M1.75 2.4 Q1.75 3.15 2.15 3.65 2.55 4.25 3.1 4.25 3.65 4.25 4.05 3.65 4.45 3.15 4.45 2.4 L4.15 1.1 4.05 1.0 Q3.65 0.5 3.1 0.5 2.75 0.5 2.5 0.7 L2.15 1.0 Q1.75 1.6 1.75 2.4 M0.15 5.55 Q-0.4 2.9 1.3 0.85 3.35 -0.9 5.8 0.85 5.65 3.85 4.1 6.25 L0.15 5.55" fill="#ffffff" fill-rule="evenodd" stroke="none"/>
      <path d="M1.3 0.85 Q3.35 -0.9 5.8 0.85 5.65 3.85 4.1 6.25 L0.15 5.55 Q-0.4 2.9 1.3 0.85 Z" fill="none" stroke="#000000" stroke-linecap="round" stroke-linejoin="round" stroke-width="1.8"/>
    </g>
    <g id="shape27" transform="matrix(1.0, 0.0, 0.0, 1.0, 16.3, 28.95)">
      <path d="M-16.3 -27.55 L-8.6 -28.95 Q-6.55 -26.25 -9.3 -24.0 -15.75 -22.2 -16.3 -27.55" fill="#000000" fill-rule="evenodd" stroke="none"/>
    </g>
    <g id="shape28" transform="matrix(1.0, 0.0, 0.0, 1.0, 5.45, 4.25)">
      <path d="M-0.3 -4.15 Q1.7 -3.8 3.05 -2.35 4.35 -0.95 4.25 0.65 4.1 2.25 2.6 3.15 1.1 4.0 -0.9 3.65 -2.9 3.3 -4.2 1.9 -5.55 0.45 -5.45 -1.1 -5.3 -2.75 -3.8 -3.6 -2.3 -4.5 -0.3 -4.15" fill="url(#gradient0)" fill-rule="evenodd" stroke="none"/>
    </g>
    <linearGradient gradientTransform="matrix(4.0E-4, -0.0048, 0.0059, 0.0011, -0.6, -0.25)" gradientUnits="userSpaceOnUse" id="gradient0" spreadMethod="pad" x1="-819.2" x2="819.2">
      <stop offset="0.0" stop-color="#ffffff" stop-opacity="0.0"/>
      <stop offset="1.0" stop-color="#ff0f0f" stop-opacity="0.4392157"/>
    </linearGradient>
    <g id="sprite28" transform="matrix(1.0, 0.0, 0.0, 1.0, 0.9, 0.9)">
      <use height="66.55" id="mc100" transform="matrix(1.0, 0.0, 0.0, 1.0, 0.0, 0.0)" width="67.35" xlink:href="#sprite29"/>
      <use height="68.35" transform="matrix(1.0, 0.0, 0.0, 1.0, -0.9, -0.9)" width="69.15" xlink:href="#shape30"/>
    </g>
    <g id="sprite29" transform="matrix(1.0, 0.0, 0.0, 1.0, 0.0, 0.0)">
      <use height="66.55" transform="matrix(1.0, 0.0, 0.0, 1.0, 0.0, 0.0)" width="67.35" xlink:href="#shape29"/>
    </g>
    <g id="shape29" transform="matrix(1.0, 0.0, 0.0, 1.0, 0.0, 0.0)">
      <path d="M59.8 48.15 L54.75 34.9 47.5 46.95 47.5 36.25 41.05 45.45 37.5 39.1 33.55 66.55 33.0 66.45 Q18.1 65.9 9.6 55.1 L13.95 54.5 Q5.55 48.75 0.0 41.25 L6.65 41.8 Q4.75 25.45 9.3 12.25 L9.4 11.9 Q15.2 7.15 22.25 7.05 25.05 2.2 29.05 0.0 L29.6 5.35 Q32.25 1.9 36.4 1.45 35.55 4.0 37.3 5.55 49.7 5.75 58.9 11.65 66.15 18.85 66.85 30.75 68.5 50.15 64.7 65.9 64.4 50.75 60.8 36.1 60.95 41.95 59.8 48.15" fill="#ff6600" fill-rule="evenodd" stroke="none"/>
    </g>
    <g id="shape30" transform="matrix(1.0, 0.0, 0.0, 1.0, 0.9, 0.9)">
      <path d="M20.7 40.0 L18.6 54.0 25.1 47.5 33.0 66.45 Q18.1 65.9 9.6 55.1 L13.95 54.5 Q5.55 48.75 0.0 41.25 L6.65 41.8 Q4.75 25.45 9.3 12.25 L9.4 11.9 Q15.2 7.15 22.25 7.05 25.05 2.2 29.05 0.0 L29.6 5.35 Q32.25 1.9 36.4 1.45 35.55 4.0 37.3 5.55 49.7 5.75 58.9 11.65 66.15 18.85 66.85 30.75 68.5 50.15 64.7 65.9 64.4 50.75 60.8 36.1 60.95 41.95 59.8 48.15 L54.75 34.9 47.5 46.95 47.5 36.25 41.05 45.45 37.5 39.1 33.55 66.55" fill="none" stroke="#000000" stroke-linecap="round" stroke-linejoin="round" stroke-width="1.8"/>
    </g>
    <g id="sprite30" transform="matrix(1.0, 0.0, 0.0, 1.0, 0.75, 0.75)">
      <use height="10.4" transform="matrix(1.0, 0.0, 0.0, 1.0, 8.5, 2.8)" width="26.2" xlink:href="#shape31"/>
      <use height="16.75" id="mc201" transform="matrix(1.0, 0.0, 0.0, 1.0, 5.65, 0.15)" width="30.75" xlink:href="#sprite31"/>
      <use height="16.35" id="mc202" transform="matrix(1.0, 0.0, 0.0, 1.0, 2.5, 0.0)" width="25.3" xlink:href="#sprite32"/>
      <use height="16.0" id="mc203" transform="matrix(1.0, 0.0, 0.0, 1.0, 0.0, 2.65)" width="34.45" xlink:href="#sprite33"/>
      <use height="20.15" transform="matrix(1.0, 0.0, 0.0, 1.0, -0.75, -0.75)" width="38.05" xlink:href="#shape35"/>
    </g>
    <g id="shape31" transform="matrix(1.0, 0.0, 0.0, 1.0, -8.5, -2.8)">
      <path d="M33.45 4.55 Q34.35 4.7 34.6 5.35 L34.7 5.8 34.7 9.5 Q34.45 10.6 33.25 10.95 L30.1 11.45 Q28.9 11.6 28.7 10.35 L28.75 3.65 33.45 4.55 M15.05 4.05 Q16.4 4.35 16.45 5.7 L16.45 10.6 Q16.15 12.05 14.55 12.55 L10.35 13.2 Q8.75 13.4 8.5 11.75 L8.55 2.8 14.8 4.0 15.05 4.05" fill="#ccffff" fill-rule="evenodd" stroke="none"/>
    </g>
    <g id="sprite31" transform="matrix(1.0, 0.0, 0.0, 1.0, 0.0, 0.0)">
      <use height="16.75" transform="matrix(1.0, 0.0, 0.0, 1.0, 0.0, 0.0)" width="30.75" xlink:href="#shape32"/>
    </g>
    <g id="shape32" transform="matrix(1.0, 0.0, 0.0, 1.0, 0.0, 0.0)">
      <path d="M30.55 10.45 Q30.5 11.6 29.5 12.2 L29.3 12.25 24.25 13.9 Q22.2 14.35 21.5 13.6 21.05 13.1 21.1 12.15 L21.1 11.9 20.95 3.45 Q20.8 2.0 22.15 1.6 L22.2 1.6 22.3 1.6 Q23.15 1.4 24.5 1.6 30.95 2.35 30.75 5.35 L30.55 10.15 30.55 10.45 M10.8 10.45 L10.8 5.55 Q10.75 4.2 9.4 3.9 L9.15 3.85 2.9 2.65 2.85 11.6 Q3.1 13.25 4.7 13.05 L8.9 12.4 Q10.5 11.9 10.8 10.45 M12.95 3.9 L13.1 5.15 13.0 7.75 13.05 6.9 16.8 6.9 16.95 10.6 13.25 11.35 12.8 11.35 12.8 11.55 12.8 11.9 Q12.75 13.45 11.4 14.25 L11.15 14.35 4.4 16.5 Q1.7 17.15 0.75 16.1 0.15 15.45 0.25 14.2 L0.25 13.85 0.0 2.6 Q-0.2 0.65 1.6 0.15 L1.85 0.1 4.75 0.15 Q11.95 0.95 12.95 3.9 M29.05 5.65 L28.95 5.2 Q28.7 4.55 27.8 4.4 L23.1 3.5 23.05 10.2 Q23.25 11.45 24.45 11.3 L27.6 10.8 Q28.8 10.45 29.05 9.35 L29.05 5.65" fill="#999999" fill-rule="evenodd" stroke="none"/>
    </g>
    <g id="sprite32" transform="matrix(1.0, 0.0, 0.0, 1.0, 0.0, 0.0)">
      <use height="16.35" transform="matrix(1.0, 0.0, 0.0, 1.0, 0.0, 0.0)" width="25.3" xlink:href="#shape33"/>
    </g>
    <g id="shape33" transform="matrix(1.0, 0.0, 0.0, 1.0, 0.0, 0.0)">
      <path d="M23.65 1.55 L24.45 1.6 25.3 1.75 Q23.95 2.15 24.1 3.6 L24.25 12.05 24.25 12.3 Q24.2 13.25 24.65 13.75 22.45 14.1 21.9 12.55 L21.75 3.7 21.75 3.55 Q21.55 1.75 23.2 1.55 L23.65 1.55 M3.15 2.75 L3.4 14.0 3.4 14.35 Q3.3 15.6 3.9 16.25 1.0 16.75 0.25 14.7 L0.05 2.85 0.05 2.65 Q-0.35 -0.9 4.75 0.3 2.95 0.8 3.15 2.75" fill="#666666" fill-rule="evenodd" stroke="none"/>
    </g>
    <g id="sprite33" transform="matrix(1.0, 0.0, 0.0, 1.0, 0.0, 0.0)">
      <use height="16.0" transform="matrix(1.0, 0.0, 0.0, 1.0, 0.0, 0.0)" width="34.45" xlink:href="#shape34"/>
    </g>
    <g id="shape34" transform="matrix(1.0, 0.0, 0.0, 1.0, 0.0, 0.0)">
      <path d="M34.45 10.2 Q34.35 12.45 29.35 13.1 24.8 13.75 22.95 11.2 L22.7 10.8 22.35 2.35 23.9 0.9 24.25 0.9 24.25 1.05 24.4 9.9 Q24.95 11.45 27.15 11.1 27.85 11.85 29.9 11.4 L34.4 9.95 34.45 10.2 M0.0 1.95 L2.05 0.0 2.55 0.0 2.55 0.2 2.75 12.05 Q3.5 14.1 6.4 13.6 7.35 14.65 10.05 14.0 L16.05 12.1 16.15 12.4 Q16.0 15.0 11.2 16.0 L3.95 16.0 Q1.95 15.35 0.8 13.75 L0.5 13.25 0.0 1.95" fill="#333333" fill-rule="evenodd" stroke="none"/>
    </g>
    <g id="shape35" transform="matrix(1.0, 0.0, 0.0, 1.0, 0.75, 0.75)">
      <path d="M23.9 3.55 L24.25 3.55 M34.4 12.6 L34.45 12.85 M2.05 2.65 L2.55 2.65 M16.8 14.5 L16.05 14.75 16.15 15.05" fill="none" stroke="#000000" stroke-linecap="round" stroke-linejoin="round" stroke-width="1.5"/>
      <path d="M25.7 1.55 L26.15 1.55" fill="none" stroke="#000000" stroke-linecap="round" stroke-linejoin="round" stroke-width="1.8"/>
      <path d="M26.15 1.55 L26.95 1.6 27.85 1.75 27.95 1.75 Q28.8 1.55 30.15 1.75 36.6 2.5 36.4 5.5 L36.2 10.3 36.2 10.6 Q36.15 11.75 35.15 12.35 L34.95 12.4 34.4 12.6 M24.25 3.55 Q24.05 1.75 25.7 1.55 M33.25 10.95 L30.1 11.45 Q28.9 11.6 28.7 10.35 L28.75 3.65 33.45 4.55 Q34.35 4.7 34.6 5.35 L34.7 5.8 34.7 9.5 Q34.45 10.6 33.25 10.95 M27.15 13.75 Q26.7 13.25 26.75 12.3 L26.75 12.05 26.6 3.6 Q26.45 2.15 27.8 1.75 L27.85 1.75 M22.6 10.8 L19.05 11.5 M15.05 4.05 Q16.4 4.35 16.45 5.7 L16.45 10.6 Q16.15 12.05 14.55 12.55 L10.35 13.2 Q8.75 13.4 8.5 11.75 L8.55 2.8 14.8 4.0 15.05 4.05 M18.7 7.05 L21.7 7.05 M22.25 8.9 L19.25 9.25" fill="none" stroke="#000000" stroke-linecap="round" stroke-linejoin="round" stroke-width="1.8"/>
      <path d="M34.4 12.6 L29.9 14.05 Q27.85 14.5 27.15 13.75 24.95 14.1 24.4 12.55 L24.25 3.55 M22.6 10.8 L22.35 5.0 23.9 3.55 M34.45 12.85 Q34.35 15.1 29.35 15.75 24.8 16.4 22.95 13.85 L22.7 13.45 22.6 10.8 M16.05 14.75 L10.05 16.65 Q7.35 17.3 6.4 16.25 3.5 16.75 2.75 14.7 L2.55 2.85 Q2.15 -0.9 7.25 0.3 L7.5 0.25 10.4 0.3 Q17.6 1.1 18.6 4.05 L18.75 5.3 18.7 7.05 18.45 11.7 18.45 12.05 Q18.4 13.6 17.05 14.4 L16.8 14.5 M6.4 16.25 Q5.8 15.6 5.9 14.35 L5.9 14.0 5.65 2.75 Q5.45 0.8 7.25 0.3 M16.15 15.05 Q16.0 17.65 11.2 18.65 L3.95 18.65 Q1.95 18.0 0.8 16.4 L0.5 15.9 0.0 4.6 2.05 2.65" fill="none" stroke="#000000" stroke-linecap="round" stroke-linejoin="round" stroke-width="1.5"/>
    </g>
  </defs>
</svg>
