<?xml version="1.0" encoding="UTF-8" standalone="no"?>
<svg xmlns:xlink="http://www.w3.org/1999/xlink" height="155.15px" width="137.25px" xmlns="http://www.w3.org/2000/svg">
  <g transform="matrix(1.0, 0.0, 0.0, 1.0, 61.25, 142.4)">
    <use height="22.4" transform="matrix(0.8031, 0.5916, -0.5916, 0.8031, 3.7956, -34.5599)" width="12.95" xlink:href="#sprite0"/>
    <use height="22.4" transform="matrix(0.9756, -0.203, 0.203, 0.9756, 10.283, -25.5674)" width="12.95" xlink:href="#sprite0"/>
    <use height="11.75" transform="matrix(0.4211, -0.8996, -0.8996, -0.4211, 12.2473, -32.0477)" width="18.65" xlink:href="#sprite2"/>
    <use height="10.7" transform="matrix(-0.2025, -0.9742, 0.9742, -0.2025, 0.9216, -30.1548)" width="10.7" xlink:href="#sprite4"/>
    <use height="37.35" transform="matrix(-0.9346, -0.3524, -0.3524, 0.9346, 36.686, -44.229)" width="29.5" xlink:href="#sprite6"/>
    <use height="17.25" transform="matrix(0.7464, 0.3521, 0.0154, 0.7179, 18.5651, -49.1323)" width="18.75" xlink:href="#sprite12"/>
    <use height="90.85" transform="matrix(0.9601, -0.2765, 0.2765, 0.9601, -26.8437, -109.4364)" width="76.95" xlink:href="#sprite13"/>
    <use height="50.05" transform="matrix(1.0, 0.0, 0.0, 1.0, 24.8, -80.9)" width="51.2" xlink:href="#shape28"/>
    <use height="20.65" transform="matrix(-0.6998, -0.6948, 0.6948, -0.6998, 32.1741, -29.5838)" width="13.2" xlink:href="#sprite26"/>
    <use height="33.45" transform="matrix(-0.9413, 0.3346, 0.3346, 0.9413, 50.3609, -78.0358)" width="34.45" xlink:href="#sprite28"/>
  </g>
  <defs>
    <g id="sprite0" transform="matrix(1.0, 0.0, 0.0, 1.0, 6.45, 11.2)">
      <use height="20.6" transform="matrix(1.0, 0.0, 0.0, 1.0, -5.55, -10.3)" width="11.15" xlink:href="#sprite1"/>
      <use height="22.4" transform="matrix(1.0, 0.0, 0.0, 1.0, -6.45, -11.2)" width="12.95" xlink:href="#shape1"/>
    </g>
    <g id="sprite1" transform="matrix(1.0, 0.0, 0.0, 1.0, 5.55, 10.3)">
      <use height="20.6" transform="matrix(1.0, 0.0, 0.0, 1.0, -5.55, -10.3)" width="11.15" xlink:href="#shape0"/>
    </g>
    <g id="shape0" transform="matrix(1.0, 0.0, 0.0, 1.0, 5.55, 10.3)">
      <path d="M5.4 -5.05 L3.15 7.4 Q2.65 9.0 0.9 9.85 -0.85 10.65 -2.5 10.1 -4.2 9.6 -5.0 8.1 -5.85 6.55 -5.35 4.9 L-1.7 -7.25 Q-1.2 -8.9 0.05 -9.7 1.4 -10.6 3.05 -10.1 4.6 -9.65 5.25 -8.15 5.85 -6.75 5.4 -5.05" fill="#b88a5c" fill-rule="evenodd" stroke="none"/>
    </g>
    <g id="shape1" transform="matrix(1.0, 0.0, 0.0, 1.0, 6.45, 11.2)">
      <path d="M3.05 -10.1 Q4.6 -9.65 5.25 -8.15 5.85 -6.75 5.4 -5.05 L3.15 7.4 Q2.65 9.0 0.9 9.85 -0.85 10.65 -2.5 10.1 -4.2 9.6 -5.0 8.1 -5.85 6.55 -5.35 4.9 L-1.7 -7.25 Q-1.2 -8.9 0.05 -9.7 1.4 -10.6 3.05 -10.1 Z" fill="none" stroke="#000000" stroke-linecap="round" stroke-linejoin="round" stroke-width="1.8"/>
    </g>
    <g id="sprite2" transform="matrix(1.0, 0.0, 0.0, 1.0, 6.9, 5.45)">
      <use height="9.95" transform="matrix(1.0, 0.0, 0.0, 1.0, -6.0, -4.55)" width="16.85" xlink:href="#sprite3"/>
      <use height="11.75" transform="matrix(1.0, 0.0, 0.0, 1.0, -6.9, -5.45)" width="18.65" xlink:href="#shape3"/>
    </g>
    <g id="sprite3" transform="matrix(1.0, 0.0, 0.0, 1.0, 0.0, 0.0)">
      <use height="9.95" transform="matrix(1.0, 0.0, 0.0, 1.0, 0.0, 0.0)" width="16.85" xlink:href="#shape2"/>
    </g>
    <g id="shape2" transform="matrix(1.0, 0.0, 0.0, 1.0, 0.0, 0.0)">
      <path d="M16.7 2.65 L16.55 3.05 16.25 3.55 15.55 4.25 9.65 7.4 9.65 7.45 4.35 9.8 4.3 9.85 3.9 9.95 1.65 9.85 1.65 9.8 1.1 9.4 Q0.35 8.65 0.1 7.4 L0.05 5.85 0.55 4.35 1.45 3.3 Q2.0 2.85 2.85 2.6 L8.4 1.15 Q14.5 -0.3 15.55 0.1 16.55 0.5 16.8 1.55 L16.7 2.65" fill="#b88a5c" fill-rule="evenodd" stroke="none"/>
    </g>
    <g id="shape3" transform="matrix(1.0, 0.0, 0.0, 1.0, 6.9, 5.45)">
      <path d="M10.55 -1.5 L10.25 -0.95 9.55 -0.3 10.25 -1.0 10.55 -1.5 M-4.9 4.85 Q-5.7 4.1 -5.9 2.9 L-5.95 1.3 -5.9 2.85 Q-5.65 4.1 -4.9 4.85" fill="#b88a5c" fill-rule="evenodd" stroke="none"/>
      <path d="M9.55 -0.3 L3.65 2.85 3.65 2.9 -1.65 5.25 -1.7 5.3 -2.1 5.4 -4.35 5.3 -4.35 5.25 -4.9 4.85 M-5.95 1.3 L-5.45 -0.2 -4.55 -1.25 -3.15 -1.95 2.4 -3.4 Q8.5 -4.85 9.55 -4.45 10.6 -4.05 10.8 -3.0 L10.7 -1.9 10.55 -1.5 10.25 -1.0 9.55 -0.3 M-5.95 1.3 L-5.9 2.85 Q-5.65 4.1 -4.9 4.85" fill="none" stroke="#000000" stroke-linecap="round" stroke-linejoin="round" stroke-width="1.8"/>
    </g>
    <g id="sprite4" transform="matrix(1.0, 0.0, 0.0, 1.0, 5.35, 5.35)">
      <use height="8.9" transform="matrix(1.0, 0.0, 0.0, 1.0, -4.45, -4.45)" width="8.9" xlink:href="#sprite5"/>
      <use height="10.7" transform="matrix(1.0, 0.0, 0.0, 1.0, -5.35, -5.35)" width="10.7" xlink:href="#shape5"/>
    </g>
    <g id="sprite5" transform="matrix(1.0, 0.0, 0.0, 1.0, 4.45, 4.45)">
      <use height="41.6" transform="matrix(0.1902, 0.0, 0.0, 0.2139, -4.45, -4.45)" width="46.8" xlink:href="#shape4"/>
    </g>
    <g id="shape4" transform="matrix(1.0, 0.0, 0.0, 1.0, 23.4, 20.8)">
      <path d="M16.55 -14.7 Q23.4 -8.6 23.4 0.0 23.4 8.6 16.55 14.7 9.7 20.8 0.0 20.8 -9.7 20.8 -16.55 14.7 -23.4 8.6 -23.4 0.0 -23.4 -8.6 -16.55 -14.7 -9.7 -20.8 0.0 -20.8 9.7 -20.8 16.55 -14.7" fill="#b88a5c" fill-rule="evenodd" stroke="none"/>
    </g>
    <g id="shape5" transform="matrix(1.0, 0.0, 0.0, 1.0, 5.35, 5.35)">
      <path d="M3.15 -3.15 Q4.45 -1.85 4.45 0.0 4.45 1.85 3.15 3.15 1.85 4.45 0.0 4.45 -1.85 4.45 -3.15 3.15 -4.45 1.85 -4.45 0.0 -4.45 -1.85 -3.15 -3.15 -1.85 -4.45 0.0 -4.45 1.85 -4.45 3.15 -3.15 Z" fill="none" stroke="#000000" stroke-linecap="round" stroke-linejoin="round" stroke-width="1.8"/>
    </g>
    <g id="sprite6" transform="matrix(1.0, 0.0, 0.0, 1.0, 14.75, 21.0)">
      <use height="11.45" transform="matrix(1.0, 0.0, 0.0, 1.0, -13.85, 4.0)" width="27.7" xlink:href="#sprite7"/>
      <use height="24.7" transform="matrix(1.0, 0.0, 0.0, 1.0, -11.65, -20.05)" width="23.25" xlink:href="#sprite8"/>
      <use height="11.25" transform="matrix(1.0, 0.0, 0.0, 1.0, -12.8, 3.65)" width="25.6" xlink:href="#sprite9"/>
      <use height="8.4" transform="matrix(1.0, 0.0, 0.0, 1.0, -11.6, 5.4)" width="23.15" xlink:href="#sprite10"/>
      <use height="5.9" transform="matrix(1.0, 0.0, 0.0, 1.0, -3.05, 10.45)" width="6.15" xlink:href="#shape10"/>
      <use height="1.8" transform="matrix(1.0, 0.0, 0.0, 1.0, -1.1, 12.45)" width="2.0" xlink:href="#sprite11"/>
      <use height="37.35" transform="matrix(1.0, 0.0, 0.0, 1.0, -14.75, -21.0)" width="29.5" xlink:href="#shape12"/>
    </g>
    <g id="sprite7" transform="matrix(1.0, 0.0, 0.0, 1.0, 0.0, 0.0)">
      <use height="11.45" transform="matrix(1.0, 0.0, 0.0, 1.0, 0.0, 0.0)" width="27.7" xlink:href="#shape6"/>
    </g>
    <g id="shape6" transform="matrix(1.0, 0.0, 0.0, 1.0, 0.0, 0.0)">
      <path d="M26.1 4.3 L26.65 4.2 27.7 8.15 25.45 9.4 25.15 8.75 24.5 8.45 24.7 8.3 25.0 7.5 24.7 6.6 24.3 6.35 23.8 6.3 23.35 6.35 Q23.15 6.45 23.0 6.6 L22.95 6.65 22.8 6.35 22.75 6.3 Q22.4 6.0 21.85 6.0 21.35 6.0 21.05 6.3 L20.95 6.35 Q20.65 6.7 20.65 7.2 L20.85 7.85 20.5 7.8 Q20.0 7.8 19.7 8.1 19.3 8.45 19.3 9.0 19.3 9.5 19.7 9.8 20.0 10.2 20.5 10.2 L21.2 10.0 Q20.95 10.3 20.95 10.7 L20.95 10.85 16.4 11.45 16.2 10.8 10.7 11.4 6.65 10.9 6.65 10.65 6.45 9.95 7.1 10.15 Q7.65 10.15 7.95 9.75 8.3 9.45 8.3 8.95 8.3 8.4 7.95 8.05 7.65 7.75 7.1 7.75 L6.8 7.8 6.95 7.15 6.7 6.35 6.6 6.25 Q6.3 5.95 5.75 5.95 5.25 5.95 4.85 6.25 L4.8 6.35 4.7 6.6 4.65 6.55 4.4 6.35 3.8 6.25 3.2 6.35 2.9 6.55 Q2.6 6.9 2.6 7.45 2.6 7.95 2.9 8.25 L3.1 8.4 Q2.75 8.45 2.45 8.7 L2.15 9.5 0.0 8.35 1.05 4.2 1.5 4.25 Q2.05 4.25 2.35 3.9 L2.45 3.8 2.4 4.1 Q2.4 4.65 2.7 4.95 L3.6 5.3 4.45 4.95 4.8 4.1 4.6 3.4 5.25 3.6 Q5.8 3.6 6.1 3.2 L6.45 2.4 Q6.45 1.85 6.1 1.5 5.8 1.2 5.25 1.2 L4.95 1.25 5.1 0.6 4.95 0.0 Q13.8 1.35 22.7 0.0 L22.5 0.65 22.7 1.3 22.35 1.25 Q21.85 1.25 21.55 1.55 21.15 1.9 21.15 2.45 21.15 2.95 21.55 3.25 21.85 3.65 22.35 3.65 L23.05 3.45 Q22.8 3.75 22.8 4.15 22.8 4.7 23.2 5.0 23.5 5.35 24.0 5.35 24.55 5.35 24.9 5.0 L25.2 4.15 25.15 3.85 25.3 3.95 Q25.6 4.3 26.1 4.3 M17.8 1.85 L17.6 1.5 Q17.25 1.2 16.7 1.2 16.2 1.2 15.9 1.5 15.5 1.85 15.5 2.4 L15.7 3.05 15.35 3.0 Q14.85 3.0 14.55 3.3 14.15 3.65 14.15 4.2 14.15 4.7 14.55 5.0 14.85 5.4 15.35 5.4 L16.05 5.2 Q15.8 5.5 15.8 5.9 L15.9 6.35 16.2 6.75 Q16.5 7.1 17.0 7.1 17.55 7.1 17.9 6.75 L18.15 6.35 18.2 5.9 18.15 5.6 18.3 5.7 Q18.6 6.05 19.1 6.05 L20.0 5.7 20.3 4.85 20.0 3.95 19.35 3.65 19.55 3.5 19.85 2.7 19.55 1.8 Q19.2 1.5 18.65 1.5 18.15 1.5 17.85 1.8 L17.8 1.85 M11.75 1.45 Q11.45 1.15 10.9 1.15 10.4 1.15 10.0 1.45 L9.85 1.8 9.8 1.75 Q9.5 1.45 8.95 1.45 8.45 1.45 8.05 1.75 7.75 2.1 7.75 2.65 7.75 3.15 8.05 3.45 L8.25 3.6 7.6 3.9 Q7.3 4.3 7.3 4.8 7.3 5.35 7.6 5.65 L8.5 6.0 9.35 5.65 9.45 5.55 9.4 5.85 9.5 6.35 9.7 6.7 10.6 7.05 Q11.15 7.05 11.45 6.7 L11.7 6.35 11.8 5.85 11.6 5.15 12.25 5.35 Q12.8 5.35 13.1 4.95 13.45 4.65 13.45 4.15 L13.1 3.25 Q12.8 2.95 12.25 2.95 L11.95 3.0 12.1 2.35 Q12.1 1.8 11.75 1.45" fill="#e31709" fill-rule="evenodd" stroke="none"/>
    </g>
    <g id="sprite8" transform="matrix(1.0, 0.0, 0.0, 1.0, 11.65, 12.35)">
      <use height="24.7" transform="matrix(1.0, 0.0, 0.0, 1.0, -11.65, -12.35)" width="23.25" xlink:href="#shape7"/>
    </g>
    <g id="shape7" transform="matrix(1.0, 0.0, 0.0, 1.0, 11.65, 12.35)">
      <path d="M-8.9 11.7 L-10.8 11.35 -11.65 11.2 -8.75 -0.45 8.6 -0.45 11.6 11.2 10.7 11.4 8.85 11.7 Q-0.05 13.05 -8.9 11.7 M5.55 -12.35 L8.6 -0.45 -8.75 -0.45 -6.95 -12.3 5.55 -12.35" fill="#b88a5c" fill-rule="evenodd" stroke="none"/>
    </g>
    <g id="sprite9" transform="matrix(1.0, 0.0, 0.0, 1.0, 12.8, 5.6)">
      <use height="11.25" transform="matrix(1.0, 0.0, 0.0, 1.0, -12.8, -5.6)" width="25.6" xlink:href="#shape8"/>
    </g>
    <g id="shape8" transform="matrix(1.0, 0.0, 0.0, 1.0, 12.8, 5.6)">
      <path d="M9.85 -3.4 L9.55 -3.45 9.7 -2.8 Q9.7 -2.4 9.5 -2.15 L10.15 -2.3 11.05 -2.0 11.05 -2.15 Q11.05 -2.65 11.45 -3.05 L11.55 -3.15 Q11.2 -3.2 11.0 -3.5 L10.75 -3.8 Q10.4 -3.4 9.85 -3.4 M3.75 -2.05 Q3.4 -1.65 2.85 -1.65 L2.55 -1.7 2.7 -1.05 Q2.7 -0.65 2.5 -0.4 L3.15 -0.55 4.05 -0.25 4.05 -0.4 Q4.05 -0.9 4.45 -1.3 L4.55 -1.4 Q4.2 -1.45 4.0 -1.75 L3.75 -2.05 M3.95 -3.4 L4.0 -3.45 4.8 -3.75 5.7 -3.45 6.0 -2.55 5.7 -1.75 5.5 -1.6 6.15 -1.3 6.45 -0.4 6.15 0.45 5.25 0.8 Q4.75 0.8 4.45 0.45 L4.3 0.35 4.35 0.65 4.3 1.1 4.05 1.5 Q3.7 1.85 3.15 1.85 2.65 1.85 2.35 1.5 L2.05 1.1 1.95 0.65 2.2 -0.05 1.5 0.15 Q1.0 0.15 0.7 -0.25 0.3 -0.55 0.3 -1.05 0.3 -1.6 0.7 -1.95 L1.5 -2.25 1.85 -2.2 1.65 -2.85 Q1.65 -3.4 2.05 -3.75 L2.85 -4.05 3.75 -3.75 3.95 -3.4 M8.85 -5.25 L10.7 -5.55 10.75 -5.5 10.95 -5.15 11.0 -5.2 Q11.25 -5.5 11.65 -5.5 L12.8 -1.05 12.25 -0.95 Q11.75 -0.95 11.45 -1.3 L11.3 -1.4 11.35 -1.1 Q11.35 -0.55 11.05 -0.25 10.7 0.1 10.15 0.1 9.65 0.1 9.35 -0.25 8.95 -0.55 8.95 -1.1 L9.2 -1.8 8.5 -1.6 Q8.0 -1.6 7.7 -2.0 7.3 -2.3 7.3 -2.8 7.3 -3.35 7.7 -3.7 L8.5 -4.0 8.85 -3.95 8.65 -4.6 8.85 -5.25 M10.65 3.2 L11.3 3.5 11.6 4.15 9.65 4.9 7.1 5.6 7.1 5.45 Q7.1 5.05 7.35 4.75 L6.65 4.95 Q6.15 4.95 5.85 4.55 5.45 4.25 5.45 3.75 5.45 3.2 5.85 2.85 6.15 2.55 6.65 2.55 L7.0 2.6 6.8 1.95 Q6.8 1.45 7.1 1.1 L7.2 1.05 Q7.5 0.75 8.0 0.75 8.55 0.75 8.9 1.05 L8.95 1.1 9.1 1.4 9.15 1.35 9.5 1.1 9.95 1.05 10.45 1.1 10.85 1.35 11.15 2.25 10.85 3.05 10.65 3.2 M9.15 3.05 L8.9 2.75 Q8.55 3.15 8.0 3.15 L7.7 3.1 7.85 3.75 7.65 4.4 8.3 4.25 Q8.85 4.25 9.2 4.55 L9.2 4.4 Q9.2 3.9 9.6 3.5 L9.7 3.4 9.15 3.05 M-11.0 -5.2 L-10.85 -5.55 -10.8 -5.6 -8.9 -5.25 -8.75 -4.65 -8.9 -4.0 -8.6 -4.05 Q-8.05 -4.05 -7.75 -3.75 -7.4 -3.4 -7.4 -2.85 -7.4 -2.35 -7.75 -2.05 -8.05 -1.65 -8.6 -1.65 L-9.25 -1.85 -9.05 -1.15 Q-9.05 -0.6 -9.4 -0.3 -9.7 0.05 -10.25 0.05 -10.75 0.05 -11.15 -0.3 L-11.45 -1.15 -11.4 -1.45 -11.5 -1.35 Q-11.8 -1.0 -12.35 -1.0 L-12.8 -1.05 -11.7 -5.55 Q-11.3 -5.5 -11.05 -5.25 L-11.0 -5.2 M-11.05 -3.55 Q-11.3 -3.25 -11.6 -3.2 L-11.5 -3.1 Q-11.15 -2.7 -11.15 -2.2 L-11.15 -2.05 -10.25 -2.35 -9.6 -2.2 -9.8 -2.85 -9.65 -3.5 -9.95 -3.45 Q-10.45 -3.45 -10.85 -3.85 L-11.05 -3.55 M-6.1 -2.6 L-5.8 -3.5 -4.9 -3.8 Q-4.35 -3.8 -4.05 -3.5 L-4.0 -3.45 -3.85 -3.8 -2.95 -4.1 Q-2.4 -4.1 -2.1 -3.8 -1.75 -3.45 -1.75 -2.9 -1.75 -2.55 -1.9 -2.25 L-1.6 -2.3 -0.75 -2.0 Q-0.4 -1.65 -0.4 -1.1 -0.4 -0.6 -0.75 -0.3 -1.05 0.1 -1.6 0.1 L-2.25 -0.1 -2.05 0.6 -2.15 1.1 -2.4 1.45 Q-2.7 1.8 -3.25 1.8 -3.75 1.8 -4.15 1.45 L-4.35 1.1 -4.45 0.6 -4.4 0.3 -4.5 0.4 Q-4.8 0.75 -5.35 0.75 L-6.25 0.4 -6.55 -0.45 -6.25 -1.35 -5.6 -1.65 -5.8 -1.8 -6.1 -2.6 M-2.95 -1.7 Q-3.45 -1.7 -3.85 -2.1 L-4.05 -1.8 Q-4.3 -1.5 -4.6 -1.45 L-4.5 -1.35 Q-4.15 -0.95 -4.15 -0.45 L-4.15 -0.3 -3.25 -0.6 -2.6 -0.45 -2.8 -1.1 -2.65 -1.75 -2.95 -1.7 M-5.9 2.8 Q-5.55 3.15 -5.55 3.7 -5.55 4.2 -5.9 4.5 -6.2 4.9 -6.75 4.9 L-7.4 4.7 -7.2 5.4 -7.2 5.65 -9.65 5.0 -11.7 4.25 -11.4 3.45 -10.75 3.15 -10.95 3.0 -11.25 2.2 -10.95 1.3 -10.65 1.1 -10.05 1.0 -9.45 1.1 -9.2 1.3 -9.15 1.35 -9.05 1.1 -9.0 1.0 Q-8.6 0.7 -8.1 0.7 -7.55 0.7 -7.25 1.0 L-7.15 1.1 Q-6.9 1.45 -6.9 1.9 L-7.05 2.55 -6.75 2.5 Q-6.2 2.5 -5.9 2.8 M-9.2 3.0 L-9.75 3.35 -9.65 3.45 Q-9.3 3.85 -9.3 4.35 L-9.3 4.5 Q-8.9 4.2 -8.4 4.2 L-7.75 4.35 -7.95 3.7 -7.8 3.05 -8.1 3.1 Q-8.6 3.1 -9.0 2.7 L-9.2 3.0" fill="#ffffff" fill-rule="evenodd" stroke="none"/>
    </g>
    <g id="sprite10" transform="matrix(1.0, 0.0, 0.0, 1.0, 11.6, 4.2)">
      <use height="8.4" transform="matrix(1.0, 0.0, 0.0, 1.0, -11.6, -4.2)" width="23.15" xlink:href="#shape9"/>
    </g>
    <g id="shape9" transform="matrix(1.0, 0.0, 0.0, 1.0, 11.6, 4.2)">
      <path d="M4.55 -1.75 L4.45 -1.65 Q4.05 -1.25 4.05 -0.75 L4.05 -0.6 3.15 -0.9 2.5 -0.75 Q2.7 -1.0 2.7 -1.4 L2.55 -2.05 2.85 -2.0 Q3.4 -2.0 3.75 -2.4 L4.0 -2.1 Q4.2 -1.8 4.55 -1.75 M9.7 -3.15 L9.55 -3.8 9.85 -3.75 Q10.4 -3.75 10.75 -4.15 L11.0 -3.85 Q11.2 -3.55 11.55 -3.5 L11.45 -3.4 Q11.05 -3.0 11.05 -2.5 L11.05 -2.35 10.15 -2.65 9.5 -2.5 Q9.7 -2.75 9.7 -3.15 M9.15 2.7 L9.7 3.05 9.6 3.15 Q9.2 3.55 9.2 4.05 L9.2 4.2 Q8.85 3.9 8.3 3.9 L7.65 4.05 7.85 3.4 7.7 2.75 8.0 2.8 Q8.55 2.8 8.9 2.4 L9.15 2.7 M-9.2 2.65 L-9.0 2.35 Q-8.6 2.75 -8.1 2.75 L-7.8 2.7 -7.95 3.35 -7.75 4.0 -8.4 3.85 Q-8.9 3.85 -9.3 4.15 L-9.3 4.0 Q-9.3 3.5 -9.65 3.1 L-9.75 3.0 -9.2 2.65 M-2.95 -2.05 L-2.65 -2.1 -2.8 -1.45 -2.6 -0.8 -3.25 -0.95 -4.15 -0.65 -4.15 -0.8 Q-4.15 -1.3 -4.5 -1.7 L-4.6 -1.8 Q-4.3 -1.85 -4.05 -2.15 L-3.85 -2.45 Q-3.45 -2.05 -2.95 -2.05 M-11.05 -3.9 L-10.85 -4.2 Q-10.45 -3.8 -9.95 -3.8 L-9.65 -3.85 -9.8 -3.2 -9.6 -2.55 -10.25 -2.7 -11.15 -2.4 -11.15 -2.55 Q-11.15 -3.05 -11.5 -3.45 L-11.6 -3.55 Q-11.3 -3.6 -11.05 -3.9" fill="#0099cc" fill-rule="evenodd" stroke="none"/>
    </g>
    <g id="shape10" transform="matrix(1.0, 0.0, 0.0, 1.0, 3.1, 2.95)">
      <path d="M2.75 -0.8 L3.05 0.05 2.75 0.8 2.7 0.85 Q2.4 1.25 1.85 1.25 L1.2 1.05 1.4 1.75 1.3 2.25 1.05 2.6 0.2 2.95 Q-0.3 2.95 -0.7 2.6 L-0.9 2.25 -1.0 1.75 -0.95 1.45 -1.05 1.55 Q-1.35 1.9 -1.9 1.9 L-2.8 1.55 -3.1 0.7 -2.8 -0.2 -2.15 -0.5 -2.35 -0.65 -2.65 -1.45 -2.35 -2.35 -1.45 -2.65 -0.6 -2.35 -0.55 -2.3 -0.4 -2.65 0.5 -2.95 1.35 -2.65 Q1.7 -2.3 1.7 -1.75 L1.55 -1.1 1.85 -1.15 2.7 -0.85 2.75 -0.8 M0.5 -0.55 Q0.0 -0.55 -0.4 -0.95 L-0.6 -0.65 -1.15 -0.3 -1.05 -0.2 Q-0.7 0.2 -0.7 0.7 L-0.7 0.85 0.2 0.55 0.85 0.7 0.65 0.05 0.8 -0.6 0.5 -0.55" fill="#ffffff" fill-rule="evenodd" stroke="none"/>
    </g>
    <g id="sprite11" transform="matrix(1.0, 0.0, 0.0, 1.0, 0.0, 0.0)">
      <use height="1.8" transform="matrix(1.0, 0.0, 0.0, 1.0, 0.0, 0.0)" width="2.0" xlink:href="#shape11"/>
    </g>
    <g id="shape11" transform="matrix(1.0, 0.0, 0.0, 1.0, 0.0, 0.0)">
      <path d="M1.95 0.35 L1.8 1.0 2.0 1.65 1.35 1.5 Q0.85 1.5 0.45 1.8 L0.45 1.65 Q0.45 1.15 0.1 0.75 L0.0 0.65 0.55 0.3 0.75 0.0 Q1.15 0.4 1.65 0.4 L1.95 0.35" fill="#0099cc" fill-rule="evenodd" stroke="none"/>
    </g>
    <g id="shape12" transform="matrix(1.0, 0.0, 0.0, 1.0, 14.75, 21.0)">
      <path d="M11.55 3.55 L10.7 3.7 8.85 4.0 Q-0.05 5.35 -8.9 4.0 L-10.8 3.65 -11.65 3.5 -13.85 12.35 -11.7 13.5 -9.65 14.25 -6.95 15.05 0.0 15.45 7.1 14.85 9.65 14.15 11.6 13.4 13.85 12.15 11.55 3.55 5.2 -20.05 -5.95 -20.1 -11.65 3.5" fill="none" stroke="#000000" stroke-linecap="round" stroke-linejoin="round" stroke-width="1.8"/>
    </g>
    <g id="sprite12" transform="matrix(1.0, 0.0, 0.0, 1.0, 8.85, 8.45)">
      <use height="17.25" transform="matrix(1.0, 0.0, 0.0, 1.0, -8.85, -8.45)" width="18.75" xlink:href="#shape13"/>
    </g>
    <g id="shape13" transform="matrix(1.0, 0.0, 0.0, 1.0, 8.85, 8.45)">
      <path d="M3.0 -7.25 Q5.1 -6.7 6.8 -5.1 8.7 -3.25 9.1 -0.8 L9.15 -0.4 9.15 0.35 Q9.15 1.9 8.6 3.3 8.0 4.65 6.8 5.8 4.4 8.05 1.05 8.05 L-1.05 7.8 -1.9 7.5 Q-4.05 7.05 -5.75 5.45 -7.65 3.6 -8.0 1.15 L-8.1 0.0 Q-8.1 -3.2 -5.75 -5.45 -3.35 -7.7 0.05 -7.7 L2.15 -7.45 3.0 -7.25 Z" fill="none" stroke="#ffffff" stroke-linecap="round" stroke-linejoin="round" stroke-width="1.5"/>
    </g>
    <g id="sprite13" transform="matrix(1.0, 0.0, 0.0, 1.0, 38.5, 45.5)">
      <use height="43.25" transform="matrix(-0.9346, -0.3524, -0.3524, 0.9346, 25.5384, -1.158)" width="20.9" xlink:href="#sprite14"/>
      <use height="51.45" transform="matrix(-0.9346, -0.3524, -0.3524, 0.9346, 38.2246, -2.7573)" width="44.95" xlink:href="#sprite16"/>
      <use height="2.5" transform="matrix(-0.9346, -0.3524, -0.3524, 0.9346, 19.1003, 32.0789)" width="2.5" xlink:href="#shape18"/>
      <use height="4.5" transform="matrix(0.9346, 0.3524, -0.3524, 0.9346, 9.9225, 18.7927)" width="16.2" xlink:href="#shape19"/>
      <use height="25.85" transform="matrix(-0.9346, -0.3524, -0.3524, 0.9346, 38.4457, -2.4919)" width="45.0" xlink:href="#sprite18"/>
      <use height="17.7" transform="matrix(0.6085, 0.7889, 0.7889, -0.6085, -25.0068, -34.708)" width="42.25" xlink:href="#sprite20"/>
      <use height="43.25" transform="matrix(-0.7404, -0.6632, -0.6632, 0.7404, 13.7008, 1.7889)" width="20.9" xlink:href="#sprite14"/>
      <use height="17.7" transform="matrix(0.9128, 0.4022, 0.4022, -0.9128, -28.4503, -14.3424)" width="42.25" xlink:href="#sprite20"/>
      <use height="43.25" transform="matrix(-0.3775, -0.9181, -0.9181, 0.3775, 9.1197, -1.9982)" width="20.9" xlink:href="#sprite14"/>
      <use height="51.25" transform="matrix(-0.9877, 0.1532, 0.1532, 0.9877, 27.8196, -41.1474)" width="66.25" xlink:href="#sprite22"/>
      <use height="48.55" transform="matrix(-0.8921, -0.4486, -0.4486, 0.8921, 25.4147, -4.026)" width="29.9" xlink:href="#sprite24"/>
      <use height="43.25" transform="matrix(-0.9903, -0.1114, -0.1114, 0.9903, 28.5072, -3.9431)" width="20.9" xlink:href="#sprite14"/>
    </g>
    <g id="sprite14" transform="matrix(1.0, 0.0, 0.0, 1.0, 10.3, 21.6)">
      <use height="41.45" transform="matrix(1.0, 0.0, 0.0, 1.0, -9.4, -20.7)" width="19.1" xlink:href="#sprite15"/>
      <use height="43.25" transform="matrix(1.0, 0.0, 0.0, 1.0, -10.3, -21.6)" width="20.9" xlink:href="#shape15"/>
    </g>
    <g id="sprite15" transform="matrix(1.0, 0.0, 0.0, 1.0, 9.55, 20.7)">
      <use height="41.45" transform="matrix(1.0, 0.0, 0.0, 1.0, -9.55, -20.7)" width="19.1" xlink:href="#shape14"/>
    </g>
    <g id="shape14" transform="matrix(1.0, 0.0, 0.0, 1.0, 9.55, 20.7)">
      <path d="M-9.55 -16.75 Q-9.8 -21.9 -5.8 -20.3 1.4 -17.55 4.95 -4.65 L8.95 10.35 Q10.8 17.65 7.15 19.95 0.45 24.3 -3.6 5.45 L-9.55 -16.75" fill="#ff9900" fill-rule="evenodd" stroke="none"/>
    </g>
    <g id="shape15" transform="matrix(1.0, 0.0, 0.0, 1.0, 10.3, 21.6)">
      <path d="M-9.4 -16.75 L-3.45 5.45 Q0.6 24.3 7.3 19.95 10.95 17.65 9.1 10.35 L5.1 -4.65 Q1.55 -17.55 -5.65 -20.3 -9.65 -21.9 -9.4 -16.75 Z" fill="none" stroke="#000000" stroke-linecap="round" stroke-linejoin="round" stroke-width="1.8"/>
    </g>
    <g id="sprite16" transform="matrix(1.0, 0.0, 0.0, 1.0, 22.45, 24.95)">
      <use height="49.65" transform="matrix(1.0, 0.0, 0.0, 1.0, -21.55, -24.05)" width="43.15" xlink:href="#sprite17"/>
      <use height="51.45" transform="matrix(1.0, 0.0, 0.0, 1.0, -22.45, -24.95)" width="44.95" xlink:href="#shape17"/>
    </g>
    <g id="sprite17" transform="matrix(1.0, 0.0, 0.0, 1.0, 21.55, 24.8)">
      <use height="49.65" transform="matrix(1.0, 0.0, 0.0, 1.0, -21.55, -24.8)" width="43.15" xlink:href="#shape16"/>
    </g>
    <g id="shape16" transform="matrix(1.0, 0.0, 0.0, 1.0, 21.55, 24.8)">
      <path d="M-10.95 -23.3 Q5.75 -28.5 21.3 -15.85 23.2 15.3 13.75 20.4 -1.4 28.4 -15.35 21.95 -22.75 16.9 -18.85 8.9 -26.9 -13.15 -10.95 -23.3" fill="#b88a5c" fill-rule="evenodd" stroke="none"/>
    </g>
    <g id="shape17" transform="matrix(1.0, 0.0, 0.0, 1.0, 22.45, 24.95)">
      <path d="M-10.95 -22.55 Q-26.9 -12.4 -18.85 9.65 -22.75 17.65 -15.35 22.7 -1.4 29.15 13.75 21.15 23.2 16.05 21.3 -15.1 5.75 -27.75 -10.95 -22.55 Z" fill="none" stroke="#000000" stroke-linecap="round" stroke-linejoin="round" stroke-width="1.8"/>
    </g>
    <g id="shape18" transform="matrix(1.0, 0.0, 0.0, 1.0, -0.15, 1.25)">
      <path d="M1.4 -1.25 L2.25 -0.9 Q2.65 -0.5 2.65 0.0 2.65 0.5 2.25 0.85 1.9 1.25 1.4 1.25 0.9 1.25 0.5 0.85 0.15 0.5 0.15 0.0 0.15 -0.5 0.5 -0.9 0.9 -1.25 1.4 -1.25" fill="#ffffff" fill-rule="evenodd" stroke="none"/>
    </g>
    <g id="shape19" transform="matrix(1.0, 0.0, 0.0, 1.0, 8.1, 2.25)">
      <path d="M7.35 1.5 L-7.35 -1.5" fill="none" stroke="#000000" stroke-linecap="round" stroke-linejoin="round" stroke-width="1.5"/>
    </g>
    <g id="sprite18" transform="matrix(1.0, 0.0, 0.0, 1.0, 22.45, 12.95)">
      <use height="24.05" transform="matrix(1.0, 0.0, 0.0, 1.0, -21.55, -12.05)" width="43.2" xlink:href="#sprite19"/>
      <use height="25.85" transform="matrix(1.0, 0.0, 0.0, 1.0, -22.45, -12.95)" width="45.0" xlink:href="#shape21"/>
    </g>
    <g id="sprite19" transform="matrix(1.0, 0.0, 0.0, 1.0, 21.6, 12.05)">
      <use height="24.05" transform="matrix(1.0, 0.0, 0.0, 1.0, -21.6, -12.05)" width="43.2" xlink:href="#shape20"/>
    </g>
    <g id="shape20" transform="matrix(1.0, 0.0, 0.0, 1.0, 21.6, 12.05)">
      <path d="M21.25 -2.8 Q21.75 5.5 21.5 12.0 L-21.45 12.0 Q-22.95 -2.55 -11.0 -10.45 5.7 -15.85 21.25 -2.8" fill="#0099cc" fill-rule="evenodd" stroke="none"/>
    </g>
    <g id="shape21" transform="matrix(1.0, 0.0, 0.0, 1.0, 22.45, 12.95)">
      <path d="M21.3 -2.8 Q5.75 -15.85 -10.95 -10.45 -22.9 -2.55 -21.4 12.0 L21.55 12.0 Q21.8 5.5 21.3 -2.8 Z" fill="none" stroke="#000000" stroke-linecap="round" stroke-linejoin="round" stroke-width="1.8"/>
    </g>
    <g id="sprite20" transform="matrix(1.0, 0.0, 0.0, 1.0, 17.85, 7.6)">
      <use height="15.9" transform="matrix(1.0, 0.0, 0.0, 1.0, -16.95, -6.7)" width="40.45" xlink:href="#sprite21"/>
      <use height="17.7" transform="matrix(1.0, 0.0, 0.0, 1.0, -17.85, -7.6)" width="42.25" xlink:href="#shape23"/>
    </g>
    <g id="sprite21" transform="matrix(1.0, 0.0, 0.0, 1.0, 20.2, 7.95)">
      <use height="15.9" transform="matrix(1.0, 0.0, 0.0, 1.0, -20.2, -7.95)" width="40.45" xlink:href="#shape22"/>
    </g>
    <g id="shape22" transform="matrix(1.0, 0.0, 0.0, 1.0, 20.2, 7.95)">
      <path d="M-13.7 -6.65 Q2.55 -10.9 14.75 -1.2 22.05 2.9 19.65 7.5 16.85 9.4 6.9 3.7 0.3 0.4 -5.95 1.95 -10.4 3.45 -13.45 3.55 -20.85 3.75 -20.15 -1.2 -19.55 -5.15 -13.7 -6.65" fill="#ff9900" fill-rule="evenodd" stroke="none"/>
    </g>
    <g id="shape23" transform="matrix(1.0, 0.0, 0.0, 1.0, 17.85, 7.6)">
      <path d="M-16.9 0.05 Q-16.3 -3.9 -10.45 -5.4 5.8 -9.65 18.0 0.05 25.3 4.15 22.9 8.75 20.1 10.65 10.15 4.95 3.55 1.65 -2.7 3.2 -7.15 4.7 -10.2 4.8 -17.6 5.0 -16.9 0.05 Z" fill="none" stroke="#000000" stroke-linecap="round" stroke-linejoin="round" stroke-width="1.8"/>
    </g>
    <g id="sprite22" transform="matrix(1.0, 0.0, 0.0, 1.0, 32.8, 38.7)">
      <use height="49.45" transform="matrix(1.0, 0.0, 0.0, 1.0, -31.9, -37.8)" width="64.45" xlink:href="#sprite23"/>
      <use height="51.25" transform="matrix(1.0, 0.0, 0.0, 1.0, -32.8, -38.7)" width="66.25" xlink:href="#shape25"/>
    </g>
    <g id="sprite23" transform="matrix(1.0, 0.0, 0.0, 1.0, 0.0, 0.0)">
      <use height="49.45" transform="matrix(1.0, 0.0, 0.0, 1.0, 0.0, 0.0)" width="64.45" xlink:href="#shape24"/>
    </g>
    <g id="shape24" transform="matrix(1.0, 0.0, 0.0, 1.0, 0.0, 0.0)">
      <path d="M44.65 30.35 Q53.85 33.9 61.05 40.55 65.65 44.35 64.0 48.2 60.75 51.7 52.75 45.3 47.05 41.05 27.8 34.45 L27.45 34.3 Q22.6 32.45 15.15 32.65 L14.95 32.45 7.0 40.35 Q0.4 37.5 3.2 32.2 1.45 30.45 0.9 28.1 -2.1 6.4 4.85 1.2 6.8 0.0 8.55 0.0 10.9 0.45 10.5 2.75 6.05 18.55 9.15 31.15 L9.25 31.45 9.7 31.3 9.7 31.2 Q10.4 10.2 29.75 1.85 32.55 0.9 33.95 3.05 35.7 5.55 33.05 8.05 L23.75 16.95 Q18.3 21.9 13.55 28.05 L13.6 28.05 Q21.95 23.05 44.65 30.35" fill="#ff9900" fill-rule="evenodd" stroke="none"/>
    </g>
    <g id="shape25" transform="matrix(1.0, 0.0, 0.0, 1.0, 32.8, 38.7)">
      <path d="M-16.75 -5.15 Q-9.3 -5.35 -4.45 -3.5 L-4.1 -3.35 Q15.15 3.25 20.85 7.5 28.85 13.9 32.1 10.4 33.75 6.55 29.15 2.75 21.95 -3.9 12.75 -7.45 -9.95 -14.75 -18.3 -9.75 L-18.35 -9.75 Q-13.6 -15.9 -8.15 -20.85 L1.15 -29.75 Q3.8 -32.25 2.05 -34.75 0.65 -36.9 -2.15 -35.95 -21.5 -27.6 -22.2 -6.6 M-27.05 -36.6 Q-34.0 -31.4 -31.0 -9.7 -30.45 -7.35 -28.7 -5.6 -26.3 -3.15 -21.55 -1.85 L-22.75 -6.65 Q-25.85 -19.25 -21.4 -35.05 -21.0 -37.35 -23.35 -37.8 -25.1 -37.8 -27.05 -36.6 M-24.9 2.55 Q-31.5 -0.3 -28.7 -5.6" fill="none" stroke="#000000" stroke-linecap="round" stroke-linejoin="round" stroke-width="1.8"/>
    </g>
    <g id="sprite24" transform="matrix(1.0, 0.0, 0.0, 1.0, 14.95, 24.25)">
      <use height="46.75" transform="matrix(1.0, 0.0, 0.0, 1.0, -14.05, -23.35)" width="28.1" xlink:href="#sprite25"/>
      <use height="48.55" transform="matrix(1.0, 0.0, 0.0, 1.0, -14.95, -24.25)" width="29.9" xlink:href="#shape27"/>
    </g>
    <g id="sprite25" transform="matrix(1.0, 0.0, 0.0, 1.0, 14.05, 23.35)">
      <use height="46.75" transform="matrix(1.0, 0.0, 0.0, 1.0, -14.05, -23.35)" width="28.1" xlink:href="#shape26"/>
    </g>
    <g id="shape26" transform="matrix(1.0, 0.0, 0.0, 1.0, 14.05, 23.35)">
      <path d="M-6.4 -22.85 Q3.55 -18.7 13.5 13.65 15.8 21.75 8.35 23.2 2.25 24.5 0.35 16.3 L-14.05 -19.6 Q-12.1 -24.7 -6.4 -22.85" fill="#ff9900" fill-rule="evenodd" stroke="none"/>
    </g>
    <g id="shape27" transform="matrix(1.0, 0.0, 0.0, 1.0, 14.95, 24.25)">
      <path d="M-6.4 -22.85 Q3.55 -18.7 13.5 13.65 15.8 21.75 8.35 23.2 2.25 24.5 0.35 16.3 L-14.05 -19.6 Q-12.1 -24.7 -6.4 -22.85 Z" fill="none" stroke="#000000" stroke-linecap="round" stroke-linejoin="round" stroke-width="1.8"/>
    </g>
    <g id="shape28" transform="matrix(1.0, 0.0, 0.0, 1.0, -24.8, 80.9)">
      <path d="M45.15 -71.0 Q45.95 -69.9 47.05 -69.0 48.15 -68.1 49.3 -67.7 L51.7 -67.4 Q54.7 -67.9 58.1 -80.9 57.35 -67.5 60.1 -66.15 62.8 -64.8 75.1 -74.35 64.3 -63.85 65.9 -60.05 67.75 -55.6 75.35 -57.55 69.8 -54.05 69.3 -51.35 68.45 -47.2 76.0 -42.85 68.3 -46.5 64.8 -43.55 60.8 -40.15 64.0 -30.85 60.25 -41.1 56.2 -40.25 54.2 -39.85 53.1 -35.75 52.7 -34.25 52.45 -32.35 L52.25 -32.4 51.3 -36.05 Q50.6 -38.05 49.7 -39.45 48.75 -41.0 47.75 -41.5 L45.15 -41.6 Q43.65 -41.35 41.85 -40.45 L38.75 -38.5 38.6 -38.65 40.55 -41.7 Q41.5 -43.5 41.85 -44.9 42.2 -46.55 41.75 -47.45 39.75 -51.1 24.8 -49.1 38.9 -51.35 40.35 -55.85 40.65 -56.9 40.05 -58.2 39.5 -59.4 38.35 -60.7 L36.0 -62.85 36.05 -63.05 39.05 -62.35 41.9 -62.45 Q43.35 -62.7 44.1 -63.45 44.9 -64.25 45.25 -65.5 45.5 -66.7 45.4 -68.15 L44.9 -70.85 45.15 -71.0" fill="#ff3300" fill-opacity="0.62352943" fill-rule="evenodd" stroke="none"/>
    </g>
    <g id="sprite26" transform="matrix(1.0, 0.0, 0.0, 1.0, 6.95, 9.7)">
      <use height="17.65" transform="matrix(1.068, 0.0, 0.0, 1.068, -6.0638, -8.7983)" width="10.7" xlink:href="#sprite27"/>
      <use height="20.65" transform="matrix(1.0, 0.0, 0.0, 1.0, -6.95, -9.7)" width="13.2" xlink:href="#shape30"/>
    </g>
    <g id="sprite27" transform="matrix(1.0, 0.0, 0.0, 1.0, 5.35, 8.8)">
      <use height="17.65" transform="matrix(1.0, 0.0, 0.0, 1.0, -5.35, -8.8)" width="10.7" xlink:href="#shape29"/>
    </g>
    <g id="shape29" transform="matrix(1.0, 0.0, 0.0, 1.0, 5.35, 8.8)">
      <path d="M4.1 -8.65 Q5.05 -8.25 5.3 -7.05 5.55 -5.85 3.65 0.55 L1.75 6.3 Q1.15 8.0 -0.1 8.55 -1.55 9.15 -3.05 8.55 -4.55 7.9 -5.15 6.5 -5.65 5.15 -4.85 3.55 L-2.1 -1.85 Q1.05 -7.75 2.1 -8.4 3.15 -9.05 4.1 -8.65" fill="#b88a5c" fill-rule="evenodd" stroke="none"/>
    </g>
    <g id="shape30" transform="matrix(1.0, 0.0, 0.0, 1.0, 6.95, 9.7)">
      <path d="M1.9 -8.35 Q0.8 -7.65 -2.6 -1.35 L-4.9 3.1 Q-2.1 5.7 2.0 6.0 L3.55 1.2 Q5.6 -5.65 5.3 -6.95 5.05 -8.25 4.05 -8.65 3.0 -9.1 1.9 -8.35 M-4.9 3.1 L-5.55 4.4 Q-6.4 6.15 -5.85 7.55 -5.2 9.05 -3.6 9.7 L-0.45 9.75 Q0.9 9.15 1.55 7.35 L2.0 6.0" fill="none" stroke="#000000" stroke-linecap="round" stroke-linejoin="round" stroke-width="1.8"/>
    </g>
    <g id="sprite28" transform="matrix(1.0, 0.0, 0.0, 1.0, 18.05, 22.2)">
      <use height="31.95" transform="matrix(1.0, 0.0, 0.0, 1.0, -17.3, -21.45)" width="32.95" xlink:href="#sprite29"/>
      <use height="33.45" transform="matrix(1.0, 0.0, 0.0, 1.0, -18.05, -22.2)" width="34.45" xlink:href="#shape32"/>
    </g>
    <g id="sprite29" transform="matrix(1.0, 0.0, 0.0, 1.0, 0.0, 0.0)">
      <use height="31.95" transform="matrix(1.0, 0.0, 0.0, 1.0, 0.0, 0.0)" width="32.95" xlink:href="#shape31"/>
    </g>
    <g id="shape31" transform="matrix(1.0, 0.0, 0.0, 1.0, 0.0, 0.0)">
      <path d="M31.35 11.0 Q31.55 12.15 31.25 14.0 30.7 17.45 28.1 23.25 26.7 25.5 25.0 27.15 20.3 31.8 13.45 31.95 -1.0 28.75 0.1 13.6 1.6 8.6 6.2 3.35 9.65 -0.45 15.8 1.45 L16.3 1.6 Q19.4 -1.65 24.85 1.75 29.7 5.5 31.35 11.0 M27.3 25.5 Q30.25 19.85 31.0 16.45 34.7 20.25 31.4 25.35 28.0 30.5 23.95 29.25 24.45 27.95 27.3 25.5" fill="#ff0000" fill-rule="evenodd" stroke="none"/>
    </g>
    <g id="shape32" transform="matrix(1.0, 0.0, 0.0, 1.0, 18.05, 22.2)">
      <path d="M10.65 -9.45 Q12.35 -11.6 4.65 -17.15 1.6 -19.0 -1.0 -19.85 L-1.5 -20.0 Q-7.65 -21.9 -11.1 -18.1 -15.7 -12.85 -17.2 -7.85 -18.3 7.3 -3.85 10.5 3.0 10.35 7.7 5.7 9.4 4.05 10.8 1.8 13.4 -4.0 13.95 -7.45 14.25 -9.3 14.05 -10.45 12.4 -15.95 7.55 -19.7 2.1 -23.1 -1.0 -19.85 M13.7 -5.0 Q17.4 -1.2 14.1 3.9 10.7 9.05 6.65 7.8" fill="none" stroke="#000000" stroke-linecap="round" stroke-linejoin="round" stroke-width="1.5"/>
    </g>
  </defs>
</svg>
