<?xml version="1.0" encoding="UTF-8" standalone="no"?>
<svg xmlns:xlink="http://www.w3.org/1999/xlink" height="106.6px" width="76.45px" xmlns="http://www.w3.org/2000/svg">
  <g transform="matrix(1.0, 0.0, 0.0, 1.0, 43.9, 105.25)">
    <use height="20.35" id="mc22170" transform="matrix(0.9596, -0.2786, 0.2786, 0.9596, -9.0648, -27.8792)" width="13.05" xlink:href="#sprite0"/>
    <use height="22.4" id="mc19170" transform="matrix(0.9659, -0.2588, 0.2588, 0.9659, -9.4651, -20.293)" width="12.95" xlink:href="#sprite2"/>
    <use height="22.4" id="mc18170" transform="matrix(0.9659, -0.2588, 0.2588, 0.9659, -9.4651, -20.293)" width="12.95" xlink:href="#sprite2"/>
    <use height="30.5" id="mc17170" transform="matrix(1.0, 0.0, 0.0, 1.0, -13.5, -33.8)" width="24.15" xlink:href="#sprite4"/>
    <use height="37.2" id="mc16170" transform="matrix(0.9958, 0.0878, -0.0878, 0.9958, -10.7182, -48.9457)" width="11.35" xlink:href="#sprite8"/>
    <use height="20.35" id="mc15210" transform="matrix(0.4696, 0.8768, -0.8768, 0.4696, -4.9536, -34.3657)" width="13.05" xlink:href="#sprite0"/>
    <use height="55.5" id="mc14210" transform="matrix(0.9954, -0.0869, 0.0869, 0.9954, -21.752, -80.5935)" width="49.15" xlink:href="#sprite12"/>
    <use height="3.1" id="mc13210" transform="matrix(0.9463, 0.3174, -0.3174, 0.9463, -13.0911, -58.1397)" width="11.75" xlink:href="#sprite14"/>
    <use height="46.65" id="mc12210" transform="matrix(0.9954, -0.0869, 0.0869, 0.9954, -18.9481, -81.2832)" width="47.65" xlink:href="#sprite15"/>
    <use height="12.7" id="mc11210" transform="matrix(0.939, -0.3415, 0.3415, 0.939, 10.1684, -53.0941)" width="12.7" xlink:href="#sprite17"/>
    <use height="43.9" id="mc10210" transform="matrix(-0.9986, 0.0393, 0.0393, 0.9986, 23.0235, -49.5327)" width="6.9" xlink:href="#sprite19"/>
    <use height="9.7" id="mc9210" transform="matrix(0.9954, -0.0869, 0.0869, 0.9954, -13.2775, -52.2774)" width="10.45" xlink:href="#sprite21"/>
    <use height="2.75" id="mc8210" transform="matrix(0.1383, 0.9866, -0.9866, 0.1383, -6.1759, -26.1721)" width="4.5" xlink:href="#sprite24"/>
    <use height="6.95" id="mc7210" transform="matrix(-0.9857, 0.1655, 0.1655, 0.9857, 3.8845, -38.0925)" width="13.25" xlink:href="#sprite25"/>
    <use height="36.85" transform="matrix(-0.9404, 0.3082, 0.3082, 0.9404, -20.252, -49.9498)" width="12.45" xlink:href="#shape25"/>
    <use height="11.0" id="mc2210" transform="matrix(0.6843, 0.4999, -0.4999, 0.6843, -19.0343, -29.3431)" width="11.0" xlink:href="#sprite26"/>
    <use height="13.8" id="hide_hat8" transform="matrix(0.9966, 0.0792, -0.0792, 0.9966, -18.3915, -72.7761)" width="17.15" xlink:href="#sprite28"/>
    <use height="0.0" id="hat" transform="matrix(1.0, 0.0, 0.0, 1.0, -43.9, -105.25)" width="0.0" xlink:href="#sprite29"/>
  </g>
  <defs>
    <g id="sprite0" transform="matrix(1.0, 0.0, 0.0, 1.0, 6.5, 10.15)">
      <use height="17.65" id="mc100" transform="matrix(1.05, 0.0, 0.0, 1.05, -5.6174, -9.2399)" width="10.7" xlink:href="#sprite1"/>
      <use height="20.35" transform="matrix(1.0, 0.0, 0.0, 1.0, -6.5, -10.15)" width="13.05" xlink:href="#shape1"/>
    </g>
    <g id="sprite1" transform="matrix(1.0, 0.0, 0.0, 1.0, 5.35, 8.8)">
      <use height="17.65" transform="matrix(1.0, 0.0, 0.0, 1.0, -5.35, -8.8)" width="10.7" xlink:href="#shape0"/>
    </g>
    <g id="shape0" transform="matrix(1.0, 0.0, 0.0, 1.0, 5.35, 8.8)">
      <path d="M4.1 -8.65 Q5.05 -8.25 5.3 -7.05 5.55 -5.85 3.65 0.55 L1.75 6.3 Q1.15 8.0 -0.1 8.55 -1.55 9.15 -3.05 8.55 -4.55 7.9 -5.15 6.5 -5.65 5.15 -4.85 3.55 L-2.1 -1.85 Q1.05 -7.75 2.1 -8.4 3.15 -9.05 4.1 -8.65" fill="#a17850" fill-rule="evenodd" stroke="none"/>
    </g>
    <g id="shape1" transform="matrix(1.0, 0.0, 0.0, 1.0, 6.5, 10.15)">
      <path d="M4.3 -9.05 Q3.3 -9.5 2.2 -8.8 1.1 -8.15 -2.2 -1.95 L-4.5 2.5 Q-1.75 5.0 2.3 5.3 L3.85 0.6 Q5.85 -6.15 5.6 -7.4 5.3 -8.65 4.3 -9.05 M-4.5 2.5 L-5.1 3.75 Q-5.95 5.45 -5.4 6.8 -4.75 8.3 -3.2 8.95 L-0.1 9.0 Q1.25 8.4 1.85 6.65 L2.3 5.3" fill="none" stroke="#000000" stroke-linecap="round" stroke-linejoin="round" stroke-width="1.8"/>
    </g>
    <g id="sprite2" transform="matrix(1.0, 0.0, 0.0, 1.0, 6.1, 11.1)">
      <use height="20.6" id="mc100" transform="matrix(1.0, 0.0, 0.0, 1.0, -5.2, -10.2)" width="11.15" xlink:href="#sprite3"/>
      <use height="22.4" transform="matrix(1.0, 0.0, 0.0, 1.0, -6.1, -11.1)" width="12.95" xlink:href="#shape3"/>
    </g>
    <g id="sprite3" transform="matrix(1.0, 0.0, 0.0, 1.0, 5.55, 10.3)">
      <use height="20.6" transform="matrix(1.0, 0.0, 0.0, 1.0, -5.55, -10.3)" width="11.15" xlink:href="#shape2"/>
    </g>
    <g id="shape2" transform="matrix(1.0, 0.0, 0.0, 1.0, 5.55, 10.3)">
      <path d="M5.4 -5.05 L3.15 7.4 Q2.65 9.0 0.9 9.85 -0.85 10.65 -2.5 10.1 -4.2 9.6 -5.0 8.1 -5.85 6.55 -5.35 4.9 L-1.7 -7.25 Q-1.2 -8.9 0.05 -9.7 1.4 -10.6 3.05 -10.1 4.6 -9.65 5.25 -8.15 5.85 -6.75 5.4 -5.05" fill="#b88a5c" fill-rule="evenodd" stroke="none"/>
    </g>
    <g id="shape3" transform="matrix(1.0, 0.0, 0.0, 1.0, 6.1, 11.1)">
      <path d="M3.4 -10.0 Q4.95 -9.55 5.6 -8.05 6.2 -6.65 5.75 -4.95 L3.5 7.5 Q3.0 9.1 1.25 9.95 L-2.15 10.2 Q-3.85 9.7 -4.65 8.2 -5.5 6.65 -5.0 5.0 L-1.35 -7.15 Q-0.85 -8.8 0.4 -9.6 1.75 -10.5 3.4 -10.0 Z" fill="none" stroke="#000000" stroke-linecap="round" stroke-linejoin="round" stroke-width="1.8"/>
    </g>
    <g id="sprite4" transform="matrix(1.0, 0.0, 0.0, 1.0, 12.15, 12.9)">
      <use height="28.5" id="mc200" transform="matrix(1.0, 0.0, 0.0, 1.0, -11.25, -11.8)" width="22.35" xlink:href="#sprite5"/>
      <use height="12.2" id="mc201" transform="matrix(1.0, 0.0, 0.0, 1.0, -8.8, -12.0)" width="7.75" xlink:href="#sprite6"/>
      <use height="14.8" id="mc100" transform="matrix(1.0, 0.0, 0.0, 1.0, -11.3, 1.1)" width="22.4" xlink:href="#sprite7"/>
      <use height="30.5" transform="matrix(1.0, 0.0, 0.0, 1.0, -12.15, -12.9)" width="24.15" xlink:href="#shape7"/>
    </g>
    <g id="sprite5" transform="matrix(1.0, 0.0, 0.0, 1.0, 11.2, 14.25)">
      <use height="28.5" transform="matrix(1.0, 0.0, 0.0, 1.0, -11.2, -14.25)" width="22.35" xlink:href="#shape4"/>
    </g>
    <g id="shape4" transform="matrix(1.0, 0.0, 0.0, 1.0, 11.2, 14.25)">
      <path d="M-8.5 -2.25 Q-4.2 -4.95 -1.0 -13.95 L-0.95 -14.25 7.85 -13.1 Q11.2 -3.85 11.15 9.55 L11.15 9.8 11.15 10.65 11.05 14.25 Q4.85 12.1 0.8 4.1 -4.9 12.3 -10.65 13.9 -12.35 7.15 -8.75 -2.35 L-8.5 -2.25" fill="#ff6600" fill-rule="evenodd" stroke="none"/>
    </g>
    <g id="sprite6" transform="matrix(1.0, 0.0, 0.0, 1.0, 3.9, 6.1)">
      <use height="12.2" transform="matrix(1.0, 0.0, 0.0, 1.0, -3.9, -6.1)" width="7.75" xlink:href="#shape5"/>
    </g>
    <g id="shape5" transform="matrix(1.0, 0.0, 0.0, 1.0, 3.9, 6.1)">
      <path d="M3.85 -5.6 Q0.65 3.4 -3.65 6.1 L-3.9 6.0 Q-1.8 0.4 2.15 -6.1 L3.85 -5.9 3.85 -5.6" fill="#ab8055" fill-rule="evenodd" stroke="none"/>
    </g>
    <g id="sprite7" transform="matrix(1.0, 0.0, 0.0, 1.0, 11.2, 7.4)">
      <use height="14.8" transform="matrix(1.0, 0.0, 0.0, 1.0, -11.2, -7.4)" width="22.4" xlink:href="#shape6"/>
    </g>
    <g id="shape6" transform="matrix(1.0, 0.0, 0.0, 1.0, 11.2, 7.4)">
      <path d="M11.2 3.85 L11.1 7.4 Q4.9 5.25 0.85 -2.75 -4.85 5.45 -10.6 7.1 L-11.1 3.4 -11.1 3.35 -11.2 2.5 -10.6 2.45 Q-4.85 0.8 0.85 -7.4 4.9 0.6 11.2 2.75 L11.2 2.95 11.2 3.85" fill="#000000" fill-opacity="0.5019608" fill-rule="evenodd" stroke="none"/>
    </g>
    <g id="shape7" transform="matrix(1.0, 0.0, 0.0, 1.0, 12.15, 12.9)">
      <path d="M11.1 12.25 L11.1 12.0 Q11.15 -1.4 7.8 -10.65 L-1.0 -11.8 -1.05 -11.8 -2.75 -12.0 Q-6.7 -5.5 -8.8 0.1 -12.4 9.6 -10.7 16.35 -4.95 14.75 0.75 6.55 4.8 14.55 11.0 16.7 L11.1 13.1 11.1 12.25 M-1.05 -11.5 Q-4.25 -2.5 -8.55 0.2" fill="none" stroke="#000000" stroke-linecap="round" stroke-linejoin="round" stroke-width="1.8"/>
    </g>
    <g id="sprite8" transform="matrix(1.0, 0.0, 0.0, 1.0, 5.4, 18.9)">
      <use height="34.2" transform="matrix(1.0, 0.0, 0.0, 1.0, -3.5, -18.9)" width="9.45" xlink:href="#shape8"/>
      <use height="3.85" id="mc001" transform="matrix(1.0, 0.0, 0.0, 1.0, -5.4, 14.45)" width="3.1" xlink:href="#sprite9"/>
    </g>
    <g id="shape8" transform="matrix(1.0, 0.0, 0.0, 1.0, 3.5, 18.9)">
      <path d="M-2.9 -18.3 Q0.45 -18.15 2.85 -13.5 5.35 -8.65 5.35 -1.8 L5.35 -1.55 Q5.3 5.15 2.85 9.85 0.45 14.55 -2.9 14.7" fill="none" stroke="#ffffff" stroke-linecap="round" stroke-linejoin="round" stroke-width="1.2000000000000002"/>
    </g>
    <g id="sprite9" transform="matrix(1.0, 0.0, 0.0, 1.0, 1.55, 1.9)">
      <use height="1.7" id="mc000" transform="matrix(1.0, 0.0, 0.0, 1.0, -1.0, -1.9)" width="1.7" xlink:href="#sprite10"/>
      <use height="2.95" id="mc001" transform="matrix(1.0, 0.0, 0.0, 1.0, -1.55, -1.0)" width="3.1" xlink:href="#sprite11"/>
    </g>
    <g id="sprite10" transform="matrix(1.0, 0.0, 0.0, 1.0, 0.85, 0.85)">
      <use height="1.7" transform="matrix(1.0, 0.0, 0.0, 1.0, -0.85, -0.85)" width="1.7" xlink:href="#shape9"/>
    </g>
    <g id="shape9" transform="matrix(1.0, 0.0, 0.0, 1.0, 0.85, 0.85)">
      <path d="M0.0 -0.85 L0.6 -0.6 0.85 0.0 0.85 0.05 0.6 0.6 0.0 0.85 -0.6 0.6 -0.8 0.25 -0.85 0.0 -0.6 -0.6 0.0 -0.85" fill="#0066cc" fill-rule="evenodd" stroke="none"/>
    </g>
    <g id="sprite11" transform="matrix(1.0, 0.0, 0.0, 1.0, 1.55, 1.45)">
      <use height="2.95" transform="matrix(1.0, 0.0, 0.0, 1.0, -1.55, -1.45)" width="3.1" xlink:href="#shape10"/>
    </g>
    <g id="shape10" transform="matrix(1.0, 0.0, 0.0, 1.0, 1.55, 1.45)">
      <path d="M1.55 -0.05 Q1.55 0.6 1.1 1.05 0.65 1.5 0.0 1.5 -0.65 1.5 -1.1 1.05 -1.55 0.6 -1.55 -0.05 -1.55 -0.7 -1.1 -1.15 L-0.95 -1.25 -0.75 -0.9 -0.15 -0.65 Q0.2 -0.65 0.45 -0.9 L0.7 -1.45 1.1 -1.15 Q1.55 -0.7 1.55 -0.05" fill="#cc0000" fill-rule="evenodd" stroke="none"/>
    </g>
    <g id="sprite12" transform="matrix(1.0, 0.0, 0.0, 1.0, 26.35, 25.6)">
      <use height="53.7" id="mc100" transform="matrix(1.0, 0.0, 0.0, 1.0, -25.45, -24.7)" width="47.35" xlink:href="#sprite13"/>
      <use height="55.5" transform="matrix(1.0, 0.0, 0.0, 1.0, -26.35, -25.6)" width="49.15" xlink:href="#shape12"/>
    </g>
    <g id="sprite13" transform="matrix(1.0, 0.0, 0.0, 1.0, 23.7, 26.85)">
      <use height="53.7" transform="matrix(1.0, 0.0, 0.0, 1.0, -23.7, -26.85)" width="47.35" xlink:href="#shape11"/>
    </g>
    <g id="shape11" transform="matrix(1.0, 0.0, 0.0, 1.0, 23.7, 26.85)">
      <path d="M23.65 -2.6 Q23.6 6.4 21.55 8.7 6.2 28.9 -9.35 26.6 L-9.7 26.55 Q-14.4 25.9 -16.7 23.85 -21.5 19.2 -18.95 13.85 -23.05 6.85 -23.65 -2.6 -24.25 -12.1 -18.05 -19.55 -11.8 -27.1 -1.0 -26.85 9.8 -26.6 16.75 -19.1 23.65 -11.65 23.65 -2.6" fill="#a17850" fill-rule="evenodd" stroke="none"/>
    </g>
    <g id="shape12" transform="matrix(1.0, 0.0, 0.0, 1.0, 26.35, 25.6)">
      <path d="M21.9 -0.45 Q21.85 8.55 19.8 10.85 4.45 31.05 -11.1 28.75 L-11.45 28.7 Q-16.15 28.05 -18.45 26.0 -23.25 21.35 -20.7 16.0 -24.8 9.0 -25.4 -0.45 -26.0 -9.95 -19.8 -17.4 -13.55 -24.95 -2.75 -24.7 8.05 -24.45 15.0 -16.95 21.9 -9.5 21.9 -0.45 Z" fill="none" stroke="#000000" stroke-linecap="round" stroke-linejoin="round" stroke-width="1.8"/>
    </g>
    <g id="sprite14" transform="matrix(1.0, 0.0, 0.0, 1.0, 5.9, 1.55)">
      <use height="3.1" transform="matrix(1.0, 0.0, 0.0, 1.0, -5.9, -1.55)" width="11.75" xlink:href="#shape13"/>
    </g>
    <g id="shape13" transform="matrix(1.0, 0.0, 0.0, 1.0, 5.9, 1.55)">
      <path d="M5.1 -0.8 Q-0.9 -0.9 -5.15 0.8" fill="none" stroke="#000000" stroke-linecap="round" stroke-linejoin="round" stroke-width="1.5"/>
    </g>
    <g id="sprite15" transform="matrix(1.0, 0.0, 0.0, 1.0, 24.9, 22.6)">
      <use height="44.85" id="mc100" transform="matrix(1.0, 0.0, 0.0, 1.0, -24.0, -21.7)" width="45.85" xlink:href="#sprite16"/>
      <use height="46.65" transform="matrix(1.0, 0.0, 0.0, 1.0, -24.9, -22.6)" width="47.65" xlink:href="#shape15"/>
    </g>
    <g id="sprite16" transform="matrix(1.0, 0.0, 0.0, 1.0, 22.95, 22.4)">
      <use height="44.85" transform="matrix(1.0, 0.0, 0.0, 1.0, -22.95, -22.4)" width="45.85" xlink:href="#shape14"/>
    </g>
    <g id="shape14" transform="matrix(1.0, 0.0, 0.0, 1.0, 22.95, 22.4)">
      <path d="M-2.45 -22.4 Q8.65 -22.15 15.75 -15.05 22.85 -7.95 22.9 2.1 22.85 12.15 14.5 21.75 L12.95 22.45 Q0.25 1.35 -22.95 -11.3 -21.75 -13.5 -19.95 -15.5 -13.55 -22.65 -2.45 -22.4" fill="#000000" fill-rule="evenodd" stroke="none"/>
    </g>
    <g id="shape15" transform="matrix(1.0, 0.0, 0.0, 1.0, 24.9, 22.6)">
      <path d="M-21.0 -14.8 Q-14.6 -21.95 -3.5 -21.7 7.6 -21.45 14.7 -14.35 21.8 -7.25 21.85 2.8 21.8 12.85 13.45 22.45 L11.9 23.15 Q-0.8 2.05 -24.0 -10.6 -22.8 -12.8 -21.0 -14.8 Z" fill="none" stroke="#000000" stroke-linecap="round" stroke-linejoin="round" stroke-width="1.8"/>
    </g>
    <g id="sprite17" transform="matrix(1.0, 0.0, 0.0, 1.0, 6.35, 6.35)">
      <use height="11.2" id="mc100" transform="matrix(1.0, 0.0, 0.0, 1.0, -5.6, -5.6)" width="11.2" xlink:href="#sprite18"/>
      <use height="12.7" transform="matrix(1.0, 0.0, 0.0, 1.0, -6.35, -6.35)" width="12.7" xlink:href="#shape17"/>
    </g>
    <g id="sprite18" transform="matrix(1.0, 0.0, 0.0, 1.0, 5.6, 5.6)">
      <use height="11.2" transform="matrix(1.0, 0.0, 0.0, 1.0, -5.6, -5.6)" width="11.2" xlink:href="#shape16"/>
    </g>
    <g id="shape16" transform="matrix(1.0, 0.0, 0.0, 1.0, 5.6, 5.6)">
      <path d="M3.95 -3.95 Q5.6 -2.3 5.6 0.0 5.6 2.3 3.95 3.95 2.3 5.6 0.0 5.6 -2.3 5.6 -3.95 3.95 -5.6 2.3 -5.6 0.0 -5.6 -2.3 -3.95 -3.95 -2.3 -5.6 0.0 -5.6 2.3 -5.6 3.95 -3.95" fill="#009999" fill-rule="evenodd" stroke="none"/>
    </g>
    <g id="shape17" transform="matrix(1.0, 0.0, 0.0, 1.0, 6.35, 6.35)">
      <path d="M3.95 -3.95 Q5.6 -2.3 5.6 0.0 5.6 2.3 3.95 3.95 2.3 5.6 0.0 5.6 -2.3 5.6 -3.95 3.95 -5.6 2.3 -5.6 0.0 -5.6 -2.3 -3.95 -3.95 -2.3 -5.6 0.0 -5.6 2.3 -5.6 3.95 -3.95 Z" fill="none" stroke="#000000" stroke-linecap="round" stroke-linejoin="round" stroke-width="1.5"/>
    </g>
    <g id="sprite19" transform="matrix(1.0, 0.0, 0.0, 1.0, 4.05, 18.35)">
      <use height="42.4" id="mc100" transform="matrix(1.0, 0.0, 0.0, 1.0, -3.3, -17.6)" width="5.4" xlink:href="#sprite20"/>
      <use height="43.9" transform="matrix(1.0, 0.0, 0.0, 1.0, -4.05, -18.35)" width="6.9" xlink:href="#shape19"/>
    </g>
    <g id="sprite20" transform="matrix(1.0, 0.0, 0.0, 1.0, 2.7, 21.2)">
      <use height="42.4" transform="matrix(1.0, 0.0, 0.0, 1.0, -2.7, -21.2)" width="5.4" xlink:href="#shape18"/>
    </g>
    <g id="shape18" transform="matrix(1.0, 0.0, 0.0, 1.0, 2.7, 21.2)">
      <path d="M2.7 -17.75 Q2.65 -16.3 2.2 -15.3 L2.15 -15.2 2.2 -15.15 Q2.65 -14.15 2.7 -12.65 2.65 -11.2 2.2 -10.2 L2.15 -10.15 2.2 -10.05 Q2.65 -9.0 2.7 -7.55 2.65 -6.1 2.2 -5.1 L2.15 -5.0 2.2 -4.95 Q2.65 -3.95 2.7 -2.45 L2.6 -1.3 2.7 -0.15 Q2.65 1.3 2.2 2.3 L2.15 2.4 2.2 2.45 Q2.65 3.5 2.7 4.95 2.65 6.4 2.2 7.4 L2.15 7.5 2.2 7.6 Q2.65 8.6 2.7 10.05 2.65 11.5 2.2 12.5 L2.15 12.6 2.2 12.7 Q2.65 13.7 2.7 15.15 2.65 16.6 2.2 17.6 1.65 18.65 1.0 18.65 L0.7 18.6 0.25 20.15 Q-0.3 21.2 -1.0 21.2 -1.7 21.2 -2.15 20.15 -2.7 19.15 -2.7 17.75 -2.7 16.25 -2.15 15.25 L-2.15 15.15 -2.15 15.05 Q-2.7 14.05 -2.7 12.65 -2.7 11.15 -2.15 10.15 L-2.15 10.05 -2.15 10.0 Q-2.7 9.0 -2.7 7.55 -2.7 6.05 -2.15 5.05 L-2.15 4.95 -2.15 4.9 Q-2.7 3.9 -2.7 2.45 L-2.6 1.3 -2.7 0.15 Q-2.7 -1.35 -2.15 -2.35 L-2.15 -2.45 -2.15 -2.55 Q-2.7 -3.55 -2.7 -5.0 -2.7 -6.45 -2.15 -7.45 L-2.15 -7.55 -2.15 -7.65 Q-2.7 -8.65 -2.7 -10.1 -2.7 -11.55 -2.15 -12.55 L-2.15 -12.65 -2.15 -12.75 Q-2.7 -13.75 -2.7 -15.15 -2.7 -16.65 -2.15 -17.65 -1.7 -18.65 -1.0 -18.65 L-0.7 -18.6 -0.2 -20.25 Q0.25 -21.25 1.0 -21.2 1.65 -21.25 2.2 -20.25 2.65 -19.25 2.7 -17.75" fill="#000000" fill-rule="evenodd" stroke="none"/>
    </g>
    <g id="shape19" transform="matrix(1.0, 0.0, 0.0, 1.0, 24.4, 14.0)">
      <path d="M-23.1 -9.7 Q-23.65 -8.7 -23.65 -7.2 -23.65 -5.8 -23.1 -4.8 L-23.1 -4.7 -23.1 -4.6 Q-23.65 -3.6 -23.65 -2.15 -23.65 -0.7 -23.1 0.3 L-23.1 0.4 -23.1 0.5 Q-23.65 1.5 -23.65 2.95 -23.65 4.4 -23.1 5.4 L-23.1 5.5 -23.1 5.6 Q-23.65 6.6 -23.65 8.1 L-23.55 9.25 -23.65 10.4 Q-23.65 11.85 -23.1 12.85 L-23.1 12.9 -23.1 13.0 Q-23.65 14.0 -23.65 15.5 -23.65 16.95 -23.1 17.95 L-23.1 18.0 -23.1 18.1 Q-23.65 19.1 -23.65 20.6 -23.65 22.0 -23.1 23.0 L-23.1 23.1 -23.1 23.2 Q-23.65 24.2 -23.65 25.7 -23.65 27.1 -23.1 28.1 -22.65 29.15 -21.95 29.15 -21.25 29.15 -20.7 28.1 L-20.25 26.55 -19.95 26.6 Q-19.3 26.6 -18.75 25.55 -18.3 24.55 -18.25 23.1 -18.3 21.65 -18.75 20.65 L-18.8 20.55 -18.75 20.45 Q-18.3 19.45 -18.25 18.0 -18.3 16.55 -18.75 15.55 L-18.8 15.45 -18.75 15.35 Q-18.3 14.35 -18.25 12.9 -18.3 11.45 -18.75 10.4 L-18.8 10.35 -18.75 10.25 Q-18.3 9.25 -18.25 7.8 L-18.35 6.65 -18.25 5.5 Q-18.3 4.0 -18.75 3.0 L-18.8 2.95 -18.75 2.85 Q-18.3 1.85 -18.25 0.4 -18.3 -1.05 -18.75 -2.1 L-18.8 -2.2 -18.75 -2.25 Q-18.3 -3.25 -18.25 -4.7 -18.3 -6.2 -18.75 -7.2 L-18.8 -7.25 -18.75 -7.35 Q-18.3 -8.35 -18.25 -9.8 -18.3 -11.3 -18.75 -12.3 -19.3 -13.3 -19.95 -13.25 -20.7 -13.3 -21.15 -12.3 L-21.65 -10.65 -21.95 -10.7 Q-22.65 -10.7 -23.1 -9.7 Z" fill="none" stroke="#000000" stroke-linecap="round" stroke-linejoin="round" stroke-width="1.5"/>
    </g>
    <g id="sprite21" transform="matrix(1.0, 0.0, 0.0, 1.0, 2.9, 4.5)">
      <use height="4.55" id="mc300" transform="matrix(1.0, 0.0, 0.0, 1.0, -2.9, -4.5)" width="10.1" xlink:href="#sprite22"/>
      <use height="7.4" transform="matrix(1.0, 0.0, 0.0, 1.0, -2.05, -2.2)" width="9.6" xlink:href="#shape22"/>
    </g>
    <g id="sprite22" transform="matrix(1.0, 0.0, 0.0, 1.0, 5.05, 2.25)">
      <use height="4.55" id="mc100" transform="matrix(1.0, 0.0, 0.0, 1.0, -5.05, -2.25)" width="10.1" xlink:href="#sprite23"/>
      <use height="4.55" transform="matrix(1.0, 0.0, 0.0, 1.0, -5.05, -2.25)" width="10.1" xlink:href="#shape21"/>
    </g>
    <g id="sprite23" transform="matrix(1.0, 0.0, 0.0, 1.0, 5.05, 2.25)">
      <use height="4.55" transform="matrix(1.0, 0.0, 0.0, 1.0, -5.05, -2.25)" width="10.1" xlink:href="#shape20"/>
    </g>
    <g id="shape20" transform="matrix(1.0, 0.0, 0.0, 1.0, 5.05, 2.25)">
      <path d="M-4.45 -1.3 L-1.75 -2.05 3.05 -1.8 Q4.95 -1.1 5.05 0.3 L-3.35 2.2 -3.25 2.2 -3.7 2.3 Q-6.0 0.7 -4.45 -1.3" fill="#a17850" fill-rule="evenodd" stroke="none"/>
    </g>
    <g id="shape21" transform="matrix(1.0, 0.0, 0.0, 1.0, 5.05, 2.25)">
      <path d="M-4.45 -1.3 L-1.75 -2.05 3.05 -1.8 Q4.95 -1.1 5.05 0.3 L-3.35 2.2 -3.25 2.2 -3.7 2.3 Q-6.0 0.7 -4.45 -1.3" fill="#ffffff" fill-opacity="0.3529412" fill-rule="evenodd" stroke="none"/>
    </g>
    <g id="shape22" transform="matrix(1.0, 0.0, 0.0, 1.0, 2.05, 2.2)">
      <path d="M-1.1 -0.05 L-1.2 -0.05 6.65 -1.45 Q7.2 0.35 5.95 2.0 4.6 3.75 2.1 4.3 L-0.15 4.45 -0.15 4.4 -0.2 4.1 -0.25 4.1 -1.25 0.2 -0.4 0.0 -0.3 -0.1 -1.1 -0.05" fill="#ffffff" fill-rule="evenodd" stroke="none"/>
      <path d="M1.3 3.55 L0.5 4.2 Q-0.05 4.2 -0.35 3.55 -0.7 2.95 -0.7 2.05 -0.7 1.15 -0.35 0.5 -0.05 -0.1 0.5 -0.1 L1.3 0.5 Q1.65 1.15 1.65 2.05 1.65 2.95 1.3 3.55" fill="#000000" fill-rule="evenodd" stroke="none"/>
      <path d="M-1.3 0.0 L-0.95 -0.1 6.65 -1.45 Q7.2 0.35 5.95 2.0 4.6 3.75 2.1 4.3 L-0.15 4.45 -1.3 0.0 Z" fill="none" stroke="#000000" stroke-linecap="round" stroke-linejoin="round" stroke-width="1.5"/>
    </g>
    <g id="sprite24" transform="matrix(1.0, 0.0, 0.0, 1.0, 2.25, 1.1)">
      <use height="2.75" transform="matrix(1.0, 0.0, 0.0, 1.0, -2.25, -1.1)" width="4.5" xlink:href="#shape23"/>
    </g>
    <g id="shape23" transform="matrix(1.0, 0.0, 0.0, 1.0, 2.25, 1.1)">
      <path d="M2.25 -1.1 L2.25 1.15 Q0.0 2.15 -2.25 1.15 L-2.25 -1.1 Q0.0 -0.1 2.25 -1.1" fill="#ffffff" fill-rule="evenodd" stroke="none"/>
    </g>
    <g id="sprite25" transform="matrix(1.0, 0.0, 0.0, 1.0, 6.6, 3.45)">
      <use height="6.95" transform="matrix(1.0, 0.0, 0.0, 1.0, -6.6, -3.45)" width="13.25" xlink:href="#shape24"/>
    </g>
    <g id="shape24" transform="matrix(1.0, 0.0, 0.0, 1.0, 6.6, 3.45)">
      <path d="M-3.05 0.3 L-1.75 -1.2 -3.05 0.3 M0.3 0.35 Q-3.0 3.95 -5.1 2.2 -7.2 0.45 -3.25 -2.7 L-1.75 -1.2 0.3 0.35" fill="#ff0000" fill-rule="evenodd" stroke="none"/>
      <path d="M0.3 0.35 Q-3.0 3.95 -5.1 2.2 -7.2 0.45 -3.25 -2.7 L-1.75 -1.2 0.3 0.35 Q3.25 2.25 5.9 2.4" fill="none" stroke="#000000" stroke-linecap="round" stroke-linejoin="round" stroke-width="1.5"/>
      <path d="M-1.75 -1.2 L-3.05 0.3" fill="none" stroke="#000000" stroke-linecap="round" stroke-linejoin="round" stroke-width="1.0"/>
    </g>
    <g id="shape25" transform="matrix(1.0, 0.0, 0.0, 1.0, 5.6, 13.85)">
      <path d="M-1.95 -0.75 Q-0.8 -0.2 0.6 -0.2 2.05 -0.2 3.2 -0.75 L3.7 0.0 5.0 1.45 1.55 1.9 1.55 2.05 1.55 3.8 2.1 3.7 Q2.75 3.3 3.65 3.3 4.5 3.3 5.1 3.7 5.7 4.15 5.7 4.75 5.7 5.4 5.1 5.8 L3.65 6.25 2.1 5.8 Q1.7 5.5 1.75 6.05 L1.8 9.95 1.95 22.15 0.1 22.25 0.05 10.2 1.6 10.15 0.05 10.15 0.0 2.05 0.0 1.75 -3.45 1.3 -2.15 -0.15 -1.95 -0.75" fill="#339900" fill-rule="evenodd" stroke="none"/>
      <path d="M3.2 -0.75 Q2.05 -0.2 0.6 -0.2 -0.8 -0.2 -1.95 -0.75 L-2.15 -0.8 -3.3 -1.65 Q-4.85 -3.05 -4.85 -5.05 -4.85 -7.1 -3.3 -8.55 L-3.1 -8.7 -1.85 -9.45 Q-1.8 -10.95 -3.15 -12.1 -1.75 -11.8 -0.4 -11.1 -0.2 -12.15 1.45 -13.1 L3.15 -10.8 Q4.0 -11.25 5.45 -11.5 4.1 -10.35 4.15 -8.8 L4.45 -8.55 Q6.05 -7.1 6.1 -5.05 6.05 -3.05 4.45 -1.65 L3.2 -0.75" fill="#ff3399" fill-rule="evenodd" stroke="none"/>
      <path d="M3.2 -0.75 Q2.05 -0.2 0.6 -0.2 -0.8 -0.2 -1.95 -0.75 M0.0 2.05 L0.05 10.15 M1.8 9.95 L1.75 6.05 Q1.7 5.5 2.1 5.8 L3.65 6.25 5.1 5.8 Q5.7 5.4 5.7 4.75 5.7 4.15 5.1 3.7 4.5 3.3 3.65 3.3 2.75 3.3 2.1 3.7 L1.55 3.8 1.55 2.05 M3.2 -0.75 L4.45 -1.65 Q6.05 -3.05 6.1 -5.05 6.05 -7.1 4.45 -8.55 L4.15 -8.8 Q4.1 -10.35 5.45 -11.5 4.0 -11.25 3.15 -10.8 L1.45 -13.1 Q-0.2 -12.15 -0.4 -11.1 -1.75 -11.8 -3.15 -12.1 -1.8 -10.95 -1.85 -9.45 L-3.1 -8.7 -3.3 -8.55 Q-4.85 -7.1 -4.85 -5.05 -4.85 -3.05 -3.3 -1.65 L-2.15 -0.8 -1.95 -0.75" fill="none" stroke="#000000" stroke-linecap="round" stroke-linejoin="round" stroke-width="1.5"/>
      <path d="M-2.15 -0.15 L-3.45 1.3 0.0 1.75 0.0 2.05 M0.05 10.2 L0.1 22.25 1.95 22.15 1.8 9.95 M1.55 2.05 L1.55 1.9 5.0 1.45 3.7 0.0" fill="none" stroke="#000000" stroke-linecap="round" stroke-linejoin="round" stroke-width="1.5"/>
    </g>
    <g id="sprite26" transform="matrix(1.0, 0.0, 0.0, 1.0, 6.15, 4.85)">
      <use height="9.3" id="mc100" transform="matrix(0.9903, 0.0, 0.0, 0.9903, -5.2548, -3.9548)" width="9.3" xlink:href="#sprite27"/>
      <use height="11.0" transform="matrix(1.0, 0.0, 0.0, 1.0, -6.15, -4.85)" width="11.0" xlink:href="#shape27"/>
    </g>
    <g id="sprite27" transform="matrix(1.0, 0.0, 0.0, 1.0, 4.65, 4.65)">
      <use height="8.9" transform="matrix(1.0449, 0.0, 0.0, 1.0449, -4.65, -4.65)" width="8.9" xlink:href="#shape26"/>
    </g>
    <g id="shape26" transform="matrix(1.0, 0.0, 0.0, 1.0, 4.45, 4.45)">
      <path d="M3.15 -3.15 Q4.45 -1.85 4.45 0.0 4.45 1.85 3.15 3.15 1.85 4.45 0.0 4.45 -1.85 4.45 -3.15 3.15 -4.45 1.85 -4.45 0.0 -4.45 -1.85 -3.15 -3.15 -1.85 -4.45 0.0 -4.45 1.85 -4.45 3.15 -3.15" fill="#a17850" fill-rule="evenodd" stroke="none"/>
    </g>
    <g id="shape27" transform="matrix(1.0, 0.0, 0.0, 1.0, 6.15, 4.85)">
      <path d="M-0.65 -3.95 Q1.25 -3.95 2.6 -2.6 3.95 -1.25 3.95 0.65 3.95 2.55 2.6 3.9 1.25 5.25 -0.65 5.25 -2.55 5.25 -3.9 3.9 -5.25 2.55 -5.25 0.65 -5.25 -1.25 -3.9 -2.6 -2.55 -3.95 -0.65 -3.95 Z" fill="none" stroke="#000000" stroke-linecap="round" stroke-linejoin="round" stroke-width="1.8"/>
    </g>
    <g id="sprite28" transform="matrix(1.0, 0.0, 0.0, 1.0, 8.2, 6.7)">
      <use height="13.8" transform="matrix(1.0, 0.0, 0.0, 1.0, -8.2, -6.7)" width="17.15" xlink:href="#shape28"/>
    </g>
    <g id="shape28" transform="matrix(1.0, 0.0, 0.0, 1.0, 8.2, 6.7)">
      <path d="M-6.8 3.15 Q-10.9 -3.0 -3.1 -6.7 -6.6 3.6 8.95 5.9 -2.75 9.25 -6.8 3.15" fill="#000000" fill-rule="evenodd" stroke="none"/>
    </g>
  </defs>
</svg>
