<?xml version="1.0" encoding="UTF-8" standalone="no"?>
<svg xmlns:xlink="http://www.w3.org/1999/xlink" height="118.25px" width="141.6px" xmlns="http://www.w3.org/2000/svg">
  <g transform="matrix(1.0, 0.0, 0.0, 1.0, 63.05, 104.05)">
    <use height="22.6" transform="matrix(0.9739, 0.2222, 0.2222, -0.9739, -11.9816, -3.2173)" width="13.7" xlink:href="#sprite0"/>
    <use height="22.6" transform="matrix(0.9841, 0.1702, 0.1702, -0.9841, -4.0648, -0.7958)" width="13.7" xlink:href="#sprite0"/>
    <use height="19.45" transform="matrix(0.8484, -0.5163, -0.5163, -0.8484, -13.0942, -23.6937)" width="12.5" xlink:href="#sprite2"/>
    <use height="31.55" transform="matrix(0.9998, -0.0091, 0.0091, 0.9998, -12.1981, -40.1241)" width="27.9" xlink:href="#sprite4"/>
    <use height="27.05" transform="matrix(0.8744, -0.476, 0.476, 0.8744, -36.3158, -54.7859)" width="22.7" xlink:href="#sprite9"/>
    <use height="53.55" transform="matrix(0.9645, -0.2546, 0.2546, 0.9645, -30.374, -78.0838)" width="51.15" xlink:href="#sprite11"/>
    <use height="17.6" transform="matrix(0.9645, -0.2546, 0.2546, 0.9645, -0.8785, -99.5471)" width="17.6" xlink:href="#sprite13"/>
    <use height="46.45" transform="matrix(0.9645, -0.2546, 0.2546, 0.9645, -36.4214, -86.5755)" width="63.05" xlink:href="#sprite15"/>
    <use height="29.55" transform="matrix(0.9645, -0.2546, 0.2546, 0.9645, -30.483, -73.7298)" width="51.5" xlink:href="#sprite17"/>
    <use height="12.45" transform="matrix(0.4992, 0.8619, 0.8619, -0.4992, -4.661, -45.0724)" width="19.4" xlink:href="#sprite18"/>
    <use height="4.4" transform="matrix(1.0, 0.0, 0.0, 1.0, -1.05, -56.0)" width="11.45" xlink:href="#morphshape0"/>
    <use height="5.95" transform="matrix(1.0, 0.0, 0.0, 1.0, -19.75, -50.85)" width="8.55" xlink:href="#morphshape1"/>
    <use height="6.25" transform="matrix(1.0, 0.0, 0.0, 1.0, -3.75, -62.8)" width="14.75" xlink:href="#morphshape2"/>
    <use height="9.7" transform="matrix(1.0, 0.0, 0.0, 1.0, -21.75, -59.55)" width="7.35" xlink:href="#morphshape3"/>
    <use height="5.15" transform="matrix(1.0, 0.0, 0.0, 1.0, -9.75, -38.25)" width="12.7" xlink:href="#morphshape4"/>
    <use height="5.75" transform="matrix(0.947, -0.3131, 0.3131, 0.947, 5.7113, -49.891)" width="5.8" xlink:href="#shape20"/>
    <use height="4.9" transform="matrix(0.947, -0.3131, 0.3131, 0.947, -19.3955, -42.8967)" width="3.95" xlink:href="#sprite20"/>
    <use height="27.1" transform="matrix(0.9645, -0.2546, 0.2546, 0.9645, 9.4723, -61.5697)" width="22.65" xlink:href="#sprite21"/>
    <use height="9.95" transform="matrix(0.0878, 0.9914, -0.9914, 0.0878, -13.7402, -45.2909)" width="10.3" xlink:href="#sprite23"/>
    <use height="12.4" transform="matrix(-1.0232, 0.5516, 0.5515, 1.0232, 68.0569, -42.1138)" width="6.55" xlink:href="#shape26"/>
    <use height="12.4" transform="matrix(-0.3415, 0.6262, 0.6262, 0.3415, 53.7443, -60.3836)" width="6.55" xlink:href="#shape26"/>
    <use height="12.4" transform="matrix(0.1479, 0.3539, 0.3539, -0.1479, 1.0179, -55.5005)" width="6.55" xlink:href="#shape26"/>
    <use height="12.4" transform="matrix(0.5719, 0.4233, -0.3083, 0.7853, -57.2259, -40.5656)" width="6.55" xlink:href="#shape26"/>
    <use height="12.4" transform="matrix(0.1909, 0.4806, -0.35, 0.2621, -49.1599, -54.5608)" width="6.55" xlink:href="#shape26"/>
    <use height="12.4" transform="matrix(-0.0827, 0.2716, -0.1978, -0.1136, -19.751, -50.8422)" width="6.55" xlink:href="#shape26"/>
  </g>
  <defs>
    <g id="sprite0" transform="matrix(1.0, 0.0, 0.0, 1.0, 6.85, 11.3)">
      <use height="20.5" transform="matrix(0.9942, -0.1047, 0.1047, 0.9942, -6.839, -9.583)" width="11.6" xlink:href="#sprite1"/>
      <use height="22.6" transform="matrix(1.0, 0.0, 0.0, 1.0, -6.0, -11.3)" width="12.05" xlink:href="#shape1"/>
    </g>
    <g id="sprite1" transform="matrix(1.0, 0.0, 0.0, 1.0, 5.8, 10.25)">
      <use height="20.5" transform="matrix(1.0, 0.0, 0.0, 1.0, -5.8, -10.25)" width="11.6" xlink:href="#shape0"/>
    </g>
    <g id="shape0" transform="matrix(1.0, 0.0, 0.0, 1.0, 5.8, 10.25)">
      <path d="M5.35 -7.9 Q6.1 -6.35 5.6 -4.7 L1.5 7.3 Q0.95 8.95 -0.35 9.75 -1.7 10.55 -3.3 10.05 -4.9 9.45 -5.5 8.0 -6.05 6.55 -5.5 4.85 L-2.8 -7.5 Q-2.3 -9.1 -0.45 -9.85 L2.95 -10.0 Q4.6 -9.45 5.35 -7.9" fill="#f5b87a" fill-rule="evenodd" stroke="none"/>
    </g>
    <g id="shape1" transform="matrix(1.0, 0.0, 0.0, 1.0, 6.0, 11.3)">
      <path d="M5.05 -5.25 L2.25 7.1 Q1.85 8.8 0.7 9.7 -0.6 10.65 -2.25 10.35 -3.9 9.95 -4.6 8.5 -5.35 7.15 -4.95 5.4 L-3.6 -7.15 Q-3.2 -8.8 -1.5 -9.75 0.15 -10.7 1.85 -10.25 3.55 -9.85 4.5 -8.4 5.45 -6.95 5.05 -5.25 Z" fill="none" stroke="#000000" stroke-linecap="round" stroke-linejoin="round" stroke-width="1.8"/>
    </g>
    <g id="sprite2" transform="matrix(1.0, 0.0, 0.0, 1.0, 6.25, 9.7)">
      <use height="17.65" transform="matrix(1.0, 0.0, 0.0, 1.0, -5.35, -8.8)" width="10.7" xlink:href="#sprite3"/>
      <use height="19.45" transform="matrix(1.0, 0.0, 0.0, 1.0, -6.25, -9.7)" width="12.5" xlink:href="#shape3"/>
    </g>
    <g id="sprite3" transform="matrix(1.0, 0.0, 0.0, 1.0, 5.35, 8.8)">
      <use height="17.65" transform="matrix(1.0, 0.0, 0.0, 1.0, -5.35, -8.8)" width="10.7" xlink:href="#shape2"/>
    </g>
    <g id="shape2" transform="matrix(1.0, 0.0, 0.0, 1.0, 5.35, 8.8)">
      <path d="M4.1 -8.65 Q5.05 -8.25 5.3 -7.05 5.55 -5.85 3.65 0.55 L1.75 6.3 Q1.15 8.0 -0.15 8.55 -1.6 9.15 -3.05 8.55 -4.55 7.9 -5.15 6.5 -5.65 5.15 -4.85 3.55 L-2.1 -1.85 Q1.05 -7.75 2.1 -8.4 3.15 -9.05 4.1 -8.65" fill="#f5b87a" fill-rule="evenodd" stroke="none"/>
    </g>
    <g id="shape3" transform="matrix(1.0, 0.0, 0.0, 1.0, 6.25, 9.7)">
      <path d="M4.1 -8.65 Q3.15 -9.05 2.1 -8.4 1.05 -7.75 -2.1 -1.85 L-4.25 2.35 Q-1.55 5.65 2.2 5.05 L3.65 0.55 Q5.55 -5.85 5.3 -7.05 5.05 -8.25 4.1 -8.65 M-4.25 2.35 L-4.85 3.55 Q-5.65 5.15 -5.15 6.5 -4.55 7.9 -3.05 8.55 -1.6 9.15 -0.15 8.55 1.15 8.0 1.75 6.3 L2.2 5.05" fill="none" stroke="#000000" stroke-linecap="round" stroke-linejoin="round" stroke-width="1.8"/>
    </g>
    <g id="sprite4" transform="matrix(1.0, 0.0, 0.0, 1.0, 13.45, 16.6)">
      <use height="12.65" transform="matrix(1.0, 0.0, 0.0, 1.0, -12.55, 1.4)" width="26.1" xlink:href="#sprite5"/>
      <use height="14.3" transform="matrix(1.0, 0.0, 0.0, 1.0, -10.55, -14.4)" width="21.9" xlink:href="#sprite6"/>
      <use height="21.2" transform="matrix(1.0, 0.0, 0.0, 1.0, -11.6, -15.7)" width="24.05" xlink:href="#sprite7"/>
      <use height="10.2" transform="matrix(1.0, 0.0, 0.0, 1.0, 8.0, 2.1)" width="3.5" xlink:href="#sprite8"/>
      <use height="31.55" transform="matrix(1.0, 0.0, 0.0, 1.0, -13.45, -16.6)" width="27.9" xlink:href="#shape8"/>
    </g>
    <g id="sprite5" transform="matrix(1.0, 0.0, 0.0, 1.0, 13.05, 6.3)">
      <use height="12.65" transform="matrix(1.0, 0.0, 0.0, 1.0, -13.05, -6.3)" width="26.1" xlink:href="#shape4"/>
    </g>
    <g id="shape4" transform="matrix(1.0, 0.0, 0.0, 1.0, 13.05, 6.3)">
      <path d="M11.95 -6.3 Q12.7 -2.25 13.05 1.8 9.5 5.55 3.7 6.2 -5.25 7.05 -13.05 2.3 L-12.1 -5.75 Q-6.35 -1.95 0.65 -2.2 7.85 -3.05 11.95 -6.3" fill="#006600" fill-rule="evenodd" stroke="none"/>
    </g>
    <g id="sprite6" transform="matrix(1.0, 0.0, 0.0, 1.0, 10.95, 7.15)">
      <use height="14.3" transform="matrix(1.0, 0.0, 0.0, 1.0, -10.95, -7.15)" width="21.9" xlink:href="#shape5"/>
    </g>
    <g id="shape5" transform="matrix(1.0, 0.0, 0.0, 1.0, 10.95, 7.15)">
      <path d="M7.4 -7.15 Q9.55 -1.7 10.95 3.7 6.5 7.25 -0.5 7.15 -6.7 7.1 -10.95 3.05 L-8.8 -6.45 7.4 -7.15" fill="#ff0066" fill-rule="evenodd" stroke="none"/>
    </g>
    <g id="sprite7" transform="matrix(1.0, 0.0, 0.0, 1.0, 12.0, 10.6)">
      <use height="21.2" transform="matrix(1.0, 0.0, 0.0, 1.0, -12.0, -10.6)" width="24.05" xlink:href="#shape6"/>
    </g>
    <g id="shape6" transform="matrix(1.0, 0.0, 0.0, 1.0, 12.0, 10.6)">
      <path d="M1.9 -6.4 Q1.45 -4.6 -0.05 -3.3 -1.6 -2.0 -3.4 -1.9 -5.2 -1.8 -6.15 -3.0 -7.15 -4.25 -6.7 -6.05 -6.3 -7.9 -4.75 -9.2 -3.25 -10.5 -1.45 -10.6 0.35 -10.7 1.35 -9.45 2.3 -8.25 1.9 -6.4 M-0.5 5.0 Q6.5 5.1 10.95 1.55 L12.05 6.45 12.05 6.5 Q7.95 9.75 0.75 10.6 -6.25 10.85 -12.0 7.05 L-10.95 0.9 Q-6.7 4.95 -0.5 5.0" fill="#f5b87a" fill-rule="evenodd" stroke="none"/>
    </g>
    <g id="sprite8" transform="matrix(1.0, 0.0, 0.0, 1.0, 1.75, 5.1)">
      <use height="10.2" transform="matrix(1.0, 0.0, 0.0, 1.0, -1.75, -5.1)" width="3.5" xlink:href="#shape7"/>
    </g>
    <g id="shape7" transform="matrix(1.0, 0.0, 0.0, 1.0, 1.75, 5.1)">
      <path d="M0.55 -5.1 L0.85 -5.1 1.75 3.75 0.5 4.55 -0.45 5.1 -1.2 4.9 -1.75 -3.35 -1.05 -3.8 -0.4 -4.3 0.55 -5.1" fill="#99cc00" fill-rule="evenodd" stroke="none"/>
    </g>
    <g id="shape8" transform="matrix(1.0, 0.0, 0.0, 1.0, 13.45, 16.6)">
      <path d="M2.45 -14.15 L7.8 -14.4 Q9.95 -8.95 11.35 -3.55 L12.45 1.35 12.45 1.4 Q13.2 5.45 13.55 9.5 10.0 13.25 4.2 13.9 -4.75 14.75 -12.55 10.0 L-11.6 1.95 -10.65 -3.35 -8.4 -13.7 -5.2 -13.85 M12.45 1.4 Q8.35 4.65 1.15 5.5 -5.85 5.75 -11.6 1.95 M11.35 -3.55 Q6.9 0.0 -0.1 -0.1 -6.3 -0.15 -10.65 -3.35" fill="none" stroke="#000000" stroke-linecap="round" stroke-linejoin="round" stroke-width="1.8"/>
      <path d="M2.3 -11.5 Q1.85 -9.7 0.35 -8.4 -1.2 -7.1 -3.0 -7.0 -4.8 -6.9 -5.75 -8.1 -6.75 -9.35 -6.3 -11.15 -6.0 -12.5 -5.1 -13.55 L-4.35 -14.3 Q-2.85 -15.6 -1.05 -15.7 0.75 -15.8 1.75 -14.55 L2.25 -13.55 Q2.55 -12.65 2.3 -11.5 Z" fill="none" stroke="#000000" stroke-linecap="round" stroke-linejoin="round" stroke-width="1.8"/>
      <path d="M-5.55 1.0 L-5.0 1.3 Q-4.8 1.65 -4.85 2.1 L-5.2 2.75 Q-5.45 3.0 -5.8 2.95 L-6.4 2.55 -6.5 1.85 -6.25 1.15 -5.55 1.0" fill="#000000" fill-opacity="0.5019608" fill-rule="evenodd" stroke="none"/>
    </g>
    <g id="sprite9" transform="matrix(1.0, 0.0, 0.0, 1.0, 7.3, 14.25)">
      <use height="25.4" transform="matrix(1.0, 0.0, 0.0, 1.0, -6.4, -13.5)" width="20.9" xlink:href="#sprite10"/>
      <use height="27.05" transform="matrix(1.0, 0.0, 0.0, 1.0, -7.3, -14.25)" width="22.7" xlink:href="#shape10"/>
    </g>
    <g id="sprite10" transform="matrix(1.0, 0.0, 0.0, 1.0, 10.45, 12.7)">
      <use height="25.4" transform="matrix(1.0, 0.0, 0.0, 1.0, -10.45, -12.7)" width="20.9" xlink:href="#shape9"/>
    </g>
    <g id="shape9" transform="matrix(1.0, 0.0, 0.0, 1.0, 10.45, 12.7)">
      <path d="M5.25 -11.4 Q6.55 -10.05 6.55 -8.2 6.55 -6.4 5.35 -5.1 6.05 -4.9 6.65 -4.3 7.6 -3.35 7.6 -2.0 7.6 -0.65 6.65 0.3 L6.2 0.7 6.3 1.1 6.35 1.2 6.45 1.15 Q7.7 0.85 8.85 1.55 10.0 2.25 10.35 3.55 10.65 4.8 9.95 6.0 L8.85 7.05 9.15 7.9 Q9.45 9.15 8.75 10.3 8.0 11.45 6.75 11.75 L4.0 11.4 3.85 11.35 3.6 11.85 Q2.8 12.7 1.65 12.7 0.5 12.7 -0.35 11.85 L-0.95 10.95 -1.35 11.4 Q-2.2 12.25 -3.4 12.25 -4.6 12.25 -5.45 11.4 -6.3 10.55 -6.3 9.35 -6.3 8.35 -5.7 7.6 L-6.8 7.9 Q-7.65 7.9 -8.25 7.3 -8.85 6.7 -8.85 5.85 -8.85 5.0 -8.25 4.4 L-8.05 4.25 -8.9 3.8 Q-10.05 3.1 -10.35 1.85 -10.65 0.55 -9.95 -0.6 -9.25 -1.75 -7.95 -2.05 L-6.9 -2.15 Q-7.1 -3.25 -6.5 -4.5 -5.9 -5.75 -4.5 -5.7 L-2.35 -5.3 -1.8 -5.25 -1.5 -5.45 Q-2.45 -6.65 -2.45 -8.2 -2.45 -10.05 -1.1 -11.4 0.2 -12.7 2.05 -12.7 3.9 -12.7 5.25 -11.4" fill="#000000" fill-rule="evenodd" stroke="none"/>
    </g>
    <g id="shape10" transform="matrix(1.0, 0.0, 0.0, 1.0, 7.3, 14.25)">
      <path d="M2.55 -6.25 Q1.6 -7.45 1.6 -9.0 1.6 -10.85 2.95 -12.2 4.25 -13.5 6.1 -13.5 7.95 -13.5 9.3 -12.2 10.6 -10.85 10.6 -9.0 10.6 -7.2 9.4 -5.9 10.1 -5.7 10.7 -5.1 11.65 -4.15 11.65 -2.8 11.65 -1.45 10.7 -0.5 L10.25 -0.1" fill="none" stroke="#000000" stroke-linecap="round" stroke-linejoin="round" stroke-width="1.5"/>
      <path d="M10.25 -0.1 L10.35 0.3 10.4 0.4 10.5 0.35 Q11.75 0.05 12.9 0.75 14.05 1.45 14.4 2.75 14.7 4.0 14.0 5.2 L12.9 6.25 13.2 7.1 Q13.5 8.35 12.8 9.5 12.05 10.65 10.8 10.95 L8.05 10.6 7.65 11.05 Q6.85 11.9 5.7 11.9 4.55 11.9 3.7 11.05 L3.1 10.15 2.7 10.6 Q1.85 11.45 0.65 11.45 -0.55 11.45 -1.4 10.6 -2.25 9.75 -2.25 8.55 -2.25 7.55 -1.65 6.8 L-2.75 7.1 Q-3.6 7.1 -4.2 6.5 -4.8 5.9 -4.8 5.05 -4.8 4.2 -4.2 3.6 L-4.0 3.45 -4.85 3.0 Q-6.0 2.3 -6.3 1.05 -6.6 -0.25 -5.9 -1.4 -5.2 -2.55 -3.9 -2.85 L-2.85 -2.95 Q-3.05 -4.05 -2.45 -5.3 -1.85 -6.55 -0.45 -6.5 L1.7 -6.1 2.25 -6.05" fill="none" stroke="#000000" stroke-linecap="round" stroke-linejoin="round" stroke-width="1.8"/>
    </g>
    <g id="sprite11" transform="matrix(1.0, 0.0, 0.0, 1.0, 25.75, 27.05)">
      <use height="51.75" transform="matrix(1.0, 0.0, 0.0, 1.0, -24.85, -26.15)" width="49.35" xlink:href="#sprite12"/>
      <use height="53.55" transform="matrix(1.0, 0.0, 0.0, 1.0, -25.75, -27.05)" width="51.15" xlink:href="#shape12"/>
    </g>
    <g id="sprite12" transform="matrix(1.0, 0.0, 0.0, 1.0, 24.7, 25.9)">
      <use height="51.75" transform="matrix(1.0, 0.0, 0.0, 1.0, -24.7, -25.9)" width="49.35" xlink:href="#shape11"/>
    </g>
    <g id="shape11" transform="matrix(1.0, 0.0, 0.0, 1.0, 24.7, 25.9)">
      <path d="M-8.1 -25.9 L21.4 -13.45 24.65 4.45 Q21.2 11.95 15.0 17.9 9.0 24.25 -0.65 25.45 -13.7 27.25 -20.85 20.9 -27.55 14.55 -22.55 5.45 -24.4 0.5 -24.4 -4.75 L-8.1 -25.9" fill="#f5b87a" fill-rule="evenodd" stroke="none"/>
    </g>
    <g id="shape12" transform="matrix(1.0, 0.0, 0.0, 1.0, 25.75, 27.05)">
      <path d="M-8.25 -26.15 L21.25 -13.7 24.5 4.2 Q21.05 11.7 14.85 17.65 8.85 24.0 -0.8 25.2 -13.85 27.0 -21.0 20.65 -27.7 14.3 -22.7 5.2 -24.55 0.25 -24.55 -5.0 L-8.25 -26.15 Z" fill="none" stroke="#000000" stroke-linecap="round" stroke-linejoin="round" stroke-width="1.8"/>
    </g>
    <g id="sprite13" transform="matrix(1.0, 0.0, 0.0, 1.0, 8.8, 8.8)">
      <use height="15.8" transform="matrix(1.0, 0.0, 0.0, 1.0, -7.9, -7.9)" width="15.8" xlink:href="#sprite14"/>
      <use height="17.6" transform="matrix(1.0, 0.0, 0.0, 1.0, -8.8, -8.8)" width="17.6" xlink:href="#shape14"/>
    </g>
    <g id="sprite14" transform="matrix(1.0, 0.0, 0.0, 1.0, 7.9, 7.9)">
      <use height="15.8" transform="matrix(1.0, 0.0, 0.0, 1.0, -7.9, -7.9)" width="15.8" xlink:href="#shape13"/>
    </g>
    <g id="shape13" transform="matrix(1.0, 0.0, 0.0, 1.0, 7.9, 7.9)">
      <path d="M7.9 0.0 Q7.85 3.25 5.55 5.55 3.25 7.85 0.0 7.9 -3.25 7.85 -5.6 5.55 -7.9 3.25 -7.9 0.0 -7.9 -3.25 -5.6 -5.55 L-5.1 -6.0 Q-2.95 -7.9 0.0 -7.9 2.9 -7.9 5.1 -6.0 L5.55 -5.55 Q7.85 -3.25 7.9 0.0" fill="#ff6699" fill-rule="evenodd" stroke="none"/>
    </g>
    <g id="shape14" transform="matrix(1.0, 0.0, 0.0, 1.0, 8.2, 12.2)">
      <path d="M6.15 -8.95 Q8.45 -6.65 8.5 -3.4 8.45 -0.15 6.15 2.15 3.85 4.45 0.6 4.5 -2.65 4.45 -5.0 2.15 -7.3 -0.15 -7.3 -3.4 -7.3 -6.65 -5.0 -8.95 L-4.5 -9.4 Q-2.35 -11.3 0.6 -11.3 3.5 -11.3 5.7 -9.4 L6.15 -8.95 Z" fill="none" stroke="#000000" stroke-linecap="round" stroke-linejoin="round" stroke-width="1.8"/>
    </g>
    <g id="sprite15" transform="matrix(1.0, 0.0, 0.0, 1.0, 29.5, 20.1)">
      <use height="44.65" transform="matrix(1.0, 0.0, 0.0, 1.0, -28.6, -19.2)" width="61.25" xlink:href="#sprite16"/>
      <use height="46.45" transform="matrix(1.0, 0.0, 0.0, 1.0, -29.5, -20.1)" width="63.05" xlink:href="#shape16"/>
    </g>
    <g id="sprite16" transform="matrix(1.0, 0.0, 0.0, 1.0, 30.6, 22.3)">
      <use height="44.65" transform="matrix(1.0, 0.0, 0.0, 1.0, -30.6, -22.3)" width="61.25" xlink:href="#shape15"/>
    </g>
    <g id="shape15" transform="matrix(1.0, 0.0, 0.0, 1.0, 30.6, 22.3)">
      <path d="M-28.8 -5.6 Q-22.2 -17.15 -11.75 -20.5 10.35 -25.85 20.7 -15.45 31.05 -5.0 30.65 7.85 29.75 18.1 17.75 22.35 13.25 12.05 2.0 6.1 -22.1 -3.25 -26.05 10.4 -33.5 5.9 -28.8 -5.6" fill="#003300" fill-rule="evenodd" stroke="none"/>
    </g>
    <g id="shape16" transform="matrix(1.0, 0.0, 0.0, 1.0, 29.5, 20.1)">
      <path d="M-26.8 -2.5 Q-31.5 9.0 -24.05 13.5 -20.1 -0.15 4.0 9.2 15.25 15.15 19.75 25.45 31.75 21.2 32.65 10.95 33.05 -1.9 22.7 -12.35 12.35 -22.75 -9.75 -17.4 -20.2 -14.05 -26.8 -2.5 Z" fill="none" stroke="#000000" stroke-linecap="round" stroke-linejoin="round" stroke-width="1.8"/>
    </g>
    <g id="sprite17" transform="matrix(1.0, 0.0, 0.0, 1.0, 24.75, 13.2)">
      <use height="29.55" transform="matrix(1.0, 0.0, 0.0, 1.0, -24.75, -13.2)" width="51.5" xlink:href="#shape17"/>
    </g>
    <g id="shape17" transform="matrix(1.0, 0.0, 0.0, 1.0, 24.75, 13.2)">
      <path d="M0.4 -12.4 Q15.6 -9.7 23.2 3.85 L24.0 5.4 24.5 6.35 24.7 6.8 24.75 6.9 24.85 7.1 25.45 8.35 26.55 10.95 Q27.1 12.4 26.15 16.35 L24.35 13.2 Q16.65 1.45 9.5 -1.95 -18.65 -12.8 -21.65 4.95 -27.4 2.45 -22.5 -4.8 -16.45 -13.5 -6.45 -13.2 L-3.3 -12.85 0.7 -12.4 0.4 -12.4" fill="#000000" fill-opacity="0.5529412" fill-rule="evenodd" stroke="none"/>
    </g>
    <g id="sprite18" transform="matrix(1.0, 0.0, 0.0, 1.0, 9.65, 6.2)">
      <use height="10.65" transform="matrix(1.0, 0.0, 0.0, 1.0, -8.75, -5.3)" width="17.6" xlink:href="#sprite19"/>
      <use height="12.45" transform="matrix(1.0, 0.0, 0.0, 1.0, -9.65, -6.2)" width="19.4" xlink:href="#shape19"/>
    </g>
    <g id="sprite19" transform="matrix(1.0, 0.0, 0.0, 1.0, 8.8, 5.3)">
      <use height="10.65" transform="matrix(1.0, 0.0, 0.0, 1.0, -8.8, -5.3)" width="17.6" xlink:href="#shape18"/>
    </g>
    <g id="shape18" transform="matrix(1.0, 0.0, 0.0, 1.0, 8.8, 5.3)">
      <path d="M6.15 -0.55 Q8.9 0.3 8.8 3.05 8.65 5.7 1.5 5.3 -3.2 4.55 -5.9 2.9 L-7.6 1.85 Q-8.8 0.65 -8.8 -1.1 -8.8 -2.9 -7.6 -4.1 -6.4 -5.3 -4.65 -5.3 -2.9 -5.3 -1.65 -4.1 L-0.95 -3.2 Q0.5 -1.8 2.75 -1.3 L6.15 -0.55" fill="#f5b87a" fill-rule="evenodd" stroke="none"/>
    </g>
    <g id="shape19" transform="matrix(1.0, 0.0, 0.0, 1.0, 9.65, 6.2)">
      <path d="M6.2 -0.55 Q8.95 0.3 8.85 3.05 8.7 5.7 1.55 5.3 -3.15 4.55 -5.85 2.9 -6.8 2.6 -7.55 1.85 -8.75 0.65 -8.75 -1.1 -8.75 -2.9 -7.55 -4.1 -6.35 -5.3 -4.6 -5.3 -2.85 -5.3 -1.6 -4.1 L-0.9 -3.2 Q0.55 -1.8 2.8 -1.3 L6.2 -0.55 M-5.85 2.9 L-4.6 3.05 Q-2.85 3.05 -1.6 1.85 -0.4 0.65 -0.4 -1.1 -0.4 -2.3 -0.9 -3.2" fill="none" stroke="#000000" stroke-linecap="round" stroke-linejoin="round" stroke-width="1.8"/>
    </g>
    <g id="morphshape0" transform="matrix(1.0, 0.0, 0.0, 1.0, 1.05, 56.0)">
      <path d="M0.25 -53.55 Q5.25 -51.8 8.75 -55.1" fill="none" stroke="#000000" stroke-linecap="round" stroke-linejoin="round" stroke-width="1.5"/>
    </g>
    <g id="morphshape1" transform="matrix(1.0, 0.0, 0.0, 1.0, 19.75, 50.85)">
      <path d="M-18.45 -47.35 Q-14.75 -47.15 -13.45 -49.6" fill="none" stroke="#000000" stroke-linecap="round" stroke-linejoin="round" stroke-width="1.5"/>
    </g>
    <g id="morphshape2" transform="matrix(1.0, 0.0, 0.0, 1.0, 3.75, 62.8)">
      <path d="M-2.7 -61.75 Q1.85 -59.0 9.15 -59.7" fill="none" stroke="#000000" stroke-linecap="round" stroke-linejoin="round" stroke-width="1.5"/>
    </g>
    <g id="morphshape3" transform="matrix(1.0, 0.0, 0.0, 1.0, 21.75, 59.55)">
      <path d="M-20.6 -52.6 Q-18.4 -54.65 -17.3 -56.6 L-16.5 -58.45" fill="none" stroke="#000000" stroke-linecap="round" stroke-linejoin="round" stroke-width="1.5"/>
    </g>
    <g id="morphshape4" transform="matrix(1.0, 0.0, 0.0, 1.0, 9.75, 38.25)">
      <path d="M-8.35 -35.15 Q-6.95 -35.95 -4.85 -36.4 L-0.25 -37.3" fill="none" stroke="#000000" stroke-linecap="round" stroke-linejoin="round" stroke-width="1.5"/>
    </g>
    <g id="shape20" transform="matrix(1.0, 0.0, 0.0, 1.0, 2.9, 2.85)">
      <path d="M2.15 -1.85 Q2.95 -1.0 2.9 0.2 2.8 1.4 1.9 2.2 1.0 2.95 -0.2 2.9 -1.4 2.85 -2.2 1.95 -3.0 1.0 -2.9 -0.15 -2.85 -1.35 -1.95 -2.1 -1.05 -2.95 0.15 -2.85 1.35 -2.8 2.15 -1.85" fill="#000000" fill-opacity="0.15294118" fill-rule="evenodd" stroke="none"/>
    </g>
    <g id="sprite20" transform="matrix(1.0, 0.0, 0.0, 1.0, 2.0, 2.4)">
      <use height="4.9" transform="matrix(1.0, 0.0, 0.0, 1.0, -2.0, -2.4)" width="3.95" xlink:href="#shape21"/>
    </g>
    <g id="shape21" transform="matrix(1.0, 0.0, 0.0, 1.0, 2.0, 2.4)">
      <path d="M1.45 -1.55 Q2.0 -0.85 1.95 0.15 1.85 1.15 1.25 1.85 0.65 2.5 -0.05 2.5 L-0.15 2.5 Q-1.0 2.45 -1.5 1.7 -2.05 0.9 -2.0 -0.1 -1.95 -1.1 -1.3 -1.75 -0.7 -2.45 0.15 -2.4 L0.25 -2.4 1.45 -1.55" fill="#000000" fill-opacity="0.15294118" fill-rule="evenodd" stroke="none"/>
    </g>
    <g id="sprite21" transform="matrix(1.0, 0.0, 0.0, 1.0, 11.3, 17.0)">
      <use height="25.45" transform="matrix(1.0, 0.0, 0.0, 1.0, -10.4, -16.25)" width="20.85" xlink:href="#sprite22"/>
      <use height="27.1" transform="matrix(1.0, 0.0, 0.0, 1.0, -11.3, -17.0)" width="22.65" xlink:href="#shape23"/>
    </g>
    <g id="sprite22" transform="matrix(1.0, 0.0, 0.0, 1.0, 10.4, 12.75)">
      <use height="25.45" transform="matrix(1.0, 0.0, 0.0, 1.0, -10.4, -12.75)" width="20.85" xlink:href="#shape22"/>
    </g>
    <g id="shape22" transform="matrix(1.0, 0.0, 0.0, 1.0, 10.4, 12.75)">
      <path d="M1.1 -11.45 Q2.45 -10.1 2.45 -8.25 2.45 -6.65 1.5 -5.5 L1.8 -5.3 Q1.65 -4.95 2.05 -5.15 3.15 -5.9 4.85 -6.35 6.5 -6.85 6.8 -5.05 7.05 -3.3 6.9 -2.2 L8.0 -2.1 Q9.25 -1.8 9.95 -0.65 10.65 0.5 10.35 1.8 10.05 3.05 8.9 3.75 L8.1 4.1 Q8.45 5.0 8.25 6.0 7.9 7.3 6.8 8.0 5.6 8.7 4.35 8.4 3.35 8.15 2.7 7.45 L2.05 7.95 1.25 8.3 Q1.6 9.2 1.35 10.2 1.05 11.5 -0.1 12.2 -1.25 12.9 -2.55 12.6 -3.7 12.3 -4.35 11.4 -5.5 12.0 -6.7 11.7 -8.0 11.4 -8.7 10.25 -9.45 9.1 -9.1 7.85 L-8.8 7.0 -9.9 5.95 Q-10.65 4.75 -10.3 3.5 -10.0 2.2 -8.85 1.5 -7.7 0.8 -6.4 1.1 L-6.3 1.15 -6.3 1.05 -6.15 0.65 -6.65 0.25 Q-7.6 -0.7 -7.6 -2.05 -7.6 -3.4 -6.65 -4.35 -6.05 -4.95 -5.3 -5.15 -6.55 -6.45 -6.55 -8.25 -6.55 -10.1 -5.25 -11.45 -3.9 -12.75 -2.05 -12.75 -0.2 -12.75 1.1 -11.45" fill="#000000" fill-rule="evenodd" stroke="none"/>
    </g>
    <g id="shape23" transform="matrix(1.0, 0.0, 0.0, 1.0, 11.3, 17.0)">
      <path d="M-6.15 -2.85 L-6.3 -2.45 -6.3 -2.35 -6.4 -2.4 Q-7.7 -2.7 -8.85 -2.0 -10.0 -1.3 -10.3 0.0 -10.65 1.25 -9.9 2.45 L-8.8 3.5 -9.1 4.35 Q-9.45 5.6 -8.7 6.75 -8.0 7.9 -6.7 8.2 -5.5 8.5 -4.35 7.9 -3.7 8.8 -2.55 9.1 -1.25 9.4 -0.1 8.7 1.05 8.0 1.35 6.7 1.6 5.7 1.25 4.8 L2.05 4.45 2.7 3.95 Q3.35 4.65 4.35 4.9 5.6 5.2 6.8 4.5 7.9 3.8 8.25 2.5 8.45 1.5 8.1 0.6 L8.9 0.25 Q10.05 -0.45 10.35 -1.7 10.65 -3.0 9.95 -4.15 9.25 -5.3 8.0 -5.6 L6.9 -5.7 Q7.05 -6.8 6.8 -8.55 6.5 -10.35 4.85 -9.85 3.15 -9.4 2.05 -8.65 1.65 -8.45 1.8 -8.8" fill="none" stroke="#000000" stroke-linecap="round" stroke-linejoin="round" stroke-width="1.8"/>
      <path d="M1.5 -9.0 Q2.45 -10.15 2.45 -11.75 2.45 -13.6 1.1 -14.95 -0.2 -16.25 -2.05 -16.25 -3.9 -16.25 -5.25 -14.95 -6.55 -13.6 -6.55 -11.75 -6.55 -9.95 -5.3 -8.65 -6.05 -8.45 -6.65 -7.85 -7.6 -6.9 -7.6 -5.55 -7.6 -4.2 -6.65 -3.25 L-6.15 -2.85 Z" fill="none" stroke="#000000" stroke-linecap="round" stroke-linejoin="round" stroke-width="1.5"/>
    </g>
    <g id="sprite23" transform="matrix(1.0, 0.0, 0.0, 1.0, 5.1, 4.95)">
      <use height="8.15" transform="matrix(1.0, 0.0, 0.0, 1.0, -4.2, -4.05)" width="8.5" xlink:href="#sprite24"/>
      <use height="9.95" transform="matrix(1.0, 0.0, 0.0, 1.0, -5.1, -4.95)" width="10.3" xlink:href="#shape25"/>
    </g>
    <g id="sprite24" transform="matrix(1.0, 0.0, 0.0, 1.0, 4.25, 4.05)">
      <use height="6.95" transform="matrix(1.1724, 0.0, 0.0, 1.1727, -4.2707, -4.0457)" width="7.25" xlink:href="#shape24"/>
    </g>
    <g id="shape24" transform="matrix(1.0, 0.0, 0.0, 1.0, 3.6, 3.45)">
      <path d="M2.55 -2.45 Q3.65 -1.45 3.65 0.0 3.65 1.45 2.55 2.45 1.5 3.5 0.05 3.5 -1.45 3.5 -2.55 2.45 -3.6 1.45 -3.6 0.0 -3.6 -1.45 -2.55 -2.45 -1.45 -3.45 0.05 -3.45 1.5 -3.45 2.55 -2.45" fill="#f5b87a" fill-rule="evenodd" stroke="none"/>
    </g>
    <g id="shape25" transform="matrix(1.0, 0.0, 0.0, 1.0, 5.1, 4.95)">
      <path d="M3.0 -2.9 Q4.25 -1.7 4.3 0.0 4.25 1.7 3.0 2.9 1.8 4.1 0.05 4.1 -1.75 4.1 -3.0 2.9 -4.2 1.7 -4.2 0.0 -4.2 -1.7 -3.0 -2.9 -1.75 -4.1 0.05 -4.05 1.8 -4.1 3.0 -2.9 Z" fill="none" stroke="#000000" stroke-linecap="round" stroke-linejoin="round" stroke-width="1.8"/>
    </g>
    <g id="shape26" transform="matrix(1.0, 0.0, 0.0, 1.0, 3.3, 6.2)">
      <path d="M0.05 -6.1 Q2.9 -2.1 3.25 3.0 L3.25 2.95 Q3.2 4.3 2.3 5.25 1.35 6.2 0.05 6.2 L-0.05 6.2 Q-1.4 6.2 -2.35 5.25 -3.3 4.3 -3.3 3.0 L-3.3 2.95 Q-2.85 -1.95 0.0 -6.2 L0.05 -6.1" fill="#33ccff" fill-rule="evenodd" stroke="none"/>
    </g>
  </defs>
</svg>
