<?xml version="1.0" encoding="UTF-8" standalone="no"?>
<svg xmlns:xlink="http://www.w3.org/1999/xlink" height="118.85px" width="90.65px" xmlns="http://www.w3.org/2000/svg">
  <g transform="matrix(1.0, 0.0, 0.0, 1.0, 4.75, 9.85)">
    <use height="11.3" id="mc1800" transform="matrix(1.0, 0.0, 0.0, 1.0, 23.0, 69.15)" width="42.7" xlink:href="#sprite0"/>
      <use height="18.85" id="mc1700" transform="matrix(0.9946, 0.101, -0.101, 0.9946, 48.8366, 90.5017)" width="10.9" xlink:href="#sprite2"/>
      <use height="18.85" id="mc1600" transform="matrix(0.9946, 0.101, -0.101, 0.9946, 33.6366, 90.4517)" width="10.9" xlink:href="#sprite2"/>
      <use height="15.05" id="mc1500" transform="matrix(-1.0, 0.0, 0.0, 1.0, 58.05, 92.2)" width="13.6" xlink:href="#sprite3"/>
      <use height="8.3" transform="matrix(1.0, 0.0, 0.0, 1.0, 48.05, 96.3)" width="9.55" xlink:href="#shape6"/>
      <use height="20.35" id="mc1300" transform="matrix(0.9955, 0.0693, -0.0693, 0.9955, 26.0324, 76.3919)" width="13.05" xlink:href="#sprite5"/>
      <use height="15.05" id="mc1200" transform="matrix(1.0, 0.0, 0.0, 1.0, 32.25, 92.2)" width="13.6" xlink:href="#sprite3"/>
      <use height="20.35" id="mc1100" transform="matrix(-0.9955, 0.0693, 0.0693, 0.9955, 64.0676, 76.3919)" width="13.05" xlink:href="#sprite5"/>
      <use height="27.2" id="mc1000" transform="matrix(1.0, 0.0, 0.0, 1.0, 32.45, 70.75)" width="24.5" xlink:href="#sprite9"/>
      <use height="45.0" id="mc900" transform="matrix(1.0, 0.0, 0.0, 1.0, 17.6, 34.9)" width="57.15" xlink:href="#sprite12"/>
      <use height="5.1" id="mc800" transform="matrix(1.0, 0.0, 0.0, 1.0, 27.3, 54.95)" width="12.2" xlink:href="#sprite14"/>
      <use height="9.55" id="mc700" transform="matrix(1.0, 0.0, 0.0, 1.0, 27.7, 60.55)" width="12.55" xlink:href="#sprite16"/>
      <use height="5.1" id="mc600" transform="matrix(1.0, 0.0, 0.0, 1.0, 49.95, 54.5)" width="12.2" xlink:href="#sprite14"/>
      <use height="9.55" id="mc500" transform="matrix(1.0, 0.0, 0.0, 1.0, 50.0, 60.0)" width="12.55" xlink:href="#sprite16"/>
      <use height="62.55" id="mc400" transform="matrix(1.0, 0.0, 0.0, 1.0, 15.75, 11.35)" width="61.0" xlink:href="#sprite18"/>
      <use height="58.25" id="mc300" transform="matrix(1.0, 0.0, 0.0, 1.0, 3.0, 14.35)" width="85.2" xlink:href="#sprite20"/>
      <use height="3.35" transform="matrix(1.3651, 0.0, 0.0, 1.0, 43.0881, 72.35)" width="3.15" xlink:href="#shape25"/>
      <use height="0.0" id="hat" transform="matrix(1.0, 0.0, 0.0, 1.0, 11.95, -8.5)" width="0.0" xlink:href="#sprite22"/>
  </g>
  <defs>
    <g id="shape0" transform="matrix(1.0, 0.0, 0.0, 1.0, -0.1, -0.2)">
      <path d="M77.5 13.45 Q90.75 26.75 90.75 45.55 90.75 64.35 77.5 77.6 64.2 90.85 45.4 90.85 26.6 90.85 13.35 77.6 0.1 64.35 0.1 45.55 0.1 26.75 13.35 13.45 26.6 0.2 45.4 0.2 64.2 0.2 77.5 13.45" fill="#ff0000" fill-rule="evenodd" stroke="none"/>
    </g>
    <g id="sprite0" transform="matrix(1.0, 0.0, 0.0, 1.0, 0.9, 0.9)">
      <use height="9.5" id="mc100" transform="matrix(1.0, 0.0, 0.0, 1.0, 0.0, 0.0)" width="40.9" xlink:href="#sprite1"/>
      <use height="11.3" transform="matrix(1.0, 0.0, 0.0, 1.0, -0.9, -0.9)" width="42.7" xlink:href="#shape2"/>
    </g>
    <g id="sprite1" transform="matrix(1.0, 0.0, 0.0, 1.0, 0.0, 0.0)">
      <use height="9.5" transform="matrix(1.0, 0.0, 0.0, 1.0, 0.0, 0.0)" width="40.9" xlink:href="#shape1"/>
    </g>
    <g id="shape1" transform="matrix(1.0, 0.0, 0.0, 1.0, 0.0, 0.0)">
      <path d="M36.55 9.5 Q32.25 8.65 30.45 5.3 L38.95 1.45 Q38.65 3.8 40.9 5.6 L36.55 6.4 36.55 9.5 M10.65 6.25 L4.35 8.85 5.5 3.05 10.65 6.25 M5.5 3.05 Q3.3 7.15 0.0 7.05 L0.35 0.0 5.5 3.05" fill="#663300" fill-rule="evenodd" stroke="none"/>
    </g>
    <g id="shape2" transform="matrix(1.0, 0.0, 0.0, 1.0, 0.9, 0.9)">
      <path d="M30.45 5.3 L38.95 1.45 Q38.65 3.8 40.9 5.6 L36.55 6.4 36.55 9.5 Q32.25 8.65 30.45 5.3 M0.0 7.05 L0.35 0.0 5.5 3.05 10.65 6.25 4.35 8.85 5.5 3.05 Q3.3 7.15 0.0 7.05" fill="none" stroke="#000000" stroke-linecap="round" stroke-linejoin="round" stroke-width="1.8"/>
    </g>
    <g id="sprite2" transform="matrix(1.0, 0.0, 0.0, 1.0, 4.95, 9.5)">
      <use height="18.85" transform="matrix(1.0, 0.0, 0.0, 1.0, -4.95, -9.5)" width="10.9" xlink:href="#shape3"/>
    </g>
    <g id="shape3" transform="matrix(1.0, 0.0, 0.0, 1.0, 4.95, 9.5)">
      <path d="M5.05 5.55 L5.05 5.7 Q5.15 6.65 3.9 7.45 2.7 8.25 0.95 8.4 -0.8 8.55 -2.15 7.95 -3.45 7.45 -3.55 6.5 L-3.55 6.35 -3.5 6.35 4.7 5.5 5.05 5.55" fill="#000000" fill-rule="evenodd" stroke="none"/>
      <path d="M-3.55 6.1 L-3.65 3.85 -4.05 -6.3 Q-4.1 -7.15 -3.15 -7.75 -2.1 -8.4 -0.55 -8.55 L2.1 -8.25 Q3.15 -7.75 3.3 -7.0 L3.35 -6.85 3.35 -6.65 4.7 3.05 5.05 5.45 4.7 5.5 -3.5 6.35 -3.55 6.1 M-3.65 3.85 L4.7 3.05 -3.65 3.85" fill="#ffffff" fill-rule="evenodd" stroke="none"/>
      <path d="M-3.55 6.1 L-3.65 3.85 -4.05 -6.3 Q-4.1 -7.15 -3.15 -7.75 -2.1 -8.4 -0.55 -8.55 L2.1 -8.25 Q3.15 -7.75 3.3 -7.0 L3.35 -6.85 3.35 -6.65 4.7 3.05 5.05 5.45 5.05 5.55 5.05 5.7 Q5.15 6.65 3.9 7.45 2.7 8.25 0.95 8.4 -0.8 8.55 -2.15 7.95 -3.45 7.45 -3.55 6.5 L-3.55 6.35 -3.55 6.1 M-3.5 6.35 L4.7 5.5 M-3.55 6.35 L-3.5 6.35 M4.7 3.05 L-3.65 3.85" fill="none" stroke="#000000" stroke-linecap="round" stroke-linejoin="round" stroke-width="1.8"/>
    </g>
    <g id="sprite3" transform="matrix(1.0, 0.0, 0.0, 1.0, 0.05, 0.75)">
      <use height="13.55" id="mc200" transform="matrix(1.0, 0.0, 0.0, 1.0, 0.75, 0.0)" width="12.05" xlink:href="#sprite4"/>
      <use height="15.05" transform="matrix(1.0, 0.0, 0.0, 1.0, -0.05, -0.75)" width="13.6" xlink:href="#shape5"/>
    </g>
    <g id="sprite4" transform="matrix(1.0, 0.0, 0.0, 1.0, 0.0, 0.0)">
      <use height="13.55" transform="matrix(1.0, 0.0, 0.0, 1.0, 0.0, 0.0)" width="12.05" xlink:href="#shape4"/>
    </g>
    <g id="shape4" transform="matrix(1.0, 0.0, 0.0, 1.0, 0.0, 0.0)">
      <path d="M0.0 12.9 Q-0.1 6.85 2.0 0.0 L12.05 2.7 12.05 13.55 1.85 13.25 0.0 12.9" fill="#333333" fill-rule="evenodd" stroke="none"/>
    </g>
    <g id="shape5" transform="matrix(1.0, 0.0, 0.0, 1.0, 0.05, 0.75)">
      <path d="M2.6 13.25 L0.75 12.9 Q0.65 6.85 2.75 0.0 L4.65 0.55 2.6 13.25" fill="#595959" fill-opacity="0.5019608" fill-rule="evenodd" stroke="none"/>
      <path d="M12.8 13.55 L2.6 13.25 0.7 13.05 0.75 12.9 Q0.65 6.85 2.75 0.0 L12.8 2.7 12.8 13.55 Z" fill="none" stroke="#000000" stroke-linecap="round" stroke-linejoin="round" stroke-width="1.5"/>
    </g>
    <g id="shape6" transform="matrix(1.0, 0.0, 0.0, 1.0, 0.9, 0.9)">
      <path d="M7.75 5.55 Q6.3 6.55 5.05 6.5 2.0 6.35 0.0 0.0" fill="none" stroke="#000000" stroke-linecap="round" stroke-linejoin="round" stroke-width="1.8"/>
    </g>
    <g id="sprite5" transform="matrix(1.0, 0.0, 0.0, 1.0, 6.55, 10.15)">
      <use height="4.9" id="mc300" transform="matrix(1.0, 0.0, 0.0, 1.0, -5.65, 4.4)" width="6.65" xlink:href="#sprite6"/>
      <use height="12.85" id="mc200" transform="matrix(1.0, 0.0, 0.0, 1.0, -4.35, -9.25)" width="8.2" xlink:href="#sprite7"/>
      <use height="15.35" id="mc100" transform="matrix(1.0, 0.0, 0.0, 1.0, -2.15, -9.1)" width="7.75" xlink:href="#sprite8"/>
      <use height="20.35" transform="matrix(1.0, 0.0, 0.0, 1.0, -6.55, -10.15)" width="13.05" xlink:href="#shape10"/>
    </g>
    <g id="sprite6" transform="matrix(1.0, 0.0, 0.0, 1.0, 0.05, 0.0)">
      <use height="4.9" transform="matrix(1.0, 0.0, 0.0, 1.0, -0.05, 0.0)" width="6.65" xlink:href="#shape7"/>
    </g>
    <g id="shape7" transform="matrix(1.0, 0.0, 0.0, 1.0, 0.05, 0.0)">
      <path d="M0.5 0.1 L6.6 3.75 6.5 3.85 5.45 4.6 Q3.9 5.2 2.4 4.6 0.8 3.9 0.2 2.4 -0.25 1.3 0.2 0.05 L0.25 0.0 0.5 0.1" fill="#996633" fill-rule="evenodd" stroke="none"/>
    </g>
    <g id="sprite7" transform="matrix(1.0, 0.0, 0.0, 1.0, 0.0, 0.0)">
      <use height="12.85" transform="matrix(1.0, 0.0, 0.0, 1.0, 0.0, 0.0)" width="8.2" xlink:href="#shape8"/>
    </g>
    <g id="shape8" transform="matrix(1.0, 0.0, 0.0, 1.0, 0.0, 0.0)">
      <path d="M2.2 12.85 L0.4 11.7 0.0 11.5 2.15 7.3 Q5.45 1.1 6.55 0.45 7.4 -0.1 8.2 0.05 L8.1 0.55 2.2 12.85" fill="#666600" fill-rule="evenodd" stroke="none"/>
    </g>
    <g id="sprite8" transform="matrix(1.0, 0.0, 0.0, 1.0, 0.0, 0.0)">
      <use height="15.35" transform="matrix(1.0, 0.0, 0.0, 1.0, 0.0, 0.0)" width="7.75" xlink:href="#shape9"/>
    </g>
    <g id="shape9" transform="matrix(1.0, 0.0, 0.0, 1.0, 0.0, 0.0)">
      <path d="M0.0 12.7 L5.9 0.4 6.45 0.0 Q7.45 0.45 7.7 1.7 8.0 2.95 6.0 9.7 L4.15 15.35 0.0 12.7" fill="#ff3300" fill-rule="evenodd" stroke="none"/>
    </g>
    <g id="shape10" transform="matrix(1.0, 0.0, 0.0, 1.0, 6.55, 10.15)">
      <path d="M-4.35 2.25 L-3.95 2.45 2.0 6.25 1.85 6.6 1.0 8.15 0.7 7.95 -5.1 4.5 -5.35 4.4 -5.1 3.75 -4.35 2.25" fill="#000000" fill-rule="evenodd" stroke="none"/>
      <path d="M2.0 6.25 L3.85 0.6 Q5.85 -6.15 5.55 -7.4 5.3 -8.65 4.3 -9.1 L3.85 -9.2 Q3.05 -9.35 2.2 -8.8 1.1 -8.15 -2.2 -1.95 L-4.35 2.25 M2.0 6.25 L1.85 6.6 1.0 8.15 0.9 8.25 -0.15 9.0 Q-1.7 9.6 -3.2 9.0 -4.8 8.3 -5.4 6.8 -5.85 5.7 -5.4 4.45 L-5.35 4.4 -5.1 3.75 -4.35 2.25" fill="none" stroke="#000000" stroke-linecap="round" stroke-linejoin="round" stroke-width="1.8"/>
      <path d="M-3.95 2.45 L2.0 6.25 M-5.1 4.5 L0.7 7.95" fill="none" stroke="#000000" stroke-linecap="round" stroke-linejoin="round" stroke-width="1.5"/>
    </g>
    <g id="sprite9" transform="matrix(1.0, 0.0, 0.0, 1.0, 0.9, 6.6)">
      <use height="9.25" id="mc200" transform="matrix(1.0, 0.0, 0.0, 1.0, 2.85, -5.7)" width="17.65" xlink:href="#sprite10"/>
      <use height="18.05" id="mc100" transform="matrix(1.0, 0.0, 0.0, 1.0, 0.4, -0.3)" width="22.05" xlink:href="#sprite11"/>
      <use height="27.2" transform="matrix(1.0, 0.0, 0.0, 1.0, -0.9, -6.6)" width="24.5" xlink:href="#shape13"/>
    </g>
    <g id="sprite10" transform="matrix(1.0, 0.0, 0.0, 1.0, 0.0, 0.0)">
      <use height="9.25" transform="matrix(1.0, 0.0, 0.0, 1.0, 0.0, 0.0)" width="17.65" xlink:href="#shape11"/>
    </g>
    <g id="shape11" transform="matrix(1.0, 0.0, 0.0, 1.0, 0.0, 0.0)">
      <path d="M17.65 5.75 Q14.9 8.6 9.95 9.15 L9.65 9.2 8.2 9.25 Q4.0 9.15 0.0 5.4 L8.4 0.0 17.65 5.75" fill="#666600" fill-rule="evenodd" stroke="none"/>
    </g>
    <g id="sprite11" transform="matrix(1.0, 0.0, 0.0, 1.0, 0.0, 0.0)">
      <use height="18.05" transform="matrix(1.0, 0.0, 0.0, 1.0, 0.0, 0.0)" width="22.05" xlink:href="#shape12"/>
    </g>
    <g id="shape12" transform="matrix(1.0, 0.0, 0.0, 1.0, 0.0, 0.0)">
      <path d="M12.4 3.75 Q17.35 3.2 20.1 0.35 L22.05 15.15 Q17.15 17.7 12.35 18.05 L12.4 3.75 M2.55 0.45 L2.45 0.0 Q6.45 3.75 10.65 3.85 L10.65 18.05 Q5.25 17.95 0.0 14.9 L2.55 0.45" fill="#ff3300" fill-rule="evenodd" stroke="none"/>
    </g>
    <g id="shape13" transform="matrix(1.0, 0.0, 0.0, 1.0, 0.9, 6.6)">
      <path d="M20.5 0.05 L20.5 0.0 20.5 0.05" fill="#99cc00" fill-rule="evenodd" stroke="none"/>
      <path d="M22.45 14.85 L22.7 17.0 Q12.05 22.4 0.0 16.95 L0.4 14.6 Q5.65 17.65 11.05 17.75 L11.05 3.55 12.5 3.5 12.8 3.5 12.75 17.75 Q17.55 17.4 22.45 14.85" fill="#000000" fill-rule="evenodd" stroke="none"/>
      <path d="M11.05 3.55 Q6.85 3.45 2.85 -0.3 L11.25 -5.7 20.5 0.05 20.5 0.0 20.5 0.05 22.45 14.85 22.7 17.0 Q12.05 22.4 0.0 16.95 L0.4 14.6 2.95 0.15 M11.05 3.55 L12.5 3.5 M12.8 3.5 L12.8 3.45 Q17.75 2.9 20.5 0.05" fill="none" stroke="#000000" stroke-linecap="round" stroke-linejoin="round" stroke-width="1.8"/>
    </g>
    <g id="sprite12" transform="matrix(1.0, 0.0, 0.0, 1.0, 0.9, 0.9)">
      <use height="43.2" id="mc100" transform="matrix(1.0, 0.0, 0.0, 1.0, 0.0, 0.0)" width="55.35" xlink:href="#sprite13"/>
      <use height="45.0" transform="matrix(1.0, 0.0, 0.0, 1.0, -0.9, -0.9)" width="57.15" xlink:href="#shape15"/>
    </g>
    <g id="sprite13" transform="matrix(1.0, 0.0, 0.0, 1.0, 0.0, 0.0)">
      <use height="43.2" transform="matrix(1.0, 0.0, 0.0, 1.0, 0.0, 0.0)" width="55.35" xlink:href="#shape14"/>
    </g>
    <g id="shape14" transform="matrix(1.0, 0.0, 0.0, 1.0, 0.0, 0.0)">
      <path d="M54.5 27.0 Q46.85 41.25 26.75 43.2 1.35 39.05 0.0 26.8 L0.0 8.05 24.65 0.0 55.35 9.4 54.5 27.0" fill="#996633" fill-rule="evenodd" stroke="none"/>
    </g>
    <g id="shape15" transform="matrix(1.0, 0.0, 0.0, 1.0, 0.9, 0.9)">
      <path d="M54.5 27.0 Q46.85 41.25 26.75 43.2 1.35 39.05 0.0 26.8 L0.0 8.05 24.65 0.0 55.35 9.4 54.5 27.0 Z" fill="none" stroke="#000000" stroke-linecap="round" stroke-linejoin="round" stroke-width="1.8"/>
    </g>
    <g id="sprite14" transform="matrix(1.0, 0.0, 0.0, 1.0, 0.75, 0.75)">
      <use height="3.6" id="mc100" transform="matrix(1.0, 0.0, 0.0, 1.0, 0.0, 0.0)" width="10.7" xlink:href="#sprite15"/>
      <use height="5.1" transform="matrix(1.0, 0.0, 0.0, 1.0, -0.75, -0.75)" width="12.2" xlink:href="#shape17"/>
    </g>
    <g id="sprite15" transform="matrix(1.0, 0.0, 0.0, 1.0, 0.0, 0.0)">
      <use height="3.6" transform="matrix(1.0, 0.0, 0.0, 1.0, 0.0, 0.0)" width="10.7" xlink:href="#shape16"/>
    </g>
    <g id="shape16" transform="matrix(1.0, 0.0, 0.0, 1.0, 0.0, 0.0)">
      <path d="M10.7 3.6 L0.05 3.6 Q-0.35 0.1 4.8 0.0 10.3 -0.15 10.7 3.6" fill="#663300" fill-rule="evenodd" stroke="none"/>
    </g>
    <g id="shape17" transform="matrix(1.0, 0.0, 0.0, 1.0, 0.75, 0.75)">
      <path d="M10.7 3.6 Q10.3 -0.15 4.8 0.0 -0.35 0.1 0.05 3.6 L10.7 3.6 Z" fill="none" stroke="#000000" stroke-linecap="round" stroke-linejoin="round" stroke-width="1.5"/>
    </g>
    <g id="sprite16" transform="matrix(1.0, 0.0, 0.0, 1.0, 0.9, 0.9)">
      <use height="7.75" transform="matrix(1.0, 0.0, 0.0, 1.0, 0.0, 0.0)" width="10.75" xlink:href="#shape18"/>
      <use height="4.45" id="mc100" transform="matrix(1.0, 0.0, 0.0, 1.0, 3.05, -0.45)" width="5.0" xlink:href="#sprite17"/>
      <use height="9.55" transform="matrix(1.0, 0.0, 0.0, 1.0, -0.9, -0.9)" width="12.55" xlink:href="#shape20"/>
    </g>
    <g id="shape18" transform="matrix(1.0, 0.0, 0.0, 1.0, 0.0, 0.0)">
      <path d="M0.0 0.0 L10.6 0.0 Q11.5 6.05 6.0 7.7 0.45 8.3 0.0 0.0" fill="#ffffff" fill-rule="evenodd" stroke="none"/>
    </g>
    <g id="sprite17" transform="matrix(1.0, 0.0, 0.0, 1.0, 0.0, 0.0)">
      <use height="4.45" transform="matrix(1.0, 0.0, 0.0, 1.0, 0.0, 0.0)" width="5.0" xlink:href="#shape19"/>
    </g>
    <g id="shape19" transform="matrix(1.0, 0.0, 0.0, 1.0, 0.0, 0.0)">
      <path d="M4.25 0.15 Q5.0 0.9 5.0 1.95 5.0 3.0 4.25 3.7 3.55 4.45 2.5 4.45 1.45 4.45 0.7 3.7 0.0 3.0 0.0 1.95 0.0 0.9 0.7 0.15 L0.9 0.0 4.1 0.0 4.25 0.15" fill="#009933" fill-rule="evenodd" stroke="none"/>
    </g>
    <g id="shape20" transform="matrix(1.0, 0.0, 0.0, 1.0, 0.9, 0.9)">
      <path d="M6.0 7.7 Q11.5 6.05 10.6 0.0 L0.0 0.0 Q0.45 8.3 6.0 7.7 Z" fill="none" stroke="#000000" stroke-linecap="round" stroke-linejoin="round" stroke-width="1.8"/>
    </g>
    <g id="sprite18" transform="matrix(1.0, 0.0, 0.0, 1.0, 0.9, -0.65)">
      <use height="60.9" id="mc100" transform="matrix(1.0, 0.0, 0.0, 1.0, 0.0, 1.4)" width="59.2" xlink:href="#sprite19"/>
      <use height="62.55" transform="matrix(1.0, 0.0, 0.0, 1.0, -0.9, 0.65)" width="61.0" xlink:href="#shape22"/>
    </g>
    <g id="sprite19" transform="matrix(1.0, 0.0, 0.0, 1.0, 0.0, -1.4)">
      <use height="60.9" transform="matrix(1.0, 0.0, 0.0, 1.0, 0.0, 1.4)" width="59.2" xlink:href="#shape21"/>
    </g>
    <g id="shape21" transform="matrix(1.0, 0.0, 0.0, 1.0, 0.0, -1.4)">
      <path d="M9.85 55.05 L9.85 62.3 Q4.9 60.25 1.0 56.35 L1.15 48.6 Q5.25 53.2 9.85 55.05 M41.4 8.95 Q56.4 16.25 57.7 28.65 L57.8 30.2 59.2 45.2 Q53.85 49.45 48.95 50.0 L50.75 41.3 45.75 46.45 Q45.0 45.25 44.5 43.9 43.45 41.0 43.65 37.6 42.85 41.85 39.35 43.9 L38.8 44.2 28.05 38.25 30.15 47.55 Q27.05 45.95 24.25 43.9 20.0 40.75 16.45 36.45 L16.3 43.7 Q11.35 41.75 7.75 36.6 7.65 40.4 8.65 43.9 L9.2 45.65 0.35 40.15 Q-2.75 14.0 20.45 7.95 24.2 7.05 27.75 6.85 L27.75 1.55 Q32.45 0.5 34.8 7.15 L37.8 1.9 Q42.0 3.55 41.4 8.95 M47.95 55.05 Q52.55 53.2 56.65 48.6 L56.8 56.35 Q52.9 60.25 47.95 62.3 L47.95 55.05" fill="#663300" fill-rule="evenodd" stroke="none"/>
    </g>
    <g id="shape22" transform="matrix(1.0, 0.0, 0.0, 1.0, 0.9, -0.65)">
      <path d="M44.5 43.9 Q45.0 45.25 45.75 46.45 L50.75 41.3 48.95 50.0 Q53.85 49.45 59.2 45.2 L57.8 30.2 57.7 28.65 Q56.4 16.25 41.4 8.95 41.5 5.15 37.75 1.75 L34.8 7.15 Q32.45 2.0 27.75 1.55 L27.75 6.85 Q24.2 7.05 20.45 7.95 -2.75 14.0 0.35 40.15 L9.2 45.65 8.65 43.9 Q7.65 40.4 7.75 36.6 11.35 41.75 16.3 43.7 L16.45 36.45 Q20.0 40.75 24.25 43.9 27.05 45.95 30.15 47.55 L28.05 38.25 38.8 44.2 39.35 43.9 Q42.85 41.85 43.65 37.6 43.45 41.0 44.5 43.9 M9.85 62.3 L9.85 55.05 Q5.25 53.2 1.15 48.6 L1.0 56.35 Q4.9 60.25 9.85 62.3 M47.95 62.3 L47.95 55.05 Q52.55 53.2 56.65 48.6 L56.8 56.35 Q52.9 60.25 47.95 62.3" fill="none" stroke="#000000" stroke-linecap="round" stroke-linejoin="round" stroke-width="1.8"/>
    </g>
    <g id="sprite20" transform="matrix(1.0, 0.0, 0.0, 1.0, 0.9, 0.9)">
      <use height="53.6" id="mc100" transform="matrix(1.0, 0.0, 0.0, 1.0, 3.7, 0.0)" width="76.0" xlink:href="#sprite21"/>
      <use height="58.25" transform="matrix(1.0, 0.0, 0.0, 1.0, -0.9, -0.9)" width="85.2" xlink:href="#shape24"/>
    </g>
    <g id="sprite21" transform="matrix(1.0, 0.0, 0.0, 1.0, 0.0, 0.0)">
      <use height="53.6" transform="matrix(1.0, 0.0, 0.0, 1.0, 0.0, 0.0)" width="76.0" xlink:href="#shape23"/>
    </g>
    <g id="shape23" transform="matrix(1.0, 0.0, 0.0, 1.0, 0.0, 0.0)">
      <path d="M66.6 26.55 Q63.35 2.2 38.15 2.45 12.95 2.65 9.35 26.15 8.05 25.85 6.55 26.55 9.9 -0.3 38.15 0.0 66.4 0.3 69.5 26.95 67.9 26.2 66.6 26.55 M71.3 28.0 Q74.1 28.75 76.0 30.35 71.2 41.65 73.75 51.9 72.2 53.0 70.3 53.6 65.8 52.8 66.5 40.15 67.0 31.8 71.3 28.0 M4.7 27.6 Q9.0 31.4 9.5 39.75 10.2 52.4 5.7 53.2 3.8 52.6 2.25 51.5 4.8 41.25 0.0 29.95 1.9 28.35 4.7 27.6" fill="#003333" fill-rule="evenodd" stroke="none"/>
    </g>
    <g id="shape24" transform="matrix(1.0, 0.0, 0.0, 1.0, 0.9, 0.9)">
      <path d="M73.2 26.95 Q74.05 27.3 75.0 28.0 70.7 31.8 70.2 40.15 69.5 52.8 74.0 53.6 71.95 57.6 69.35 55.95 66.15 53.85 65.5 48.1 64.75 41.45 65.8 34.75 67.05 27.35 70.3 26.55 71.6 26.2 73.2 26.95 M13.05 26.15 Q16.3 26.9 17.6 34.35 18.65 41.05 17.9 47.7 17.25 53.45 14.05 55.55 11.45 57.2 9.4 53.2 13.9 52.4 13.2 39.75 12.7 31.4 8.4 27.6 L10.25 26.55 Q11.75 25.85 13.05 26.15" fill="#333333" fill-rule="evenodd" stroke="none"/>
      <path d="M79.7 30.35 Q83.95 34.05 83.35 42.3 81.75 48.9 77.45 51.9 74.9 41.65 79.7 30.35 M5.95 51.5 Q1.65 48.5 0.05 41.9 -0.55 33.65 3.7 29.95 8.5 41.25 5.95 51.5" fill="#000000" fill-rule="evenodd" stroke="none"/>
      <path d="M10.25 26.55 Q13.6 -0.3 41.85 0.0 70.1 0.3 73.2 26.95 74.05 27.3 75.0 28.0 77.8 28.75 79.7 30.35 83.95 34.05 83.35 42.3 81.75 48.9 77.45 51.9 75.9 53.0 74.0 53.6 71.95 57.6 69.35 55.95 66.15 53.85 65.5 48.1 64.75 41.45 65.8 34.75 67.05 27.35 70.3 26.55 67.05 2.2 41.85 2.45 16.65 2.65 13.05 26.15 16.3 26.9 17.6 34.35 18.65 41.05 17.9 47.7 17.25 53.45 14.05 55.55 11.45 57.2 9.4 53.2 7.5 52.6 5.95 51.5 1.65 48.5 0.05 41.9 -0.55 33.65 3.7 29.95 5.6 28.35 8.4 27.6 L10.25 26.55 Q11.75 25.85 13.05 26.15 M74.0 53.6 Q69.5 52.8 70.2 40.15 70.7 31.8 75.0 28.0 M70.3 26.55 Q71.6 26.2 73.2 26.95 M8.4 27.6 Q12.7 31.4 13.2 39.75 13.9 52.4 9.4 53.2 M5.95 51.5 Q8.5 41.25 3.7 29.95 M79.7 30.35 Q74.9 41.65 77.45 51.9" fill="none" stroke="#000000" stroke-linecap="round" stroke-linejoin="round" stroke-width="1.8"/>
    </g>
    <g id="shape25" transform="matrix(1.0, 0.0, 0.0, 1.0, 5.1, -30.65)">
      <path d="M-2.2 30.65 Q-1.95 31.2 -1.95 31.85 -1.95 32.45 -2.1 32.9 L-2.4 33.35 Q-2.85 34.0 -3.5 34.0 -4.2 34.0 -4.7 33.35 L-4.95 32.75 -5.1 31.85 -4.85 30.65 -2.2 30.65" fill="#000000" fill-rule="evenodd" stroke="none"/>
    </g>
  </defs>
</svg>