<?xml version="1.0" encoding="UTF-8" standalone="no"?>
<svg xmlns:xlink="http://www.w3.org/1999/xlink" height="145.35px" width="90.65px" xmlns="http://www.w3.org/2000/svg">
  <g transform="matrix(1.0, 0.0, 0.0, 1.0, 4.75, 9.85)">
    <use height="22.75" id="mc1600" transform="matrix(1.244, 0.0807, -0.0807, 1.244, 28.4317, 85.5533)" width="10.65" xlink:href="#sprite0"/>
      <use height="22.75" id="mc1500" transform="matrix(-1.2464, 0.0333, 0.0333, 1.2464, 62.6666, 85.8842)" width="10.65" xlink:href="#sprite0"/>
      <use height="22.5" id="mc1400" transform="matrix(1.2411, 0.102, -0.102, 1.2411, 20.0411, 66.2801)" width="13.5" xlink:href="#sprite2"/>
      <use height="22.5" id="mc1300" transform="matrix(-1.2411, 0.102, 0.102, 1.2411, 71.5589, 66.4301)" width="13.5" xlink:href="#sprite2"/>
      <use height="32.3" id="mc1200" transform="matrix(1.2469, 0.0, 0.0, 1.2469, 28.0174, 62.9883)" width="27.85" xlink:href="#sprite5"/>
      <use height="22.8" id="mc1100" transform="matrix(1.2469, 0.0, 0.0, 1.2469, 26.0359, 67.1848)" width="31.7" xlink:href="#sprite9"/>
      <use height="50.9" id="mc1000" transform="matrix(1.2469, 0.0, 0.0, 1.2469, 12.9342, 8.9152)" width="54.7" xlink:href="#sprite12"/>
      <use height="3.85" id="mc900" transform="matrix(1.2469, 0.0, 0.0, 1.2469, 30.4267, 54.9185)" width="25.7" xlink:href="#sprite14"/>
      <use height="2.5" id="mc800" transform="matrix(1.2469, 0.0, 0.0, 1.2469, 33.4953, 58.6913)" width="21.5" xlink:href="#sprite15"/>
      <use height="6.15" id="mc700" transform="matrix(1.2469, 0.0, 0.0, 1.2469, 30.3779, 60.1845)" width="26.55" xlink:href="#sprite16"/>
      <use height="6.25" id="mc600" transform="matrix(-1.2469, 0.0, 0.0, 1.2469, 71.7256, 34.3721)" width="15.95" xlink:href="#sprite18"/>
      <use height="6.25" id="mc500" transform="matrix(1.2469, 0.0, 0.0, 1.2469, 22.8244, 34.3721)" width="15.95" xlink:href="#sprite18"/>
      <use height="51.65" id="mc400" transform="matrix(1.2469, 0.0, 0.0, 1.2469, 9.5539, 3.0287)" width="59.95" xlink:href="#sprite19"/>
      <use height="17.45" id="mc300" transform="matrix(1.2469, 0.0, 0.0, 1.2469, 23.0444, 11.4516)" width="37.25" xlink:href="#sprite21"/>
      <use height="12.95" id="mc200" transform="matrix(1.2469, 0.0, 0.0, 1.2469, 20.1036, 39.7572)" width="43.3" xlink:href="#sprite22"/>
      <use height="0.0" id="hat" transform="matrix(1.2469, 0.0, 0.0, 1.2469, 4.0, -30.65)" width="0.0" xlink:href="#sprite25"/>
  </g>
  <defs>
    <g id="shape0" transform="matrix(1.0, 0.0, 0.0, 1.0, -0.1, -0.2)">
      <path d="M77.5 13.45 Q90.75 26.75 90.75 45.55 90.75 64.35 77.5 77.6 64.2 90.85 45.4 90.85 26.6 90.85 13.35 77.6 0.1 64.35 0.1 45.55 0.1 26.75 13.35 13.45 26.6 0.2 45.4 0.2 64.2 0.2 77.5 13.45" fill="#ff0000" fill-rule="evenodd" stroke="none"/>
    </g>
    <g id="sprite0" transform="matrix(1.0, 0.0, 0.0, 1.0, 5.45, 11.3)">
      <use height="21.0" id="mc100" transform="matrix(-1.0, 0.0, 0.0, -1.0, 4.3, 10.55)" width="8.85" xlink:href="#sprite1"/>
      <use height="22.75" transform="matrix(1.0, 0.0, 0.0, 1.0, -5.45, -11.3)" width="10.65" xlink:href="#shape2"/>
    </g>
    <g id="sprite1" transform="matrix(1.0, 0.0, 0.0, 1.0, 4.4, 10.5)">
      <use height="21.0" transform="matrix(1.0, 0.0, 0.0, 1.0, -4.4, -10.5)" width="8.85" xlink:href="#shape1"/>
    </g>
    <g id="shape1" transform="matrix(1.0, 0.0, 0.0, 1.0, 4.4, 10.5)">
      <path d="M3.4 -6.2 L4.45 6.4 Q4.4 8.1 2.9 9.35 1.45 10.55 -0.3 10.5 -2.05 10.4 -3.25 9.2 -4.45 7.9 -4.4 6.2 L-4.0 -6.5 Q-3.95 -8.25 -2.95 -9.35 -1.9 -10.55 -0.2 -10.5 1.45 -10.45 2.5 -9.15 3.4 -8.0 3.4 -6.2" fill="param(piel)" fill-rule="evenodd" stroke="none"/>
    </g>
    <g id="shape2" transform="matrix(1.0, 0.0, 0.0, 1.0, 5.45, 11.3)">
      <path d="M3.15 -9.1 Q4.35 -7.85 4.3 -6.1 L3.95 6.55 Q3.85 8.3 2.9 9.4 1.8 10.6 0.1 10.55 -1.55 10.5 -2.55 9.25 -3.5 8.05 -3.45 6.25 L-4.55 -6.35 Q-4.5 -8.05 -3.0 -9.25 -1.55 -10.5 0.25 -10.4 1.95 -10.35 3.15 -9.1 Z" fill="none" stroke="#000000" stroke-linecap="round" stroke-linejoin="round" stroke-width="1.8"/>
    </g>
    <g id="sprite2" transform="matrix(1.0, 0.0, 0.0, 1.0, 6.4, 12.1)">
      <use height="19.35" id="mc300" transform="matrix(0.9431, 0.0, 0.0, 0.9431, -5.4484, -8.7009)" width="10.55" xlink:href="#sprite3"/>
      <use height="20.0" transform="matrix(1.0, 0.0, 0.0, 1.0, -6.4, -9.6)" width="11.7" xlink:href="#shape4"/>
      <use height="11.15" id="mc100" transform="matrix(0.9431, 0.0, 0.0, 0.9431, -3.8956, -11.2285)" width="10.7" xlink:href="#sprite4"/>
      <use height="12.3" transform="matrix(1.0, 0.0, 0.0, 1.0, -4.8, -12.1)" width="11.9" xlink:href="#shape6"/>
    </g>
    <g id="sprite3" transform="matrix(1.0, 0.0, 0.0, 1.0, 5.3, 9.65)">
      <use height="19.35" transform="matrix(1.0, 0.0, 0.0, 1.0, -5.3, -9.65)" width="10.55" xlink:href="#shape3"/>
    </g>
    <g id="shape3" transform="matrix(1.0, 0.0, 0.0, 1.0, 5.3, 9.65)">
      <path d="M1.65 -9.15 Q2.7 -9.9 3.75 -9.55 4.8 -9.25 5.15 -8.0 5.55 -6.75 4.0 0.3 L2.4 6.65 Q1.9 8.55 0.55 9.25 L-2.55 9.45 Q-4.2 8.9 -4.95 7.4 -5.65 6.0 -4.9 4.25 L-2.4 -1.8 Q0.55 -8.35 1.65 -9.15" fill="param(piel)" fill-rule="evenodd" stroke="none"/>
    </g>
    <g id="shape4" transform="matrix(1.0, 0.0, 0.0, 1.0, 6.4, 9.6)">
      <path d="M1.05 -8.2 Q0.05 -7.45 -2.75 -1.25 L-5.15 4.4 Q-5.85 6.1 -5.2 7.4 -4.45 8.8 -2.9 9.3 L0.0 9.1 Q1.25 8.45 1.75 6.7 L3.25 0.7 Q4.7 -5.95 4.35 -7.15 4.0 -8.3 3.0 -8.55 2.05 -8.95 1.05 -8.2 Z" fill="none" stroke="#000000" stroke-linecap="round" stroke-linejoin="round" stroke-width="1.8"/>
    </g>
    <g id="sprite4" transform="matrix(1.0, 0.0, 0.0, 1.0, 5.35, 5.65)">
      <use height="11.15" transform="matrix(1.0, 0.0, 0.0, 1.0, -5.35, -5.65)" width="10.7" xlink:href="#shape5"/>
    </g>
    <g id="shape5" transform="matrix(1.0, 0.0, 0.0, 1.0, 5.35, 5.65)">
      <path d="M5.35 -3.75 Q5.45 1.85 4.95 5.5 L-5.35 1.85 -0.15 -5.55 Q3.0 -6.1 5.35 -3.75" fill="param(camisa)" fill-rule="evenodd" stroke="none"/>
    </g>
    <g id="shape6" transform="matrix(1.0, 0.0, 0.0, 1.0, 4.8, 12.1)">
      <path d="M1.0 -11.1 L-3.9 -4.15 5.8 -0.7 Q6.25 -4.2 6.2 -9.45 4.05 -11.6 1.0 -11.1 Z" fill="none" stroke="#000000" stroke-linecap="round" stroke-linejoin="round" stroke-width="1.8"/>
    </g>
    <g id="sprite5" transform="matrix(1.0, 0.0, 0.0, 1.0, 13.9, 16.65)">
      <use height="21.6" id="mc200" transform="matrix(1.0, 0.0, 0.0, 1.0, -12.5, -15.75)" width="25.0" xlink:href="#sprite6"/>
      <use height="10.2" id="mc100" transform="matrix(1.0, 0.0, 0.0, 1.0, -13.0, 4.6)" width="26.05" xlink:href="#sprite7"/>
      <use height="32.3" transform="matrix(1.0, 0.0, 0.0, 1.0, -13.9, -16.65)" width="27.85" xlink:href="#shape10"/>
      <use height="7.8" transform="matrix(0.2807, 0.0, 0.0, 0.2051, -1.4974, -7.5704)" width="5.7" xlink:href="#shape11"/>
      <use height="7.8" transform="matrix(0.2807, 0.0, 0.0, 0.2051, -1.4974, -5.4704)" width="5.7" xlink:href="#shape11"/>
      <use height="7.8" transform="matrix(0.2807, 0.0, 0.0, 0.2051, -1.4974, -3.3704)" width="5.7" xlink:href="#shape11"/>
      <use height="7.8" transform="matrix(0.2807, 0.0, 0.0, 0.2051, 0.6526, -7.5704)" width="5.7" xlink:href="#shape11"/>
      <use height="7.8" transform="matrix(0.2807, 0.0, 0.0, 0.2051, 0.6526, -5.4704)" width="5.7" xlink:href="#shape11"/>
      <use height="7.8" transform="matrix(0.2807, 0.0, 0.0, 0.2051, 0.6526, -3.3704)" width="5.7" xlink:href="#shape11"/>
      <use height="7.8" transform="matrix(0.4386, 0.0, 0.0, 0.3205, 4.6947, -7.807)" width="5.7" xlink:href="#shape11"/>
      <use height="7.8" transform="matrix(0.4386, 0.0, 0.0, 0.3205, -7.2053, -7.807)" width="5.7" xlink:href="#shape11"/>
    </g>
    <g id="sprite6" transform="matrix(1.0, 0.0, 0.0, 1.0, 12.5, 10.8)">
      <use height="21.6" transform="matrix(1.0, 0.0, 0.0, 1.0, -12.5, -10.8)" width="25.0" xlink:href="#shape7"/>
    </g>
    <g id="shape7" transform="matrix(1.0, 0.0, 0.0, 1.0, 12.5, 10.8)">
      <path d="M7.25 -10.8 Q11.65 -1.55 12.5 9.55 0.0 12.05 -12.5 9.55 -11.9 -1.05 -7.45 -10.8 L7.25 -10.8" fill="param(piel)" fill-rule="evenodd" stroke="none"/>
    </g>
    <g id="sprite7" transform="matrix(1.0, 0.0, 0.0, 1.0, 13.0, 5.05)">
      <use height="10.05" id="mc100" transform="matrix(1.0, 0.0, 0.0, 1.0, -13.0, -5.05)" width="26.05" xlink:href="#sprite8"/>
      <use height="9.3" transform="matrix(1.0, 0.0, 0.0, 1.0, -10.9, -4.15)" width="21.5" xlink:href="#shape9"/>
    </g>
    <g id="sprite8" transform="matrix(1.0, 0.0, 0.0, 1.0, 13.0, 5.05)">
      <use height="10.05" transform="matrix(1.0, 0.0, 0.0, 1.0, -13.0, -5.05)" width="26.05" xlink:href="#shape8"/>
    </g>
    <g id="shape8" transform="matrix(1.0, 0.0, 0.0, 1.0, 13.0, 5.05)">
      <path d="M7.0 -0.55 L6.65 0.45 5.9 3.8 5.55 3.95 2.0 5.0 1.45 2.6 1.05 1.25 Q0.3 -0.4 -0.65 -0.4 -1.6 -0.4 -2.25 1.25 L-2.6 2.25 -3.15 4.75 -5.5 3.95 -6.3 3.6 -6.95 0.8 -7.35 -0.55 Q-8.1 -2.2 -9.05 -2.2 -10.0 -2.2 -10.65 -0.55 L-10.9 0.15 Q-12.05 -1.2 -13.0 -3.0 L-12.5 -5.05 -6.7 -4.15 -6.25 -2.1 -5.9 -1.1 Q-5.25 0.55 -4.3 0.55 -3.35 0.55 -2.6 -1.1 L-2.2 -2.45 -1.9 -3.85 1.0 -3.8 1.4 -2.1 1.75 -1.1 Q2.4 0.55 3.35 0.55 4.3 0.55 5.05 -1.1 L5.45 -2.45 5.85 -4.05 12.5 -5.05 13.05 -3.0 Q11.95 -1.0 10.6 0.5 L10.3 -0.55 Q9.55 -2.2 8.6 -2.2 7.65 -2.2 7.0 -0.55" fill="param(short)" fill-rule="evenodd" stroke="none"/>
    </g>
    <g id="shape9" transform="matrix(1.0, 0.0, 0.0, 1.0, 10.9, 4.15)">
      <path d="M5.05 -1.1 Q4.3 0.55 3.35 0.55 2.4 0.55 1.75 -1.1 L1.4 -2.1 1.0 -3.8 5.85 -4.05 5.45 -2.45 5.05 -1.1 M1.05 1.25 L1.45 2.6 2.0 5.0 -3.15 4.75 -2.6 2.25 -2.25 1.25 Q-1.6 -0.4 -0.65 -0.4 0.3 -0.4 1.05 1.25 M7.0 -0.55 Q7.65 -2.2 8.6 -2.2 9.55 -2.2 10.3 -0.55 L10.6 0.5 Q8.55 2.75 5.9 3.8 L6.65 0.45 7.0 -0.55 M-2.2 -2.45 L-2.6 -1.1 Q-3.35 0.55 -4.3 0.55 -5.25 0.55 -5.9 -1.1 L-6.25 -2.1 -6.7 -4.15 -1.9 -3.85 -2.2 -2.45 M-7.35 -0.55 L-6.95 0.8 -6.3 3.6 Q-8.9 2.45 -10.9 0.15 L-10.65 -0.55 Q-10.0 -2.2 -9.05 -2.2 -8.1 -2.2 -7.35 -0.55" fill="#000000" fill-rule="evenodd" stroke="none"/>
    </g>
    <g id="shape10" transform="matrix(1.0, 0.0, 0.0, 1.0, 13.9, 16.65)">
      <path d="M7.25 -15.75 Q11.65 -6.5 12.5 4.6 L13.05 6.65 Q10.2 11.9 5.55 13.6 0.0 15.95 -5.5 13.6 -10.2 11.9 -13.0 6.65 L-12.5 4.6 Q-11.9 -6.0 -7.45 -15.75 L7.25 -15.75 M12.5 4.6 Q0.0 7.1 -12.5 4.6" fill="none" stroke="#000000" stroke-linecap="round" stroke-linejoin="round" stroke-width="1.8"/>
    </g>
    <g id="shape11" transform="matrix(1.0, 0.0, 0.0, 1.0, 13.35, 25.45)">
      <path d="M-9.05 -24.6 Q-8.05 -23.65 -7.75 -22.05 -7.45 -20.5 -8.05 -19.2 -8.65 -17.95 -9.8 -17.7 -10.95 -17.5 -11.95 -18.5 -12.95 -19.5 -13.25 -21.05 -13.55 -22.65 -12.95 -23.9 -12.35 -25.2 -11.2 -25.4 -10.05 -25.6 -9.05 -24.6" fill="#000000" fill-rule="evenodd" stroke="none"/>
    </g>
    <g id="sprite9" transform="matrix(1.0, 0.0, 0.0, 1.0, 15.85, 11.4)">
      <use height="22.8" id="mc000" transform="matrix(1.0, 0.0, 0.0, 1.0, -15.85, -11.4)" width="13.45" xlink:href="#sprite10"/>
      <use height="22.8" id="mc001" transform="matrix(-1.0, 0.0, 0.0, 1.0, 15.85, -11.4)" width="13.45" xlink:href="#sprite10"/>
    </g>
    <g id="sprite10" transform="matrix(1.0, 0.0, 0.0, 1.0, 6.75, 11.4)">
      <use height="21.0" id="mc100" transform="matrix(1.0, 0.0, 0.0, 1.0, -5.85, -10.5)" width="11.65" xlink:href="#sprite11"/>
      <use height="22.8" transform="matrix(1.0, 0.0, 0.0, 1.0, -6.75, -11.4)" width="13.45" xlink:href="#shape13"/>
    </g>
    <g id="sprite11" transform="matrix(1.0, 0.0, 0.0, 1.0, 5.85, 10.5)">
      <use height="21.0" transform="matrix(1.0, 0.0, 0.0, 1.0, -5.85, -10.5)" width="11.65" xlink:href="#shape12"/>
    </g>
    <g id="shape12" transform="matrix(1.0, 0.0, 0.0, 1.0, 5.85, 10.5)">
      <path d="M5.7 -9.2 L2.7 10.5 -5.85 9.2 Q-5.8 4.95 -5.3 2.65 L-4.25 -2.0 -2.15 -8.5 -1.45 -9.85 -0.6 -9.9 -0.5 -9.95 -0.15 -9.95 -0.15 -10.2 5.8 -10.5 5.7 -9.2" fill="param(camisa)" fill-rule="evenodd" stroke="none"/>
    </g>
    <g id="shape13" transform="matrix(1.0, 0.0, 0.0, 1.0, 6.75, 11.4)">
      <path d="M-0.15 -10.2 L5.8 -10.5 5.7 -9.2 2.7 10.5 -5.85 9.2 Q-5.8 4.95 -5.3 2.65 L-4.25 -2.0 -2.15 -8.5 -1.45 -9.85 -0.6 -9.9 -0.5 -9.95 -0.15 -9.95 M5.7 -9.2 L-0.4 -4.3 -0.4 -8.9" fill="none" stroke="#000000" stroke-linecap="round" stroke-linejoin="round" stroke-width="1.8"/>
    </g>
    <g id="sprite12" transform="matrix(1.0, 0.0, 0.0, 1.0, 27.6, 25.45)">
      <use height="49.1" id="mc200" transform="matrix(1.0, 0.0, 0.0, 1.0, -26.5, -25.05)" width="52.9" xlink:href="#sprite13"/>
      <use height="50.9" transform="matrix(1.0, 0.0, 0.0, 1.0, -27.6, -25.45)" width="54.7" xlink:href="#shape15"/>
    </g>
    <g id="sprite13" transform="matrix(1.0, 0.0, 0.0, 1.0, 26.45, 24.55)">
      <use height="49.1" transform="matrix(1.0, 0.0, 0.0, 1.0, -26.45, -24.55)" width="52.9" xlink:href="#shape14"/>
    </g>
    <g id="shape14" transform="matrix(1.0, 0.0, 0.0, 1.0, 26.45, 24.55)">
      <path d="M26.45 0.0 Q26.45 3.2 25.65 6.15 23.95 12.4 18.7 17.35 10.95 24.55 0.0 24.55 -10.95 24.55 -18.7 17.35 -26.45 10.1 -26.45 0.0 -26.45 -5.85 -23.9 -10.7 -22.0 -14.25 -18.7 -17.3 -11.75 -23.8 -2.2 -24.45 L0.0 -24.55 Q10.95 -24.55 18.7 -17.3 23.95 -12.4 25.65 -6.15 26.45 -3.25 26.45 0.0" fill="param(piel)" fill-rule="evenodd" stroke="none"/>
    </g>
    <g id="shape15" transform="matrix(1.0, 0.0, 0.0, 1.0, 27.6, 25.45)">
      <path d="M25.4 -6.15 Q26.2 -3.25 26.2 0.0 26.2 3.2 25.4 6.15 23.7 12.4 18.45 17.35 10.7 24.55 -0.25 24.55 -11.2 24.55 -18.95 17.35 -26.7 10.1 -26.7 0.0 -26.7 -5.85 -24.15 -10.7 -22.25 -14.25 -18.95 -17.3 -12.0 -23.8 -2.45 -24.45 L-0.25 -24.55 Q10.7 -24.55 18.45 -17.3 23.7 -12.4 25.4 -6.15 Z" fill="none" stroke="#000000" stroke-linecap="round" stroke-linejoin="round" stroke-width="1.8"/>
    </g>
    <g id="sprite14" transform="matrix(1.0, 0.0, 0.0, 1.0, 12.85, 1.95)">
      <use height="3.85" transform="matrix(1.0, 0.0, 0.0, 1.0, 0.7, -1.95)" width="12.15" xlink:href="#shape16"/>
      <use height="3.85" transform="matrix(-1.0, 0.0, 0.0, 1.0, -0.7, -1.95)" width="12.15" xlink:href="#shape16"/>
    </g>
    <g id="shape16" transform="matrix(1.0, 0.0, 0.0, 1.0, 6.05, 1.9)">
      <path d="M-6.05 -0.05 L-5.7 -1.9 6.1 0.1 5.7 1.95 -6.05 -0.05" fill="#000000" fill-rule="evenodd" stroke="none"/>
    </g>
    <g id="sprite15" transform="matrix(1.0, 0.0, 0.0, 1.0, 10.75, 1.25)">
      <use height="2.5" transform="matrix(1.0, 0.0, 0.0, 1.0, -10.75, -1.25)" width="21.5" xlink:href="#shape17"/>
    </g>
    <g id="shape17" transform="matrix(1.0, 0.0, 0.0, 1.0, 10.75, 1.25)">
      <path d="M10.75 0.7 Q-0.65 1.85 -10.75 0.7 0.25 -3.2 10.75 0.7" fill="#000000" fill-opacity="0.2" fill-rule="evenodd" stroke="none"/>
    </g>
    <g id="sprite16" transform="matrix(1.0, 0.0, 0.0, 1.0, 13.25, 3.1)">
      <use height="4.65" id="mc100" transform="matrix(1.0, 0.0, 0.0, 1.0, -12.5, -2.35)" width="25.05" xlink:href="#sprite17"/>
      <use height="6.15" transform="matrix(1.0, 0.0, 0.0, 1.0, -13.25, -3.1)" width="26.55" xlink:href="#shape19"/>
    </g>
    <g id="sprite17" transform="matrix(1.0, 0.0, 0.0, 1.0, 12.5, 2.35)">
      <use height="4.65" transform="matrix(1.0, 0.0, 0.0, 1.0, -12.5, -2.35)" width="25.05" xlink:href="#shape18"/>
    </g>
    <g id="shape18" transform="matrix(1.0, 0.0, 0.0, 1.0, 12.5, 2.35)">
      <path d="M12.55 -2.35 Q0.0 7.0 -12.5 -2.35 L-10.75 -2.35 Q-0.65 -1.2 10.75 -2.35 L12.55 -2.35" fill="param(piel)" fill-rule="evenodd" stroke="none"/>
      <path d="M12.55 -2.35 Q0.0 7.0 -12.5 -2.35 L-10.75 -2.35 Q-0.65 -1.2 10.75 -2.35 L12.55 -2.35" fill="#000000" fill-opacity="0.2509804" fill-rule="evenodd" stroke="none"/>
    </g>
    <g id="shape19" transform="matrix(1.0, 0.0, 0.0, 1.0, 13.25, 3.1)">
      <path d="M12.55 -2.35 Q0.0 7.0 -12.5 -2.35 L-10.75 -2.35 Q-0.65 -1.2 10.75 -2.35 L12.55 -2.35 Z" fill="none" stroke="#000000" stroke-linecap="round" stroke-linejoin="round" stroke-width="1.5"/>
    </g>
    <g id="sprite18" transform="matrix(1.0, 0.0, 0.0, 1.0, 8.0, 3.15)">
      <use height="6.25" transform="matrix(1.0, 0.0, 0.0, 1.0, -8.0, -3.15)" width="15.95" xlink:href="#shape20"/>
    </g>
    <g id="shape20" transform="matrix(1.0, 0.0, 0.0, 1.0, 8.0, 3.15)">
      <path d="M-7.25 -2.4 Q0.55 -1.05 7.2 2.35" fill="none" stroke="#000000" stroke-linecap="round" stroke-linejoin="round" stroke-width="1.5"/>
    </g>
    <g id="sprite19" transform="matrix(1.0, 0.0, 0.0, 1.0, 29.95, 25.8)">
      <use height="49.85" id="mc200" transform="matrix(1.0, 0.0, 0.0, 1.0, -29.05, -24.9)" width="58.15" xlink:href="#sprite20"/>
      <use height="51.65" transform="matrix(1.0, 0.0, 0.0, 1.0, -29.95, -25.8)" width="59.95" xlink:href="#shape22"/>
    </g>
    <g id="sprite20" transform="matrix(1.0, 0.0, 0.0, 1.0, 29.05, 24.9)">
      <use height="49.85" transform="matrix(1.0, 0.0, 0.0, 1.0, -29.05, -24.9)" width="58.15" xlink:href="#shape21"/>
    </g>
    <g id="shape21" transform="matrix(1.0, 0.0, 0.0, 1.0, 29.05, 24.9)">
      <path d="M0.8 -24.9 Q12.35 -24.65 20.6 -17.0 23.4 -14.4 25.25 -11.45 L27.3 -7.5 28.4 -4.15 28.9 -1.15 29.1 2.1 28.9 5.35 28.4 8.35 27.3 11.7 25.25 15.65 Q23.4 18.55 20.6 21.15 18.25 23.35 15.65 24.95 L15.65 20.6 17.8 19.0 Q25.0 13.2 25.0 5.05 25.0 -3.15 17.8 -8.95 10.55 -14.75 0.35 -14.7 L-2.6 -14.6 Q-5.95 -14.35 -8.85 -13.4 L-9.9 -13.0 Q-13.85 -11.6 -17.15 -8.95 -23.45 -3.9 -24.3 2.9 L-24.4 5.05 -24.3 7.25 Q-24.0 9.45 -23.15 11.45 -21.4 15.65 -17.15 19.0 L-16.55 19.45 -16.55 24.3 -20.5 21.15 Q-25.5 16.55 -27.55 10.8 L-28.45 7.85 Q-29.05 5.05 -29.05 2.1 -29.05 -0.9 -28.45 -3.65 L-27.55 -6.65 Q-26.4 -9.9 -24.3 -12.75 -22.7 -15.0 -20.5 -17.0 -17.65 -19.65 -14.4 -21.4 L-13.4 -21.95 Q-8.45 -24.35 -2.6 -24.8 L-0.75 -24.9 -0.1 -24.9 0.05 -24.9 0.8 -24.9" fill="#000000" fill-rule="evenodd" stroke="none"/>
    </g>
    <g id="shape22" transform="matrix(1.0, 0.0, 0.0, 1.0, 29.95, 25.8)">
      <path d="M20.6 -17.0 Q23.4 -14.4 25.25 -11.45 L27.3 -7.5 28.4 -4.15 28.9 -1.15 29.1 2.1 28.9 5.35 28.4 8.35 27.3 11.7 25.25 15.65 Q23.4 18.55 20.6 21.15 18.25 23.35 15.65 24.95 L15.65 20.6 17.8 19.0 Q25.0 13.2 25.0 5.05 25.0 -3.15 17.8 -8.95 10.55 -14.75 0.35 -14.7 L-2.6 -14.6 Q-5.95 -14.35 -8.85 -13.4 L-9.9 -13.0 Q-13.85 -11.6 -17.15 -8.95 -23.45 -3.9 -24.3 2.9 L-24.4 5.05 -24.3 7.25 Q-24.0 9.45 -23.15 11.45 -21.4 15.65 -17.15 19.0 L-16.55 19.45 -16.55 24.3 -20.5 21.15 Q-25.5 16.55 -27.55 10.8 L-28.45 7.85 Q-29.05 5.05 -29.05 2.1 -29.05 -0.9 -28.45 -3.65 L-27.55 -6.65 Q-26.4 -9.9 -24.3 -12.75 -22.7 -15.0 -20.5 -17.0 -17.65 -19.65 -14.4 -21.4 L-13.4 -21.95 Q-8.45 -24.35 -2.6 -24.8 L-0.75 -24.9 -0.1 -24.9 0.05 -24.9 0.8 -24.9 Q12.35 -24.65 20.6 -17.0 Z" fill="none" stroke="#000000" stroke-linecap="round" stroke-linejoin="round" stroke-width="1.8"/>
    </g>
    <g id="sprite21" transform="matrix(1.0, 0.0, 0.0, 1.0, 18.65, 8.7)">
      <use height="17.45" transform="matrix(1.0, 0.0, 0.0, 1.0, -18.65, -8.7)" width="37.25" xlink:href="#shape23"/>
    </g>
    <g id="shape23" transform="matrix(1.0, 0.0, 0.0, 1.0, 18.65, 8.7)">
      <path d="M18.4 -8.7 Q19.6 -1.75 13.45 5.3 12.25 -4.0 4.0 -4.8 L18.4 -8.7 M4.65 -5.95 Q3.0 -5.45 1.95 -3.9 0.85 -2.4 0.95 -0.65 1.05 1.05 2.35 1.95 3.6 2.85 5.25 2.35 6.9 1.85 7.95 0.35 L8.2 -0.1 7.3 1.95 Q5.95 3.85 3.6 4.3 1.3 4.65 -0.65 3.3 -2.6 1.95 -2.95 -0.35 -3.4 -2.65 -2.0 -4.55 -0.65 -6.55 1.65 -6.95 3.85 -7.35 5.7 -6.1 L4.65 -5.95 M-18.45 -7.15 L-4.0 -3.3 Q-11.9 -0.3 -13.8 8.75 -19.65 -0.2 -18.45 -7.15" fill="#000000" fill-rule="evenodd" stroke="none"/>
    </g>
    <g id="sprite22" transform="matrix(1.0, 0.0, 0.0, 1.0, 21.65, 6.45)">
      <use height="11.45" id="mc100" transform="matrix(1.0, 0.0, 0.0, 1.0, -20.9, -5.7)" width="41.8" xlink:href="#sprite23"/>
      <use height="12.95" transform="matrix(1.0, 0.0, 0.0, 1.0, -21.65, -6.45)" width="43.3" xlink:href="#shape26"/>
    </g>
    <g id="sprite23" transform="matrix(1.0, 0.0, 0.0, 1.0, 20.9, 5.7)">
      <use height="11.45" id="mc100" transform="matrix(1.0, 0.0, 0.0, 1.0, -20.9, -5.7)" width="41.8" xlink:href="#sprite24"/>
      <use height="11.45" transform="matrix(1.0, 0.0, 0.0, 1.0, -20.9, -5.7)" width="41.8" xlink:href="#shape25"/>
    </g>
    <g id="sprite24" transform="matrix(1.0, 0.0, 0.0, 1.0, 20.9, 5.7)">
      <use height="11.45" transform="matrix(1.0, 0.0, 0.0, 1.0, -20.9, -5.7)" width="41.8" xlink:href="#shape24"/>
    </g>
    <g id="shape24" transform="matrix(1.0, 0.0, 0.0, 1.0, 20.9, 5.7)">
      <path d="M20.2 -4.35 Q21.1 -3.5 20.85 -1.55 20.55 0.35 18.8 2.4 16.8 4.85 14.35 5.65 8.95 6.2 4.6 3.15 4.15 1.65 4.0 0.05 L4.0 -2.95 Q4.25 -4.85 8.0 -5.5 12.85 -5.95 17.7 -5.45 19.3 -5.2 20.2 -4.35 M-4.0 -2.95 L-4.0 0.05 -4.2 1.35 -4.55 3.15 Q-8.95 6.2 -14.35 5.65 -16.8 4.85 -18.8 2.4 L-19.6 1.35 Q-20.65 -0.15 -20.8 -1.55 -21.1 -3.5 -20.2 -4.35 -19.3 -5.2 -17.7 -5.45 -12.8 -5.95 -7.95 -5.5 -4.25 -4.85 -4.0 -2.95" fill="param(lentes)" fill-rule="evenodd" stroke="none"/>
    </g>
    <g id="shape25" transform="matrix(1.0, 0.0, 0.0, 1.0, 20.9, 5.7)">
      <path d="M8.0 -5.5 Q12.85 -5.95 17.7 -5.45 19.3 -5.2 20.2 -4.35 21.1 -3.5 20.85 -1.55 20.55 0.35 18.8 2.4 16.8 4.85 14.35 5.65 8.95 6.2 4.6 3.15 4.15 1.65 4.0 0.05 L4.0 -2.95 Q4.25 -4.85 8.0 -5.5 M13.65 -1.8 Q14.2 -1.35 15.0 -1.35 15.75 -1.35 16.3 -1.8 16.8 -2.25 16.85 -2.9 16.8 -3.55 16.3 -3.95 15.75 -4.4 15.0 -4.4 14.2 -4.4 13.65 -3.95 13.1 -3.55 13.1 -2.9 13.1 -2.25 13.65 -1.8 M13.95 -0.95 Q15.55 1.3 13.65 3.65 L15.5 3.65 Q16.8 2.05 16.55 -0.95 16.0 -0.55 15.25 -0.5 14.5 -0.55 13.95 -0.95 M-16.4 -3.8 Q-16.95 -3.4 -16.95 -2.75 -16.95 -2.1 -16.4 -1.65 -15.9 -1.2 -15.1 -1.2 -14.35 -1.2 -13.8 -1.65 -13.25 -2.1 -13.25 -2.75 -13.25 -3.4 -13.8 -3.8 -14.35 -4.25 -15.1 -4.25 L-16.4 -3.8 M-17.7 -5.45 Q-12.8 -5.95 -7.95 -5.5 -4.25 -4.85 -4.0 -2.95 L-4.0 0.05 -4.2 1.35 -4.55 3.15 Q-8.95 6.2 -14.35 5.65 -16.8 4.85 -18.8 2.4 L-19.6 1.35 Q-20.65 -0.15 -20.8 -1.55 -21.1 -3.5 -20.2 -4.35 -19.3 -5.2 -17.7 -5.45 M-15.35 -0.35 Q-16.15 -0.4 -16.65 -0.8 -16.95 2.2 -15.6 3.8 L-13.8 3.8 Q-15.7 1.45 -14.05 -0.8 L-14.1 -0.8 Q-14.65 -0.4 -15.35 -0.35" fill="#000000" fill-opacity="0.5019608" fill-rule="evenodd" stroke="none"/>
    </g>
    <g id="shape26" transform="matrix(1.0, 0.0, 0.0, 1.0, 21.65, 6.45)">
      <path d="M4.0 0.05 L4.0 -2.95 Q4.25 -4.85 8.0 -5.5 12.85 -5.95 17.7 -5.45 19.3 -5.2 20.2 -4.35 21.1 -3.5 20.85 -1.55 20.55 0.35 18.8 2.4 16.8 4.85 14.35 5.65 8.95 6.2 4.6 3.15 4.15 1.65 4.0 0.05 0.6 -1.5 -2.75 -0.3 L-4.0 0.05 -4.2 1.35 -4.55 3.15 Q-8.95 6.2 -14.35 5.65 -16.8 4.85 -18.8 2.4 L-19.6 1.35 Q-20.65 -0.15 -20.8 -1.55 -21.1 -3.5 -20.2 -4.35 -19.3 -5.2 -17.7 -5.45 -12.8 -5.95 -7.95 -5.5 -4.25 -4.85 -4.0 -2.95 L-4.0 0.05" fill="none" stroke="#000000" stroke-linecap="round" stroke-linejoin="round" stroke-width="1.5"/>
    </g>
  </defs>
  <script type="text/ecmascript" xlink:href="param.js" />
</svg>
