<?xml version="1.0" encoding="UTF-8" standalone="no"?>
<svg xmlns:xlink="http://www.w3.org/1999/xlink" height="128.5px" width="92.85px" xmlns="http://www.w3.org/2000/svg">
  <g transform="matrix(1.0, 0.0, 0.0, 1.0, 4.75, 9.85)">
     <use height="22.4" id="mc2100" transform="matrix(1.2178, -0.0217, 0.0217, 1.2178, 26.9299, 81.4147)" width="12.95" xlink:href="#sprite0"/>
      <use height="22.4" id="mc2000" transform="matrix(-1.1755, -0.3157, -0.3157, 1.1755, 65.3254, 83.7275)" width="12.95" xlink:href="#sprite0"/>
      <use height="43.9" id="mc1900" transform="matrix(-1.1949, 0.2281, 0.2281, 1.1949, 68.4541, 35.349)" width="6.9" xlink:href="#sprite2"/>
      <use height="34.0" id="mc1800" transform="matrix(-1.2158, -0.0751, -0.0751, 1.2158, 61.8456, 63.7774)" width="25.85" xlink:href="#sprite4"/>
      <use height="12.7" id="mc1700" transform="matrix(-1.2192, 0.0, 0.0, 1.2192, 79.0422, 35.5078)" width="12.7" xlink:href="#sprite8"/>
      <use height="34.9" id="mc1600" transform="matrix(-1.2192, 0.0, 0.0, 1.2192, 55.5587, 53.2216)" width="17.1" xlink:href="#sprite10"/>
      <use height="48.85" id="mc1500" transform="matrix(-1.2192, 0.0, 0.0, 1.2192, 80.1719, 19.1006)" width="47.95" xlink:href="#sprite14"/>
      <use height="13.9" transform="matrix(1.0, 0.0, 0.0, 1.0, 44.1, 48.8)" width="24.85" xlink:href="#shape16"/>
      <use height="2.5" transform="matrix(-1.1005, -0.5146, -0.5146, 1.1005, 56.3188, 63.0176)" width="2.5" xlink:href="#sprite16"/>
      <use height="2.5" transform="matrix(-1.1005, -0.5146, -0.5146, 1.1005, 60.8188, 65.1176)" width="2.5" xlink:href="#sprite16"/>
      <use height="41.2" id="mc1100" transform="matrix(-1.2192, 0.0, 0.0, 1.2192, 80.0077, 7.4837)" width="50.8" xlink:href="#sprite17"/>
      <use height="14.15" id="mc1000" transform="matrix(1.3378, -0.3971, 0.5295, 1.7838, 44.8704, 9.8332)" width="13.9" xlink:href="#sprite18"/>
      <use height="12.7" id="mc900" transform="matrix(-1.2192, 0.0, 0.0, 1.2192, 34.9422, 30.6578)" width="12.7" xlink:href="#sprite8"/>
      <use height="43.9" id="mc800" transform="matrix(1.2018, 0.1911, -0.1911, 1.2018, 23.1892, 37.3734)" width="6.9" xlink:href="#sprite2"/>
      <use height="14.75" id="mc700" transform="matrix(-1.2192, 0.0, 0.0, 1.2192, 65.587, 60.5605)" width="23.75" xlink:href="#sprite20"/>
      <use height="15.75" id="mc600" transform="matrix(-1.2192, 0.0, 0.0, 1.2192, 63.786, 65.029)" width="13.15" xlink:href="#sprite21"/>
      <use height="16.4" transform="matrix(1.0, 0.0, 0.0, 1.0, 37.65, 41.95)" width="34.85" xlink:href="#shape24"/>
      <use height="13.65" id="mc300" transform="matrix(-1.2192, 0.0, 0.0, 1.2192, 56.5849, 62.2092)" width="21.35" xlink:href="#sprite23"/>
      <use height="5.05" id="mc200" transform="matrix(0.6062, 1.0559, 1.0559, -0.6062, 33.7917, 71.8477)" width="6.05" xlink:href="#sprite25"/>
      <use height="0.0" id="hat" transform="matrix(-1.2192, 0.0, 0.0, 1.2192, 92.95, -18.45)" width="0.0" xlink:href="#sprite26"/>
  </g>
  <defs>
    <g id="shape0" transform="matrix(1.0, 0.0, 0.0, 1.0, -0.1, -0.2)">
      <path d="M77.5 13.45 Q90.75 26.75 90.75 45.55 90.75 64.35 77.5 77.6 64.2 90.85 45.4 90.85 26.6 90.85 13.35 77.6 0.1 64.35 0.1 45.55 0.1 26.75 13.35 13.45 26.6 0.2 45.4 0.2 64.2 0.2 77.5 13.45" fill="#000000" fill-rule="evenodd" stroke="none"/>
    </g>
    <g id="sprite0" transform="matrix(1.0, 0.0, 0.0, 1.0, 6.1, 11.1)">
      <use height="20.6" id="mc100" transform="matrix(1.0, 0.0, 0.0, 1.0, -5.2, -10.2)" width="11.15" xlink:href="#sprite1"/>
      <use height="22.4" transform="matrix(1.0, 0.0, 0.0, 1.0, -6.1, -11.1)" width="12.95" xlink:href="#shape2"/>
    </g>
    <g id="sprite1" transform="matrix(1.0, 0.0, 0.0, 1.0, 5.55, 10.3)">
      <use height="20.6" transform="matrix(1.0, 0.0, 0.0, 1.0, -5.55, -10.3)" width="11.15" xlink:href="#shape1"/>
    </g>
    <g id="shape1" transform="matrix(1.0, 0.0, 0.0, 1.0, 5.55, 10.3)">
      <path d="M5.4 -5.05 L3.15 7.4 Q2.65 9.0 0.9 9.85 -0.85 10.65 -2.5 10.1 -4.2 9.6 -5.0 8.1 -5.85 6.55 -5.35 4.9 L-1.7 -7.25 Q-1.2 -8.9 0.05 -9.7 1.4 -10.6 3.05 -10.1 4.6 -9.65 5.25 -8.15 5.85 -6.75 5.4 -5.05" fill="#ffffff" fill-rule="evenodd" stroke="none"/>
    </g>
    <g id="shape2" transform="matrix(1.0, 0.0, 0.0, 1.0, 6.1, 11.1)">
      <path d="M3.4 -10.0 Q4.95 -9.55 5.6 -8.05 6.2 -6.65 5.75 -4.95 L3.5 7.5 Q3.0 9.1 1.25 9.95 L-2.15 10.2 Q-3.85 9.7 -4.65 8.2 -5.5 6.65 -5.0 5.0 L-1.35 -7.15 Q-0.85 -8.8 0.4 -9.6 1.75 -10.5 3.4 -10.0 Z" fill="none" stroke="#000000" stroke-linecap="round" stroke-linejoin="round" stroke-width="1.8"/>
    </g>
    <g id="sprite2" transform="matrix(1.0, 0.0, 0.0, 1.0, 4.05, 18.35)">
      <use height="42.4" id="mc100" transform="matrix(1.0, 0.0, 0.0, 1.0, -3.3, -17.6)" width="5.4" xlink:href="#sprite3"/>
      <use height="43.9" transform="matrix(1.0, 0.0, 0.0, 1.0, -4.05, -18.35)" width="6.9" xlink:href="#shape4"/>
    </g>
    <g id="sprite3" transform="matrix(1.0, 0.0, 0.0, 1.0, 2.7, 21.2)">
      <use height="42.4" transform="matrix(1.0, 0.0, 0.0, 1.0, -2.7, -21.2)" width="5.4" xlink:href="#shape3"/>
    </g>
    <g id="shape3" transform="matrix(1.0, 0.0, 0.0, 1.0, 2.7, 21.2)">
      <path d="M2.7 -17.75 Q2.65 -16.3 2.2 -15.3 L2.15 -15.2 2.2 -15.15 Q2.65 -14.15 2.7 -12.65 2.65 -11.2 2.2 -10.2 L2.15 -10.15 2.2 -10.05 Q2.65 -9.0 2.7 -7.55 2.65 -6.1 2.2 -5.1 L2.15 -5.0 2.2 -4.95 Q2.65 -3.95 2.7 -2.45 L2.6 -1.3 2.7 -0.15 Q2.65 1.3 2.2 2.3 L2.15 2.4 2.2 2.45 Q2.65 3.5 2.7 4.95 2.65 6.4 2.2 7.4 L2.15 7.5 2.2 7.6 Q2.65 8.6 2.7 10.05 2.65 11.5 2.2 12.5 L2.15 12.6 2.2 12.7 Q2.65 13.7 2.7 15.15 2.65 16.6 2.2 17.6 1.65 18.65 1.0 18.65 L0.7 18.6 0.25 20.15 Q-0.3 21.2 -1.0 21.2 -1.7 21.2 -2.15 20.15 -2.7 19.15 -2.7 17.75 -2.7 16.25 -2.15 15.25 L-2.15 15.15 -2.15 15.05 Q-2.7 14.05 -2.7 12.65 -2.7 11.15 -2.15 10.15 L-2.15 10.05 -2.15 10.0 Q-2.7 9.0 -2.7 7.55 -2.7 6.05 -2.15 5.05 L-2.15 4.95 -2.15 4.9 Q-2.7 3.9 -2.7 2.45 L-2.6 1.3 -2.7 0.15 Q-2.7 -1.35 -2.15 -2.35 L-2.15 -2.45 -2.15 -2.55 Q-2.7 -3.55 -2.7 -5.0 -2.7 -6.45 -2.15 -7.45 L-2.15 -7.55 -2.15 -7.65 Q-2.7 -8.65 -2.7 -10.1 -2.7 -11.55 -2.15 -12.55 L-2.15 -12.65 -2.15 -12.75 Q-2.7 -13.75 -2.7 -15.15 -2.7 -16.65 -2.15 -17.65 -1.7 -18.65 -1.0 -18.65 L-0.7 -18.6 -0.2 -20.25 Q0.25 -21.25 1.0 -21.2 1.65 -21.25 2.2 -20.25 2.65 -19.25 2.7 -17.75" fill="param(pelo)" fill-rule="evenodd" stroke="none"/>
    </g>
    <g id="shape4" transform="matrix(1.0, 0.0, 0.0, 1.0, 24.4, 14.0)">
      <path d="M-23.1 -9.7 Q-23.65 -8.7 -23.65 -7.2 -23.65 -5.8 -23.1 -4.8 L-23.1 -4.7 -23.1 -4.6 Q-23.65 -3.6 -23.65 -2.15 -23.65 -0.7 -23.1 0.3 L-23.1 0.4 -23.1 0.5 Q-23.65 1.5 -23.65 2.95 -23.65 4.4 -23.1 5.4 L-23.1 5.5 -23.1 5.6 Q-23.65 6.6 -23.65 8.1 L-23.55 9.25 -23.65 10.4 Q-23.65 11.85 -23.1 12.85 L-23.1 12.9 -23.1 13.0 Q-23.65 14.0 -23.65 15.5 -23.65 16.95 -23.1 17.95 L-23.1 18.0 -23.1 18.1 Q-23.65 19.1 -23.65 20.6 -23.65 22.0 -23.1 23.0 L-23.1 23.1 -23.1 23.2 Q-23.65 24.2 -23.65 25.7 -23.65 27.1 -23.1 28.1 -22.65 29.15 -21.95 29.15 -21.25 29.15 -20.7 28.1 L-20.25 26.55 -19.95 26.6 Q-19.3 26.6 -18.75 25.55 -18.3 24.55 -18.25 23.1 -18.3 21.65 -18.75 20.65 L-18.8 20.55 -18.75 20.45 Q-18.3 19.45 -18.25 18.0 -18.3 16.55 -18.75 15.55 L-18.8 15.45 -18.75 15.35 Q-18.3 14.35 -18.25 12.9 -18.3 11.45 -18.75 10.4 L-18.8 10.35 -18.75 10.25 Q-18.3 9.25 -18.25 7.8 L-18.35 6.65 -18.25 5.5 Q-18.3 4.0 -18.75 3.0 L-18.8 2.95 -18.75 2.85 Q-18.3 1.85 -18.25 0.4 -18.3 -1.05 -18.75 -2.1 L-18.8 -2.2 -18.75 -2.25 Q-18.3 -3.25 -18.25 -4.7 -18.3 -6.2 -18.75 -7.2 L-18.8 -7.25 -18.75 -7.35 Q-18.3 -8.35 -18.25 -9.8 -18.3 -11.3 -18.75 -12.3 -19.3 -13.3 -19.95 -13.25 -20.7 -13.3 -21.15 -12.3 L-21.65 -10.65 -21.95 -10.7 Q-22.65 -10.7 -23.1 -9.7 Z" fill="none" stroke="#000000" stroke-linecap="round" stroke-linejoin="round" stroke-width="1.5"/>
    </g>
    <g id="sprite4" transform="matrix(1.0, 0.0, 0.0, 1.0, 12.6, 17.0)">
      <use height="26.6" id="mc200" transform="matrix(1.0, 0.0, 0.0, 1.0, -11.05, -11.55)" width="22.75" xlink:href="#sprite5"/>
      <use height="13.2" id="mc201" transform="matrix(1.0, 0.0, 0.0, 1.0, -8.4, -16.1)" width="17.35" xlink:href="#sprite6"/>
      <use height="15.85" transform="matrix(1.0, 0.0, 0.0, 1.0, -11.7, 0.25)" width="24.05" xlink:href="#sprite7"/>
      <use height="34.0" transform="matrix(1.0, 0.0, 0.0, 1.0, -12.6, -17.0)" width="25.85" xlink:href="#shape8"/>
    </g>
    <g id="sprite5" transform="matrix(1.0, 0.0, 0.0, 1.0, 11.35, 11.1)">
      <use height="26.6" transform="matrix(1.0, 0.0, 0.0, 1.0, -11.35, -11.1)" width="22.75" xlink:href="#shape5"/>
    </g>
    <g id="shape5" transform="matrix(1.0, 0.0, 0.0, 1.0, 11.35, 11.1)">
      <path d="M-8.7 -11.1 Q-5.55 -7.4 -0.35 -2.45 5.3 -7.4 8.65 -11.05 10.65 -5.5 11.4 4.8 9.1 11.45 -0.35 15.5 -9.55 10.9 -11.35 4.15 -11.4 -1.65 -8.7 -11.1" fill="param(camiseta)" fill-rule="evenodd" stroke="none"/>
    </g>
    <g id="sprite6" transform="matrix(1.0, 0.0, 0.0, 1.0, 8.7, 6.6)">
      <use height="13.2" transform="matrix(1.0, 0.0, 0.0, 1.0, -8.7, -6.6)" width="17.35" xlink:href="#shape6"/>
    </g>
    <g id="shape6" transform="matrix(1.0, 0.0, 0.0, 1.0, 8.7, 6.6)">
      <path d="M8.65 -2.0 Q5.3 1.65 -0.35 6.6 -5.55 1.65 -8.7 -2.05 L-6.9 -6.6 6.75 -6.6 8.65 -2.0" fill="#a17850" fill-rule="evenodd" stroke="none"/>
    </g>
    <g id="sprite7" transform="matrix(1.0, 0.0, 0.0, 1.0, 12.0, 7.9)">
      <use height="15.85" transform="matrix(1.0, 0.0, 0.0, 1.0, -12.0, -7.9)" width="24.05" xlink:href="#shape7"/>
    </g>
    <g id="shape7" transform="matrix(1.0, 0.0, 0.0, 1.0, 12.0, 7.9)">
      <path d="M11.8 -5.4 L12.05 -3.75 Q9.0 3.4 -0.35 7.95 -9.0 3.4 -12.0 -3.7 L-11.75 -5.45 -11.4 -7.9 Q-8.2 -1.7 -0.35 2.45 8.1 -1.65 11.4 -7.85 L11.8 -5.4" fill="param(cuerpo)" fill-opacity="0.5019608" fill-rule="evenodd" stroke="none"/>
    </g>
    <g id="shape8" transform="matrix(1.0, 0.0, 0.0, 1.0, 12.6, 17.0)">
      <path d="M8.95 -11.5 Q10.95 -5.95 11.7 0.3 L12.1 2.75 12.35 4.4 Q9.3 11.55 -0.05 16.1 -8.7 11.55 -11.7 4.45 L-11.45 2.7 -11.1 0.25 Q-10.45 -5.8 -8.4 -11.55 L-6.6 -16.1 7.05 -16.1 8.95 -11.5 Q5.6 -7.85 -0.05 -2.9 -5.25 -7.85 -8.4 -11.55" fill="none" stroke="#000000" stroke-linecap="round" stroke-linejoin="round" stroke-width="1.8"/>
    </g>
    <g id="sprite8" transform="matrix(1.0, 0.0, 0.0, 1.0, 6.35, 6.35)">
      <use height="11.2" id="mc100" transform="matrix(1.0, 0.0, 0.0, 1.0, -5.6, -5.6)" width="11.2" xlink:href="#sprite9"/>
      <use height="12.7" transform="matrix(1.0, 0.0, 0.0, 1.0, -6.35, -6.35)" width="12.7" xlink:href="#shape10"/>
    </g>
    <g id="sprite9" transform="matrix(1.0, 0.0, 0.0, 1.0, 5.6, 5.6)">
      <use height="11.2" transform="matrix(1.0, 0.0, 0.0, 1.0, -5.6, -5.6)" width="11.2" xlink:href="#shape9"/>
    </g>
    <g id="shape9" transform="matrix(1.0, 0.0, 0.0, 1.0, 5.6, 5.6)">
      <path d="M3.95 -3.95 Q5.6 -2.3 5.6 0.0 5.6 2.3 3.95 3.95 2.3 5.6 0.0 5.6 -2.3 5.6 -3.95 3.95 -5.6 2.3 -5.6 0.0 -5.6 -2.3 -3.95 -3.95 -2.3 -5.6 0.0 -5.6 2.3 -5.6 3.95 -3.95" fill="param(decora)" fill-rule="evenodd" stroke="none"/>
    </g>
    <g id="shape10" transform="matrix(1.0, 0.0, 0.0, 1.0, 6.35, 6.35)">
      <path d="M3.95 -3.95 Q5.6 -2.3 5.6 0.0 5.6 2.3 3.95 3.95 2.3 5.6 0.0 5.6 -2.3 5.6 -3.95 3.95 -5.6 2.3 -5.6 0.0 -5.6 -2.3 -3.95 -3.95 -2.3 -5.6 0.0 -5.6 2.3 -5.6 3.95 -3.95 Z" fill="none" stroke="#000000" stroke-linecap="round" stroke-linejoin="round" stroke-width="1.5"/>
    </g>
    <g id="sprite10" transform="matrix(1.0, 0.0, 0.0, 1.0, 8.25, 16.55)">
      <use height="32.05" transform="matrix(1.0, 0.0, 0.0, 1.0, -8.25, -16.55)" width="17.1" xlink:href="#shape11"/>
      <use height="3.85" id="mc001" transform="matrix(0.9353, 0.0, 0.0, 0.9353, -1.1497, 14.773)" width="3.1" xlink:href="#sprite11"/>
    </g>
    <g id="shape11" transform="matrix(1.0, 0.0, 0.0, 1.0, 8.25, 16.55)">
      <path d="M5.9 -11.5 Q7.05 -9.25 7.65 -6.55 L7.9 -5.35 Q8.25 -3.1 8.25 -0.55 L8.25 0.9 7.65 5.5 Q7.05 8.15 5.9 10.35 L4.6 12.5 Q2.7 14.9 0.3 14.9 -2.1 14.9 -4.0 12.4 L-5.3 10.35 Q-7.0 7.1 -7.45 2.9 L-7.6 0.45 -7.65 -0.55 -7.65 -1.05 -7.65 -1.25 -7.55 -2.95 -7.2 -5.85 Q-6.6 -8.95 -5.3 -11.5 -3.0 -16.0 0.3 -15.95 3.55 -16.0 5.9 -11.5 Z" fill="none" stroke="#ffffff" stroke-linecap="round" stroke-linejoin="round" stroke-width="1.2000000000000002"/>
    </g>
    <g id="sprite11" transform="matrix(1.0, 0.0, 0.0, 1.0, 1.55, 1.9)">
      <use height="1.7" id="mc000" transform="matrix(1.0, 0.0, 0.0, 1.0, -1.0, -1.9)" width="1.7" xlink:href="#sprite12"/>
      <use height="2.95" id="mc001" transform="matrix(1.0, 0.0, 0.0, 1.0, -1.55, -1.0)" width="3.1" xlink:href="#sprite13"/>
    </g>
    <g id="sprite12" transform="matrix(1.0, 0.0, 0.0, 1.0, 0.85, 0.85)">
      <use height="1.7" transform="matrix(1.0, 0.0, 0.0, 1.0, -0.85, -0.85)" width="1.7" xlink:href="#shape12"/>
    </g>
    <g id="shape12" transform="matrix(1.0, 0.0, 0.0, 1.0, 0.85, 0.85)">
      <path d="M0.0 -0.85 L0.6 -0.6 0.85 0.0 0.85 0.05 0.6 0.6 0.0 0.85 -0.6 0.6 -0.8 0.25 -0.85 0.0 -0.6 -0.6 0.0 -0.85" fill="#000000" fill-rule="evenodd" stroke="none"/>
    </g>
    <g id="sprite13" transform="matrix(1.0, 0.0, 0.0, 1.0, 1.55, 1.45)">
      <use height="2.95" transform="matrix(1.0, 0.0, 0.0, 1.0, -1.55, -1.45)" width="3.1" xlink:href="#shape13"/>
    </g>
    <g id="shape13" transform="matrix(1.0, 0.0, 0.0, 1.0, 1.55, 1.45)">
      <path d="M1.55 -0.05 Q1.55 0.6 1.1 1.05 0.65 1.5 0.0 1.5 -0.65 1.5 -1.1 1.05 -1.55 0.6 -1.55 -0.05 -1.55 -0.7 -1.1 -1.15 L-0.95 -1.25 -0.75 -0.9 -0.15 -0.65 Q0.2 -0.65 0.45 -0.9 L0.7 -1.45 1.1 -1.15 Q1.55 -0.7 1.55 -0.05" fill="#000000" fill-rule="evenodd" stroke="none"/>
    </g>
    <g id="sprite14" transform="matrix(1.0, 0.0, 0.0, 1.0, 22.45, 24.4)">
      <use height="47.35" id="mc100" transform="matrix(1.0, 0.0, 0.0, 1.0, -21.7, -23.65)" width="46.45" xlink:href="#sprite15"/>
      <use height="48.85" transform="matrix(1.0, 0.0, 0.0, 1.0, -22.45, -24.4)" width="47.95" xlink:href="#shape15"/>
    </g>
    <g id="sprite15" transform="matrix(1.0, 0.0, 0.0, 1.0, 23.2, 23.65)">
      <use height="47.35" transform="matrix(1.0, 0.0, 0.0, 1.0, -23.2, -23.65)" width="46.45" xlink:href="#shape14"/>
    </g>
    <g id="shape14" transform="matrix(1.0, 0.0, 0.0, 1.0, 23.2, 23.65)">
      <path d="M15.15 -17.05 Q26.85 -3.25 21.6 6.95 14.0 19.2 3.95 22.35 -15.3 27.6 -12.75 12.35 -24.55 1.4 -23.05 -12.2 -9.5 -32.35 15.15 -17.05" fill="param(cuerpo)" fill-rule="evenodd" stroke="none"/>
    </g>
    <g id="shape15" transform="matrix(1.0, 0.0, 0.0, 1.0, 22.45, 24.4)">
      <path d="M16.65 -17.05 Q28.35 -3.25 23.1 6.95 15.5 19.2 5.45 22.35 -13.8 27.6 -11.25 12.35 -23.05 1.4 -21.55 -12.2 -8.0 -32.35 16.65 -17.05 Z" fill="none" stroke="#000000" stroke-linecap="round" stroke-linejoin="round" stroke-width="1.5"/>
    </g>
    <g id="shape16" transform="matrix(1.0, 0.0, 0.0, 1.0, -44.1, -48.8)">
      <path d="M67.5 61.95 Q68.7 59.85 67.9 58.05 65.4 58.3 64.25 60.15" fill="none" stroke="#000000" stroke-linecap="round" stroke-linejoin="round" stroke-width="1.5"/>
      <path d="M55.75 55.7 Q55.35 52.0 52.2 49.85 48.55 48.9 44.85 50.85" fill="none" stroke="#000000" stroke-linecap="round" stroke-linejoin="round" stroke-width="1.5"/>
    </g>
    <g id="sprite16" transform="matrix(1.0, 0.0, 0.0, 1.0, 1.25, 1.25)">
      <use height="6.2" transform="matrix(0.3165, 0.0, 0.0, 0.4032, -1.2285, -1.238)" width="7.9" xlink:href="#shape17"/>
    </g>
    <g id="shape17" transform="matrix(1.0, 0.0, 0.0, 1.0, 7.2, 42.75)">
      <path d="M-3.7 -42.7 Q-2.1 -42.95 -0.9 -42.25 0.45 -41.55 0.7 -40.35 0.85 -39.1 -0.25 -38.0 -1.2 -36.9 -2.75 -36.65 -4.4 -36.35 -5.7 -37.05 -7.0 -37.75 -7.15 -39.0 -7.35 -40.25 -6.35 -41.3 -5.3 -42.4 -3.7 -42.7" fill="#ffffff" fill-rule="evenodd" stroke="none"/>
    </g>
    <g id="sprite17" transform="matrix(1.0, 0.0, 0.0, 1.0, 25.35, 20.6)">
      <use height="41.2" transform="matrix(1.0, 0.0, 0.0, 1.0, -25.35, -20.6)" width="50.8" xlink:href="#shape18"/>
    </g>
    <g id="shape18" transform="matrix(1.0, 0.0, 0.0, 1.0, 25.35, 20.6)">
      <path d="M-17.85 -12.55 Q-12.7 -16.85 -7.2 -18.6 L-3.55 -19.45 Q20.45 -22.85 24.55 3.9 25.4 13.1 20.6 19.85 18.5 1.95 1.05 -4.2 -11.9 -7.55 -18.75 -3.55 -22.65 -1.35 -24.6 3.2 -24.4 -7.25 -17.85 -12.55" fill="param(pelo)" fill-rule="evenodd" stroke="none"/>
      <path d="M-17.85 -12.55 Q-24.4 -7.25 -24.6 3.2 -22.65 -1.35 -18.75 -3.55 -11.9 -7.55 1.05 -4.2 18.5 1.95 20.6 19.85 25.4 13.1 24.55 3.9 20.45 -22.85 -3.55 -19.45 L-7.2 -18.6 Q-12.7 -16.85 -17.85 -12.55 Z" fill="none" stroke="#000000" stroke-linecap="round" stroke-linejoin="round" stroke-width="1.5"/>
    </g>
    <g id="sprite18" transform="matrix(1.0, 0.0, 0.0, 1.0, 9.55, 4.35)">
      <use height="16.1" id="mc100" transform="matrix(0.8083, 0.0, 0.0, 0.8083, -8.9451, -3.8067)" width="15.65" xlink:href="#sprite19"/>
      <use height="14.15" transform="matrix(1.0, 0.0, 0.0, 1.0, -9.55, -4.35)" width="13.9" xlink:href="#shape20"/>
    </g>
    <g id="sprite19" transform="matrix(1.0, 0.0, 0.0, 1.0, 7.85, 8.05)">
      <use height="16.1" transform="matrix(1.0, 0.0, 0.0, 1.0, -7.85, -8.05)" width="15.65" xlink:href="#shape19"/>
    </g>
    <g id="shape19" transform="matrix(1.0, 0.0, 0.0, 1.0, 7.85, 8.05)">
      <path d="M-5.45 -6.15 Q-3.3 -7.9 -0.15 -8.05 L-1.55 -7.15 Q-4.15 -5.0 -3.85 -1.6 -3.6 1.7 -0.6 4.25 2.4 6.75 6.45 7.0 L7.8 7.0 Q5.55 8.2 2.55 8.0 -1.5 7.75 -4.5 5.2 -7.2 3.0 -7.7 0.15 L-7.8 -0.65 Q-8.05 -3.4 -6.35 -5.3 L-5.45 -6.15" fill="#000000" fill-rule="evenodd" stroke="none"/>
    </g>
    <g id="shape20" transform="matrix(1.0, 0.0, 0.0, 1.0, 9.55, 4.35)">
      <path d="M-2.7 -3.75 Q-5.3 -3.7 -7.0 -2.25 L-7.75 -1.55 Q-9.1 0.0 -8.9 2.2 L-8.8 2.85 Q-8.4 5.15 -6.25 6.95 -3.8 8.95 -0.55 9.2 1.9 9.3 3.75 8.4 L2.6 8.35 Q-0.65 8.15 -3.05 6.15 -5.5 4.1 -5.7 1.4 -5.95 -1.3 -3.85 -3.05 L-2.7 -3.75 Z" fill="none" stroke="#000000" stroke-linecap="round" stroke-linejoin="round" stroke-width="1.2000000000000002"/>
    </g>
    <g id="sprite20" transform="matrix(1.0, 0.0, 0.0, 1.0, 11.8, 7.25)">
      <use height="14.75" transform="matrix(1.0, 0.0, 0.0, 1.0, -11.8, -7.25)" width="23.75" xlink:href="#shape21"/>
    </g>
    <g id="shape21" transform="matrix(1.0, 0.0, 0.0, 1.0, 11.8, 7.25)">
      <path d="M-2.0 -1.55 L-1.6 -1.7 Q2.3 -3.5 7.35 -6.3 8.85 -6.95 10.05 -5.65 12.0 -2.8 10.65 -0.3 L8.8 1.8 Q-0.8 7.0 -5.1 6.75 -11.5 4.65 -11.0 0.75 -8.75 1.2 -4.05 -0.65 L-2.0 -1.55 1.25 4.8 -2.0 -1.55 M9.65 0.05 L6.2 -5.25 9.65 0.05 M5.2 2.75 L2.3 -3.25 5.2 2.75 M-3.95 6.1 L-6.25 0.75 -3.95 6.1" fill="#000000" fill-rule="evenodd" stroke="none"/>
      <path d="M-2.0 -1.55 L-4.05 -0.65 Q-8.75 1.2 -11.0 0.75 -11.5 4.65 -5.1 6.75 -0.8 7.0 8.8 1.8 L10.65 -0.3 Q12.0 -2.8 10.05 -5.65 8.85 -6.95 7.35 -6.3 2.3 -3.5 -1.6 -1.7 L-2.0 -1.55 1.25 4.8 M-6.25 0.75 L-3.95 6.1 M2.3 -3.25 L5.2 2.75 M6.2 -5.25 L9.65 0.05" fill="none" stroke="#000000" stroke-linecap="round" stroke-linejoin="round" stroke-width="1.5"/>
    </g>
    <g id="sprite21" transform="matrix(1.0, 0.0, 0.0, 1.0, 6.55, 7.85)">
      <use height="13.95" id="mc100" transform="matrix(1.0, 0.0, 0.0, 1.0, -5.65, -6.95)" width="11.35" xlink:href="#sprite22"/>
      <use height="15.75" transform="matrix(1.0, 0.0, 0.0, 1.0, -6.55, -7.85)" width="13.15" xlink:href="#shape23"/>
    </g>
    <g id="sprite22" transform="matrix(1.0, 0.0, 0.0, 1.0, 5.65, 6.95)">
      <use height="13.95" transform="matrix(1.0, 0.0, 0.0, 1.0, -5.65, -6.95)" width="11.35" xlink:href="#shape22"/>
    </g>
    <g id="shape22" transform="matrix(1.0, 0.0, 0.0, 1.0, 5.65, 6.95)">
      <path d="M5.15 -4.6 Q5.7 -3.6 5.7 -2.3 5.7 -0.35 4.35 1.0 3.15 2.2 1.5 2.35 L-2.65 7.0 Q-5.55 6.35 -5.65 4.35 -5.9 -0.2 -3.45 -3.55 -3.15 -4.7 -2.25 -5.6 -0.9 -6.95 1.05 -6.95 3.0 -6.95 4.35 -5.6 L5.15 -4.6" fill="param(cuerpo)" fill-rule="evenodd" stroke="none"/>
    </g>
    <g id="shape23" transform="matrix(1.0, 0.0, 0.0, 1.0, 6.55, 7.85)">
      <path d="M5.7 -2.3 Q5.7 -0.35 4.35 1.0 3.15 2.2 1.5 2.35 L-2.65 7.0 Q-5.55 6.35 -5.65 4.35 -5.9 -0.2 -3.45 -3.55 -3.15 -4.7 -2.25 -5.6 -0.9 -6.95 1.05 -6.95 3.0 -6.95 4.35 -5.6 L5.15 -4.6 Q5.7 -3.6 5.7 -2.3 M1.5 2.35 L1.05 2.35 -0.35 2.15 Q-1.4 1.85 -2.25 1.0 -3.6 -0.35 -3.6 -2.3 L-3.45 -3.55" fill="none" stroke="#000000" stroke-linecap="round" stroke-linejoin="round" stroke-width="1.8"/>
    </g>
    <g id="shape24" transform="matrix(1.0, 0.0, 0.0, 1.0, -37.65, -41.95)">
      <path d="M56.65 45.3 Q54.15 44.0 51.65 43.35 46.9 42.1 42.1 43.35 40.25 43.85 38.4 44.7" fill="none" stroke="#000000" stroke-linecap="round" stroke-linejoin="round" stroke-width="1.5"/>
      <path d="M71.75 57.6 Q71.4 53.9 67.95 51.15" fill="none" stroke="#000000" stroke-linecap="round" stroke-linejoin="round" stroke-width="1.5"/>
    </g>
    <g id="sprite23" transform="matrix(1.0, 0.0, 0.0, 1.0, 10.65, 6.8)">
      <use height="11.85" id="mc100" transform="matrix(1.0, 0.0, 0.0, 1.0, -9.75, -5.9)" width="19.55" xlink:href="#sprite24"/>
      <use height="13.65" transform="matrix(1.0, 0.0, 0.0, 1.0, -10.65, -6.8)" width="21.35" xlink:href="#shape26"/>
    </g>
    <g id="sprite24" transform="matrix(1.0, 0.0, 0.0, 1.0, 9.75, 5.9)">
      <use height="11.85" transform="matrix(1.0, 0.0, 0.0, 1.0, -9.75, -5.9)" width="19.55" xlink:href="#shape25"/>
    </g>
    <g id="shape25" transform="matrix(1.0, 0.0, 0.0, 1.0, 9.75, 5.9)">
      <path d="M6.85 -0.65 Q9.95 0.35 9.8 3.35 9.7 6.35 1.7 5.9 -3.5 5.05 -6.5 3.2 -7.55 2.9 -8.4 2.05 -9.75 0.7 -9.75 -1.25 -9.75 -3.2 -8.4 -4.55 -7.05 -5.9 -5.1 -5.9 -3.15 -5.9 -1.8 -4.55 L-1.0 -3.55 Q0.6 -2.0 3.1 -1.45 L6.85 -0.65" fill="param(cuerpo)" fill-rule="evenodd" stroke="none"/>
    </g>
    <g id="shape26" transform="matrix(1.0, 0.0, 0.0, 1.0, 10.65, 6.8)">
      <path d="M6.85 -0.65 Q9.95 0.35 9.8 3.35 9.7 6.35 1.7 5.9 -3.5 5.05 -6.5 3.2 -7.55 2.9 -8.4 2.05 -9.75 0.7 -9.75 -1.25 -9.75 -3.2 -8.4 -4.55 -7.05 -5.9 -5.1 -5.9 -3.15 -5.9 -1.8 -4.55 L-1.0 -3.55 Q0.6 -2.0 3.1 -1.45 L6.85 -0.65 M-6.5 3.2 L-5.1 3.4 Q-3.15 3.4 -1.8 2.05 -0.45 0.7 -0.45 -1.25 -0.45 -2.55 -1.0 -3.55" fill="none" stroke="#000000" stroke-linecap="round" stroke-linejoin="round" stroke-width="1.8"/>
    </g>
    <g id="sprite25" transform="matrix(1.0, 0.0, 0.0, 1.0, 3.0, 2.5)">
      <use height="5.05" transform="matrix(1.0, 0.0, 0.0, 1.0, -3.0, -2.5)" width="6.05" xlink:href="#shape27"/>
    </g>
    <g id="shape27" transform="matrix(1.0, 0.0, 0.0, 1.0, 3.0, 2.5)">
      <path d="M3.05 -0.3 L2.9 -0.1 Q0.85 2.55 -2.5 2.55 L-2.5 2.45 -2.8 1.1 -2.85 0.95 -3.0 0.05 Q0.05 -0.1 1.7 -2.5 2.5 -1.6 3.05 -0.3" fill="param(decoraMano)" fill-rule="evenodd" stroke="none"/>
    </g>
  </defs>
</svg>