<?xml version="1.0" encoding="UTF-8" standalone="no"?>
<svg xmlns:xlink="http://www.w3.org/1999/xlink" height="106.2px" width="64.55px" xmlns="http://www.w3.org/2000/svg">
  <g transform="matrix(1.0, 0.0, 0.0, 1.0, 0.9, 1.7)">
    <use height="14.8" transform="matrix(1.0, 0.0, 0.0, 1.0, 18.6, 89.7)" width="37.3" xlink:href="#shape0"/>
    <use height="18.85" transform="matrix(0.9946, 0.101, -0.101, 0.9946, 28.2866, 78.2517)" width="10.9" xlink:href="#sprite0"/>
    <use height="15.35" transform="matrix(1.0, 0.0, 0.0, 1.0, 26.75, 81.4)" width="10.2" xlink:href="#sprite1"/>
    <use height="18.85" transform="matrix(0.9946, 0.101, -0.101, 0.9946, 36.7866, 80.4017)" width="10.9" xlink:href="#sprite0"/>
    <use height="16.1" transform="matrix(1.0, 0.0, 0.0, 1.0, 31.8, 81.9)" width="15.25" xlink:href="#sprite3"/>
    <use height="7.7" transform="matrix(-1.0, 0.0, 0.0, 1.0, 47.0, 85.5)" width="11.0" xlink:href="#shape6"/>
    <use height="21.3" transform="matrix(-0.9795, -0.1908, -0.1908, 0.9795, 36.0754, 65.0202)" width="9.75" xlink:href="#sprite5"/>
    <use height="23.0" transform="matrix(-1.0, 0.0, 0.0, 1.0, 48.55, 63.7)" width="21.45" xlink:href="#sprite8"/>
    <use height="21.3" transform="matrix(-0.988, -0.1356, -0.1356, 0.988, 48.0423, 66.2448)" width="9.75" xlink:href="#sprite11"/>
    <use height="40.1" transform="matrix(-1.0, 0.0, 0.0, 1.0, 62.2, 26.05)" width="27.0" xlink:href="#sprite15"/>
    <use height="63.35" transform="matrix(-1.0, 0.0, 0.0, 1.0, 63.65, 4.25)" width="64.55" xlink:href="#sprite17"/>
    <use height="56.95" transform="matrix(-1.0, 0.0, 0.0, 1.0, 59.15, 4.25)" width="31.95" xlink:href="#sprite19"/>
    <use height="40.1" transform="matrix(-1.0, 0.0, 0.0, 1.0, 62.2, 26.05)" width="27.0" xlink:href="#sprite15"/>
    <use height="63.35" transform="matrix(-1.0, 0.0, 0.0, 1.0, 63.65, 4.25)" width="64.55" xlink:href="#sprite17"/>
    <use height="56.95" transform="matrix(-1.0, 0.0, 0.0, 1.0, 59.15, 4.25)" width="31.95" xlink:href="#sprite19"/>
    <use height="11.25" transform="matrix(-1.0, 0.0, 0.0, 1.0, 34.0, -1.15)" width="15.45" xlink:href="#sprite21"/>
  </g>
  <defs>
    <g id="shape0" transform="matrix(1.0, 0.0, 0.0, 1.0, -18.6, -89.7)">
      <path d="M29.55 93.6 Q32.8 92.35 37.4 92.35 42.0 92.35 45.25 93.6 48.5 94.9 48.5 96.65 48.5 98.4 45.25 99.7 42.0 101.0 37.4 101.0 32.8 101.0 29.55 99.7 26.35 98.4 26.35 96.65 26.35 94.9 29.55 93.6" fill="#000000" fill-opacity="0.4" fill-rule="evenodd" stroke="none"/>
      <path d="M29.55 93.6 Q26.35 94.9 26.35 96.65 26.35 98.4 29.55 99.7 32.8 101.0 37.4 101.0 42.0 101.0 45.25 99.7 48.5 98.4 48.5 96.65 48.5 94.9 45.25 93.6 42.0 92.35 37.4 92.35 32.8 92.35 29.55 93.6 M18.6 97.1 Q18.6 94.05 24.1 91.9 29.55 89.7 37.25 89.7 45.0 89.7 50.45 91.9 55.9 94.05 55.9 97.1 55.9 100.15 50.45 102.35 45.0 104.5 37.25 104.5 29.55 104.5 24.1 102.35 18.6 100.15 18.6 97.1" fill="#000000" fill-opacity="0.2" fill-rule="evenodd" stroke="none"/>
    </g>
    <g id="sprite0" transform="matrix(1.0, 0.0, 0.0, 1.0, 4.95, 9.5)">
      <use height="18.85" transform="matrix(1.0, 0.0, 0.0, 1.0, -4.95, -9.5)" width="10.9" xlink:href="#shape1"/>
    </g>
    <g id="shape1" transform="matrix(1.0, 0.0, 0.0, 1.0, 4.95, 9.5)">
      <path d="M5.05 5.55 L5.05 5.7 Q5.15 6.65 3.9 7.45 2.7 8.25 0.95 8.4 -0.8 8.55 -2.15 7.95 -3.45 7.45 -3.55 6.5 L-3.55 6.35 -3.5 6.35 4.7 5.5 5.05 5.55" fill="#000000" fill-rule="evenodd" stroke="none"/>
      <path d="M-3.55 6.1 L-3.65 3.85 -4.05 -6.3 Q-4.1 -7.15 -3.15 -7.75 -2.1 -8.4 -0.55 -8.55 L2.1 -8.25 Q3.15 -7.75 3.3 -7.0 L3.35 -6.85 3.35 -6.65 4.7 3.05 5.05 5.45 4.7 5.5 -3.5 6.35 -3.55 6.1 M4.7 3.05 L-3.65 3.85 4.7 3.05" fill="#ffffff" fill-rule="evenodd" stroke="none"/>
      <path d="M-3.55 6.1 L-3.65 3.85 -4.05 -6.3 Q-4.1 -7.15 -3.15 -7.75 -2.1 -8.4 -0.55 -8.55 L2.1 -8.25 Q3.15 -7.75 3.3 -7.0 L3.35 -6.85 3.35 -6.65 4.7 3.05 5.05 5.45 5.05 5.55 5.05 5.7 Q5.15 6.65 3.9 7.45 2.7 8.25 0.95 8.4 -0.8 8.55 -2.15 7.95 -3.45 7.45 -3.55 6.5 L-3.55 6.35 -3.55 6.1 M-3.5 6.35 L4.7 5.5 M-3.5 6.35 L-3.55 6.35 M-3.65 3.85 L4.7 3.05" fill="none" stroke="#000000" stroke-linecap="round" stroke-linejoin="round" stroke-width="1.8"/>
    </g>
    <g id="sprite1" transform="matrix(1.0, 0.0, 0.0, 1.0, 1.35, 1.2)">
      <use height="13.55" transform="matrix(1.0, 0.0, 0.0, 1.0, -0.45, -0.3)" width="8.4" xlink:href="#sprite2"/>
      <use height="15.35" transform="matrix(1.0, 0.0, 0.0, 1.0, -1.35, -1.2)" width="10.2" xlink:href="#shape3"/>
    </g>
    <g id="sprite2" transform="matrix(1.0, 0.0, 0.0, 1.0, 0.0, 0.0)">
      <use height="13.55" transform="matrix(1.0, 0.0, 0.0, 1.0, 0.0, 0.0)" width="8.4" xlink:href="#shape2"/>
    </g>
    <g id="shape2" transform="matrix(1.0, 0.0, 0.0, 1.0, 0.0, 0.0)">
      <path d="M0.45 0.0 L8.4 0.1 8.4 13.55 0.45 11.8 Q-0.45 6.0 0.45 0.0" fill="#333333" fill-rule="evenodd" stroke="none"/>
    </g>
    <g id="shape3" transform="matrix(1.0, 0.0, 0.0, 1.0, 1.35, 1.2)">
      <path d="M7.95 -0.2 L7.95 13.25 0.0 11.5 Q-0.9 5.7 0.0 -0.3 L7.95 -0.2 Z" fill="none" stroke="#000000" stroke-linecap="round" stroke-linejoin="round" stroke-width="1.8"/>
    </g>
    <g id="sprite3" transform="matrix(1.0, 0.0, 0.0, 1.0, 0.9, 1.1)">
      <use height="14.3" transform="matrix(1.0, 0.0, 0.0, 1.0, 0.0, -0.2)" width="13.45" xlink:href="#sprite4"/>
      <use height="16.1" transform="matrix(1.0, 0.0, 0.0, 1.0, -0.9, -1.1)" width="15.25" xlink:href="#shape5"/>
    </g>
    <g id="sprite4" transform="matrix(1.0, 0.0, 0.0, 1.0, 0.0, 0.0)">
      <use height="14.3" transform="matrix(1.0, 0.0, 0.0, 1.0, 0.0, 0.0)" width="13.45" xlink:href="#shape4"/>
    </g>
    <g id="shape4" transform="matrix(1.0, 0.0, 0.0, 1.0, 0.0, 0.0)">
      <path d="M13.45 14.3 L3.3 13.2 3.3 9.3 0.0 7.95 0.0 0.0 13.45 0.0 13.45 14.3" fill="#333333" fill-rule="evenodd" stroke="none"/>
    </g>
    <g id="shape5" transform="matrix(1.0, 0.0, 0.0, 1.0, 0.9, 1.1)">
      <path d="M13.45 -0.2 L13.45 14.1 10.45 13.8 10.75 -0.2 13.45 -0.2" fill="#595959" fill-opacity="0.49803922" fill-rule="evenodd" stroke="none"/>
      <path d="M13.45 -0.2 L13.45 14.1 3.3 13.0 3.3 9.1 0.0 7.75 0.0 -0.2 13.45 -0.2 Z" fill="none" stroke="#000000" stroke-linecap="round" stroke-linejoin="round" stroke-width="1.8"/>
    </g>
    <g id="shape6" transform="matrix(1.0, 0.0, 0.0, 1.0, 0.9, 0.9)">
      <path d="M0.0 4.1 Q6.45 9.2 9.2 0.0" fill="none" stroke="#000000" stroke-linecap="round" stroke-linejoin="round" stroke-width="1.8"/>
    </g>
    <g id="sprite5" transform="matrix(1.0, 0.0, 0.0, 1.0, 4.05, 12.1)">
      <use height="3.9" transform="matrix(1.0, 0.0, 0.0, 1.0, -3.15, 4.4)" width="7.1" xlink:href="#sprite6"/>
      <use height="15.5" transform="matrix(1.0, 0.0, 0.0, 1.0, -2.7, -11.2)" width="7.5" xlink:href="#sprite7"/>
      <use height="21.3" transform="matrix(1.0, 0.0, 0.0, 1.0, -4.05, -12.1)" width="9.75" xlink:href="#shape9"/>
    </g>
    <g id="sprite6" transform="matrix(1.0, 0.0, 0.0, 1.0, 0.0, 0.0)">
      <use height="3.9" transform="matrix(1.0, 0.0, 0.0, 1.0, 0.0, 0.0)" width="7.1" xlink:href="#shape7"/>
    </g>
    <g id="shape7" transform="matrix(1.0, 0.0, 0.0, 1.0, 0.0, 0.0)">
      <path d="M0.25 0.0 L7.1 1.95 7.05 2.05 6.25 3.1 Q4.9 4.05 3.3 3.9 1.55 3.6 0.6 2.3 -0.1 1.35 0.0 0.05 L0.05 0.0 0.25 0.0" fill="#996633" fill-rule="evenodd" stroke="none"/>
    </g>
    <g id="sprite7" transform="matrix(1.0, 0.0, 0.0, 1.0, 0.0, 0.0)">
      <use height="15.5" transform="matrix(1.0, 0.0, 0.0, 1.0, 0.0, 0.0)" width="7.5" xlink:href="#shape8"/>
    </g>
    <g id="shape8" transform="matrix(1.0, 0.0, 0.0, 1.0, 0.0, 0.0)">
      <path d="M0.95 8.6 Q2.55 1.8 3.45 0.9 L4.15 0.3 4.7 0.1 4.9 0.05 5.4 0.05 Q5.95 0.15 6.4 0.55 L7.05 1.35 Q7.65 2.5 7.45 9.55 L7.15 15.5 0.45 13.3 0.0 13.2 0.95 8.6" fill="#ff3300" fill-rule="evenodd" stroke="none"/>
    </g>
    <g id="shape9" transform="matrix(1.0, 0.0, 0.0, 1.0, 4.05, 12.1)">
      <path d="M-2.7 2.05 L-2.25 2.1 4.45 4.3 4.4 4.65 3.95 6.35 3.65 6.25 -2.9 4.4 -3.1 4.4 -3.1 3.65 -2.7 2.05" fill="#000000" fill-rule="evenodd" stroke="none"/>
      <path d="M-2.7 2.05 L-2.7 2.0 -1.75 -2.6 Q-0.15 -9.4 0.75 -10.3 L1.45 -10.9 2.0 -11.1 2.2 -11.15 2.7 -11.15 3.7 -10.65 4.35 -9.85 Q4.95 -8.7 4.75 -1.65 L4.45 4.3 -2.25 2.1 -2.7 2.05" fill="#7b6b9b" fill-rule="evenodd" stroke="none"/>
      <path d="M4.45 4.3 L4.75 -1.65 Q4.95 -8.7 4.35 -9.85 L3.7 -10.65 2.7 -11.15 2.2 -11.15 2.0 -11.1 1.45 -10.9 0.75 -10.3 Q-0.15 -9.4 -1.75 -2.6 L-2.7 2.0 -2.7 2.05 M4.45 4.3 L4.4 4.65 3.95 6.35 3.9 6.45 3.1 7.5 Q1.75 8.45 0.15 8.3 -1.6 8.0 -2.55 6.7 -3.25 5.75 -3.15 4.45 L-3.1 4.4 -3.1 3.65 -2.7 2.05" fill="none" stroke="#000000" stroke-linecap="round" stroke-linejoin="round" stroke-width="1.8"/>
      <path d="M-2.25 2.1 L4.45 4.3 M-2.9 4.4 L3.65 6.25" fill="none" stroke="#000000" stroke-linecap="round" stroke-linejoin="round" stroke-width="1.5"/>
    </g>
    <g id="sprite8" transform="matrix(1.0, 0.0, 0.0, 1.0, 0.9, 0.9)">
      <use height="4.05" transform="matrix(1.0, 0.0, 0.0, 1.0, 5.15, 0.0)" width="13.5" xlink:href="#sprite9"/>
      <use height="18.75" transform="matrix(1.0, 0.0, 0.0, 1.0, 0.25, 0.3)" width="19.3" xlink:href="#sprite10"/>
      <use height="23.0" transform="matrix(1.0, 0.0, 0.0, 1.0, -0.9, -0.9)" width="21.45" xlink:href="#shape12"/>
    </g>
    <g id="sprite9" transform="matrix(1.0, 0.0, 0.0, 1.0, 0.0, 0.0)">
      <use height="4.05" transform="matrix(1.0, 0.0, 0.0, 1.0, 0.0, 0.0)" width="13.5" xlink:href="#shape10"/>
    </g>
    <g id="shape10" transform="matrix(1.0, 0.0, 0.0, 1.0, 0.0, 0.0)">
      <path d="M0.0 0.3 L13.3 0.0 13.5 3.0 Q5.8 5.75 0.0 1.4 L0.0 0.3" fill="#666600" fill-rule="evenodd" stroke="none"/>
    </g>
    <g id="sprite10" transform="matrix(1.0, 0.0, 0.0, 1.0, 0.0, 0.0)">
      <use height="18.75" transform="matrix(1.0, 0.0, 0.0, 1.0, 0.0, 0.0)" width="19.3" xlink:href="#shape11"/>
    </g>
    <g id="shape11" transform="matrix(1.0, 0.0, 0.0, 1.0, 0.0, 0.0)">
      <path d="M14.6 9.75 Q10.05 6.45 7.3 9.2 6.85 9.8 7.55 10.1 8.85 10.8 10.3 10.5 8.95 10.9 9.2 11.55 10.45 12.95 14.75 11.3 L15.2 11.7 16.4 11.85 17.35 11.15 17.55 10.5 18.1 10.5 Q17.75 8.6 17.85 6.9 L16.9 9.05 16.8 9.0 15.6 8.85 Q15.0 9.0 14.65 9.55 L14.6 9.75 M4.9 0.0 L4.9 1.1 Q10.7 5.45 18.4 2.7 L19.3 16.25 Q7.65 20.8 0.0 17.0 0.95 8.8 3.0 0.0 L4.9 0.0" fill="#7b6b9b" fill-rule="evenodd" stroke="none"/>
    </g>
    <g id="shape12" transform="matrix(1.0, 0.0, 0.0, 1.0, 0.9, 0.9)">
      <path d="M0.25 17.3 Q7.9 21.1 19.55 16.55 L19.65 18.65 Q7.75 23.35 0.0 19.35 L0.25 17.3 M14.85 10.05 L14.9 9.85 Q15.25 9.3 15.85 9.15 L17.05 9.3 17.15 9.35 17.7 10.15 17.75 10.2 17.8 10.8 17.6 11.45 16.65 12.15 15.45 12.0 15.0 11.6 14.75 11.05 Q14.6 10.55 14.85 10.05" fill="#000000" fill-rule="evenodd" stroke="none"/>
      <path d="M14.85 10.05 Q14.6 10.55 14.75 11.05 L15.0 11.6 Q10.7 13.25 9.45 11.85 9.2 11.2 10.55 10.8 9.1 11.1 7.8 10.4 7.1 10.1 7.55 9.5 10.3 6.75 14.85 10.05 M17.8 10.8 L17.75 10.2 17.7 10.15 17.15 9.35 18.1 7.2 Q18.0 8.9 18.35 10.8 L17.8 10.8" fill="#ffffff" fill-rule="evenodd" stroke="none"/>
      <path d="M5.15 1.4 Q10.95 5.75 18.65 3.0 L18.45 0.0 3.25 0.3 Q1.2 9.1 0.25 17.3 7.9 21.1 19.55 16.55 L18.65 3.0 M19.55 16.55 L19.65 18.65 Q7.75 23.35 0.0 19.35 L0.25 17.3" fill="none" stroke="#000000" stroke-linecap="round" stroke-linejoin="round" stroke-width="1.8"/>
    </g>
    <g id="sprite11" transform="matrix(1.0, 0.0, 0.0, 1.0, 4.05, 12.1)">
      <use height="14.55" transform="matrix(1.0, 0.0, 0.0, 1.0, -0.1, -11.15)" width="3.8" xlink:href="#sprite12"/>
      <use height="3.9" transform="matrix(1.0, 0.0, 0.0, 1.0, -3.15, 4.4)" width="7.1" xlink:href="#sprite13"/>
      <use height="15.2" transform="matrix(1.0, 0.0, 0.0, 1.0, -2.7, -10.9)" width="7.5" xlink:href="#sprite14"/>
      <use height="21.3" transform="matrix(1.0, 0.0, 0.0, 1.0, -4.05, -12.1)" width="9.75" xlink:href="#shape15"/>
    </g>
    <g id="sprite12" transform="matrix(1.0, 0.0, 0.0, 1.0, 0.0, 0.0)">
      <use height="14.55" transform="matrix(1.0, 0.0, 0.0, 1.0, 0.0, 0.0)" width="3.8" xlink:href="#shape13"/>
    </g>
    <g id="shape13" transform="matrix(1.0, 0.0, 0.0, 1.0, 0.0, 0.0)">
      <path d="M0.0 13.95 L1.8 0.75 1.55 0.25 2.1 0.05 2.35 0.55 2.8 0.0 Q3.35 0.1 3.8 0.5 L1.7 14.55 0.0 13.95" fill="#666600" fill-rule="evenodd" stroke="none"/>
    </g>
    <g id="sprite13" transform="matrix(1.0, 0.0, 0.0, 1.0, 0.0, 0.0)">
      <use height="3.9" transform="matrix(1.0, 0.0, 0.0, 1.0, 0.0, 0.0)" width="7.1" xlink:href="#shape7"/>
    </g>
    <g id="sprite14" transform="matrix(1.0, 0.0, 0.0, 1.0, 0.0, 0.0)">
      <use height="15.2" transform="matrix(1.0, 0.0, 0.0, 1.0, 0.0, 0.0)" width="7.5" xlink:href="#shape14"/>
    </g>
    <g id="shape14" transform="matrix(1.0, 0.0, 0.0, 1.0, 0.0, 0.0)">
      <path d="M6.4 0.25 L7.05 1.05 Q7.65 2.2 7.45 9.25 L7.15 15.2 4.3 14.3 6.4 0.25 M0.95 8.3 Q2.55 1.5 3.45 0.6 L4.15 0.0 4.4 0.5 2.6 13.7 0.45 13.0 0.0 12.9 0.95 8.3" fill="#7b6b9b" fill-rule="evenodd" stroke="none"/>
    </g>
    <g id="shape15" transform="matrix(1.0, 0.0, 0.0, 1.0, 4.05, 12.1)">
      <path d="M-2.7 2.05 L-2.25 2.1 4.45 4.3 4.4 4.65 3.95 6.35 3.65 6.25 -2.9 4.4 -3.1 4.4 -3.1 3.65 -2.7 2.05" fill="#000000" fill-rule="evenodd" stroke="none"/>
      <path d="M4.45 4.3 L4.75 -1.65 Q4.95 -8.7 4.35 -9.85 L3.7 -10.65 2.7 -11.15 2.2 -11.15 2.0 -11.1 1.45 -10.9 0.75 -10.3 Q-0.15 -9.4 -1.75 -2.6 L-2.7 2.0 -2.7 2.05 M4.45 4.3 L4.4 4.65 3.95 6.35 3.9 6.45 3.1 7.5 Q1.75 8.45 0.15 8.3 -1.6 8.0 -2.55 6.7 -3.25 5.75 -3.15 4.45 L-3.1 4.4 -3.1 3.65 -2.7 2.05" fill="none" stroke="#000000" stroke-linecap="round" stroke-linejoin="round" stroke-width="1.8"/>
      <path d="M-2.25 2.1 L4.45 4.3 M3.65 6.25 L-2.9 4.4" fill="none" stroke="#000000" stroke-linecap="round" stroke-linejoin="round" stroke-width="1.5"/>
    </g>
    <g id="sprite15" transform="matrix(1.0, 0.0, 0.0, 1.0, 0.9, 0.9)">
      <use height="38.3" transform="matrix(1.0, 0.0, 0.0, 1.0, 0.0, 0.0)" width="25.2" xlink:href="#sprite16"/>
      <use height="40.1" transform="matrix(1.0, 0.0, 0.0, 1.0, -0.9, -0.9)" width="27.0" xlink:href="#shape17"/>
    </g>
    <g id="sprite16" transform="matrix(1.0, 0.0, 0.0, 1.0, 0.0, 0.0)">
      <use height="38.3" transform="matrix(1.0, 0.0, 0.0, 1.0, 0.0, 0.0)" width="25.2" xlink:href="#shape16"/>
    </g>
    <g id="shape16" transform="matrix(1.0, 0.0, 0.0, 1.0, 0.0, 0.0)">
      <path d="M13.8 38.3 Q6.55 38.1 1.0 32.4 0.4 29.5 2.9 27.6 0.35 21.5 0.0 13.65 L7.25 0.0 25.2 7.05 13.8 38.3" fill="#996633" fill-rule="evenodd" stroke="none"/>
    </g>
    <g id="shape17" transform="matrix(1.0, 0.0, 0.0, 1.0, 0.9, 0.9)">
      <path d="M7.25 0.0 L25.2 7.05 13.8 38.3 Q6.55 38.1 1.0 32.4 0.4 29.5 2.9 27.6 0.35 21.5 0.0 13.65 L7.25 0.0 Z" fill="none" stroke="#000000" stroke-linecap="round" stroke-linejoin="round" stroke-width="1.8"/>
    </g>
    <g id="sprite17" transform="matrix(1.0, 0.0, 0.0, 1.0, 0.9, 0.9)">
      <use height="61.55" transform="matrix(1.0, 0.0, 0.0, 1.0, 0.0, 0.0)" width="62.75" xlink:href="#sprite18"/>
      <use height="63.35" transform="matrix(1.0, 0.0, 0.0, 1.0, -0.9, -0.9)" width="64.55" xlink:href="#shape19"/>
    </g>
    <g id="sprite18" transform="matrix(1.0, 0.0, 0.0, 1.0, 0.0, 0.0)">
      <use height="61.55" transform="matrix(1.0, 0.0, 0.0, 1.0, 0.0, 0.0)" width="62.75" xlink:href="#shape18"/>
    </g>
    <g id="shape18" transform="matrix(1.0, 0.0, 0.0, 1.0, 0.0, 0.0)">
      <path d="M14.6 5.0 Q21.3 0.0 27.45 0.2 49.0 -1.85 59.3 16.2 68.7 34.05 52.45 52.4 L53.1 57.65 45.7 55.75 43.0 60.9 39.55 59.1 29.7 61.5 Q17.6 61.85 7.25 58.15 L8.9 31.85 1.5 37.2 Q-4.7 16.8 14.6 5.0" fill="#663300" fill-rule="evenodd" stroke="none"/>
    </g>
    <g id="shape19" transform="matrix(1.0, 0.0, 0.0, 1.0, 0.9, 0.9)">
      <path d="M29.7 57.35 L29.7 61.5 36.1 57.35 39.55 59.1 43.0 60.9 45.7 55.75 53.1 57.65 52.45 52.4 Q68.7 34.05 59.3 16.2 49.0 -1.85 27.45 0.2 21.3 0.0 14.6 5.0 -4.7 16.8 1.5 37.2 L8.9 31.85 10.6 30.6 M39.55 59.1 L29.7 61.5 Q17.6 61.85 7.25 58.15 L8.9 31.85" fill="none" stroke="#000000" stroke-linecap="round" stroke-linejoin="round" stroke-width="1.8"/>
    </g>
    <g id="sprite19" transform="matrix(1.0, 0.0, 0.0, 1.0, 0.9, 0.9)">
      <use height="50.0" transform="matrix(1.0, 0.0, 0.0, 1.0, 3.5, 0.0)" width="26.65" xlink:href="#sprite20"/>
      <use height="56.95" transform="matrix(1.0, 0.0, 0.0, 1.0, -0.9, -0.9)" width="31.95" xlink:href="#shape21"/>
    </g>
    <g id="sprite20" transform="matrix(1.0, 0.0, 0.0, 1.0, 0.0, 0.0)">
      <use height="50.0" transform="matrix(1.0, 0.0, 0.0, 1.0, 0.0, 0.0)" width="26.65" xlink:href="#shape20"/>
    </g>
    <g id="shape20" transform="matrix(1.0, 0.0, 0.0, 1.0, 0.0, 0.0)">
      <path d="M14.1 19.35 Q13.7 21.4 13.6 23.6 L10.65 23.25 Q8.0 23.25 5.7 24.3 5.7 21.7 6.1 19.3 L14.1 19.35 M14.25 16.75 L6.6 16.75 Q9.2 6.35 19.6 0.0 L26.65 0.5 Q17.3 6.7 14.65 16.85 L14.25 16.75 M1.65 28.75 Q4.0 26.95 6.95 26.95 10.9 26.95 13.75 30.3 16.7 33.7 16.7 38.45 16.7 43.25 13.75 46.55 10.9 50.0 6.95 50.0 2.9 50.0 0.0 46.55 L0.35 46.05 Q1.65 46.8 3.25 46.8 6.0 46.8 7.95 44.4 10.0 42.1 10.0 38.8 10.0 35.5 7.95 33.15 L6.25 31.7 Q4.7 30.55 2.8 30.55 1.55 30.55 0.45 31.05 L0.0 30.3 1.65 28.75" fill="#003333" fill-rule="evenodd" stroke="none"/>
    </g>
    <g id="shape21" transform="matrix(1.0, 0.0, 0.0, 1.0, 0.9, 0.9)">
      <path d="M10.1 16.75 L17.75 16.75 18.15 16.85 Q17.8 18.05 17.6 19.35 L9.6 19.3 10.1 16.75 M17.1 23.6 Q20.75 24.55 23.55 27.85 27.65 32.55 27.65 39.15 27.65 45.75 23.55 50.35 19.65 55.15 14.15 55.15 8.55 55.15 4.55 50.35 3.3 48.85 2.45 47.15 L3.5 46.55 Q6.4 50.0 10.45 50.0 14.4 50.0 17.25 46.55 20.2 43.25 20.2 38.45 20.2 33.7 17.25 30.3 14.4 26.95 10.45 26.95 7.5 26.95 5.15 28.75 L4.55 27.85 Q6.65 25.45 9.2 24.3 11.5 23.25 14.15 23.25 L17.1 23.6" fill="#333333" fill-rule="evenodd" stroke="none"/>
      <path d="M0.4 36.05 Q0.6 34.65 1.05 33.45 L1.5 32.85 1.85 32.5 2.3 32.1 3.7 31.15 3.95 31.05 Q5.05 30.55 6.3 30.55 8.2 30.55 9.75 31.7 L11.0 32.85 Q13.05 35.2 13.05 38.5 13.05 41.8 11.0 44.1 9.05 46.5 6.3 46.5 4.7 46.5 3.4 45.75 L2.4 45.0 1.8 44.4 1.5 43.8 0.9 42.4 Q0.25 40.45 0.25 38.15 0.25 37.05 0.4 36.05" fill="#000000" fill-rule="evenodd" stroke="none"/>
      <path d="M18.15 16.85 Q20.8 6.7 30.15 0.5 L23.1 0.0 Q12.7 6.35 10.1 16.75 L17.75 16.75 M18.15 16.85 Q17.8 18.05 17.6 19.35 17.2 21.4 17.1 23.6 20.75 24.55 23.55 27.85 27.65 32.55 27.65 39.15 27.65 45.75 23.55 50.35 19.65 55.15 14.15 55.15 8.55 55.15 4.55 50.35 3.3 48.85 2.45 47.15 1.45 45.25 1.05 43.1 0.0 41.2 0.0 38.8 0.0 37.3 0.4 36.05 0.6 34.65 1.05 33.45 L1.5 32.85 1.85 32.5 Q2.3 31.2 3.05 30.05 L4.55 27.85 Q6.65 25.45 9.2 24.3 9.2 21.7 9.6 19.3 L10.1 16.75 M17.1 23.6 L14.15 23.25 Q11.5 23.25 9.2 24.3 M9.6 19.3 L17.6 19.35 M5.15 28.75 Q7.5 26.95 10.45 26.95 14.4 26.95 17.25 30.3 20.2 33.7 20.2 38.45 20.2 43.25 17.25 46.55 14.4 50.0 10.45 50.0 6.4 50.0 3.5 46.55 M0.4 36.05 Q0.25 37.05 0.25 38.15 0.25 40.45 0.9 42.4 L1.5 43.8 1.8 44.4 2.4 45.0 3.4 45.75 Q4.7 46.5 6.3 46.5 9.05 46.5 11.0 44.1 13.05 41.8 13.05 38.5 13.05 35.2 11.0 32.85 L9.75 31.7 Q8.2 30.55 6.3 30.55 5.05 30.55 3.95 31.05 L3.7 31.15 2.3 32.1 1.85 32.5 M5.15 28.75 Q4.25 29.4 3.5 30.3 L2.3 32.1 M1.05 43.1 L0.9 42.4 M2.4 45.0 L3.5 46.55 M1.5 43.8 L1.05 43.1" fill="none" stroke="#000000" stroke-linecap="round" stroke-linejoin="round" stroke-width="1.8"/>
    </g>
    <g id="sprite21" transform="matrix(1.0, 0.0, 0.0, 1.0, 0.9, 0.9)">
      <use height="9.45" transform="matrix(1.0, 0.0, 0.0, 1.0, 0.0, 0.0)" width="13.65" xlink:href="#sprite22"/>
      <use height="11.25" transform="matrix(1.0, 0.0, 0.0, 1.0, -0.9, -0.9)" width="15.45" xlink:href="#shape23"/>
    </g>
    <g id="sprite22" transform="matrix(1.0, 0.0, 0.0, 1.0, 0.0, 0.0)">
      <use height="9.45" transform="matrix(1.0, 0.0, 0.0, 1.0, 0.0, 0.0)" width="13.65" xlink:href="#shape22"/>
    </g>
    <g id="shape22" transform="matrix(1.0, 0.0, 0.0, 1.0, 0.0, 0.0)">
      <path d="M2.4 9.45 L0.0 0.0 8.2 6.1 8.2 0.65 Q12.45 4.2 13.65 9.45 L2.4 9.45" fill="#663300" fill-rule="evenodd" stroke="none"/>
    </g>
    <g id="shape23" transform="matrix(1.0, 0.0, 0.0, 1.0, 0.9, 0.9)">
      <path d="M2.4 9.45 L0.0 0.0 8.2 6.1 8.2 0.65 Q12.45 4.2 13.65 9.45" fill="none" stroke="#000000" stroke-linecap="round" stroke-linejoin="round" stroke-width="1.8"/>
    </g>
  </defs>
</svg>
