<?xml version="1.0" encoding="UTF-8" standalone="no"?>
<svg xmlns:xlink="http://www.w3.org/1999/xlink"  height="114.4px" width="98.35px" xmlns="http://www.w3.org/2000/svg">
  <g transform="matrix(0.6, 0.0, 0.0, 0.6, -1.35, -4.85)">
    <use height="79.3" id="mc1900" transform="matrix(0.9926, -0.1182, 0.1182, 0.9926, 8.9503, 27.163)" width="74.0" xlink:href="#sprite0"/>
      <use height="18.85" id="mc1800" transform="matrix(0.9946, 0.101, -0.101, 0.9946, 32.0866, 94.7017)" width="10.9" xlink:href="#sprite6"/>
      <use height="18.85" id="mc1700" transform="matrix(0.9946, 0.101, -0.101, 0.9946, 47.4866, 94.7517)" width="10.9" xlink:href="#sprite6"/>
      <use height="18.55" id="mc1600" transform="matrix(0.9137, -0.4035, 0.4035, 0.9137, 20.9772, 84.927)" width="15.75" xlink:href="#sprite7"/>
      <use height="18.55" id="mc1500" transform="matrix(-0.9486, -0.3134, -0.3134, 0.9486, 66.4047, 83.5131)" width="15.75" xlink:href="#sprite7"/>
      <use height="20.65" id="mc1400" transform="matrix(1.0, 0.0, 0.0, 1.0, 33.5, 74.4)" width="21.15" xlink:href="#sprite10"/>
      <use height="22.9" id="mc1300" transform="matrix(1.0, 0.0, 0.0, 1.0, 32.65, 70.35)" width="23.0" xlink:href="#sprite13"/>
      <use height="21.35" id="mc1200" transform="matrix(1.0, 0.0, 0.0, 1.0, 32.15, 81.4)" width="23.6" xlink:href="#sprite16"/>
      <use height="10.05" id="mc1100" transform="matrix(0.9996, -0.0266, 0.0266, 0.9996, 30.3264, 78.9244)" width="12.85" xlink:href="#sprite17"/>
      <use height="10.05" id="mc1000" transform="matrix(0.9996, -0.0266, 0.0266, 0.9996, 45.3764, 78.0744)" width="12.85" xlink:href="#sprite20"/>
      <use height="41.6" id="mc900" transform="matrix(0.9682, -0.2469, 0.2469, 0.9682, 19.3064, 50.8509)" width="43.75" xlink:href="#sprite21"/>
      <use height="7.15" id="mc800" transform="matrix(0.7879, -0.0034, 0.0034, 0.7879, 46.2362, 78.5282)" width="14.6" xlink:href="#sprite23"/>
      <use height="8.0" transform="matrix(1.0, 0.0, 0.0, 1.0, 55.7, 67.6)" width="8.95" xlink:href="#shape19"/>
      <use height="9.55" transform="matrix(1.0, 0.0, 0.0, 1.0, 39.5, 66.35)" width="10.55" xlink:href="#shape20"/>
      <use height="64.15" id="mc400" transform="matrix(0.9682, -0.2469, 0.2469, 0.9682, -6.5372, 27.7069)" width="71.85" xlink:href="#sprite24"/>
      <use height="18.5" id="mc300" transform="matrix(1.0, 0.0, 0.0, 1.0, 30.25, 91.4)" width="27.7" xlink:href="#sprite26"/>
      <use height="20.15" id="mc200" transform="matrix(0.9969, 0.0135, -0.0135, 0.9969, 37.6624, 33.3422)" width="38.05" xlink:href="#sprite29"/>
      <use height="0.0" id="hat" transform="matrix(1.0, 0.0, 0.0, 1.0, 43.6, 112.8)" width="0.0" xlink:href="#sprite33"/>
  </g>
  <defs>
    <g id="shape0" transform="matrix(1.0, 0.0, 0.0, 1.0, -0.1, -0.2)">
      <path d="M77.5 13.45 Q90.75 26.75 90.75 45.55 90.75 64.35 77.5 77.6 64.2 90.85 45.4 90.85 26.6 90.85 13.35 77.6 0.1 64.35 0.1 45.55 0.1 26.75 13.35 13.45 26.6 0.2 45.4 0.2 64.2 0.2 77.5 13.45" fill="#ff0000" fill-rule="evenodd" stroke="none"/>
    </g>
    <g id="sprite0" transform="matrix(1.0, 0.0, 0.0, 1.0, 0.9, 0.9)">
      <use height="66.3" id="mc200" transform="matrix(1.0, 0.0, 0.0, 1.0, 6.8, 9.25)" width="63.0" xlink:href="#sprite1"/>
      <use height="53.85" id="mc100" transform="matrix(1.0, 0.0, 0.0, 1.0, 16.75, 18.6)" width="50.35" xlink:href="#sprite4"/>
      <use height="79.3" transform="matrix(1.0, 0.0, 0.0, 1.0, -0.9, -0.9)" width="74.0" xlink:href="#shape3"/>
    </g>
    <g id="sprite1" transform="matrix(1.0, 0.0, 0.0, 1.0, 0.0, 0.0)">
      <use height="66.3" id="mc000" transform="matrix(1.0, 0.0, 0.0, 1.0, 0.0, 0.0)" width="63.0" xlink:href="#sprite2"/>
    </g>
    <g id="sprite2" transform="matrix(1.0, 0.0, 0.0, 1.0, 0.0, 0.0)">
      <use height="66.3" id="mc000" transform="matrix(1.0, 0.0, 0.0, 1.0, 0.0, 0.0)" width="63.0" xlink:href="#sprite3"/>
    </g>
    <g id="sprite3" transform="matrix(1.0, 0.0, 0.0, 1.0, 0.0, 0.0)">
      <use height="66.3" transform="matrix(1.0, 0.0, 0.0, 1.0, 0.0, 0.0)" width="63.0" xlink:href="#shape1"/>
    </g>
    <g id="shape1" transform="matrix(1.0, 0.0, 0.0, 1.0, 0.0, 0.0)">
      <path d="M60.3 9.35 L48.15 9.55 51.45 0.8 63.0 0.0 60.3 9.35 M11.2 50.8 L9.95 63.2 0.0 66.3 2.35 55.3 11.2 50.8" fill="#00cc99" fill-rule="evenodd" stroke="none"/>
    </g>
    <g id="sprite4" transform="matrix(1.0, 0.0, 0.0, 1.0, 0.0, 0.0)">
      <use height="53.85" id="mc000" transform="matrix(1.0, 0.0, 0.0, 1.0, 0.0, 0.0)" width="50.35" xlink:href="#sprite5"/>
    </g>
    <g id="sprite5" transform="matrix(1.0, 0.0, 0.0, 1.0, 0.0, 0.0)">
      <use height="53.85" transform="matrix(1.0, 0.0, 0.0, 1.0, 0.0, 0.0)" width="50.35" xlink:href="#shape2"/>
    </g>
    <g id="shape2" transform="matrix(1.0, 0.0, 0.0, 1.0, 0.0, 0.0)">
      <path d="M38.2 0.2 L50.35 0.0 Q44.35 19.8 36.1 40.2 18.3 47.9 0.0 53.85 L1.25 41.45 Q12.7 35.7 24.15 29.9 32.25 15.3 38.2 0.2" fill="#006666" fill-rule="evenodd" stroke="none"/>
    </g>
    <g id="shape3" transform="matrix(1.0, 0.0, 0.0, 1.0, 0.9, 0.9)">
      <path d="M58.25 10.05 L59.4 6.6 Q63.9 -0.95 72.2 0.15 L69.8 9.25 58.25 10.05 M9.15 64.55 L6.8 75.55 0.0 77.5 5.15 66.55 9.15 64.55" fill="#fafff5" fill-rule="evenodd" stroke="none"/>
      <path d="M54.95 18.8 Q49.0 33.9 40.9 48.5 L18.0 60.05 16.75 72.45 Q35.05 66.5 52.85 58.8 61.1 38.4 67.1 18.6 L54.95 18.8 58.25 10.05 59.4 6.6 Q63.9 -0.95 72.2 0.15 L69.8 9.25 67.1 18.6 M58.25 10.05 L69.8 9.25 M9.15 64.55 L6.8 75.55 16.75 72.45 M6.8 75.55 L0.0 77.5 5.15 66.55 9.15 64.55 18.0 60.05" fill="none" stroke="#000000" stroke-linecap="round" stroke-linejoin="round" stroke-width="1.8"/>
    </g>
    <g id="sprite6" transform="matrix(1.0, 0.0, 0.0, 1.0, 4.95, 9.5)">
      <use height="18.85" transform="matrix(1.0, 0.0, 0.0, 1.0, -4.95, -9.5)" width="10.9" xlink:href="#shape4"/>
    </g>
    <g id="shape4" transform="matrix(1.0, 0.0, 0.0, 1.0, 4.95, 9.5)">
      <path d="M5.05 5.55 L5.05 5.7 Q5.15 6.65 3.9 7.45 2.7 8.25 0.95 8.4 -0.8 8.55 -2.15 7.95 -3.45 7.45 -3.55 6.5 L-3.55 6.35 -3.5 6.35 4.7 5.5 5.05 5.55" fill="#000000" fill-rule="evenodd" stroke="none"/>
      <path d="M-3.55 6.1 L-3.65 3.85 -4.05 -6.3 Q-4.1 -7.15 -3.15 -7.75 -2.1 -8.4 -0.55 -8.55 L2.1 -8.25 Q3.15 -7.75 3.3 -7.0 L3.35 -6.85 3.35 -6.65 4.7 3.05 5.05 5.45 4.7 5.5 -3.5 6.35 -3.55 6.1 M4.7 3.05 L-3.65 3.85 4.7 3.05" fill="#ffffff" fill-rule="evenodd" stroke="none"/>
      <path d="M-3.55 6.1 L-3.65 3.85 -4.05 -6.3 Q-4.1 -7.15 -3.15 -7.75 -2.1 -8.4 -0.55 -8.55 L2.1 -8.25 Q3.15 -7.75 3.3 -7.0 L3.35 -6.85 3.35 -6.65 4.7 3.05 5.05 5.45 5.05 5.55 5.05 5.7 Q5.15 6.65 3.9 7.45 2.7 8.25 0.95 8.4 -0.8 8.55 -2.15 7.95 -3.45 7.45 -3.55 6.5 L-3.55 6.35 -3.55 6.1 M-3.5 6.35 L4.7 5.5 M-3.55 6.35 L-3.5 6.35 M-3.65 3.85 L4.7 3.05" fill="none" stroke="#000000" stroke-linecap="round" stroke-linejoin="round" stroke-width="1.8"/>
    </g>
    <g id="sprite7" transform="matrix(1.0, 0.0, 0.0, 1.0, 7.85, 8.8)">
      <use height="6.5" id="mc400" transform="matrix(1.0, 0.0, 0.0, 1.0, -5.35, 2.35)" width="7.55" xlink:href="#sprite8"/>
      <use height="16.1" transform="matrix(1.0, 0.0, 0.0, 1.0, -6.25, -6.35)" width="14.15" xlink:href="#shape6"/>
      <use height="15.5" id="mc200" transform="matrix(1.0, 0.0, 0.0, 1.0, -6.95, -7.9)" width="13.95" xlink:href="#sprite9"/>
      <use height="17.3" transform="matrix(1.0, 0.0, 0.0, 1.0, -7.85, -8.8)" width="15.75" xlink:href="#shape8"/>
    </g>
    <g id="sprite8" transform="matrix(1.0, 0.0, 0.0, 1.0, 0.0, 0.0)">
      <use height="6.5" transform="matrix(1.0, 0.0, 0.0, 1.0, 0.0, 0.0)" width="7.55" xlink:href="#shape5"/>
    </g>
    <g id="shape5" transform="matrix(1.0, 0.0, 0.0, 1.0, 0.0, 0.0)">
      <path d="M6.45 2.8 L7.55 2.7 7.1 3.95 Q6.5 5.65 5.2 6.2 3.75 6.8 2.3 6.2 0.8 5.55 0.2 4.15 -0.3 2.8 0.5 1.2 L1.1 0.0 Q2.7 2.0 4.75 2.55 L6.3 2.9 6.45 2.8" fill="#b59155" fill-rule="evenodd" stroke="none"/>
    </g>
    <g id="shape6" transform="matrix(1.0, 0.0, 0.0, 1.0, 6.25, 6.35)">
      <path d="M6.8 -4.7 L6.7 -4.4 7.0 -5.45 6.8 -4.7" fill="#ffffff" fill-rule="evenodd" stroke="none"/>
      <path d="M6.8 -4.7 L7.0 -5.45 6.7 -4.4 6.8 -4.7 3.75 2.45 2.2 5.05 1.75 6.3 Q1.15 8.0 -0.15 8.55 -1.6 9.15 -3.05 8.55 -4.55 7.9 -5.15 6.5 -5.65 5.15 -4.85 3.55 L-4.25 2.35 -4.1 1.95 M2.2 5.05 L1.1 5.15 M-2.55 -1.8 L-2.7 -1.55 M-0.6 4.9 Q-2.65 4.35 -4.25 2.35" fill="none" stroke="#000000" stroke-linecap="round" stroke-linejoin="round" stroke-width="1.8"/>
    </g>
    <g id="sprite9" transform="matrix(1.0, 0.0, 0.0, 1.0, 0.0, 0.0)">
      <use height="15.5" transform="matrix(1.0, 0.0, 0.0, 1.0, 0.0, 0.0)" width="13.95" xlink:href="#shape7"/>
    </g>
    <g id="shape7" transform="matrix(1.0, 0.0, 0.0, 1.0, 0.0, 0.0)">
      <path d="M10.4 10.55 L10.7 10.75 8.8 15.5 8.75 15.5 8.5 15.4 7.2 13.05 4.05 14.4 3.95 14.15 3.6 10.9 3.35 10.55 0.0 10.55 4.3 6.05 4.4 6.15 5.05 5.25 Q10.05 0.45 11.25 0.15 12.45 -0.25 13.25 0.4 14.1 1.05 13.95 2.25 L13.95 2.45 13.65 3.5 10.4 10.55" fill="#ffffff" fill-rule="evenodd" stroke="none"/>
    </g>
    <g id="shape8" transform="matrix(1.0, 0.0, 0.0, 1.0, 7.85, 8.8)">
      <path d="M-2.65 -1.85 L-6.95 2.65 -3.4 2.65 -3.0 6.25 M1.85 7.6 L3.75 2.85 M-2.9 6.5 L0.25 5.15 1.55 7.5 M3.35 2.6 L-2.45 -1.7" fill="none" stroke="#000000" stroke-linecap="round" stroke-linejoin="round" stroke-width="1.8"/>
      <path d="M7.0 -5.65 Q7.15 -6.85 6.3 -7.5 5.5 -8.15 4.3 -7.75 3.1 -7.45 -1.9 -2.65 M6.7 -4.4 L3.5 2.9" fill="none" stroke="#000000" stroke-linecap="round" stroke-linejoin="round" stroke-width="1.8"/>
    </g>
    <g id="sprite10" transform="matrix(1.0, 0.0, 0.0, 1.0, 0.05, 5.35)">
      <use height="20.65" transform="matrix(1.0, 0.0, 0.0, 1.0, -0.05, -5.35)" width="21.15" xlink:href="#shape9"/>
      <use height="18.85" id="mc001" transform="matrix(1.0, 0.0, 0.0, 1.0, 0.85, -4.45)" width="19.35" xlink:href="#sprite11"/>
    </g>
    <g id="shape9" transform="matrix(1.0, 0.0, 0.0, 1.0, 0.05, 5.35)">
      <path d="M18.55 -4.45 L20.2 13.7 14.15 14.2 8.6 14.4 0.85 14.15 1.7 -3.95 18.55 -4.45 Z" fill="none" stroke="#000000" stroke-linecap="round" stroke-linejoin="round" stroke-width="1.8"/>
    </g>
    <g id="sprite11" transform="matrix(1.0, 0.0, 0.0, 1.0, 0.0, 0.0)">
      <use height="18.85" id="mc000" transform="matrix(1.0, 0.0, 0.0, 1.0, 0.0, 0.0)" width="19.35" xlink:href="#sprite12"/>
    </g>
    <g id="sprite12" transform="matrix(1.0, 0.0, 0.0, 1.0, 0.0, 0.0)">
      <use height="18.85" transform="matrix(1.0, 0.0, 0.0, 1.0, 0.0, 0.0)" width="19.35" xlink:href="#shape10"/>
    </g>
    <g id="shape10" transform="matrix(1.0, 0.0, 0.0, 1.0, 0.0, 0.0)">
      <path d="M19.35 18.15 L13.3 18.65 7.75 18.85 0.0 18.6 0.85 0.5 17.7 0.0 19.35 18.15" fill="#b59155" fill-rule="evenodd" stroke="none"/>
    </g>
    <g id="sprite13" transform="matrix(1.0, 0.0, 0.0, 1.0, 0.9, 7.6)">
      <use height="21.1" id="mc100" transform="matrix(1.0, 0.0, 0.0, 1.0, 0.0, -6.7)" width="21.2" xlink:href="#sprite14"/>
      <use height="22.9" transform="matrix(1.0, 0.0, 0.0, 1.0, -0.9, -7.6)" width="23.0" xlink:href="#shape12"/>
    </g>
    <g id="sprite14" transform="matrix(1.0, 0.0, 0.0, 1.0, 0.0, 0.0)">
      <use height="21.1" id="mc000" transform="matrix(1.0, 0.0, 0.0, 1.0, 0.0, 0.0)" width="21.2" xlink:href="#sprite15"/>
    </g>
    <g id="sprite15" transform="matrix(1.0, 0.0, 0.0, 1.0, 0.0, 0.0)">
      <use height="21.1" transform="matrix(1.0, 0.0, 0.0, 1.0, 0.0, 0.0)" width="21.2" xlink:href="#shape11"/>
    </g>
    <g id="shape11" transform="matrix(1.0, 0.0, 0.0, 1.0, 0.0, 0.0)">
      <path d="M21.2 20.3 L14.55 20.9 13.7 0.2 19.35 0.0 21.2 20.3 M8.5 21.1 L0.0 20.8 0.95 0.6 8.1 0.6 8.5 21.1" fill="#ffffff" fill-rule="evenodd" stroke="none"/>
    </g>
    <g id="shape12" transform="matrix(1.0, 0.0, 0.0, 1.0, 0.9, 7.6)">
      <path d="M19.35 -6.7 L21.2 13.6 14.55 14.2 13.7 -6.5 19.35 -6.7 M8.5 14.4 L0.0 14.1 0.95 -6.1 8.1 -6.1 8.5 13.65" fill="none" stroke="#000000" stroke-linecap="round" stroke-linejoin="round" stroke-width="1.8"/>
    </g>
    <g id="sprite16" transform="matrix(1.0, 0.0, 0.0, 1.0, 0.0, 0.0)">
      <use height="21.35" transform="matrix(1.0, 0.0, 0.0, 1.0, 0.0, 0.0)" width="23.6" xlink:href="#shape13"/>
    </g>
    <g id="shape13" transform="matrix(1.0, 0.0, 0.0, 1.0, 0.0, 0.0)">
      <path d="M22.2 0.0 L23.6 1.6 23.3 2.05 Q11.6 13.1 0.3 21.35 L0.0 21.3 0.7 18.35 22.2 0.0" fill="#000000" fill-rule="evenodd" stroke="none"/>
    </g>
    <g id="sprite17" transform="matrix(1.0, 0.0, 0.0, 1.0, 0.9, 0.9)">
      <use height="10.05" id="mc000" transform="matrix(1.0, 0.0, 0.0, 1.0, -0.9, -0.9)" width="12.85" xlink:href="#sprite18"/>
    </g>
    <g id="sprite18" transform="matrix(1.0, 0.0, 0.0, 1.0, 0.9, 0.9)">
      <use height="8.25" id="mc100" transform="matrix(1.0, 0.0, 0.0, 1.0, 0.0, 0.0)" width="11.05" xlink:href="#sprite19"/>
      <use height="10.05" transform="matrix(1.0, 0.0, 0.0, 1.0, -0.9, -0.9)" width="12.85" xlink:href="#shape15"/>
    </g>
    <g id="sprite19" transform="matrix(1.0, 0.0, 0.0, 1.0, 0.0, 0.0)">
      <use height="8.25" transform="matrix(1.0, 0.0, 0.0, 1.0, 0.0, 0.0)" width="11.05" xlink:href="#shape14"/>
    </g>
    <g id="shape14" transform="matrix(1.0, 0.0, 0.0, 1.0, 0.0, 0.0)">
      <path d="M7.5 5.75 L3.6 8.25 3.2 4.7 0.0 4.7 3.35 0.0 10.1 1.1 11.05 8.25 7.5 5.75" fill="#ffffff" fill-rule="evenodd" stroke="none"/>
    </g>
    <g id="shape15" transform="matrix(1.0, 0.0, 0.0, 1.0, 0.9, 0.9)">
      <path d="M10.1 1.1 L11.05 8.25 7.5 5.75 3.6 8.25 3.2 4.7 0.0 4.7 3.35 0.0 10.1 1.1 Z" fill="none" stroke="#000000" stroke-linecap="round" stroke-linejoin="round" stroke-width="1.8"/>
    </g>
    <g id="sprite20" transform="matrix(1.0, 0.0, 0.0, 1.0, 0.9, 0.9)">
      <use height="10.05" id="mc000" transform="matrix(-1.0, 0.0, 0.0, 1.0, 11.95, -0.9)" width="12.85" xlink:href="#sprite18"/>
    </g>
    <g id="sprite21" transform="matrix(1.0, 0.0, 0.0, 1.0, 0.9, 0.9)">
      <use height="39.8" id="mc100" transform="matrix(1.0, 0.0, 0.0, 1.0, 0.0, 0.0)" width="41.95" xlink:href="#sprite22"/>
      <use height="41.6" transform="matrix(1.0, 0.0, 0.0, 1.0, -0.9, -0.9)" width="43.75" xlink:href="#shape17"/>
    </g>
    <g id="sprite22" transform="matrix(1.0, 0.0, 0.0, 1.0, 0.0, 0.0)">
      <use height="39.8" transform="matrix(1.0, 0.0, 0.0, 1.0, 0.0, 0.0)" width="41.95" xlink:href="#shape16"/>
    </g>
    <g id="shape16" transform="matrix(1.0, 0.0, 0.0, 1.0, 0.0, 0.0)">
      <path d="M0.0 12.15 L23.1 0.0 39.75 7.8 41.95 22.1 34.65 31.45 34.2 31.75 Q33.05 41.05 22.85 39.6 16.55 39.05 4.3 29.3 L0.0 12.15" fill="#c4a44a" fill-rule="evenodd" stroke="none"/>
    </g>
    <g id="shape17" transform="matrix(1.0, 0.0, 0.0, 1.0, 0.9, 0.9)">
      <path d="M22.85 39.6 Q16.55 39.05 4.3 29.3 L0.0 12.15 23.1 0.0 39.75 7.8 41.95 22.1 34.65 31.45 34.2 31.75 Q33.05 41.05 22.85 39.6 Z" fill="none" stroke="#000000" stroke-linecap="round" stroke-linejoin="round" stroke-width="1.8"/>
    </g>
    <g id="sprite23" transform="matrix(1.0, 0.0, 0.0, 1.0, 7.3, 3.55)">
      <use height="7.15" transform="matrix(1.0, 0.0, 0.0, 1.0, -7.3, -3.55)" width="14.6" xlink:href="#shape18"/>
    </g>
    <g id="shape18" transform="matrix(1.0, 0.0, 0.0, 1.0, 7.3, 3.55)">
      <path d="M6.55 -0.65 Q6.75 0.85 4.8 1.8 2.4 2.85 0.0 2.85 -2.4 2.85 -4.8 1.8 -6.75 0.85 -6.55 -0.65 -5.85 -3.55 -3.25 -2.5 -1.65 -1.8 0.0 -1.8 1.6 -1.8 3.25 -2.5 5.8 -3.55 6.55 -0.65" fill="#ffffff" fill-rule="evenodd" stroke="none"/>
      <path d="M6.55 -0.65 Q6.75 0.85 4.8 1.8 2.4 2.85 0.0 2.85 -2.4 2.85 -4.8 1.8 -6.75 0.85 -6.55 -0.65 -5.85 -3.55 -3.25 -2.5 -1.65 -1.8 0.0 -1.8 1.6 -1.8 3.25 -2.5 5.8 -3.55 6.55 -0.65 Z" fill="none" stroke="#000000" stroke-linecap="round" stroke-linejoin="round" stroke-width="1.5"/>
      <path d="M3.05 -2.1 L3.05 2.4 M-3.2 -2.25 L-3.2 2.3" fill="none" stroke="#000000" stroke-linecap="round" stroke-linejoin="round" stroke-width="1.0"/>
      <path d="M0.0 -1.9 L0.0 2.65" fill="none" stroke="#000000" stroke-linecap="round" stroke-linejoin="round" stroke-width="1.0"/>
    </g>
    <g id="shape19" transform="matrix(1.0, 0.0, 0.0, 1.0, 0.75, 0.75)">
      <path d="M0.0 4.85 Q2.25 0.05 7.45 0.0" fill="none" stroke="#000000" stroke-linecap="round" stroke-linejoin="round" stroke-width="1.5"/>
      <path d="M0.35 6.5 Q2.85 4.8 5.65 4.4" fill="none" stroke="#000000" stroke-linecap="round" stroke-linejoin="round" stroke-width="1.5"/>
    </g>
    <g id="shape20" transform="matrix(1.0, 0.0, 0.0, 1.0, 0.75, 0.75)">
      <path d="M8.85 8.05 L4.75 7.0 4.7 7.0 1.45 6.1 0.95 6.0 0.75 5.9 0.0 5.7 M9.05 7.5 Q6.65 2.6 1.7 0.0" fill="none" stroke="#000000" stroke-linecap="round" stroke-linejoin="round" stroke-width="1.5"/>
    </g>
    <g id="sprite24" transform="matrix(1.0, 0.0, 0.0, 1.0, 0.9, -5.2)">
      <use height="61.3" id="mc100" transform="matrix(1.0, 0.0, 0.0, 1.0, 0.0, 7.15)" width="69.9" xlink:href="#sprite25"/>
      <use height="64.15" transform="matrix(1.0, 0.0, 0.0, 1.0, -0.9, 5.2)" width="71.85" xlink:href="#shape22"/>
    </g>
    <g id="sprite25" transform="matrix(1.0, 0.0, 0.0, 1.0, 0.0, -7.15)">
      <use height="61.3" transform="matrix(1.0, 0.0, 0.0, 1.0, 0.0, 7.15)" width="69.9" xlink:href="#shape21"/>
    </g>
    <g id="shape21" transform="matrix(1.0, 0.0, 0.0, 1.0, 0.0, -7.15)">
      <path d="M69.9 33.15 Q69.4 39.1 67.6 45.1 L67.5 45.4 67.65 59.75 63.65 56.6 63.05 56.2 59.1 63.1 57.75 50.7 48.6 59.15 51.25 46.3 38.35 58.65 40.5 42.0 Q32.0 53.5 26.2 68.45 L25.25 63.95 24.45 64.1 Q14.5 60.95 6.8 52.95 L12.75 52.95 Q4.4 46.8 0.0 35.95 3.6 38.05 6.4 37.55 L6.4 37.5 14.95 12.45 Q30.5 3.9 47.7 9.15 66.0 15.9 69.9 33.15" fill="#ff6600" fill-rule="evenodd" stroke="none"/>
    </g>
    <g id="shape22" transform="matrix(1.0, 0.0, 0.0, 1.0, 0.9, -5.2)">
      <path d="M57.75 50.45 L57.75 50.7 59.1 63.1 63.05 56.2 63.9 54.45 66.95 47.1 67.5 45.4 67.6 45.1 Q69.7 38.05 70.05 31.15 L69.6 29.3 Q63.5 14.3 47.35 8.25 28.35 2.15 14.6 13.2 9.55 25.1 6.4 37.5 L6.4 37.55 Q3.6 38.05 0.0 35.95 4.4 46.8 12.75 52.95 L13.05 53.35 M16.8 48.85 L17.2 48.4 17.2 31.4 M17.2 48.4 L24.35 39.8 24.4 39.45 24.45 38.65 M12.75 52.95 L6.8 52.95 Q14.5 60.95 24.45 64.1 M24.35 39.8 Q23.15 52.25 25.25 63.95 L26.2 68.45 Q32.0 53.5 40.5 42.0 L38.35 58.65 51.25 46.3 48.6 59.15 57.75 50.7 M63.65 56.6 L67.65 59.75 67.5 45.4" fill="none" stroke="#000000" stroke-linecap="round" stroke-linejoin="round" stroke-width="1.8"/>
    </g>
    <g id="sprite26" transform="matrix(1.0, 0.0, 0.0, 1.0, 1.8, 0.9)">
      <use height="18.5" id="mc000" transform="matrix(1.0, 0.0, 0.0, 1.0, -1.8, -0.9)" width="27.7" xlink:href="#sprite27"/>
    </g>
    <g id="sprite27" transform="matrix(1.0, 0.0, 0.0, 1.0, 1.8, 0.9)">
      <use height="16.7" id="mc100" transform="matrix(1.0, 0.0, 0.0, 1.0, -0.9, 0.0)" width="25.9" xlink:href="#sprite28"/>
      <use height="18.5" transform="matrix(1.0, 0.0, 0.0, 1.0, -1.8, -0.9)" width="27.7" xlink:href="#shape24"/>
    </g>
    <g id="sprite28" transform="matrix(1.0, 0.0, 0.0, 1.0, 0.0, 0.0)">
      <use height="16.7" transform="matrix(1.0, 0.0, 0.0, 1.0, 0.0, 0.0)" width="25.9" xlink:href="#shape23"/>
    </g>
    <g id="shape23" transform="matrix(1.0, 0.0, 0.0, 1.0, 0.0, 0.0)">
      <path d="M24.65 6.0 L25.9 9.9 Q20.35 14.65 13.2 16.7 L13.05 12.65 10.1 12.65 9.75 14.7 Q3.7 14.5 0.0 9.25 L1.7 6.0 2.3 0.0 Q13.05 1.35 23.8 0.5 L24.65 6.0" fill="#ffcc00" fill-rule="evenodd" stroke="none"/>
    </g>
    <g id="shape24" transform="matrix(1.0, 0.0, 0.0, 1.0, 1.8, 0.9)">
      <path d="M23.3 3.25 L23.75 6.0 25.0 9.9 Q19.45 14.65 12.3 16.7 L12.15 12.65 9.2 12.65 8.85 14.7 Q2.8 14.5 -0.9 9.25 L0.8 6.0 1.1 3.0 1.4 0.0 Q12.15 1.35 22.9 0.5 L23.3 3.25 Q12.0 3.6 1.1 3.0 M12.15 12.65 L12.15 6.0 0.8 6.0 M23.75 6.0 L12.15 6.0" fill="none" stroke="#000000" stroke-linecap="round" stroke-linejoin="round" stroke-width="1.8"/>
    </g>
    <g id="sprite29" transform="matrix(1.0, 0.0, 0.0, 1.0, 0.75, 0.75)">
      <use height="10.4" transform="matrix(1.0, 0.0, 0.0, 1.0, 8.5, 2.8)" width="26.2" xlink:href="#shape25"/>
      <use height="16.75" id="mc201" transform="matrix(1.0, 0.0, 0.0, 1.0, 5.65, 0.15)" width="30.75" xlink:href="#sprite30"/>
      <use height="16.35" id="mc202" transform="matrix(1.0, 0.0, 0.0, 1.0, 2.5, 0.0)" width="25.3" xlink:href="#sprite31"/>
      <use height="16.0" id="mc203" transform="matrix(1.0, 0.0, 0.0, 1.0, 0.0, 2.65)" width="34.45" xlink:href="#sprite32"/>
      <use height="20.15" transform="matrix(1.0, 0.0, 0.0, 1.0, -0.75, -0.75)" width="38.05" xlink:href="#shape29"/>
    </g>
    <g id="shape25" transform="matrix(1.0, 0.0, 0.0, 1.0, -8.5, -2.8)">
      <path d="M33.45 4.55 Q34.35 4.7 34.6 5.35 L34.7 5.8 34.7 9.5 Q34.45 10.6 33.25 10.95 L30.1 11.45 Q28.9 11.6 28.7 10.35 L28.75 3.65 33.45 4.55 M15.05 4.05 Q16.4 4.35 16.45 5.7 L16.45 10.6 Q16.15 12.05 14.55 12.55 L10.35 13.2 Q8.75 13.4 8.5 11.75 L8.55 2.8 14.8 4.0 15.05 4.05" fill="#ccffff" fill-rule="evenodd" stroke="none"/>
    </g>
    <g id="sprite30" transform="matrix(1.0, 0.0, 0.0, 1.0, 0.0, 0.0)">
      <use height="16.75" transform="matrix(1.0, 0.0, 0.0, 1.0, 0.0, 0.0)" width="30.75" xlink:href="#shape26"/>
    </g>
    <g id="shape26" transform="matrix(1.0, 0.0, 0.0, 1.0, 0.0, 0.0)">
      <path d="M30.55 10.45 Q30.5 11.6 29.5 12.2 L29.3 12.25 24.25 13.9 Q22.2 14.35 21.5 13.6 21.05 13.1 21.1 12.15 L21.1 11.9 20.95 3.45 Q20.8 2.0 22.15 1.6 L22.2 1.6 22.3 1.6 Q23.15 1.4 24.5 1.6 30.95 2.35 30.75 5.35 L30.55 10.15 30.55 10.45 M10.8 10.45 L10.8 5.55 Q10.75 4.2 9.4 3.9 L9.15 3.85 2.9 2.65 2.85 11.6 Q3.1 13.25 4.7 13.05 L8.9 12.4 Q10.5 11.9 10.8 10.45 M12.95 3.9 L13.1 5.15 13.0 7.75 13.05 6.9 16.8 6.9 16.95 10.6 13.25 11.35 12.8 11.35 12.8 11.55 12.8 11.9 Q12.75 13.45 11.4 14.25 L11.15 14.35 4.4 16.5 Q1.7 17.15 0.75 16.1 0.15 15.45 0.25 14.2 L0.25 13.85 0.0 2.6 Q-0.2 0.65 1.6 0.15 L1.85 0.1 4.75 0.15 Q11.95 0.95 12.95 3.9 M29.05 5.65 L28.95 5.2 Q28.7 4.55 27.8 4.4 L23.1 3.5 23.05 10.2 Q23.25 11.45 24.45 11.3 L27.6 10.8 Q28.8 10.45 29.05 9.35 L29.05 5.65" fill="#999999" fill-rule="evenodd" stroke="none"/>
    </g>
    <g id="sprite31" transform="matrix(1.0, 0.0, 0.0, 1.0, 0.0, 0.0)">
      <use height="16.35" transform="matrix(1.0, 0.0, 0.0, 1.0, 0.0, 0.0)" width="25.3" xlink:href="#shape27"/>
    </g>
    <g id="shape27" transform="matrix(1.0, 0.0, 0.0, 1.0, 0.0, 0.0)">
      <path d="M23.65 1.55 L24.45 1.6 25.3 1.75 Q23.95 2.15 24.1 3.6 L24.25 12.05 24.25 12.3 Q24.2 13.25 24.65 13.75 22.45 14.1 21.9 12.55 L21.75 3.7 21.75 3.55 Q21.55 1.75 23.2 1.55 L23.65 1.55 M3.15 2.75 L3.4 14.0 3.4 14.35 Q3.3 15.6 3.9 16.25 1.0 16.75 0.25 14.7 L0.05 2.85 0.05 2.65 Q-0.35 -0.9 4.75 0.3 2.95 0.8 3.15 2.75" fill="#666666" fill-rule="evenodd" stroke="none"/>
    </g>
    <g id="sprite32" transform="matrix(1.0, 0.0, 0.0, 1.0, 0.0, 0.0)">
      <use height="16.0" transform="matrix(1.0, 0.0, 0.0, 1.0, 0.0, 0.0)" width="34.45" xlink:href="#shape28"/>
    </g>
    <g id="shape28" transform="matrix(1.0, 0.0, 0.0, 1.0, 0.0, 0.0)">
      <path d="M34.45 10.2 Q34.35 12.45 29.35 13.1 24.8 13.75 22.95 11.2 L22.7 10.8 22.35 2.35 23.9 0.9 24.25 0.9 24.25 1.05 24.4 9.9 Q24.95 11.45 27.15 11.1 27.85 11.85 29.9 11.4 L34.4 9.95 34.45 10.2 M0.0 1.95 L2.05 0.0 2.55 0.0 2.55 0.2 2.75 12.05 Q3.5 14.1 6.4 13.6 7.35 14.65 10.05 14.0 L16.05 12.1 16.15 12.4 Q16.0 15.0 11.2 16.0 L3.95 16.0 Q1.95 15.35 0.8 13.75 L0.5 13.25 0.0 1.95" fill="#333333" fill-rule="evenodd" stroke="none"/>
    </g>
    <g id="shape29" transform="matrix(1.0, 0.0, 0.0, 1.0, 0.75, 0.75)">
      <path d="M23.9 3.55 L24.25 3.55 M34.4 12.6 L34.45 12.85 M2.05 2.65 L2.55 2.65 M16.8 14.5 L16.05 14.75 16.15 15.05" fill="none" stroke="#000000" stroke-linecap="round" stroke-linejoin="round" stroke-width="1.5"/>
      <path d="M25.7 1.55 L26.15 1.55" fill="none" stroke="#000000" stroke-linecap="round" stroke-linejoin="round" stroke-width="1.8"/>
      <path d="M26.15 1.55 L26.95 1.6 27.85 1.75 27.95 1.75 Q28.8 1.55 30.15 1.75 36.6 2.5 36.4 5.5 L36.2 10.3 36.2 10.6 Q36.15 11.75 35.15 12.35 L34.95 12.4 34.4 12.6 M24.25 3.55 Q24.05 1.75 25.7 1.55 M33.25 10.95 L30.1 11.45 Q28.9 11.6 28.7 10.35 L28.75 3.65 33.45 4.55 Q34.35 4.7 34.6 5.35 L34.7 5.8 34.7 9.5 Q34.45 10.6 33.25 10.95 M27.15 13.75 Q26.7 13.25 26.75 12.3 L26.75 12.05 26.6 3.6 Q26.45 2.15 27.8 1.75 L27.85 1.75 M22.6 10.8 L19.05 11.5 M15.05 4.05 Q16.4 4.35 16.45 5.7 L16.45 10.6 Q16.15 12.05 14.55 12.55 L10.35 13.2 Q8.75 13.4 8.5 11.75 L8.55 2.8 14.8 4.0 15.05 4.05 M18.7 7.05 L21.7 7.05 M22.25 8.9 L19.25 9.25" fill="none" stroke="#000000" stroke-linecap="round" stroke-linejoin="round" stroke-width="1.8"/>
      <path d="M34.4 12.6 L29.9 14.05 Q27.85 14.5 27.15 13.75 24.95 14.1 24.4 12.55 L24.25 3.55 M22.6 10.8 L22.35 5.0 23.9 3.55 M34.45 12.85 Q34.35 15.1 29.35 15.75 24.8 16.4 22.95 13.85 L22.7 13.45 22.6 10.8 M16.05 14.75 L10.05 16.65 Q7.35 17.3 6.4 16.25 3.5 16.75 2.75 14.7 L2.55 2.85 Q2.15 -0.9 7.25 0.3 L7.5 0.25 10.4 0.3 Q17.6 1.1 18.6 4.05 L18.75 5.3 18.7 7.05 18.45 11.7 18.45 12.05 Q18.4 13.6 17.05 14.4 L16.8 14.5 M6.4 16.25 Q5.8 15.6 5.9 14.35 L5.9 14.0 5.65 2.75 Q5.45 0.8 7.25 0.3 M16.15 15.05 Q16.0 17.65 11.2 18.65 L3.95 18.65 Q1.95 18.0 0.8 16.4 L0.5 15.9 0.0 4.6 2.05 2.65" fill="none" stroke="#000000" stroke-linecap="round" stroke-linejoin="round" stroke-width="1.5"/>
    </g>
  </defs>
</svg>
