<?xml version="1.0" encoding="UTF-8" standalone="no"?>
<svg xmlns:xlink="http://www.w3.org/1999/xlink" height="121.25px" width="90.65px" xmlns="http://www.w3.org/2000/svg">
  <g transform="matrix(0.6, 0.0, 0.0, 0.6, -1.35, -4.85)">
    <use height="100.25" id="mc200" transform="matrix(1.0351, 0.0, 0.0, 1.0351, 6.999, 5.2527)" width="78.15" xlink:href="#sprite0"/>
      <use height="0.0" id="hat" transform="matrix(1.0, 0.0, 0.0, 1.0, 14.65, -12.2)" width="0.0" xlink:href="#sprite28"/>
  </g>
  <defs>
    <g id="shape0" transform="matrix(1.0, 0.0, 0.0, 1.0, -0.1, -0.2)">
      <path d="M77.5 13.45 Q90.75 26.75 90.75 45.55 90.75 64.35 77.5 77.6 64.2 90.85 45.4 90.85 26.6 90.85 13.35 77.6 0.1 64.35 0.1 45.55 0.1 26.75 13.35 13.45 26.6 0.2 45.4 0.2 64.2 0.2 77.5 13.45" fill="#ff0000" fill-rule="evenodd" stroke="none"/>
    </g>
    <g id="sprite0" transform="matrix(1.0, 0.0, 0.0, 1.0, 35.6, 98.1)">
      <use height="26.6" id="mc2100" transform="matrix(0.9936, -0.1099, 0.1099, 0.9936, 4.7862, -39.2346)" width="28.9" xlink:href="#sprite1"/>
      <use height="16.15" id="hide_hat1" transform="matrix(1.0, 0.0, 0.0, 1.0, -16.5, -98.1)" width="18.2" xlink:href="#sprite3"/>
      <use height="65.8" id="mc1900" transform="matrix(1.0, 0.0, 0.0, 1.0, -35.6, -95.65)" width="78.15" xlink:href="#sprite5"/>
      <use height="11.35" id="mc1800" transform="matrix(-0.7071, -0.7071, 0.7071, -0.7071, -11.8818, -19.7917)" width="12.55" xlink:href="#sprite7"/>
      <use height="22.6" id="mc1700" transform="matrix(-0.9839, 0.1752, -0.1752, -0.9839, 4.8329, -1.3323)" width="12.05" xlink:href="#sprite9"/>
      <use height="22.6" id="mc1600" transform="matrix(-0.9839, 0.1752, -0.1752, -0.9839, 12.2329, 0.0177)" width="12.05" xlink:href="#sprite9"/>
      <use height="30.8" id="mc1500" transform="matrix(1.0, 0.0, 0.0, 1.0, -12.85, -37.75)" width="27.6" xlink:href="#sprite11"/>
      <use height="11.35" id="mc1400" transform="matrix(1.0, 0.0, 0.0, 1.0, 5.6, -35.7)" width="12.55" xlink:href="#sprite7"/>
      <use height="13.1" id="mc1300" transform="matrix(1.0, 0.0, 0.0, 1.0, -16.2, -38.55)" width="31.15" xlink:href="#sprite14"/>
      <use height="52.8" id="mc1200" transform="matrix(1.0, 0.0, 0.0, 1.0, -22.65, -83.15)" width="37.25" xlink:href="#sprite15"/>
      <use height="10.9" id="mc1100" transform="matrix(1.0, 0.0, 0.0, 1.0, -12.45, -30.7)" width="10.9" xlink:href="#sprite17"/>
      <use height="15.05" id="mc900" transform="matrix(1.0, 0.0, 0.0, 1.0, -29.45, -36.3)" width="18.05" xlink:href="#sprite20"/>
      <use height="14.9" transform="matrix(1.0, 0.0, 0.0, 1.0, -19.35, -59.85)" width="26.65" xlink:href="#shape23"/>
      <use height="8.1" transform="matrix(1.0, 0.0, 0.0, 1.0, -19.65, -53.25)" width="7.6" xlink:href="#shape24"/>
      <use height="11.4" transform="matrix(1.0, 0.0, 0.0, 1.0, -17.05, -43.0)" width="20.0" xlink:href="#shape25"/>
      <use height="55.65" id="mc300" transform="matrix(1.0, 0.0, 0.0, 1.0, -24.3, -87.8)" width="44.6" xlink:href="#sprite22"/>
      <use height="24.65" id="hide_hat" transform="matrix(1.0, 0.0, 0.0, 1.0, 8.95, -96.45)" width="20.0" xlink:href="#sprite24"/>
      <use height="14.65" id="mc100" transform="matrix(-0.1006, 0.9946, -0.9946, -0.1006, 23.9715, -45.5634)" width="18.3" xlink:href="#sprite26"/>
    </g>
    <g id="sprite1" transform="matrix(1.0, 0.0, 0.0, 1.0, 14.35, 13.7)">
      <use height="25.1" id="mc100" transform="matrix(1.0, 0.0, 0.0, 1.0, -13.6, -12.95)" width="27.4" xlink:href="#sprite2"/>
      <use height="26.6" transform="matrix(1.0, 0.0, 0.0, 1.0, -14.35, -13.7)" width="28.9" xlink:href="#shape2"/>
    </g>
    <g id="sprite2" transform="matrix(1.0, 0.0, 0.0, 1.0, 13.7, 12.55)">
      <use height="25.1" transform="matrix(1.0, 0.0, 0.0, 1.0, -13.7, -12.55)" width="27.4" xlink:href="#shape1"/>
    </g>
    <g id="shape1" transform="matrix(1.0, 0.0, 0.0, 1.0, 13.7, 12.55)">
      <path d="M2.3 -10.15 L5.95 -9.8 8.5 -12.55 10.1 -9.55 13.7 -8.35 11.25 -6.15 12.45 -2.15 9.9 -2.75 9.85 -1.85 6.95 -1.05 Q7.75 0.9 9.05 2.0 8.45 3.75 7.35 5.55 L4.45 5.1 Q4.35 6.75 5.4 8.25 L4.7 9.05 Q2.85 11.05 0.25 11.95 -0.25 10.2 -1.95 9.25 L-2.9 12.5 -7.45 12.3 -11.1 11.45 -12.95 11.2 Q-14.6 9.1 -12.6 7.8 L-7.2 8.6 -8.8 8.6 Q-8.65 10.45 -7.5 11.65 -6.4 10.25 -6.7 8.6 -2.6 8.6 -0.1 7.45 1.0 8.95 2.6 9.45 2.85 7.65 2.4 6.0 L2.35 5.9 Q3.55 4.8 4.45 3.3 L4.5 3.15 7.35 3.7 Q7.1 1.9 5.7 0.45 L6.5 -3.0 1.95 -3.8 3.7 -6.75 2.3 -10.15" fill="#ff3366" fill-rule="evenodd" stroke="none"/>
    </g>
    <g id="shape2" transform="matrix(1.0, 0.0, 0.0, 1.0, 14.35, 13.7)">
      <path d="M5.8 0.05 Q7.2 1.5 7.45 3.3 L4.6 2.75 5.8 0.05 M2.5 5.6 Q2.95 7.25 2.7 9.05 1.1 8.55 0.0 7.05 1.2 6.5 2.25 5.65 L2.5 5.6 M-6.6 8.2 Q-6.3 9.85 -7.4 11.25 -8.55 10.05 -8.7 8.2 L-7.1 8.2 -6.05 8.1 -5.85 8.15 -6.6 8.2 M-2.8 12.1 L-1.85 8.85 Q-0.15 9.8 0.35 11.55 L-2.8 12.1 M5.5 7.85 Q4.45 6.35 4.55 4.7 L7.45 5.15 7.15 5.6 5.5 7.85 M9.15 1.6 Q7.85 0.5 7.05 -1.45 L9.95 -2.25 Q9.85 -0.3 9.15 1.6" fill="#000000" fill-rule="evenodd" stroke="none"/>
      <path d="M9.95 -2.25 L10.0 -3.15 12.55 -2.55 11.35 -6.55 13.8 -8.75 10.2 -9.95 8.6 -12.95 6.05 -10.2 2.4 -10.55 3.8 -7.15 2.05 -4.2 6.6 -3.4 M-12.5 7.4 Q-14.5 8.7 -12.85 10.8 L-11.0 11.05 -7.35 11.9 -2.8 12.1 0.35 11.55 Q2.95 10.65 4.8 8.65 L5.5 7.85 7.15 5.6 7.45 5.15 Q8.55 3.35 9.15 1.6 M9.95 -2.25 Q9.85 -0.3 9.15 1.6" fill="none" stroke="#000000" stroke-linecap="round" stroke-linejoin="round" stroke-width="1.5"/>
      <path d="M6.6 -3.4 L5.8 0.05 4.6 2.75 4.55 2.9 Q3.65 4.4 2.45 5.5 L2.25 5.65 Q1.2 6.5 0.0 7.05 -2.5 8.2 -6.6 8.2 M-7.1 8.2 L-12.5 7.4" fill="none" stroke="#000000" stroke-linecap="round" stroke-linejoin="round" stroke-width="1.5"/>
      <path d="M2.45 5.5 L2.5 5.6" fill="none" stroke="#000000" stroke-linecap="round" stroke-linejoin="round" stroke-width="0.5"/>
    </g>
    <g id="sprite3" transform="matrix(1.0, 0.0, 0.0, 1.0, 9.1, 8.05)">
      <use height="13.6" id="mc100" transform="matrix(1.0, 0.0, 0.0, 1.0, -8.2, -6.4)" width="11.85" xlink:href="#sprite4"/>
      <use height="16.15" transform="matrix(1.0, 0.0, 0.0, 1.0, -9.1, -8.05)" width="18.2" xlink:href="#shape4"/>
    </g>
    <g id="sprite4" transform="matrix(1.0, 0.0, 0.0, 1.0, 5.95, 6.8)">
      <use height="13.6" transform="matrix(1.0, 0.0, 0.0, 1.0, -5.95, -6.8)" width="11.85" xlink:href="#shape3"/>
    </g>
    <g id="shape3" transform="matrix(1.0, 0.0, 0.0, 1.0, 5.95, 6.8)">
      <path d="M-2.25 -4.45 L-0.3 -6.8 Q3.7 -4.35 5.9 3.0 L-5.95 6.8 Q-4.95 0.15 -2.25 -4.45" fill="#ffedd4" fill-rule="evenodd" stroke="none"/>
    </g>
    <g id="shape4" transform="matrix(1.0, 0.0, 0.0, 1.0, 9.1, 8.05)">
      <path d="M3.65 3.4 Q1.45 -3.95 -2.55 -6.4 -0.6 -7.9 1.6 -6.4 6.2 -2.7 8.2 1.95 L3.65 3.4" fill="#000000" fill-rule="evenodd" stroke="none"/>
      <path d="M-2.55 -6.4 Q-3.55 -5.65 -4.5 -4.05 -7.2 0.55 -8.2 7.2 L3.65 3.4 Q1.45 -3.95 -2.55 -6.4 -0.6 -7.9 1.6 -6.4 6.2 -2.7 8.2 1.95 L3.65 3.4" fill="none" stroke="#000000" stroke-linecap="round" stroke-linejoin="round" stroke-width="1.8"/>
    </g>
    <g id="sprite5" transform="matrix(1.0, 0.0, 0.0, 1.0, 39.05, 32.9)">
      <use height="64.0" id="mc100" transform="matrix(1.0, 0.0, 0.0, 1.0, -38.15, -32.0)" width="76.35" xlink:href="#sprite6"/>
      <use height="65.8" transform="matrix(1.0, 0.0, 0.0, 1.0, -39.05, -32.9)" width="78.15" xlink:href="#shape6"/>
    </g>
    <g id="sprite6" transform="matrix(1.0, 0.0, 0.0, 1.0, 38.15, 32.0)">
      <use height="64.0" transform="matrix(1.0, 0.0, 0.0, 1.0, -38.15, -32.0)" width="76.35" xlink:href="#shape5"/>
    </g>
    <g id="shape5" transform="matrix(1.0, 0.0, 0.0, 1.0, 38.15, 32.0)">
      <path d="M6.8 -31.0 Q23.05 -32.95 28.45 -9.05 30.85 1.6 38.2 8.15 30.85 13.75 22.6 12.85 24.2 18.8 28.15 22.2 23.8 23.75 17.7 21.75 L20.6 26.65 Q12.85 29.8 5.05 26.65 L-1.85 32.0 -4.75 24.85 -10.3 31.1 -16.1 22.4 Q-23.2 25.8 -30.35 24.85 L-23.7 14.65 Q-32.6 15.95 -38.15 13.75 -31.05 1.7 -26.7 -11.35 -21.85 -26.0 -10.45 -30.4 -2.55 -33.3 6.8 -31.0" fill="#ff6600" fill-rule="evenodd" stroke="none"/>
    </g>
    <g id="shape6" transform="matrix(1.0, 0.0, 0.0, 1.0, 39.05, 32.9)">
      <path d="M6.8 -31.0 Q-2.55 -33.3 -10.45 -30.4 -21.85 -26.0 -26.7 -11.35 -31.05 1.7 -38.15 13.75 -32.6 15.95 -23.7 14.65 L-30.35 24.85 Q-23.2 25.8 -16.1 22.4 L-10.3 31.1 -4.75 24.85 -1.85 32.0 5.05 26.65 Q12.85 29.8 20.6 26.65 L17.7 21.75 Q23.8 23.75 28.15 22.2 24.2 18.8 22.6 12.85 30.85 13.75 38.2 8.15 30.85 1.6 28.45 -9.05 23.05 -32.95 6.8 -31.0 Z" fill="none" stroke="#000000" stroke-linecap="round" stroke-linejoin="round" stroke-width="1.8"/>
    </g>
    <g id="sprite7" transform="matrix(1.0, 0.0, 0.0, 1.0, 6.1, 5.65)">
      <use height="9.55" id="mc100" transform="matrix(1.0, 0.0, 0.0, 1.0, -5.2, -4.75)" width="10.75" xlink:href="#sprite8"/>
      <use height="11.35" transform="matrix(1.0, 0.0, 0.0, 1.0, -6.1, -5.65)" width="12.55" xlink:href="#shape8"/>
    </g>
    <g id="sprite8" transform="matrix(1.0, 0.0, 0.0, 1.0, 5.35, 4.8)">
      <use height="9.55" transform="matrix(1.0, 0.0, 0.0, 1.0, -5.35, -4.8)" width="10.75" xlink:href="#shape7"/>
    </g>
    <g id="shape7" transform="matrix(1.0, 0.0, 0.0, 1.0, 5.35, 4.8)">
      <path d="M0.6 -4.8 L5.35 -3.6 5.4 0.15 Q-0.6 5.35 -2.3 4.7 -4.25 4.25 -5.35 2.85 -4.65 0.5 -3.4 -1.2 L-3.35 -1.25 Q-2.0 -3.15 0.6 -4.8" fill="#ff3366" fill-rule="evenodd" stroke="none"/>
    </g>
    <g id="shape8" transform="matrix(1.0, 0.0, 0.0, 1.0, 6.1, 5.65)">
      <path d="M-2.15 4.75 Q-0.45 5.4 5.55 0.2 L5.5 -3.55 0.75 -4.75 Q-1.85 -3.1 -3.2 -1.2" fill="none" stroke="#000000" stroke-linecap="round" stroke-linejoin="round" stroke-width="1.8"/>
      <path d="M-3.2 -1.2 L-3.25 -1.15 Q-4.5 0.55 -5.2 2.9 -4.1 4.3 -2.15 4.75 Z" fill="none" stroke="#000000" stroke-linecap="round" stroke-linejoin="round" stroke-width="1.8"/>
    </g>
    <g id="sprite9" transform="matrix(1.0, 0.0, 0.0, 1.0, 6.0, 11.3)">
      <use height="20.8" id="mc100" transform="matrix(1.0, 0.0, 0.0, 1.0, -5.1, -10.4)" width="10.25" xlink:href="#sprite10"/>
      <use height="22.6" transform="matrix(1.0, 0.0, 0.0, 1.0, -6.0, -11.3)" width="12.05" xlink:href="#shape10"/>
    </g>
    <g id="sprite10" transform="matrix(1.0, 0.0, 0.0, 1.0, 5.1, 10.4)">
      <use height="20.8" transform="matrix(1.0, 0.0, 0.0, 1.0, -5.1, -10.4)" width="10.25" xlink:href="#shape9"/>
    </g>
    <g id="shape9" transform="matrix(1.0, 0.0, 0.0, 1.0, 5.1, 10.4)">
      <path d="M4.5 -8.4 Q5.45 -6.95 5.05 -5.25 L1.4 -4.25 4.45 -2.5 2.25 7.1 Q1.85 8.8 0.7 9.7 -0.6 10.65 -2.25 10.35 -3.9 9.95 -4.6 8.5 -5.35 7.15 -4.95 5.4 L-4.4 0.5 -0.3 -0.6 -4.0 -3.3 -3.8 -5.2 0.1 -6.35 -2.85 -8.65 -1.5 -9.75 Q0.15 -10.7 1.85 -10.25 3.55 -9.85 4.5 -8.4" fill="#ff99cc" fill-rule="evenodd" stroke="none"/>
    </g>
    <g id="shape10" transform="matrix(1.0, 0.0, 0.0, 1.0, 6.0, 11.3)">
      <path d="M5.05 -5.25 L4.45 -2.5 1.4 -4.25 5.05 -5.25 M-4.4 0.5 L-4.0 -3.3 -0.3 -0.6 -4.4 0.5 M-3.8 -5.2 L-3.6 -7.15 Q-3.4 -8.0 -2.85 -8.65 L0.1 -6.35 -3.8 -5.2" fill="#000000" fill-rule="evenodd" stroke="none"/>
      <path d="M-2.85 -8.65 L-1.5 -9.75 Q0.15 -10.7 1.85 -10.25 3.55 -9.85 4.5 -8.4 5.45 -6.95 5.05 -5.25 L4.45 -2.5 2.25 7.1 Q1.85 8.8 0.7 9.7 -0.6 10.65 -2.25 10.35 -3.9 9.95 -4.6 8.5 -5.35 7.15 -4.95 5.4 L-4.4 0.5 -4.0 -3.3 -3.8 -5.2 -3.6 -7.15 Q-3.4 -8.0 -2.85 -8.65 Z" fill="none" stroke="#000000" stroke-linecap="round" stroke-linejoin="round" stroke-width="1.8"/>
    </g>
    <g id="sprite11" transform="matrix(1.0, 0.0, 0.0, 1.0, 13.45, 15.45)">
      <use height="29.0" id="mc200" transform="matrix(1.0, 0.0, 0.0, 1.0, -12.55, -14.55)" width="25.8" xlink:href="#sprite12"/>
      <use height="30.8" transform="matrix(1.0, 0.0, 0.0, 1.0, -13.45, -15.45)" width="27.6" xlink:href="#shape12"/>
      <use height="17.15" id="mc000" transform="matrix(1.0, 0.0, 0.0, 1.0, -12.55, -2.7)" width="25.8" xlink:href="#sprite13"/>
    </g>
    <g id="sprite12" transform="matrix(1.0, 0.0, 0.0, 1.0, 12.9, 14.5)">
      <use height="29.0" transform="matrix(1.0, 0.0, 0.0, 1.0, -12.9, -14.5)" width="25.8" xlink:href="#shape11"/>
    </g>
    <g id="shape11" transform="matrix(1.0, 0.0, 0.0, 1.0, 12.9, 14.5)">
      <path d="M7.45 -14.5 L12.6 7.5 12.9 9.35 Q-1.95 16.6 -12.9 13.65 L-12.5 9.45 -11.95 4.4 -11.5 1.2 Q-10.4 -6.35 -8.65 -13.3 L7.45 -14.5" fill="#ff99cc" fill-rule="evenodd" stroke="none"/>
    </g>
    <g id="shape12" transform="matrix(1.0, 0.0, 0.0, 1.0, 13.45, 15.45)">
      <path d="M-8.3 -13.35 Q-10.05 -6.4 -11.15 1.15 L-11.6 4.35 -12.15 9.4 -12.55 13.6 Q-1.6 16.55 13.25 9.3 L12.95 7.45 7.8 -14.55 -8.3 -13.35 Z" fill="none" stroke="#000000" stroke-linecap="round" stroke-linejoin="round" stroke-width="1.8"/>
    </g>
    <g id="sprite13" transform="matrix(1.0, 0.0, 0.0, 1.0, 12.9, 8.55)">
      <use height="17.15" transform="matrix(1.0, 0.0, 0.0, 1.0, -12.9, -8.55)" width="25.8" xlink:href="#shape13"/>
    </g>
    <g id="shape13" transform="matrix(1.0, 0.0, 0.0, 1.0, 12.9, 8.55)">
      <path d="M-3.65 2.75 L-0.85 4.65 0.65 2.05 3.2 3.45 4.35 1.35 7.45 2.45 8.85 0.1 12.6 1.6 12.9 3.45 Q-1.95 10.7 -12.9 7.75 L-12.5 3.55 -10.25 5.65 -8.1 3.65 -6.15 4.8 -3.65 2.75 M10.15 -8.55 L10.85 -5.45 Q-3.1 0.0 -11.95 -1.5 L-11.5 -4.7 Q-3.75 -3.9 10.15 -8.55" fill="#000000" fill-opacity="0.19607843" fill-rule="evenodd" stroke="none"/>
    </g>
    <g id="sprite14" transform="matrix(1.0, 0.0, 0.0, 1.0, 15.55, 6.55)">
      <use height="13.1" transform="matrix(1.0, 0.0, 0.0, 1.0, -15.55, -6.55)" width="31.15" xlink:href="#shape14"/>
    </g>
    <g id="shape14" transform="matrix(1.0, 0.0, 0.0, 1.0, 15.55, 6.55)">
      <path d="M-11.45 -4.35 L8.75 -5.65 14.7 -1.8 10.65 -1.8 12.45 3.35 6.85 1.25 2.5 4.6 0.4 3.0 -1.9 4.3 -4.65 3.2 -6.85 5.65 -8.7 2.25 -13.3 3.0 -11.65 -0.05 -14.65 -1.2 -11.45 -4.35" fill="#ffffff" fill-rule="evenodd" stroke="none"/>
      <path d="M-14.65 -1.2 L-11.65 -0.05 -13.3 3.0 -8.7 2.25 -6.85 5.65 -4.65 3.2 -1.9 4.3 0.4 3.0 2.5 4.6 6.85 1.25 12.45 3.35 10.65 -1.8 14.7 -1.8 8.75 -5.65 -11.45 -4.35" fill="none" stroke="#000000" stroke-linecap="round" stroke-linejoin="round" stroke-width="1.8"/>
      <path d="M-11.45 -4.35 L-14.65 -1.2 Z" fill="none" stroke="#000000" stroke-linecap="round" stroke-linejoin="round" stroke-width="1.8"/>
    </g>
    <g id="sprite15" transform="matrix(1.0, 0.0, 0.0, 1.0, 18.6, 26.4)">
      <use height="51.0" id="mc100" transform="matrix(1.0, 0.0, 0.0, 1.0, -17.7, -25.5)" width="35.45" xlink:href="#sprite16"/>
      <use height="52.8" transform="matrix(1.0, 0.0, 0.0, 1.0, -18.6, -26.4)" width="37.25" xlink:href="#shape16"/>
    </g>
    <g id="sprite16" transform="matrix(1.0, 0.0, 0.0, 1.0, 17.7, 25.5)">
      <use height="51.0" transform="matrix(1.0, 0.0, 0.0, 1.0, -17.7, -25.5)" width="35.45" xlink:href="#shape15"/>
    </g>
    <g id="shape15" transform="matrix(1.0, 0.0, 0.0, 1.0, 17.7, 25.5)">
      <path d="M5.5 -25.5 L17.75 -9.05 17.75 0.7 Q18.25 17.3 8.5 23.7 1.6 25.65 -6.35 25.5 -12.6 22.3 -17.7 16.4 -15.3 10.55 -16.65 0.4 L-14.4 -13.85 -9.75 -24.0 5.5 -25.5" fill="#ffedd4" fill-rule="evenodd" stroke="none"/>
    </g>
    <g id="shape16" transform="matrix(1.0, 0.0, 0.0, 1.0, 18.6, 26.4)">
      <path d="M5.5 -25.5 L-9.75 -24.0 -14.4 -13.85 -16.65 0.4 Q-15.3 10.55 -17.7 16.4 -12.6 22.3 -6.35 25.5 1.6 25.65 8.5 23.7 18.25 17.3 17.75 0.7 L17.75 -9.05 5.5 -25.5 Z" fill="none" stroke="#000000" stroke-linecap="round" stroke-linejoin="round" stroke-width="1.8"/>
    </g>
    <g id="sprite17" transform="matrix(1.0, 0.0, 0.0, 1.0, 5.45, 5.45)">
      <use height="3.5" id="mc200" transform="matrix(1.0, 0.0, 0.0, 1.0, -2.4, -1.75)" width="3.5" xlink:href="#sprite18"/>
      <use height="9.4" id="mc100" transform="matrix(1.0, 0.0, 0.0, 1.0, -4.7, -4.7)" width="9.4" xlink:href="#sprite19"/>
      <use height="10.9" transform="matrix(1.0, 0.0, 0.0, 1.0, -5.45, -5.45)" width="10.9" xlink:href="#shape19"/>
    </g>
    <g id="sprite18" transform="matrix(1.0, 0.0, 0.0, 1.0, 1.75, 1.75)">
      <use height="3.5" transform="matrix(1.0, 0.0, 0.0, 1.0, -1.75, -1.75)" width="3.5" xlink:href="#shape17"/>
    </g>
    <g id="shape17" transform="matrix(1.0, 0.0, 0.0, 1.0, 1.75, 1.75)">
      <path d="M0.9 -1.5 L1.2 -1.25 Q1.75 -0.7 1.75 0.0 1.75 0.7 1.2 1.2 0.7 1.75 0.0 1.75 L-0.4 1.7 -1.25 1.2 Q-1.75 0.7 -1.75 0.0 -1.75 -0.7 -1.25 -1.25 -0.7 -1.75 0.0 -1.75 L0.9 -1.5" fill="#339966" fill-rule="evenodd" stroke="none"/>
    </g>
    <g id="sprite19" transform="matrix(1.0, 0.0, 0.0, 1.0, 4.7, 4.7)">
      <use height="9.4" transform="matrix(1.0, 0.0, 0.0, 1.0, -4.7, -4.7)" width="9.4" xlink:href="#shape18"/>
    </g>
    <g id="shape18" transform="matrix(1.0, 0.0, 0.0, 1.0, 4.7, 4.7)">
      <path d="M0.55 -1.25 L0.25 -1.5 -0.65 -1.75 Q-1.35 -1.75 -1.9 -1.25 -2.4 -0.7 -2.4 0.0 -2.4 0.7 -1.9 1.2 L-1.05 1.7 -0.65 1.75 Q0.05 1.75 0.55 1.2 1.1 0.7 1.1 0.0 1.1 -0.7 0.55 -1.25 M0.0 -4.7 Q1.95 -4.7 3.3 -3.35 4.7 -1.95 4.7 0.0 4.7 1.95 3.3 3.3 1.95 4.7 0.0 4.7 L-0.2 4.7 -1.05 4.6 Q-2.35 4.3 -3.35 3.3 -4.7 1.95 -4.7 0.0 -4.7 -1.95 -3.35 -3.35 -1.95 -4.7 0.0 -4.7" fill="#ffcc00" fill-rule="evenodd" stroke="none"/>
    </g>
    <g id="shape19" transform="matrix(1.0, 0.0, 0.0, 1.0, 5.45, 5.45)">
      <path d="M-1.05 1.7 L-1.9 1.2 Q-2.4 0.7 -2.4 0.0 -2.4 -0.7 -1.9 -1.25 -1.35 -1.75 -0.65 -1.75 L0.25 -1.5 0.55 -1.25 Q1.1 -0.7 1.1 0.0 1.1 0.7 0.55 1.2 0.05 1.75 -0.65 1.75 L-1.05 1.7" fill="none" stroke="#000000" stroke-linecap="round" stroke-linejoin="round" stroke-width="1.5"/>
      <path d="M-1.05 1.7 L-1.05 4.6 -0.2 4.7 0.0 4.7 Q1.95 4.7 3.3 3.3 4.7 1.95 4.7 0.0 4.7 -1.95 3.3 -3.35 1.95 -4.7 0.0 -4.7 -1.95 -4.7 -3.35 -3.35 -4.7 -1.95 -4.7 0.0 -4.7 1.95 -3.35 3.3 -2.35 4.3 -1.05 4.6" fill="none" stroke="#000000" stroke-linecap="round" stroke-linejoin="round" stroke-width="1.5"/>
    </g>
    <g id="sprite20" transform="matrix(1.0, 0.0, 0.0, 1.0, 6.45, 7.8)">
      <use height="15.05" transform="matrix(1.0, 0.0, 0.0, 1.0, 1.35, -7.8)" width="10.25" xlink:href="#shape20"/>
      <use height="9.7" id="mc100" transform="matrix(1.0, 0.0, 0.0, 1.0, -5.55, -4.85)" width="11.15" xlink:href="#sprite21"/>
      <use height="11.5" transform="matrix(1.0, 0.0, 0.0, 1.0, -6.45, -5.75)" width="12.95" xlink:href="#shape22"/>
    </g>
    <g id="shape20" transform="matrix(1.0, 0.0, 0.0, 1.0, -1.35, 7.8)">
      <path d="M5.2 -6.9 L7.15 -4.0 10.7 -2.25 8.3 1.15 8.95 4.05 6.05 6.35 2.25 4.75 2.3 -4.3 5.2 -6.9" fill="#ffffff" fill-rule="evenodd" stroke="none"/>
      <path d="M5.2 -6.9 L2.3 -4.3" fill="none" stroke="#000000" stroke-linecap="round" stroke-linejoin="round" stroke-width="1.8"/>
      <path d="M2.3 -4.3 L2.25 4.75 6.05 6.35 8.95 4.05 8.3 1.15 10.7 -2.25 7.15 -4.0 5.2 -6.9 Z" fill="none" stroke="#000000" stroke-linecap="round" stroke-linejoin="round" stroke-width="1.8"/>
    </g>
    <g id="sprite21" transform="matrix(1.0, 0.0, 0.0, 1.0, 5.55, 4.85)">
      <use height="9.7" transform="matrix(1.0, 0.0, 0.0, 1.0, -5.55, -4.85)" width="11.15" xlink:href="#shape21"/>
    </g>
    <g id="shape21" transform="matrix(1.0, 0.0, 0.0, 1.0, 5.55, 4.85)">
      <path d="M-5.55 -1.9 Q-4.9 -5.4 1.0 -4.75 4.85 -3.85 5.5 0.1 6.1 2.95 2.85 4.7 0.15 5.15 -1.6 4.05 -3.35 2.9 -3.3 1.35 -5.8 0.75 -5.55 -1.9" fill="#ff3366" fill-rule="evenodd" stroke="none"/>
    </g>
    <g id="shape22" transform="matrix(1.0, 0.0, 0.0, 1.0, 6.45, 5.75)">
      <path d="M-3.3 1.35 Q-3.35 2.9 -1.6 4.05 0.15 5.15 2.85 4.7 6.1 2.95 5.5 0.1 4.85 -3.85 1.0 -4.75 -4.9 -5.4 -5.55 -1.9" fill="none" stroke="#000000" stroke-linecap="round" stroke-linejoin="round" stroke-width="1.8"/>
      <path d="M-5.55 -1.9 Q-5.8 0.75 -3.3 1.35 L-0.35 1.4" fill="none" stroke="#000000" stroke-linecap="round" stroke-linejoin="round" stroke-width="1.8"/>
    </g>
    <g id="shape23" transform="matrix(1.0, 0.0, 0.0, 1.0, 19.35, 59.85)">
      <path d="M-0.85 -58.45 Q3.2 -58.25 6.7 -56.0" fill="none" stroke="#000000" stroke-linecap="round" stroke-linejoin="round" stroke-width="1.2000000000000002"/>
      <path d="M-12.7 -59.2 Q-16.35 -60.1 -18.85 -56.0" fill="none" stroke="#000000" stroke-linecap="round" stroke-linejoin="round" stroke-width="1.0"/>
      <path d="M-2.95 -45.45 Q1.1 -52.9 5.55 -51.25" fill="none" stroke="#000000" stroke-linecap="round" stroke-linejoin="round" stroke-width="1.0"/>
    </g>
    <g id="shape24" transform="matrix(1.0, 0.0, 0.0, 1.0, 3.45, 4.05)">
      <path d="M-2.85 -2.1 Q-0.2 -6.55 3.55 3.45" fill="none" stroke="#000000" stroke-linecap="round" stroke-linejoin="round" stroke-width="1.2000000000000002"/>
    </g>
    <g id="shape25" transform="matrix(1.0, 0.0, 0.0, 1.0, 10.0, 5.65)">
      <path d="M-8.0 -4.85 L-7.85 -2.05 Q-6.9 -0.85 -5.45 -0.35 L-5.1 -0.25 -2.45 0.2 Q-4.1 1.2 -5.35 2.75 -6.8 1.55 -8.25 -0.35 -10.1 -4.4 -8.95 -5.05 L-8.0 -4.85" fill="#000000" fill-rule="evenodd" stroke="none"/>
      <path d="M-2.45 0.2 L-5.1 -0.25 -5.45 -0.35 Q-6.9 -0.85 -7.85 -2.05 L-8.0 -4.85 Q-0.1 -3.15 8.2 -3.8 10.5 -3.1 8.4 0.2 L6.45 -0.05 6.25 -0.2 5.05 1.4 3.6 0.05 3.35 0.3 Q0.35 0.55 -2.45 0.2 M3.05 -0.45 L3.6 0.05 3.05 -0.45 M7.05 -1.35 L6.25 -0.2 7.05 -1.35" fill="#ffffff" fill-rule="evenodd" stroke="none"/>
      <path d="M-5.35 2.75 Q-4.1 1.2 -2.45 0.2 0.35 0.55 3.35 0.3 L3.6 0.05 5.05 1.4 6.25 -0.2 6.45 -0.05 8.4 0.2 6.65 2.45 Q0.45 7.65 -5.35 2.75" fill="#cc0000" fill-rule="evenodd" stroke="none"/>
      <path d="M-2.45 0.2 L-5.1 -0.25 -5.45 -0.35 Q-6.9 -0.85 -7.85 -2.05 L-8.0 -4.85 -8.95 -5.05 Q-10.1 -4.4 -8.25 -0.35 -6.8 1.55 -5.35 2.75 -4.1 1.2 -2.45 0.2 0.35 0.55 3.35 0.3 M3.6 0.05 L3.05 -0.45 M3.6 0.05 L5.05 1.4 6.25 -0.2 7.05 -1.35 M6.45 -0.05 L8.4 0.2 Q10.5 -3.1 8.2 -3.8 -0.1 -3.15 -8.0 -4.85 M8.4 0.2 L6.65 2.45 Q0.45 7.65 -5.35 2.75" fill="none" stroke="#000000" stroke-linecap="round" stroke-linejoin="round" stroke-width="1.2000000000000002"/>
    </g>
    <g id="sprite22" transform="matrix(1.0, 0.0, 0.0, 1.0, 22.3, 27.35)">
      <use height="54.75" id="mc100" transform="matrix(1.0, 0.0, 0.0, 1.0, -21.4, -27.35)" width="43.0" xlink:href="#sprite23"/>
      <use height="40.1" transform="matrix(1.0, 0.0, 0.0, 1.0, -22.3, -11.8)" width="44.6" xlink:href="#shape27"/>
    </g>
    <g id="sprite23" transform="matrix(1.0, 0.0, 0.0, 1.0, 21.4, 27.35)">
      <use height="54.75" transform="matrix(1.0, 0.0, 0.0, 1.0, -21.4, -27.35)" width="43.0" xlink:href="#shape26"/>
    </g>
    <g id="shape26" transform="matrix(1.0, 0.0, 0.0, 1.0, 21.4, 27.35)">
      <path d="M21.6 -2.85 L19.95 18.15 Q14.1 27.35 9.3 24.9 L7.8 27.4 Q6.2 8.75 2.9 -8.2 L0.7 8.05 Q-6.7 0.3 -11.75 -9.1 L-21.4 18.35 Q-18.45 3.7 -17.55 -10.9 L-12.45 -22.9 9.6 -27.35 Q16.65 -16.35 21.4 -4.9 L20.9 -3.0 21.6 -2.85" fill="#ff6600" fill-rule="evenodd" stroke="none"/>
    </g>
    <g id="shape27" transform="matrix(1.0, 0.0, 0.0, 1.0, 22.3, 11.8)">
      <path d="M21.4 -4.9 L20.9 -3.0 Q16.1 13.2 9.3 24.9 L7.8 27.4 Q6.2 8.75 2.9 -8.2 L0.7 8.05 Q-6.7 0.3 -11.75 -9.1 L-21.4 18.35 Q-18.45 3.7 -17.55 -10.9" fill="none" stroke="#000000" stroke-linecap="round" stroke-linejoin="round" stroke-width="1.8"/>
    </g>
    <g id="sprite24" transform="matrix(1.0, 0.0, 0.0, 1.0, 10.0, 12.3)">
      <use height="14.45" id="mc100" transform="matrix(1.0, 0.0, 0.0, 1.0, -7.5, -6.95)" width="7.9" xlink:href="#sprite25"/>
      <use height="24.65" transform="matrix(1.0, 0.0, 0.0, 1.0, -10.0, -12.3)" width="20.0" xlink:href="#shape29"/>
    </g>
    <g id="sprite25" transform="matrix(1.0, 0.0, 0.0, 1.0, 3.95, 7.2)">
      <use height="14.45" transform="matrix(1.0, 0.0, 0.0, 1.0, -3.95, -7.2)" width="7.9" xlink:href="#shape28"/>
    </g>
    <g id="shape28" transform="matrix(1.0, 0.0, 0.0, 1.0, 3.95, 7.2)">
      <path d="M1.6 7.25 Q-0.15 2.0 -3.95 -2.45 -1.15 -6.25 3.95 -7.2 3.85 0.6 1.6 7.25" fill="#ffedd4" fill-rule="evenodd" stroke="none"/>
    </g>
    <g id="shape29" transform="matrix(1.0, 0.0, 0.0, 1.0, 10.0, 12.3)">
      <path d="M-7.5 -2.2 L-9.1 -3.95 Q0.75 -14.15 6.55 -10.4 12.35 -6.7 4.95 10.85 1.5 12.5 -1.35 9.75 L-1.95 7.5 Q0.3 0.85 0.4 -6.95 -4.7 -6.0 -7.5 -2.2" fill="#000000" fill-rule="evenodd" stroke="none"/>
      <path d="M-7.5 -2.2 L-9.1 -3.95 Q0.75 -14.15 6.55 -10.4 12.35 -6.7 4.95 10.85 1.5 12.5 -1.35 9.75 L-1.95 7.5 Q-3.7 2.25 -7.5 -2.2 -4.7 -6.0 0.4 -6.95 0.3 0.85 -1.95 7.5" fill="none" stroke="#000000" stroke-linecap="round" stroke-linejoin="round" stroke-width="1.8"/>
    </g>
    <g id="sprite26" transform="matrix(1.0, 0.0, 0.0, 1.0, 9.55, 7.3)">
      <use height="10.25" id="mc100" transform="matrix(1.0, 0.0, 0.0, 1.0, -8.65, -6.15)" width="11.7" xlink:href="#sprite27"/>
      <use height="14.65" transform="matrix(1.0, 0.0, 0.0, 1.0, -9.55, -7.3)" width="18.3" xlink:href="#shape31"/>
    </g>
    <g id="sprite27" transform="matrix(1.0, 0.0, 0.0, 1.0, 5.85, 5.15)">
      <use height="10.25" transform="matrix(1.0, 0.0, 0.0, 1.0, -5.85, -5.15)" width="11.7" xlink:href="#shape30"/>
    </g>
    <g id="shape30" transform="matrix(1.0, 0.0, 0.0, 1.0, 5.85, 5.15)">
      <path d="M-0.9 -4.45 Q1.85 -5.75 3.55 -4.7 5.3 -3.55 5.85 0.3 5.95 5.75 0.25 5.0 L-1.25 4.75 Q-5.35 4.4 -5.85 -0.95 -5.5 -4.5 -0.9 -4.45" fill="#ff3366" fill-rule="evenodd" stroke="none"/>
    </g>
    <g id="shape31" transform="matrix(1.0, 0.0, 0.0, 1.0, 9.55, 7.3)">
      <path d="M6.8 -6.2 L6.55 -3.05 7.85 2.65 Q8.15 2.5 7.65 2.85 6.1 3.75 4.4 3.65 2.95 5.9 0.7 6.45 L-2.75 4.3 -2.6 4.05 -2.55 4.0 Q3.15 4.75 3.05 -0.7 2.5 -4.55 0.75 -5.7 L0.75 -5.8 0.85 -6.05 6.75 -6.2 6.8 -6.2" fill="#ffffff" fill-rule="evenodd" stroke="none"/>
      <path d="M6.75 -6.2 L0.85 -6.05" fill="none" stroke="#000000" stroke-linecap="round" stroke-linejoin="round" stroke-width="1.8"/>
      <path d="M7.85 2.65 L6.55 -3.05 6.8 -6.2 M0.75 -5.7 Q2.5 -4.55 3.05 -0.7 3.15 4.75 -2.55 4.0 M-2.75 4.3 L0.7 6.45 Q2.95 5.9 4.4 3.65 6.1 3.75 7.65 2.85 M0.75 -5.7 Q-0.95 -6.75 -3.7 -5.45 -8.3 -5.5 -8.65 -1.95 -8.15 3.4 -4.05 3.75 L-2.55 4.0" fill="none" stroke="#000000" stroke-linecap="round" stroke-linejoin="round" stroke-width="1.8"/>
    </g>
  </defs>
</svg>