<?xml version="1.0" encoding="UTF-8" standalone="no"?>
<svg xmlns:xlink="http://www.w3.org/1999/xlink" height="117.6px" width="94.8px" xmlns="http://www.w3.org/2000/svg">
  <g transform="matrix(0.6, 0.0, 0.0, 0.6, -1.35, -4.85)">
    <use height="22.7" id="mc1900" transform="matrix(1.132, -0.1097, 0.1097, 1.132, 48.8223, 90.81)" width="11.1" xlink:href="#sprite0"/>
      <use height="22.7" id="mc1800" transform="matrix(1.132, -0.1097, 0.1097, 1.132, 36.5223, 92.11)" width="11.1" xlink:href="#sprite0"/>
      <use height="22.55" id="mc1700" transform="matrix(-1.1174, -0.2003, -0.2003, 1.1174, 73.3998, 73.9997)" width="14.1" xlink:href="#sprite2"/>
      <use height="11.9" id="mc1600" transform="matrix(-1.1384, 0.0, 0.0, 1.1384, 59.7664, 76.0044)" width="11.15" xlink:href="#sprite5"/>
      <use height="33.65" id="mc1500" transform="matrix(-1.1384, 0.0, 0.0, 1.1384, 68.7415, 73.5254)" width="32.4" xlink:href="#sprite8"/>
      <use height="37.2" id="mc1400" transform="matrix(-1.1384, 0.0, 0.0, 1.1384, 83.1818, 31.8773)" width="65.8" xlink:href="#sprite10"/>
      <use height="46.1" id="hide_hat" transform="matrix(-1.1384, 0.0, 0.0, 1.1384, 84.2064, 1.7106)" width="77.55" xlink:href="#sprite12"/>
      <use height="11.6" id="mc1200" transform="matrix(-1.1306, 0.1291, 0.1291, 1.1306, 53.074, 92.2126)" width="11.9" xlink:href="#sprite14"/>
      <use height="11.6" id="mc1100" transform="matrix(-0.5698, 0.2108, 0.2252, 1.1087, 64.6465, 89.4496)" width="11.9" xlink:href="#sprite14"/>
      <use height="22.55" id="mc1000" transform="matrix(1.1174, -0.2003, 0.2003, 1.1174, 27.3502, 76.2497)" width="14.1" xlink:href="#sprite2"/>
      <use height="44.9" id="mc900" transform="matrix(-1.1384, 0.0, 0.0, 1.1384, 75.8633, 27.5248)" width="44.55" xlink:href="#sprite16"/>
      <use height="6.45" id="mc800" transform="matrix(-1.1384, 0.0, 0.0, 1.1384, 71.0906, 62.8072)" width="20.1" xlink:href="#sprite18"/>
      <use height="9.65" id="mc700" transform="matrix(-1.1384, 0.0, 0.0, 1.1384, 67.6204, 62.4358)" width="6.8" xlink:href="#sprite20"/>
      <use height="16.9" id="mc600" transform="matrix(-1.1384, 0.0, 0.0, 1.1384, 72.6856, 44.2308)" width="27.9" xlink:href="#sprite23"/>
      <use height="3.45" id="mc500" transform="matrix(-1.1384, 0.0, 0.0, 1.1384, 72.9104, 52.2094)" width="8.05" xlink:href="#sprite26"/>
      <use height="3.65" transform="matrix(-1.1384, 0.0, 0.0, 1.1384, 55.234, 51.2456)" width="13.5" xlink:href="#shape25"/>
      <use height="19.25" transform="matrix(-1.1384, 0.0, 0.0, 1.1384, 73.3255, 43.0148)" width="30.0" xlink:href="#shape26"/>
      <use height="43.9" id="mc200" transform="matrix(-1.1384, 0.0, 0.0, 1.1384, 76.5752, 15.1629)" width="52.4" xlink:href="#sprite27"/>
      <use height="0.0" id="hat" transform="matrix(-1.1384, 0.0, 0.0, 1.1384, 51.35, 116.35)" width="0.0" xlink:href="#sprite29"/>
  </g>
  <defs>
    <g id="shape0" transform="matrix(1.0, 0.0, 0.0, 1.0, -0.1, -0.2)">
      <path d="M77.5 13.45 Q90.75 26.75 90.75 45.55 90.75 64.35 77.5 77.6 64.2 90.85 45.4 90.85 26.6 90.85 13.35 77.6 0.1 64.35 0.1 45.55 0.1 26.75 13.35 13.45 26.6 0.2 45.4 0.2 64.2 0.2 77.5 13.45" fill="#ff0000" fill-rule="evenodd" stroke="none"/>
    </g>
    <g id="sprite0" transform="matrix(1.0, 0.0, 0.0, 1.0, 5.55, 11.35)">
      <use height="20.9" id="mc100" transform="matrix(1.0, 0.0, 0.0, 1.0, -4.65, -10.45)" width="9.3" xlink:href="#sprite1"/>
      <use height="22.7" transform="matrix(1.0, 0.0, 0.0, 1.0, -5.55, -11.35)" width="11.1" xlink:href="#shape2"/>
    </g>
    <g id="sprite1" transform="matrix(1.0, 0.0, 0.0, 1.0, 4.65, 10.45)">
      <use height="20.9" transform="matrix(1.0, 0.0, 0.0, 1.0, -4.65, -10.45)" width="9.3" xlink:href="#shape1"/>
    </g>
    <g id="shape1" transform="matrix(1.0, 0.0, 0.0, 1.0, 4.65, 10.45)">
      <path d="M4.6 -5.65 L4.15 6.95 Q3.9 8.6 2.25 9.65 0.65 10.7 -1.05 10.4 -2.8 10.15 -3.8 8.75 -4.85 7.35 -4.6 5.65 L-2.7 -6.85 Q-2.45 -8.6 -1.3 -9.55 -0.1 -10.65 1.6 -10.4 3.25 -10.15 4.1 -8.75 4.85 -7.45 4.6 -5.65" fill="#f5b87a" fill-rule="evenodd" stroke="none"/>
    </g>
    <g id="shape2" transform="matrix(1.0, 0.0, 0.0, 1.0, 5.55, 11.35)">
      <path d="M4.6 -5.65 L4.15 6.95 Q3.9 8.6 2.25 9.65 0.65 10.7 -1.05 10.4 -2.8 10.15 -3.8 8.75 -4.85 7.35 -4.6 5.65 L-2.7 -6.85 Q-2.45 -8.6 -1.3 -9.55 -0.1 -10.65 1.6 -10.4 3.25 -10.15 4.1 -8.75 4.85 -7.45 4.6 -5.65 Z" fill="none" stroke="#000000" stroke-linecap="round" stroke-linejoin="round" stroke-width="1.8"/>
    </g>
    <g id="sprite2" transform="matrix(1.0, 0.0, 0.0, 1.0, 8.4, 13.05)">
      <use height="10.25" id="mc100" transform="matrix(1.15, 0.0, 0.0, 1.15, -6.22, -12.1725)" width="9.6" xlink:href="#sprite3"/>
      <use height="10.1" id="mc101" transform="matrix(1.15, 0.0, 0.0, 1.15, -7.525, -3.0075)" width="8.95" xlink:href="#sprite4"/>
      <use height="22.55" transform="matrix(1.0, 0.0, 0.0, 1.0, -8.4, -13.05)" width="14.1" xlink:href="#shape5"/>
    </g>
    <g id="sprite3" transform="matrix(1.0, 0.0, 0.0, 1.0, 4.8, 5.15)">
      <use height="10.25" transform="matrix(1.0, 0.0, 0.0, 1.0, -4.8, -5.15)" width="9.6" xlink:href="#shape3"/>
    </g>
    <g id="shape3" transform="matrix(1.0, 0.0, 0.0, 1.0, 4.8, 5.15)">
      <path d="M2.8 -4.85 Q4.5 -4.15 4.75 -2.95 L4.6 4.85 4.55 5.1 3.05 4.9 3.1 4.65 2.1 4.7 Q-1.15 4.05 -2.95 2.85 L-4.8 1.1 0.0 -4.35 Q1.05 -5.6 2.8 -4.85" fill="#ff3399" fill-rule="evenodd" stroke="none"/>
    </g>
    <g id="sprite4" transform="matrix(1.0, 0.0, 0.0, 1.0, 4.5, 5.05)">
      <use height="10.1" transform="matrix(1.0, 0.0, 0.0, 1.0, -4.5, -5.05)" width="8.95" xlink:href="#shape4"/>
    </g>
    <g id="shape4" transform="matrix(1.0, 0.0, 0.0, 1.0, 4.5, 5.05)">
      <path d="M3.5 -3.2 L4.45 -3.0 2.6 2.5 Q2.0 4.2 0.7 4.75 -0.75 5.35 -2.2 4.75 -3.7 4.1 -4.3 2.7 -4.8 1.35 -4.0 -0.25 L-1.55 -5.05 Q0.25 -3.85 3.5 -3.2" fill="#f5b87a" fill-rule="evenodd" stroke="none"/>
    </g>
    <g id="shape5" transform="matrix(1.0, 0.0, 0.0, 1.0, 8.4, 13.05)">
      <path d="M2.75 -0.65 L1.7 -0.85 2.85 -0.9 2.75 -0.65" fill="#f5b87a" fill-rule="evenodd" stroke="none"/>
      <path d="M2.75 -0.65 L4.55 -0.4 M2.75 -0.65 L1.7 -0.85 Q-2.05 -1.6 -4.15 -3.0 L-6.95 2.55 Q-7.85 4.4 -7.25 5.9 -6.55 7.55 -4.85 8.25 -3.15 8.95 -1.5 8.3 0.0 7.65 0.7 5.7 L2.75 -0.65 M4.6 -0.65 L4.75 -9.65 Q4.45 -11.05 2.5 -11.85 0.5 -12.7 -0.7 -11.25 L-6.2 -5.0 -4.15 -3.0" fill="none" stroke="#000000" stroke-linecap="round" stroke-linejoin="round" stroke-width="1.8"/>
    </g>
    <g id="sprite5" transform="matrix(1.0, 0.0, 0.0, 1.0, 5.9, 5.75)">
      <use height="5.4" id="mc100" transform="matrix(1.0, 0.0, 0.0, 1.0, -5.65, -5.75)" width="10.9" xlink:href="#sprite6"/>
      <use height="7.3" id="mc101" transform="matrix(1.0, 0.0, 0.0, 1.0, -5.0, -1.15)" width="7.55" xlink:href="#sprite7"/>
      <use height="2.6" transform="matrix(1.0, 0.0, 0.0, 1.0, -5.9, -2.05)" width="9.35" xlink:href="#shape8"/>
    </g>
    <g id="sprite6" transform="matrix(1.0, 0.0, 0.0, 1.0, 5.45, 2.7)">
      <use height="5.4" transform="matrix(1.0, 0.0, 0.0, 1.0, -5.45, -2.7)" width="10.9" xlink:href="#shape6"/>
    </g>
    <g id="shape6" transform="matrix(1.0, 0.0, 0.0, 1.0, 5.45, 2.7)">
      <path d="M5.45 -2.5 Q5.5 0.65 2.75 2.65 -0.9 2.95 -4.8 1.9 L-5.25 0.95 Q-5.7 0.1 -5.1 -1.4 -5.0 -2.1 -3.55 -2.45 L0.35 -2.65 5.45 -2.5" fill="#f5b87a" fill-rule="evenodd" stroke="none"/>
    </g>
    <g id="sprite7" transform="matrix(1.0, 0.0, 0.0, 1.0, 3.8, 3.65)">
      <use height="7.3" transform="matrix(1.0, 0.0, 0.0, 1.0, -3.8, -3.65)" width="7.55" xlink:href="#shape7"/>
    </g>
    <g id="shape7" transform="matrix(1.0, 0.0, 0.0, 1.0, 3.8, 3.65)">
      <path d="M-1.7 3.05 Q-3.6 -0.1 -3.8 -3.65 0.1 -2.6 3.75 -2.9 2.0 1.1 -1.05 3.65 L-1.7 3.05" fill="#ff3399" fill-rule="evenodd" stroke="none"/>
    </g>
    <g id="shape8" transform="matrix(1.0, 0.0, 0.0, 1.0, 5.9, 2.05)">
      <path d="M-5.0 -1.15 Q-1.1 -0.1 2.55 -0.4" fill="none" stroke="#000000" stroke-linecap="round" stroke-linejoin="round" stroke-width="1.8"/>
    </g>
    <g id="sprite8" transform="matrix(1.0, 0.0, 0.0, 1.0, 16.2, 16.8)">
      <use height="31.85" id="mc100" transform="matrix(1.0, 0.0, 0.0, 1.0, -15.3, -15.9)" width="30.6" xlink:href="#sprite9"/>
      <use height="33.65" transform="matrix(1.0, 0.0, 0.0, 1.0, -16.2, -16.8)" width="32.4" xlink:href="#shape10"/>
    </g>
    <g id="sprite9" transform="matrix(1.0, 0.0, 0.0, 1.0, 15.3, 15.9)">
      <use height="31.85" transform="matrix(1.0, 0.0, 0.0, 1.0, -15.3, -15.9)" width="30.6" xlink:href="#shape9"/>
    </g>
    <g id="shape9" transform="matrix(1.0, 0.0, 0.0, 1.0, 15.3, 15.9)">
      <path d="M2.8 -14.65 L7.85 -15.9 9.05 -12.75 11.6 -4.45 12.9 1.5 15.3 12.45 15.15 12.65 9.65 14.35 Q6.5 15.4 -0.7 15.95 -6.75 15.35 -9.65 14.45 L-15.3 12.85 -13.1 3.25 -12.8 1.4 -11.6 -4.6 -9.75 -10.95 -9.15 -12.75 -8.9 -13.5 -7.7 -13.35 -7.5 -10.7 -7.4 -10.2 Q-6.7 -7.3 -4.6 -3.45 L0.0 -9.15 Q1.8 -12.0 2.75 -14.5 L2.8 -14.65" fill="#003366" fill-rule="evenodd" stroke="none"/>
    </g>
    <g id="shape10" transform="matrix(1.0, 0.0, 0.0, 1.0, 16.2, 16.8)">
      <path d="M15.3 12.45 L12.9 1.5 11.6 -4.45 9.05 -12.75 7.85 -15.9 2.8 -14.65 2.75 -14.5 Q1.8 -12.0 0.0 -9.15 L-0.45 -8.55 M-4.6 -3.45 Q-6.7 -7.3 -7.4 -10.2 L-7.5 -10.7 -7.7 -13.35 -8.9 -13.5 -9.15 -12.75 -9.75 -10.95 -11.6 -4.6 -12.8 1.4 -13.1 3.25 -15.3 12.85 -9.65 14.45 Q-6.75 15.35 -0.7 15.95 6.5 15.4 9.65 14.35 L15.15 12.65" fill="none" stroke="#000000" stroke-linecap="round" stroke-linejoin="round" stroke-width="1.8"/>
      <path d="M-0.45 -8.55 L-4.6 -3.45" fill="none" stroke="#000000" stroke-linecap="round" stroke-linejoin="round" stroke-width="1.8"/>
    </g>
    <g id="sprite10" transform="matrix(1.0, 0.0, 0.0, 1.0, 45.4, 4.5)">
      <use height="35.7" id="mc100" transform="matrix(1.0, 0.0, 0.0, 1.0, -44.5, -3.85)" width="64.25" xlink:href="#sprite11"/>
      <use height="37.2" transform="matrix(1.0, 0.0, 0.0, 1.0, -45.4, -4.5)" width="65.8" xlink:href="#shape12"/>
    </g>
    <g id="sprite11" transform="matrix(1.0, 0.0, 0.0, 1.0, 37.05, 4.7)">
      <use height="35.7" transform="matrix(1.0, 0.0, 0.0, 1.0, -37.05, -4.7)" width="64.25" xlink:href="#shape11"/>
    </g>
    <g id="shape11" transform="matrix(1.0, 0.0, 0.0, 1.0, 37.05, 4.7)">
      <path d="M25.5 12.35 L25.55 12.35 Q28.7 16.0 25.75 19.7 23.1 22.9 20.45 20.15 23.05 25.0 19.15 27.35 15.3 29.7 12.25 25.7 12.75 29.55 8.5 30.8 3.6 31.7 2.05 28.55 0.25 20.85 -4.05 14.15 -7.35 18.1 -9.85 16.8 -12.7 15.25 -14.45 16.0 L-15.0 16.2 -15.0 15.65 -15.5 16.65 Q-19.55 18.3 -23.55 20.75 -24.85 21.7 -26.05 21.7 L-27.5 21.55 Q-28.8 21.2 -29.8 20.2 -31.4 18.7 -29.8 13.05 L-29.55 12.85 -30.35 13.05 -33.05 13.4 Q-35.15 12.85 -36.25 11.0 -37.4 9.15 -36.85 7.15 -36.3 5.15 -34.35 4.1 L-33.55 3.7 -32.9 3.5 -32.85 3.5 Q-34.85 -5.4 -19.85 -4.65 L15.45 7.65 16.3 7.75 16.5 7.75 Q23.0 5.65 25.55 12.35 L25.5 12.35" fill="#cccccc" fill-rule="evenodd" stroke="none"/>
    </g>
    <g id="shape12" transform="matrix(1.0, 0.0, 0.0, 1.0, 45.4, 4.5)">
      <path d="M-22.45 16.5 L-22.65 16.95 -21.9 16.85 Q-20.15 16.1 -17.3 17.65 -14.8 18.95 -11.5 15.0 -7.55 20.85 -5.1 28.15 -4.75 29.75 -3.85 30.55 -2.2 31.95 0.0 31.8 2.15 31.7 3.5 30.1 4.8 28.5 4.6 26.35 L4.55 26.05 4.7 26.25 5.05 26.7 Q5.75 28.15 6.85 28.7 L10.8 28.95 Q12.85 28.25 13.75 26.4 14.6 24.5 13.85 22.45 L13.5 21.65 13.15 21.1 13.2 21.1 Q17.35 22.8 19.15 19.0 20.3 16.55 17.75 13.95 16.5 7.15 9.25 8.6 M-28.4 -3.6 Q-43.2 -3.95 -40.35 4.35 L-41.0 4.55 -41.8 4.95 Q-43.75 6.0 -44.3 8.0 -44.85 10.0 -43.7 11.85 -42.6 13.7 -40.5 14.25 L-37.8 13.9 -37.0 13.7 -37.25 13.9 Q-38.85 19.55 -37.25 21.05 -36.25 22.05 -34.95 22.4 L-33.5 22.55 Q-32.3 22.55 -31.0 21.6 -27.0 19.15 -22.95 17.5 L-22.65 16.95" fill="none" stroke="#000000" stroke-linecap="round" stroke-linejoin="round" stroke-width="1.8"/>
    </g>
    <g id="sprite12" transform="matrix(1.0, 0.0, 0.0, 1.0, 46.3, 31.0)">
      <use height="44.55" id="mc100" transform="matrix(1.0, 0.0, 0.0, 1.0, -45.4, -30.1)" width="75.35" xlink:href="#sprite13"/>
      <use height="46.1" transform="matrix(1.0, 0.0, 0.0, 1.0, -46.3, -31.0)" width="77.55" xlink:href="#shape14"/>
    </g>
    <g id="sprite13" transform="matrix(1.0, 0.0, 0.0, 1.0, 37.95, 30.95)">
      <use height="44.55" transform="matrix(1.0, 0.0, 0.0, 1.0, -37.95, -30.95)" width="75.35" xlink:href="#shape13"/>
    </g>
    <g id="shape13" transform="matrix(1.0, 0.0, 0.0, 1.0, 37.95, 30.95)">
      <path d="M9.75 -27.55 Q11.95 -27.55 13.5 -26.1 15.0 -24.65 15.0 -22.5 L15.0 -21.7 14.05 -18.1 14.95 -19.65 Q15.55 -21.15 16.6 -21.7 18.5 -22.75 20.65 -22.2 22.8 -21.65 23.9 -19.85 24.95 -18.05 24.4 -16.0 L24.35 -15.7 24.55 -15.9 24.9 -16.25 Q25.85 -17.55 27.05 -17.85 29.15 -18.4 31.1 -17.3 33.0 -16.25 33.55 -14.2 34.1 -12.25 33.0 -10.4 L32.55 -9.7 32.1 -9.2 32.6 -9.25 Q34.8 -9.2 36.4 -7.7 L37.05 -6.95 37.35 -6.55 Q37.75 -1.65 34.0 -1.55 35.6 -0.9 35.8 2.25 35.85 5.45 32.05 5.55 34.3 8.5 32.2 10.95 28.5 14.1 25.5 12.35 -10.1 15.8 -21.6 9.6 L-33.35 3.25 Q-35.3 2.2 -35.85 0.15 L-36.05 -1.3 Q-36.85 -1.75 -37.2 -2.35 -38.3 -4.2 -37.75 -6.25 -37.15 -8.3 -35.25 -9.3 -33.4 -10.35 -31.2 -9.8 L-30.9 -9.7 -31.5 -10.25 Q-32.8 -11.2 -33.1 -12.3 -33.7 -14.35 -32.55 -16.15 -31.45 -18.05 -29.35 -18.55 L-27.5 -18.7 Q-26.4 -18.65 -25.35 -18.05 L-24.6 -17.6 -24.1 -17.15 -24.1 -17.65 Q-24.1 -19.75 -22.55 -21.25 -21.0 -22.75 -18.8 -22.7 -16.95 -22.75 -15.5 -21.6 L-15.05 -20.75 Q-14.85 -25.6 -12.8 -26.75 -10.2 -28.25 -8.1 -27.7 -6.0 -27.2 -4.9 -25.35 L-4.7 -25.05 -4.7 -25.35 -4.75 -25.85 Q-4.95 -27.4 -4.35 -28.4 -3.3 -30.2 -1.1 -30.75 1.0 -31.3 2.9 -30.25 4.8 -29.25 5.4 -27.2 L5.55 -26.4 5.6 -25.75 5.95 -26.1 Q7.5 -27.55 9.75 -27.55" fill="#cccccc" fill-rule="evenodd" stroke="none"/>
    </g>
    <g id="shape14" transform="matrix(1.0, 0.0, 0.0, 1.0, 46.3, 31.0)">
      <path d="M-40.85 4.65 Q-43.85 3.55 -43.5 -0.45 -44.3 -0.9 -44.65 -1.5 -45.75 -3.35 -45.2 -5.4 -44.6 -7.45 -42.7 -8.45 -40.85 -9.5 -38.65 -8.95 L-38.35 -8.85 -38.95 -9.4 Q-40.25 -10.35 -40.55 -11.45 -41.15 -13.5 -40.0 -15.3 -38.9 -17.2 -36.8 -17.7 L-34.95 -17.85 Q-33.85 -17.8 -32.8 -17.2 L-32.05 -16.75 -31.55 -16.3 -31.55 -16.8 Q-31.55 -18.9 -30.0 -20.4 -28.45 -21.9 -26.25 -21.85 -24.4 -21.9 -22.95 -20.75 L-22.5 -19.9 Q-22.3 -24.75 -20.25 -25.9 -17.65 -27.4 -15.55 -26.85 -13.45 -26.35 -12.35 -24.5 L-12.15 -24.2 -12.15 -24.5 -12.2 -25.0 Q-12.4 -26.55 -11.8 -27.55 -10.75 -29.35 -8.55 -29.9 -6.45 -30.45 -4.55 -29.4 -2.65 -28.4 -2.05 -26.35 L-1.9 -25.55 -1.85 -24.9 -1.5 -25.25 Q0.05 -26.7 2.3 -26.7 4.5 -26.7 6.05 -25.25 7.55 -23.8 7.55 -21.65 L7.55 -20.85 6.6 -17.25 7.5 -18.8 Q8.1 -20.3 9.15 -20.85 11.05 -21.9 13.2 -21.35 15.35 -20.8 16.45 -19.0 17.5 -17.2 16.95 -15.15 L16.9 -14.85 17.1 -15.05 17.45 -15.4 Q18.4 -16.7 19.6 -17.0 21.7 -17.55 23.65 -16.45 25.55 -15.4 26.1 -13.35 26.65 -11.4 25.55 -9.55 L25.1 -8.85 24.65 -8.35 25.15 -8.4 Q27.35 -8.35 28.95 -6.85 L29.6 -6.1 Q30.5 -4.9 30.3 -3.3 30.05 -1.75 27.9 -1.05 26.55 -0.65 26.7 -0.35 L26.7 -0.3 Q29.2 1.25 28.3 3.95 27.35 6.6 24.35 6.25 25.55 7.9 25.4 9.0 L24.75 11.45 Q24.25 12.85 22.6 13.55 20.95 14.25 20.25 14.2 L19.4 14.1 17.75 13.95" fill="none" stroke="#000000" stroke-linecap="round" stroke-linejoin="round" stroke-width="1.8"/>
    </g>
    <g id="sprite14" transform="matrix(1.0, 0.0, 0.0, 1.0, 5.2, 7.4)">
      <use height="9.8" id="mc100" transform="matrix(1.0, 0.0, 0.0, 1.0, -4.3, -6.5)" width="9.45" xlink:href="#sprite15"/>
      <use height="11.6" transform="matrix(1.0, 0.0, 0.0, 1.0, -5.2, -7.4)" width="11.9" xlink:href="#shape16"/>
    </g>
    <g id="sprite15" transform="matrix(1.0, 0.0, 0.0, 1.0, 4.3, 4.9)">
      <use height="9.8" transform="matrix(1.0, 0.0, 0.0, 1.0, -4.3, -4.9)" width="9.45" xlink:href="#shape15"/>
    </g>
    <g id="shape15" transform="matrix(1.0, 0.0, 0.0, 1.0, 4.3, 4.9)">
      <path d="M3.35 -4.15 Q4.75 -3.45 5.1 -0.95 5.45 1.5 3.65 3.2 1.8 4.9 0.05 4.9 -1.75 4.9 -3.0 3.15 -4.3 1.4 -4.3 -1.0 -4.3 -3.45 -2.95 -4.2 -1.6 -4.9 0.2 -4.9 1.95 -4.9 3.35 -4.15" fill="#0099cc" fill-rule="evenodd" stroke="none"/>
    </g>
    <g id="shape16" transform="matrix(1.0, 0.0, 0.0, 1.0, 5.2, 7.4)">
      <path d="M3.9 -5.65 Q1.95 -6.5 0.2 -6.5 -1.6 -6.5 -2.95 -5.8 -4.3 -5.05 -4.3 -2.6 -4.3 -0.2 -3.0 1.55 -1.75 3.3 0.05 3.3 1.8 3.3 3.8 1.7 5.8 0.05 5.8 -2.35 5.8 -4.8 3.9 -5.65 Z" fill="none" stroke="#000000" stroke-linecap="round" stroke-linejoin="round" stroke-width="1.8"/>
    </g>
    <g id="sprite16" transform="matrix(1.0, 0.0, 0.0, 1.0, 22.5, 26.2)">
      <use height="44.0" id="mc100" transform="matrix(1.0, 0.0, 0.0, 1.0, -21.95, -26.2)" width="43.9" xlink:href="#sprite17"/>
      <use height="31.65" transform="matrix(1.0, 0.0, 0.0, 1.0, -22.5, -12.95)" width="44.55" xlink:href="#shape18"/>
    </g>
    <g id="sprite17" transform="matrix(1.0, 0.0, 0.0, 1.0, 21.95, 22.0)">
      <use height="44.0" transform="matrix(1.0, 0.0, 0.0, 1.0, -21.95, -22.0)" width="43.9" xlink:href="#shape17"/>
    </g>
    <g id="shape17" transform="matrix(1.0, 0.0, 0.0, 1.0, 21.95, 22.0)">
      <path d="M-21.95 -8.3 Q18.55 -42.85 21.3 9.75 L21.95 10.05 21.4 11.05 21.15 11.3 Q16.15 16.45 7.8 19.35 L2.8 20.8 -2.7 21.9 -6.55 22.0 -7.2 21.95 -8.95 21.75 -9.15 21.75 Q-22.1 19.85 -18.15 6.5 L-18.2 6.4 -20.0 1.15 -20.6 -1.2 -21.5 -6.8 -21.55 -7.8 -21.6 -7.85 -21.95 -8.3" fill="#f5b87a" fill-rule="evenodd" stroke="none"/>
    </g>
    <g id="shape18" transform="matrix(1.0, 0.0, 0.0, 1.0, 22.5, 12.95)">
      <path d="M-21.5 -11.0 L-20.6 -5.4 -20.0 -3.05 -18.2 2.2 Q-19.35 -0.3 -20.1 -2.85 L-20.7 -5.2 Q-21.35 -8.05 -21.5 -11.0" fill="#f5b87a" fill-rule="evenodd" stroke="none"/>
      <path d="M-18.2 2.2 L-20.0 -3.05 -20.6 -5.4 -21.5 -11.0 -21.6 -12.05 M-18.2 2.2 Q-21.55 13.8 -12.4 16.8 -10.05 17.6 -7.7 17.7 L-6.55 17.8 -2.7 17.7 2.8 16.6 7.8 15.15 Q16.15 12.25 21.15 7.1" fill="none" stroke="#000000" stroke-linecap="round" stroke-linejoin="round" stroke-width="1.8"/>
    </g>
    <g id="sprite18" transform="matrix(1.0, 0.0, 0.0, 1.0, 10.05, 3.2)">
      <use height="2.15" id="mc000" transform="matrix(-1.0, 0.0, 0.0, 1.0, 10.05, -1.2)" width="2.1" xlink:href="#sprite19"/>
      <use height="2.15" id="mc001" transform="matrix(-1.0, 0.0, 0.0, 1.0, 6.0, -1.45)" width="2.1" xlink:href="#sprite19"/>
      <use height="2.15" id="mc002" transform="matrix(-1.0, 0.0, 0.0, 1.0, 8.5, 1.1)" width="2.1" xlink:href="#sprite19"/>
      <use height="2.15" id="mc003" transform="matrix(-1.0, 0.0, 0.0, 1.0, -7.0, -3.2)" width="2.1" xlink:href="#sprite19"/>
      <use height="2.15" id="mc004" transform="matrix(-1.0, 0.0, 0.0, 1.0, -7.95, -0.55)" width="2.1" xlink:href="#sprite19"/>
    </g>
    <g id="sprite19" transform="matrix(1.0, 0.0, 0.0, 1.0, 1.05, 1.1)">
      <use height="2.15" transform="matrix(1.0, 0.0, 0.0, 1.0, -1.05, -1.1)" width="2.1" xlink:href="#shape19"/>
    </g>
    <g id="shape19" transform="matrix(1.0, 0.0, 0.0, 1.0, 1.05, 1.1)">
      <path d="M0.75 -0.8 L1.05 -0.05 0.75 0.7 0.0 1.05 -0.75 0.7 -1.05 -0.05 -0.75 -0.8 0.0 -1.1 0.75 -0.8" fill="#000000" fill-opacity="0.5019608" fill-rule="evenodd" stroke="none"/>
    </g>
    <g id="sprite20" transform="matrix(1.0, 0.0, 0.0, 1.0, 3.4, 4.8)">
      <use height="8.15" id="mc100" transform="matrix(1.0, 0.0, 0.0, 1.0, -2.65, -4.05)" width="5.3" xlink:href="#sprite21"/>
      <use height="9.65" transform="matrix(1.0, 0.0, 0.0, 1.0, -3.4, -4.8)" width="6.8" xlink:href="#shape22"/>
    </g>
    <g id="sprite21" transform="matrix(1.0, 0.0, 0.0, 1.0, 2.65, 4.05)">
      <use height="8.15" id="mc100" transform="matrix(1.0, 0.0, 0.0, 1.0, -2.65, -4.05)" width="5.3" xlink:href="#sprite22"/>
      <use height="8.15" transform="matrix(1.0, 0.0, 0.0, 1.0, -2.65, -4.05)" width="5.3" xlink:href="#shape21"/>
    </g>
    <g id="sprite22" transform="matrix(1.0, 0.0, 0.0, 1.0, 2.65, 4.05)">
      <use height="8.15" transform="matrix(1.0, 0.0, 0.0, 1.0, -2.65, -4.05)" width="5.3" xlink:href="#shape20"/>
    </g>
    <g id="shape20" transform="matrix(1.0, 0.0, 0.0, 1.0, 2.65, 4.05)">
      <path d="M2.65 -0.3 L2.65 0.05 Q2.6 1.7 1.85 2.9 1.05 4.1 0.0 4.1 -1.1 4.1 -1.9 2.9 -2.65 1.7 -2.65 0.05 L-2.65 -0.3 Q-2.6 -1.8 -1.9 -2.85 -1.1 -4.05 0.0 -4.05 1.05 -4.05 1.85 -2.85 2.55 -1.8 2.65 -0.3" fill="#ff3399" fill-rule="evenodd" stroke="none"/>
    </g>
    <g id="shape21" transform="matrix(1.0, 0.0, 0.0, 1.0, 2.65, 4.05)">
      <path d="M2.65 -0.3 L2.65 0.05 Q2.6 1.7 1.85 2.9 1.05 4.1 0.0 4.1 -1.1 4.1 -1.9 2.9 -2.65 1.7 -2.65 0.05 L-2.65 -0.3 Q-2.6 -1.8 -1.9 -2.85 -1.1 -4.05 0.0 -4.05 1.05 -4.05 1.85 -2.85 2.55 -1.8 2.65 -0.3" fill="#ffffff" fill-opacity="0.5019608" fill-rule="evenodd" stroke="none"/>
    </g>
    <g id="shape22" transform="matrix(1.0, 0.0, 0.0, 1.0, 3.4, 4.8)">
      <path d="M2.65 -0.3 L2.65 0.05 Q2.6 1.7 1.85 2.9 1.05 4.1 0.0 4.1 -1.1 4.1 -1.9 2.9 -2.65 1.7 -2.65 0.05 L-2.65 -0.3 Q-2.6 -1.8 -1.9 -2.85 -1.1 -4.05 0.0 -4.05 1.05 -4.05 1.85 -2.85 2.55 -1.8 2.65 -0.3 L-2.65 -0.3" fill="none" stroke="#000000" stroke-linecap="round" stroke-linejoin="round" stroke-width="1.5"/>
    </g>
    <g id="sprite23" transform="matrix(1.0, 0.0, 0.0, 1.0, 14.35, 8.45)">
      <use height="16.9" id="mc000" transform="matrix(0.9231, 0.0, 0.0, 1.0, -2.05, -8.45)" width="16.9" xlink:href="#sprite24"/>
      <use height="16.9" id="mc001" transform="matrix(0.4497, 0.0, 0.0, 0.8817, -14.35, -7.75)" width="16.9" xlink:href="#sprite24"/>
    </g>
    <g id="sprite24" transform="matrix(1.0, 0.0, 0.0, 1.0, 8.45, 8.45)">
      <use height="16.9" id="mc000" transform="matrix(1.0, 0.0, 0.0, 1.0, -8.45, -8.45)" width="16.9" xlink:href="#sprite25"/>
    </g>
    <g id="sprite25" transform="matrix(1.0, 0.0, 0.0, 1.0, 8.45, 8.45)">
      <use height="16.9" transform="matrix(1.0, 0.0, 0.0, 1.0, -8.45, -8.45)" width="16.9" xlink:href="#shape23"/>
    </g>
    <g id="shape23" transform="matrix(1.0, 0.0, 0.0, 1.0, 8.45, 8.45)">
      <path d="M5.95 -6.0 Q8.45 -3.5 8.45 0.0 8.45 3.5 5.95 5.95 3.5 8.45 0.0 8.45 -3.5 8.45 -6.0 5.95 -8.45 3.5 -8.45 0.0 -8.45 -3.5 -6.0 -6.0 -3.5 -8.45 0.0 -8.45 3.5 -8.45 5.95 -6.0" fill="#ff0066" fill-rule="evenodd" stroke="none"/>
    </g>
    <g id="sprite26" transform="matrix(1.0, 0.0, 0.0, 1.0, 4.05, 2.1)">
      <use height="3.45" transform="matrix(1.0, 0.0, 0.0, 1.0, -4.05, -2.1)" width="8.05" xlink:href="#shape24"/>
    </g>
    <g id="shape24" transform="matrix(1.0, 0.0, 0.0, 1.0, 4.05, 2.1)">
      <path d="M-0.3 -0.85 Q0.05 -0.45 0.05 0.1 0.05 0.6 -0.3 0.95 -0.6 1.35 -1.0 1.35 -1.45 1.35 -1.8 0.95 L-2.1 0.1 -1.8 -0.85 -1.0 -1.2 Q-0.6 -1.2 -0.3 -0.85" fill="#000000" fill-opacity="0.5019608" fill-rule="evenodd" stroke="none"/>
      <path d="M-3.3 -0.65 Q-1.3 -1.8 3.25 -1.0" fill="none" stroke="#000000" stroke-linecap="round" stroke-linejoin="round" stroke-opacity="0.5019608" stroke-width="1.5"/>
    </g>
    <g id="shape25" transform="matrix(1.0, 0.0, 0.0, 1.0, 6.75, 2.2)">
      <path d="M-0.6 -1.1 Q-0.1 -1.1 0.25 -0.75 0.65 -0.35 0.65 0.2 0.65 0.7 0.25 1.05 -0.1 1.45 -0.6 1.45 -1.15 1.45 -1.55 1.05 L-1.9 0.2 Q-1.9 -0.35 -1.55 -0.75 -1.15 -1.1 -0.6 -1.1" fill="#000000" fill-opacity="0.5019608" fill-rule="evenodd" stroke="none"/>
      <path d="M-6.0 0.25 Q-0.65 -2.75 6.0 -0.4" fill="none" stroke="#000000" stroke-linecap="round" stroke-linejoin="round" stroke-opacity="0.5019608" stroke-width="1.5"/>
    </g>
    <g id="shape26" transform="matrix(1.0, 0.0, 0.0, 1.0, 15.0, 9.65)">
      <path d="M14.25 -0.05 Q14.25 3.65 11.8 6.2 9.4 8.85 6.05 8.85 2.65 8.85 0.2 6.2 -2.2 3.65 -2.15 -0.05 -2.2 -3.75 0.2 -6.35 2.65 -8.9 6.05 -8.9 9.4 -8.9 11.8 -6.35 14.25 -3.75 14.25 -0.05 M-2.45 0.85 Q-4.4 -0.8 -6.35 0.7 -6.5 2.9 -7.35 4.6 -8.5 6.85 -10.1 6.9 -11.75 6.95 -13.0 4.75 -14.2 2.6 -14.25 -0.5 -14.35 -3.65 -13.25 -5.9 -12.15 -8.1 -10.5 -8.15 -8.85 -8.2 -7.6 -6.05 -6.4 -3.85 -6.3 -0.75 L-6.3 0.1 -6.35 0.7" fill="none" stroke="#000000" stroke-linecap="round" stroke-linejoin="round" stroke-width="1.5"/>
    </g>
    <g id="sprite27" transform="matrix(1.0, 0.0, 0.0, 1.0, 26.2, 21.95)">
      <use height="42.1" id="mc100" transform="matrix(1.0, 0.0, 0.0, 1.0, -25.3, -21.05)" width="50.6" xlink:href="#sprite28"/>
      <use height="43.9" transform="matrix(1.0, 0.0, 0.0, 1.0, -26.2, -21.95)" width="52.4" xlink:href="#shape28"/>
    </g>
    <g id="sprite28" transform="matrix(1.0, 0.0, 0.0, 1.0, 25.3, 21.05)">
      <use height="42.1" transform="matrix(1.0, 0.0, 0.0, 1.0, -25.3, -21.05)" width="50.6" xlink:href="#shape27"/>
    </g>
    <g id="shape27" transform="matrix(1.0, 0.0, 0.0, 1.0, 25.3, 21.05)">
      <path d="M-7.55 -20.65 L-5.5 -20.85 -3.5 -21.0 -2.75 -21.05 -1.9 -21.0 -1.3 -20.95 Q38.1 -17.15 19.1 21.05 L18.2 20.65 Q6.35 -13.8 -25.05 2.6 L-25.3 2.6 -25.3 2.35 Q-25.1 -5.55 -16.85 -12.15 L-17.35 -12.8 -17.4 -14.6 -16.9 -16.35 Q-16.55 -17.3 -15.8 -17.95 L-14.3 -19.0 -12.65 -19.65 -11.05 -20.1 -9.4 -20.4 -7.55 -20.65" fill="#0099cc" fill-rule="evenodd" stroke="none"/>
    </g>
    <g id="shape28" transform="matrix(1.0, 0.0, 0.0, 1.0, 26.2, 21.95)">
      <path d="M-17.35 -12.8 L-17.4 -14.6 -16.9 -16.35 Q-16.55 -17.3 -15.8 -17.95 L-14.3 -19.0 -12.65 -19.65 -11.05 -20.1 -9.4 -20.4 -7.55 -20.65 -5.5 -20.85 -3.5 -21.0 -2.75 -21.05 -1.9 -21.0 -1.3 -20.95 Q38.1 -17.15 19.1 21.05 M-25.3 2.35 Q-25.1 -5.55 -16.85 -12.15 -14.55 -14.0 -11.6 -15.75 M18.2 20.65 Q6.35 -13.8 -25.05 2.6" fill="none" stroke="#000000" stroke-linecap="round" stroke-linejoin="round" stroke-width="1.8"/>
    </g>
  </defs>
</svg>