<?xml version="1.0" encoding="UTF-8" standalone="no"?>
<svg xmlns:xlink="http://www.w3.org/1999/xlink"  height="115.25px" width="90.65px" xmlns="http://www.w3.org/2000/svg">
  <g transform="matrix(0.6, 0.0, 0.0, 0.6, -1.35, -4.85)">
    <use height="43.4" id="mc1600" transform="matrix(1.0698, 0.0, 0.0, 1.0698, 22.7164, 28.6361)" width="45.7" xlink:href="#sprite0"/>
      <use height="38.8" id="mc1500" transform="matrix(1.0698, 0.0, 0.0, 1.0698, 5.1012, 43.0966)" width="40.15" xlink:href="#sprite2"/>
      <use height="38.8" id="mc1501" transform="matrix(-1.0698, 0.0, 0.0, 1.0698, 88.7488, 43.0966)" width="40.15" xlink:href="#sprite2"/>
      <use height="22.8" id="mc1400" transform="matrix(1.0698, 0.0, 0.0, 1.0698, 30.8093, 83.1047)" width="11.8" xlink:href="#sprite6"/>
      <use height="23.95" id="mc1300" transform="matrix(-1.0698, 0.0, 0.0, 1.0698, 72.0337, 73.8361)" width="14.7" xlink:href="#sprite8"/>
      <use height="23.95" id="mc1200" transform="matrix(1.0698, 0.0, 0.0, 1.0698, 20.5663, 73.8361)" width="14.7" xlink:href="#sprite8"/>
      <use height="22.8" id="mc1100" transform="matrix(-1.0698, 0.0, 0.0, 1.0698, 61.4407, 83.1047)" width="11.8" xlink:href="#sprite6"/>
      <use height="20.3" id="mc1000" transform="matrix(1.0698, 0.0, 0.0, 1.0698, 24.328, 62.4419)" width="41.45" xlink:href="#sprite13"/>
      <use height="30.95" id="mc900" transform="matrix(1.0698, 0.0, 0.0, 1.0698, 30.4884, 68.0989)" width="29.45" xlink:href="#sprite14"/>
      <use height="22.1" id="mc800" transform="matrix(1.0698, 0.0, 0.0, 1.0698, 21.1652, 23.3396)" width="48.35" xlink:href="#sprite17"/>
      <use height="15.3" id="mc700" transform="matrix(1.0698, 0.0, 0.0, 1.0698, 26.1001, 41.5163)" width="38.75" xlink:href="#sprite19"/>
      <use height="10.85" id="mc600" transform="matrix(1.0698, 0.0, 0.0, 1.0698, 24.2489, 38.0233)" width="20.25" xlink:href="#sprite22"/>
      <use height="26.4" id="hide_hat" transform="matrix(1.0698, 0.0, 0.0, 1.0698, 20.7013, 10.3326)" width="48.75" xlink:href="#sprite24"/>
      <use height="10.85" id="mc400" transform="matrix(-1.0698, 0.0, 0.0, 1.0698, 69.1011, 38.0233)" width="20.25" xlink:href="#sprite22"/>
      <use height="33.35" id="mc300" transform="matrix(1.0698, 0.0, 0.0, 1.0698, 29.6117, 57.3884)" width="31.2" xlink:href="#sprite28"/>
      <use height="10.65" transform="matrix(1.0, 0.0, 0.0, 1.0, 36.6, 62.55)" width="19.45" xlink:href="#shape29"/>
      <use height="0.0" id="hat" transform="matrix(1.0698, 0.0, 0.0, 1.0698, 18.35, -7.75)" width="0.0" xlink:href="#sprite30"/>
  </g>
  <defs>
    <g id="shape0" transform="matrix(1.0, 0.0, 0.0, 1.0, -0.1, -0.2)">
      <path d="M77.5 13.45 Q90.75 26.75 90.75 45.55 90.75 64.35 77.5 77.6 64.2 90.85 45.4 90.85 26.6 90.85 13.35 77.6 0.1 64.35 0.1 45.55 0.1 26.75 13.35 13.45 26.6 0.2 45.4 0.2 64.2 0.2 77.5 13.45" fill="#ff0000" fill-rule="evenodd" stroke="none"/>
    </g>
    <g id="sprite0" transform="matrix(1.0, 0.0, 0.0, 1.0, 22.7, 21.7)">
      <use height="41.6" id="mc100" transform="matrix(0.9744, 0.0, 0.0, 1.0, -22.6001, -20.8)" width="46.8" xlink:href="#sprite1"/>
      <use height="43.4" transform="matrix(1.0, 0.0, 0.0, 1.0, -22.7, -21.7)" width="45.0" xlink:href="#shape2"/>
    </g>
    <g id="sprite1" transform="matrix(1.0, 0.0, 0.0, 1.0, 23.4, 20.8)">
      <use height="9.7" transform="matrix(4.8247, 0.0, 0.0, 4.2887, -23.4, -20.8)" width="9.7" xlink:href="#shape1"/>
    </g>
    <g id="shape1" transform="matrix(1.0, 0.0, 0.0, 1.0, 4.85, 4.85)">
      <path d="M3.4 -3.45 Q4.85 -2.0 4.85 0.0 4.85 2.0 3.4 3.4 2.0 4.85 0.0 4.85 -2.0 4.85 -3.45 3.4 -4.85 2.0 -4.85 0.0 -4.85 -2.0 -3.45 -3.45 -2.0 -4.85 0.0 -4.85 2.0 -4.85 3.4 -3.45" fill="#ffcc66" fill-rule="evenodd" stroke="none"/>
    </g>
    <g id="shape2" transform="matrix(1.0, 0.0, 0.0, 1.0, 22.7, 21.7)">
      <path d="M15.4 -15.15 Q21.1 -9.55 21.4 -0.8 21.7 7.95 15.7 14.4 9.65 20.8 0.2 20.8 -9.25 20.8 -15.7 14.85 -22.15 8.85 -21.8 0.4 -21.45 -8.05 -15.35 -14.4 -9.25 -20.8 0.2 -20.8 9.65 -20.8 15.4 -15.15 Z" fill="none" stroke="#000000" stroke-linecap="round" stroke-linejoin="round" stroke-width="1.8"/>
    </g>
    <g id="sprite2" transform="matrix(1.0, 0.0, 0.0, 1.0, 20.05, 19.4)">
      <use height="37.0" id="mc100" transform="matrix(1.0, 0.0, 0.0, 1.0, -19.15, -18.5)" width="38.35" xlink:href="#sprite3"/>
      <use height="38.8" transform="matrix(1.0, 0.0, 0.0, 1.0, -20.05, -19.4)" width="40.15" xlink:href="#shape5"/>
    </g>
    <g id="sprite3" transform="matrix(1.0, 0.0, 0.0, 1.0, 19.15, 18.5)">
      <use height="37.0" id="mc100" transform="matrix(1.0, 0.0, 0.0, 1.0, -19.15, -18.5)" width="38.35" xlink:href="#sprite4"/>
      <use height="37.0" id="mc000" transform="matrix(1.0, 0.0, 0.0, 1.0, -19.15, -18.5)" width="38.35" xlink:href="#sprite5"/>
    </g>
    <g id="sprite4" transform="matrix(1.0, 0.0, 0.0, 1.0, 19.15, 18.5)">
      <use height="37.0" transform="matrix(1.0, 0.0, 0.0, 1.0, -19.15, -18.5)" width="38.35" xlink:href="#shape3"/>
    </g>
    <g id="shape3" transform="matrix(1.0, 0.0, 0.0, 1.0, 19.15, 18.5)">
      <path d="M-11.85 -7.05 Q-9.1 -17.25 -2.2 -18.5 L-0.6 -4.95 19.2 4.25 19.2 17.1 Q4.8 19.95 -9.55 16.95 L-7.0 10.65 Q-14.85 11.05 -19.15 5.35 -14.15 1.45 -11.85 -7.05" fill="#ffffff" fill-rule="evenodd" stroke="none"/>
    </g>
    <g id="sprite5" transform="matrix(1.0, 0.0, 0.0, 1.0, 19.15, 18.5)">
      <use height="37.0" transform="matrix(1.0, 0.0, 0.0, 1.0, -19.15, -18.5)" width="38.35" xlink:href="#shape4"/>
    </g>
    <g id="shape4" transform="matrix(1.0, 0.0, 0.0, 1.0, 19.15, 18.5)">
      <path d="M-11.85 -7.05 Q-9.1 -17.25 -2.2 -18.5 L-0.6 -4.95 19.2 4.25 19.2 17.1 Q4.8 19.95 -9.55 16.95 L-7.0 10.65 Q-14.85 11.05 -19.15 5.35 -14.15 1.45 -11.85 -7.05" fill="#000000" fill-opacity="0.2" fill-rule="evenodd" stroke="none"/>
    </g>
    <g id="shape5" transform="matrix(1.0, 0.0, 0.0, 1.0, 20.05, 19.4)">
      <path d="M-11.85 -7.05 Q-14.15 1.45 -19.15 5.35 -14.85 11.05 -7.0 10.65 L-9.55 16.95 Q4.8 19.95 19.2 17.1 L19.2 4.25 -0.6 -4.95 -2.2 -18.5 Q-9.1 -17.25 -11.85 -7.05 Z" fill="none" stroke="#000000" stroke-linecap="round" stroke-linejoin="round" stroke-width="1.8"/>
    </g>
    <g id="sprite6" transform="matrix(1.0, 0.0, 0.0, 1.0, 5.6, 11.4)">
      <use height="21.0" id="mc200" transform="matrix(1.0, 0.0, 0.0, 1.0, -4.7, -10.5)" width="10.0" xlink:href="#sprite7"/>
      <use height="22.8" transform="matrix(1.0, 0.0, 0.0, 1.0, -5.6, -11.4)" width="11.8" xlink:href="#shape7"/>
    </g>
    <g id="sprite7" transform="matrix(1.0, 0.0, 0.0, 1.0, 5.0, 10.5)">
      <use height="21.0" transform="matrix(1.0, 0.0, 0.0, 1.0, -5.0, -10.5)" width="10.0" xlink:href="#shape6"/>
    </g>
    <g id="shape6" transform="matrix(1.0, 0.0, 0.0, 1.0, 5.0, 10.5)">
      <path d="M0.25 -10.5 Q2.15 -10.55 3.35 -9.35 4.5 -8.25 4.55 -6.5 L5.0 6.2 Q5.0 7.9 3.65 9.2 2.3 10.4 0.35 10.5 -1.3 10.55 -2.75 9.7 L-3.25 9.35 -3.55 9.1 -4.0 8.7 Q-5.0 7.7 -5.0 6.4 L-3.8 -6.2 Q-3.85 -8.0 -2.8 -9.15 L-2.65 -9.3 -2.15 -9.75 -1.85 -9.9 Q-1.0 -10.45 0.25 -10.5" fill="#333333" fill-rule="evenodd" stroke="none"/>
    </g>
    <g id="shape7" transform="matrix(1.0, 0.0, 0.0, 1.0, 5.6, 11.4)">
      <path d="M-3.65 8.8 L-2.3 -9.2" fill="none" stroke="#ffffff" stroke-linecap="round" stroke-linejoin="round" stroke-width="1.5"/>
      <path d="M0.55 -10.5 Q-0.7 -10.45 -1.55 -9.9 L-1.85 -9.75 -2.35 -9.3 -2.5 -9.15 Q-3.55 -8.0 -3.5 -6.2 L-4.7 6.4 Q-4.7 7.7 -3.7 8.7 L-3.25 9.1 -2.95 9.35 -2.45 9.7 Q-1.0 10.55 0.65 10.5 2.6 10.4 3.95 9.2 5.3 7.9 5.3 6.2 L4.85 -6.5 Q4.8 -8.25 3.65 -9.35 2.45 -10.55 0.55 -10.5 Z" fill="none" stroke="#000000" stroke-linecap="round" stroke-linejoin="round" stroke-width="1.8"/>
    </g>
    <g id="sprite8" transform="matrix(1.0, 0.0, 0.0, 1.0, 7.65, 10.95)">
      <use height="7.6" id="mc400" transform="matrix(1.0, 0.0, 0.0, 1.0, -6.9, 4.65)" width="9.05" xlink:href="#sprite9"/>
      <use height="17.65" id="mc300" transform="matrix(1.0, 0.0, 0.0, 1.0, -6.1, -10.05)" width="12.25" xlink:href="#sprite10"/>
      <use height="4.55" id="mc200" transform="matrix(1.0, 0.0, 0.0, 1.0, -4.85, 0.25)" width="8.55" xlink:href="#sprite11"/>
      <use height="23.95" transform="matrix(1.0, 0.0, 0.0, 1.0, -7.65, -10.95)" width="14.7" xlink:href="#shape11"/>
      <use height="1.55" id="mc101" transform="matrix(1.0, 0.0, 0.0, 1.0, -4.25, 2.5)" width="1.55" xlink:href="#sprite12"/>
    </g>
    <g id="sprite9" transform="matrix(1.0, 0.0, 0.0, 1.0, 4.55, 3.8)">
      <use height="7.6" transform="matrix(1.0, 0.0, 0.0, 1.0, -4.55, -3.8)" width="9.05" xlink:href="#shape8"/>
    </g>
    <g id="shape8" transform="matrix(1.0, 0.0, 0.0, 1.0, 4.55, 3.8)">
      <path d="M4.5 -0.85 L2.8 3.05 2.1 3.7 Q1.65 3.9 1.2 3.7 L0.55 3.05 Q0.35 2.55 0.6 2.1 L0.6 1.8 -0.5 1.5 -1.9 0.65 -2.2 0.85 -2.9 1.5 Q-3.35 1.7 -3.8 1.5 L-4.45 0.85 Q-4.65 0.35 -4.4 -0.1 L-2.6 -3.8 4.4 -0.9 4.5 -0.85" fill="#ffcc66" fill-rule="evenodd" stroke="none"/>
    </g>
    <g id="sprite10" transform="matrix(1.0, 0.0, 0.0, 1.0, 6.1, 8.85)">
      <use height="17.65" transform="matrix(1.0, 0.0, 0.0, 1.0, -6.1, -8.85)" width="12.25" xlink:href="#shape9"/>
    </g>
    <g id="shape9" transform="matrix(1.0, 0.0, 0.0, 1.0, 6.1, 8.85)">
      <path d="M4.6 -8.65 Q5.8 -8.2 6.1 -6.65 6.45 -5.1 4.0 3.1 L2.15 8.8 2.05 8.75 -6.1 5.4 -3.35 0.0 Q0.7 -7.5 2.05 -8.35 3.35 -9.2 4.6 -8.65" fill="#333333" fill-rule="evenodd" stroke="none"/>
    </g>
    <g id="sprite11" transform="matrix(1.0, 0.0, 0.0, 1.0, 4.3, 2.25)">
      <use height="4.55" transform="matrix(1.0, 0.0, 0.0, 1.0, -4.3, -2.25)" width="8.55" xlink:href="#shape10"/>
    </g>
    <g id="shape10" transform="matrix(1.0, 0.0, 0.0, 1.0, 4.3, 2.25)">
      <path d="M-3.8 -1.75 Q-0.3 0.95 3.75 1.8" fill="none" stroke="#ffffff" stroke-linecap="round" stroke-linejoin="round" stroke-width="1.0"/>
    </g>
    <g id="shape11" transform="matrix(1.0, 0.0, 0.0, 1.0, 7.65, 10.95)">
      <path d="M2.05 -9.55 Q0.7 -8.7 -3.35 -1.2 L-6.1 4.2 -4.95 4.65 2.05 7.55 2.15 7.6 4.0 1.9 Q6.45 -6.3 6.1 -7.85 5.8 -9.4 4.6 -9.85 3.35 -10.4 2.05 -9.55 M-4.25 9.1 L-2.85 9.95 -1.75 10.25" fill="none" stroke="#000000" stroke-linecap="round" stroke-linejoin="round" stroke-width="1.8"/>
      <path d="M-1.75 10.25 L-1.75 10.55 Q-2.0 11.0 -1.8 11.5 L-1.15 12.15 Q-0.7 12.35 -0.25 12.15 L0.45 11.5 2.15 7.6 M-4.95 4.65 L-6.75 8.35 Q-7.0 8.8 -6.8 9.3 L-6.15 9.95 Q-5.7 10.15 -5.25 9.95 -4.8 9.75 -4.55 9.3 L-4.25 9.1" fill="none" stroke="#000000" stroke-linecap="round" stroke-linejoin="round" stroke-width="1.5"/>
    </g>
    <g id="sprite12" transform="matrix(1.0, 0.0, 0.0, 1.0, 0.75, 0.75)">
      <use height="1.55" transform="matrix(1.0, 0.0, 0.0, 1.0, -0.75, -0.75)" width="1.55" xlink:href="#shape12"/>
    </g>
    <g id="shape12" transform="matrix(1.0, 0.0, 0.0, 1.0, 0.75, 0.75)">
      <path d="M0.55 -0.55 L0.8 0.0 0.55 0.55 0.0 0.8 -0.55 0.55 -0.75 0.0 -0.55 -0.55 0.0 -0.75 0.55 -0.55" fill="#ffffff" fill-rule="evenodd" stroke="none"/>
    </g>
    <g id="sprite13" transform="matrix(1.0, 0.0, 0.0, 1.0, 21.1, 10.15)">
      <use height="20.3" transform="matrix(1.0, 0.0, 0.0, 1.0, -21.1, -10.15)" width="41.45" xlink:href="#shape13"/>
    </g>
    <g id="shape13" transform="matrix(1.0, 0.0, 0.0, 1.0, 21.1, 10.15)">
      <path d="M19.45 -9.25 Q17.85 -3.8 14.65 0.65 8.4 9.25 -0.4 9.25 -9.2 9.25 -15.4 0.65 -18.65 -3.8 -20.2 -9.25" fill="none" stroke="#000000" stroke-linecap="round" stroke-linejoin="round" stroke-width="1.8"/>
    </g>
    <g id="sprite14" transform="matrix(1.0, 0.0, 0.0, 1.0, 14.5, 14.35)">
      <use height="30.15" id="mc200" transform="matrix(1.0, 0.0, 0.0, 1.0, -13.6, -13.55)" width="27.65" xlink:href="#sprite15"/>
      <use height="1.55" id="mc201" transform="matrix(1.0, 0.0, 0.0, 1.0, -2.3, 6.7)" width="1.55" xlink:href="#sprite12"/>
      <use height="1.55" id="mc202" transform="matrix(1.0, 0.0, 0.0, 1.0, -2.3, 10.05)" width="1.55" xlink:href="#sprite12"/>
      <use height="1.55" id="mc203" transform="matrix(1.0, 0.0, 0.0, 1.0, -0.35, 12.1)" width="1.55" xlink:href="#sprite12"/>
      <use height="1.55" id="mc204" transform="matrix(1.0, 0.0, 0.0, 1.0, -2.3, 2.85)" width="1.55" xlink:href="#sprite12"/>
      <use height="1.55" id="mc205" transform="matrix(1.0, 0.0, 0.0, 1.0, -2.3, -1.0)" width="1.55" xlink:href="#sprite12"/>
      <use height="1.55" id="mc206" transform="matrix(1.0, 0.0, 0.0, 1.0, -2.3, -4.85)" width="1.55" xlink:href="#sprite12"/>
      <use height="1.55" id="mc207" transform="matrix(1.0, 0.0, 0.0, 1.0, -2.3, -8.7)" width="1.55" xlink:href="#sprite12"/>
      <use height="1.55" id="mc208" transform="matrix(1.0, 0.0, 0.0, 1.0, -2.3, -12.55)" width="1.55" xlink:href="#sprite12"/>
      <use height="27.8" id="mc100" transform="matrix(1.0, 0.0, 0.0, 1.0, -14.5, -13.65)" width="29.45" xlink:href="#sprite16"/>
      <use height="24.1" transform="matrix(1.0, 0.0, 0.0, 1.0, -14.5, -14.35)" width="29.45" xlink:href="#shape16"/>
    </g>
    <g id="sprite15" transform="matrix(1.0, 0.0, 0.0, 1.0, 13.8, 13.85)">
      <use height="30.15" transform="matrix(1.0, 0.0, 0.0, 1.0, -13.8, -13.85)" width="27.65" xlink:href="#shape14"/>
    </g>
    <g id="shape14" transform="matrix(1.0, 0.0, 0.0, 1.0, 13.8, 13.85)">
      <path d="M2.55 13.2 L0.35 15.55 -1.7 12.75 -2.7 12.95 Q-8.35 12.3 -13.8 8.55 L-7.55 -13.35 7.0 -13.85 13.85 8.55 Q8.1 12.2 2.5 12.95 1.7 13.05 1.95 13.35 L2.55 13.2" fill="#333333" fill-rule="evenodd" stroke="none"/>
      <path d="M-1.7 12.75 L0.35 15.55 2.55 13.2" fill="none" stroke="#000000" stroke-linecap="round" stroke-linejoin="round" stroke-width="1.5"/>
    </g>
    <g id="sprite16" transform="matrix(1.0, 0.0, 0.0, 1.0, 14.7, 23.3)">
      <use height="27.8" transform="matrix(1.0, 0.0, 0.0, 1.0, -14.7, -23.3)" width="29.45" xlink:href="#shape15"/>
    </g>
    <g id="shape15" transform="matrix(1.0, 0.0, 0.0, 1.0, 14.7, 23.3)">
      <path d="M0.8 -22.4 L0.5 0.75 2.5 3.6 Q8.1 2.85 13.85 -0.8 M-13.8 -0.8 Q-8.35 2.95 -2.1 3.5" fill="none" stroke="#000000" stroke-linecap="round" stroke-linejoin="round" stroke-width="1.8"/>
    </g>
    <g id="shape16" transform="matrix(1.0, 0.0, 0.0, 1.0, 14.5, 14.35)">
      <path d="M14.05 8.85 L7.05 -13.45 -7.1 -13.2 -13.6 8.85" fill="none" stroke="#000000" stroke-linecap="round" stroke-linejoin="round" stroke-width="1.8"/>
    </g>
    <g id="sprite17" transform="matrix(1.0, 0.0, 0.0, 1.0, 24.15, 10.9)">
      <use height="19.8" id="mc100" transform="matrix(1.0, 0.0, 0.0, 1.0, -23.25, -9.15)" width="46.55" xlink:href="#sprite18"/>
      <use height="22.1" transform="matrix(1.0, 0.0, 0.0, 1.0, -24.15, -10.9)" width="48.35" xlink:href="#shape18"/>
    </g>
    <g id="sprite18" transform="matrix(1.0, 0.0, 0.0, 1.0, 23.25, 9.15)">
      <use height="19.8" transform="matrix(1.0, 0.0, 0.0, 1.0, -23.25, -9.15)" width="46.55" xlink:href="#shape17"/>
    </g>
    <g id="shape17" transform="matrix(1.0, 0.0, 0.0, 1.0, 23.25, 9.15)">
      <path d="M-23.25 9.2 L-23.25 -9.15 23.3 -9.15 23.3 9.2 Q-0.55 12.15 -23.25 9.2" fill="#ff0000" fill-rule="evenodd" stroke="none"/>
    </g>
    <g id="shape18" transform="matrix(1.0, 0.0, 0.0, 1.0, 24.15, 10.9)">
      <path d="M23.3 -9.15 L23.3 9.2 Q-0.45 11.4 -23.25 9.2 L-23.25 -9.15 Q0.05 -10.85 23.3 -9.15 Z" fill="none" stroke="#000000" stroke-linecap="round" stroke-linejoin="round" stroke-width="1.8"/>
    </g>
    <g id="sprite19" transform="matrix(1.0, 0.0, 0.0, 1.0, 19.35, 7.65)">
      <use height="13.5" id="mc100" transform="matrix(1.0, 0.0, 0.0, 1.0, -18.45, -6.75)" width="36.95" xlink:href="#sprite20"/>
      <use height="15.3" transform="matrix(1.0, 0.0, 0.0, 1.0, -19.35, -7.65)" width="38.75" xlink:href="#shape20"/>
      <use height="7.45" id="mc001" transform="matrix(1.0, 0.0, 0.0, 1.0, -17.05, -2.65)" width="34.05" xlink:href="#sprite21"/>
    </g>
    <g id="sprite20" transform="matrix(1.0, 0.0, 0.0, 1.0, 18.45, 6.75)">
      <use height="13.5" transform="matrix(1.0, 0.0, 0.0, 1.0, -18.45, -6.75)" width="36.95" xlink:href="#shape19"/>
    </g>
    <g id="shape19" transform="matrix(1.0, 0.0, 0.0, 1.0, 18.45, 6.75)">
      <path d="M16.2 -4.8 Q18.45 -2.8 18.5 0.0 18.45 2.8 16.2 4.75 13.9 6.75 10.65 6.75 7.4 6.75 5.1 4.75 2.9 2.85 2.85 0.2 L2.85 0.0 Q2.8 -2.8 5.1 -4.8 7.4 -6.75 10.65 -6.75 13.9 -6.75 16.2 -4.8 M-5.1 -4.8 Q-2.85 -2.8 -2.8 0.0 L-2.8 0.2 Q-2.9 2.85 -5.1 4.75 -7.4 6.75 -10.65 6.75 -13.9 6.75 -16.2 4.75 -18.5 2.8 -18.45 0.0 -18.5 -2.8 -16.2 -4.8 -13.9 -6.75 -10.65 -6.75 -7.4 -6.75 -5.1 -4.8" fill="#000000" fill-rule="evenodd" stroke="none"/>
    </g>
    <g id="shape20" transform="matrix(1.0, 0.0, 0.0, 1.0, 19.35, 7.65)">
      <path d="M-2.8 0.2 Q-2.9 2.85 -5.1 4.75 -7.4 6.75 -10.65 6.75 -13.9 6.75 -16.2 4.75 -18.5 2.8 -18.45 0.0 -18.5 -2.8 -16.2 -4.8 -13.9 -6.75 -10.65 -6.75 -7.4 -6.75 -5.1 -4.8 -2.85 -2.8 -2.8 0.0 L-2.8 0.2 Q0.0 -1.5 2.85 0.2 L2.85 0.0 Q2.8 -2.8 5.1 -4.8 7.4 -6.75 10.65 -6.75 13.9 -6.75 16.2 -4.8 18.45 -2.8 18.5 0.0 18.45 2.8 16.2 4.75 13.9 6.75 10.65 6.75 7.4 6.75 5.1 4.75 2.9 2.85 2.85 0.2" fill="none" stroke="#000000" stroke-linecap="round" stroke-linejoin="round" stroke-width="1.8"/>
    </g>
    <g id="sprite21" transform="matrix(1.0, 0.0, 0.0, 1.0, 17.05, 3.7)">
      <use height="7.45" transform="matrix(1.0, 0.0, 0.0, 1.0, -17.05, -3.7)" width="34.05" xlink:href="#shape21"/>
    </g>
    <g id="shape21" transform="matrix(1.0, 0.0, 0.0, 1.0, 17.05, 3.7)">
      <path d="M14.3 -0.5 L14.35 -0.5 Q14.85 -0.1 15.55 -0.1 L16.75 -0.5 Q17.0 2.3 15.75 3.75 L14.05 3.75 Q15.8 1.6 14.3 -0.5 M13.55 -2.3 Q13.55 -2.9 14.05 -3.3 14.55 -3.7 15.3 -3.7 16.0 -3.7 16.5 -3.3 17.0 -2.9 17.0 -2.3 17.0 -1.7 16.5 -1.25 16.0 -0.85 15.3 -0.85 14.55 -0.85 14.05 -1.25 13.55 -1.7 13.55 -2.3 M-16.55 -1.25 Q-17.05 -1.7 -17.05 -2.3 -17.05 -2.9 -16.55 -3.3 -16.05 -3.7 -15.3 -3.7 -14.6 -3.7 -14.1 -3.3 -13.6 -2.9 -13.6 -2.3 -13.6 -1.7 -14.1 -1.25 -14.6 -0.85 -15.3 -0.85 -16.05 -0.85 -16.55 -1.25 M-15.55 -0.1 Q-14.9 -0.1 -14.35 -0.5 -15.85 1.6 -14.1 3.75 L-15.8 3.75 Q-17.05 2.3 -16.75 -0.5 -16.25 -0.1 -15.55 -0.1" fill="#ffffff" fill-rule="evenodd" stroke="none"/>
    </g>
    <g id="sprite22" transform="matrix(1.0, 0.0, 0.0, 1.0, 10.05, 5.4)">
      <use height="9.05" id="mc100" transform="matrix(1.0, 0.0, 0.0, 1.0, -9.15, -4.5)" width="18.45" xlink:href="#sprite23"/>
      <use height="10.85" transform="matrix(1.0, 0.0, 0.0, 1.0, -10.05, -5.4)" width="20.25" xlink:href="#shape23"/>
    </g>
    <g id="sprite23" transform="matrix(1.0, 0.0, 0.0, 1.0, 9.2, 4.5)">
      <use height="9.05" transform="matrix(1.0, 0.0, 0.0, 1.0, -9.2, -4.5)" width="18.45" xlink:href="#shape22"/>
    </g>
    <g id="shape22" transform="matrix(1.0, 0.0, 0.0, 1.0, 9.2, 4.5)">
      <path d="M2.1 -4.2 Q5.9 -3.35 7.9 -0.45 9.55 1.95 9.15 4.55 L-9.2 0.45 Q-8.05 -2.0 -5.15 -3.35 -1.7 -5.05 2.1 -4.2" fill="#ffffff" fill-rule="evenodd" stroke="none"/>
    </g>
    <g id="shape23" transform="matrix(1.0, 0.0, 0.0, 1.0, 10.05, 5.4)">
      <path d="M2.15 -4.2 Q-1.65 -5.05 -5.1 -3.35 -8.0 -2.0 -9.15 0.45 L9.2 4.55 Q9.6 1.95 7.95 -0.45 5.95 -3.35 2.15 -4.2 Z" fill="none" stroke="#000000" stroke-linecap="round" stroke-linejoin="round" stroke-width="1.8"/>
    </g>
    <g id="sprite24" transform="matrix(1.0, 0.0, 0.0, 1.0, 24.35, 13.15)">
      <use height="24.6" id="mc100" transform="matrix(1.0, 0.0, 0.0, 1.0, -23.45, -12.25)" width="46.95" xlink:href="#sprite25"/>
      <use height="26.4" transform="matrix(1.0, 0.0, 0.0, 1.0, -24.35, -13.15)" width="48.75" xlink:href="#shape26"/>
    </g>
    <g id="sprite25" transform="matrix(1.0, 0.0, 0.0, 1.0, 23.45, 12.25)">
      <use height="24.6" id="mc100" transform="matrix(1.0, 0.0, 0.0, 1.0, -23.45, -12.25)" width="46.95" xlink:href="#sprite26"/>
      <use height="24.6" id="mc000" transform="matrix(1.0, 0.0, 0.0, 1.0, -23.45, -12.25)" width="46.95" xlink:href="#sprite27"/>
    </g>
    <g id="sprite26" transform="matrix(1.0, 0.0, 0.0, 1.0, 23.45, 12.25)">
      <use height="24.6" transform="matrix(1.0, 0.0, 0.0, 1.0, -23.45, -12.25)" width="46.95" xlink:href="#shape24"/>
    </g>
    <g id="shape24" transform="matrix(1.0, 0.0, 0.0, 1.0, 23.45, 12.25)">
      <path d="M0.8 -8.85 Q4.45 -12.55 9.85 -12.25 15.25 -12.05 19.25 -8.05 23.2 -4.1 23.5 1.25 L-3.15 1.2 Q-8.3 5.7 -7.2 12.35 -12.3 8.75 -13.0 1.85 -18.65 4.8 -21.65 10.55 -23.65 6.2 -23.4 1.35 -23.2 -4.05 -19.2 -8.05 -15.2 -12.05 -9.8 -12.25 -4.4 -12.55 -0.7 -8.85 L0.05 -8.05 0.8 -8.85" fill="#ffffff" fill-rule="evenodd" stroke="none"/>
    </g>
    <g id="sprite27" transform="matrix(1.0, 0.0, 0.0, 1.0, 23.45, 12.25)">
      <use height="24.6" transform="matrix(1.0, 0.0, 0.0, 1.0, -23.45, -12.25)" width="46.95" xlink:href="#shape25"/>
    </g>
    <g id="shape25" transform="matrix(1.0, 0.0, 0.0, 1.0, 23.45, 12.25)">
      <path d="M0.8 -8.85 Q4.45 -12.55 9.85 -12.25 15.25 -12.05 19.25 -8.05 23.2 -4.1 23.5 1.25 L-3.15 1.2 Q-8.3 5.7 -7.2 12.35 -12.3 8.75 -13.0 1.85 -18.65 4.8 -21.65 10.55 -23.65 6.2 -23.4 1.35 -23.2 -4.05 -19.2 -8.05 -15.2 -12.05 -9.8 -12.25 -4.4 -12.55 -0.7 -8.85 L0.05 -8.05 0.8 -8.85" fill="#000000" fill-opacity="0.2" fill-rule="evenodd" stroke="none"/>
    </g>
    <g id="shape26" transform="matrix(1.0, 0.0, 0.0, 1.0, 24.35, 13.15)">
      <path d="M0.05 -8.05 L-0.7 -8.85 Q-4.4 -12.55 -9.8 -12.25 -15.2 -12.05 -19.2 -8.05 -23.2 -4.05 -23.4 1.35 -23.65 6.2 -21.65 10.55 -18.65 4.8 -13.0 1.85 -12.3 8.75 -7.2 12.35 -8.25 5.8 -3.15 1.2 L23.5 1.25 Q23.2 -4.1 19.25 -8.05 15.25 -12.05 9.85 -12.25 4.45 -12.55 0.8 -8.85 L0.05 -8.05 Z" fill="none" stroke="#000000" stroke-linecap="round" stroke-linejoin="round" stroke-width="1.8"/>
    </g>
    <g id="sprite28" transform="matrix(1.0, 0.0, 0.0, 1.0, 15.6, 16.65)">
      <use height="31.55" id="mc100" transform="matrix(1.0, 0.0, 0.0, 1.0, -14.7, -15.75)" width="29.4" xlink:href="#sprite29"/>
      <use height="33.35" transform="matrix(1.0, 0.0, 0.0, 1.0, -15.6, -16.65)" width="31.2" xlink:href="#shape28"/>
    </g>
    <g id="sprite29" transform="matrix(1.0, 0.0, 0.0, 1.0, 14.7, 15.75)">
      <use height="31.55" transform="matrix(1.0, 0.0, 0.0, 1.0, -14.7, -15.75)" width="29.4" xlink:href="#shape27"/>
    </g>
    <g id="shape27" transform="matrix(1.0, 0.0, 0.0, 1.0, 14.7, 15.75)">
      <path d="M0.1 -14.7 Q6.6 -17.35 10.65 -13.3 14.7 -9.25 14.7 -3.5 14.7 -0.4 14.25 1.3 11.9 9.75 7.75 15.8 4.7 14.9 2.8 12.8 L0.1 9.25 -2.8 12.8 Q-4.7 14.9 -7.75 15.8 -11.9 9.75 -14.25 1.3 -14.7 -0.4 -14.7 -3.5 -14.7 -9.25 -10.65 -13.3 -6.6 -17.35 0.1 -14.7" fill="#ffffff" fill-rule="evenodd" stroke="none"/>
    </g>
    <g id="shape28" transform="matrix(1.0, 0.0, 0.0, 1.0, 15.6, 16.65)">
      <path d="M0.1 -14.7 Q-6.6 -17.35 -10.65 -13.3 -14.7 -9.25 -14.7 -3.5 -14.7 -0.4 -14.25 1.3 -11.9 9.75 -7.75 15.8 -4.7 14.9 -2.8 12.8 L0.1 9.25 2.8 12.8 Q4.7 14.9 7.75 15.8 11.9 9.75 14.25 1.3 14.7 -0.4 14.7 -3.5 14.7 -9.25 10.65 -13.3 6.6 -17.35 0.1 -14.7 Z" fill="none" stroke="#000000" stroke-linecap="round" stroke-linejoin="round" stroke-width="1.8"/>
    </g>
    <g id="shape29" transform="matrix(1.0, 0.0, 0.0, 1.0, -36.6, -62.55)">
      <path d="M49.05 68.45 Q46.3 69.4 43.6 68.5 45.55 66.25 46.3 63.45 47.0 66.2 49.05 68.45" fill="#000000" fill-rule="evenodd" stroke="none"/>
      <path d="M49.05 68.45 Q46.3 69.4 43.6 68.5 L43.05 69.0 Q40.6 71.5 37.5 72.3 M43.6 68.5 Q45.55 66.25 46.3 63.45 47.0 66.2 49.05 68.45 L49.6 69.0 Q52.05 71.5 55.15 72.3" fill="none" stroke="#000000" stroke-linecap="round" stroke-linejoin="round" stroke-width="1.8"/>
    </g>
  </defs>
</svg>
