<?xml version="1.0" encoding="UTF-8" standalone="no"?>
<svg xmlns:xlink="http://www.w3.org/1999/xlink" height="103.35px" width="78.45px" xmlns="http://www.w3.org/2000/svg">
  <g transform="matrix(1.0, 0.0, 0.0, 1.0, 33.7, 96.7)">
    <use height="14.8" transform="matrix(1.0, 0.0, 0.0, 1.0, -19.5, -8.15)" width="37.3" xlink:href="#shape0"/>
    <use height="22.75" transform="matrix(-0.9995, 0.0267, 0.0267, 0.9995, 8.1458, -22.8404)" width="10.65" xlink:href="#sprite0"/>
    <use height="22.75" transform="matrix(-0.9995, 0.0267, 0.0267, 0.9995, 0.6458, -20.5904)" width="10.65" xlink:href="#sprite0"/>
    <use height="22.5" transform="matrix(-0.9767, -0.2043, -0.2043, 0.9767, 21.4232, -37.2597)" width="13.5" xlink:href="#sprite2"/>
    <use height="32.3" transform="matrix(1.0, 0.0, 0.0, 1.0, -14.3, -39.9)" width="27.85" xlink:href="#sprite5"/>
    <use height="24.25" transform="matrix(1.0, 0.0, 0.0, 1.0, -14.35, -35.3)" width="31.8" xlink:href="#sprite9"/>
    <use height="22.5" transform="matrix(-0.8905, -0.4502, -0.4502, 0.8905, 0.496, -30.8937)" width="13.5" xlink:href="#sprite2"/>
    <use height="55.8" transform="matrix(0.866, 0.5, -0.5, 0.866, -5.8211, -96.6908)" width="58.2" xlink:href="#sprite11"/>
    <use height="15.35" transform="matrix(0.866, 0.5, -0.5, 0.866, -18.4983, -75.1)" width="25.6" xlink:href="#sprite14"/>
    <use height="56.3" transform="matrix(0.866, 0.5, -0.5, 0.866, 1.1135, -93.2833)" width="50.4" xlink:href="#sprite17"/>
    <use height="17.45" transform="matrix(0.866, 0.5, -0.5, 0.866, -3.6766, -89.2868)" width="10.1" xlink:href="#sprite19"/>
  </g>
  <defs>
    <g id="shape0" transform="matrix(1.0, 0.0, 0.0, 1.0, 19.5, 8.15)">
      <path d="M7.15 -4.25 Q10.4 -2.95 10.4 -1.2 10.4 0.55 7.15 1.85 3.9 3.15 -0.7 3.15 -5.3 3.15 -8.55 1.85 -11.75 0.55 -11.75 -1.2 -11.75 -2.95 -8.55 -4.25 -5.3 -5.5 -0.7 -5.5 3.9 -5.5 7.15 -4.25" fill="#000000" fill-opacity="0.4" fill-rule="evenodd" stroke="none"/>
      <path d="M12.35 -5.95 Q17.8 -3.8 17.8 -0.75 17.8 2.3 12.35 4.5 6.9 6.65 -0.85 6.65 -8.55 6.65 -14.0 4.5 -19.5 2.3 -19.5 -0.75 -19.5 -3.8 -14.0 -5.95 -8.55 -8.15 -0.85 -8.15 6.9 -8.15 12.35 -5.95 M7.15 -4.25 Q3.9 -5.5 -0.7 -5.5 -5.3 -5.5 -8.55 -4.25 -11.75 -2.95 -11.75 -1.2 -11.75 0.55 -8.55 1.85 -5.3 3.15 -0.7 3.15 3.9 3.15 7.15 1.85 10.4 0.55 10.4 -1.2 10.4 -2.95 7.15 -4.25" fill="#000000" fill-opacity="0.2" fill-rule="evenodd" stroke="none"/>
    </g>
    <g id="sprite0" transform="matrix(1.0, 0.0, 0.0, 1.0, 5.45, 11.3)">
      <use height="21.0" transform="matrix(-1.0, 0.0, 0.0, -1.0, 4.3, 10.55)" width="8.85" xlink:href="#sprite1"/>
      <use height="22.75" transform="matrix(1.0, 0.0, 0.0, 1.0, -5.45, -11.3)" width="10.65" xlink:href="#shape2"/>
    </g>
    <g id="sprite1" transform="matrix(1.0, 0.0, 0.0, 1.0, 4.4, 10.5)">
      <use height="21.0" transform="matrix(1.0, 0.0, 0.0, 1.0, -4.4, -10.5)" width="8.85" xlink:href="#shape1"/>
    </g>
    <g id="shape1" transform="matrix(1.0, 0.0, 0.0, 1.0, 4.4, 10.5)">
      <path d="M3.4 -6.2 L4.45 6.4 Q4.4 8.1 2.9 9.35 1.45 10.55 -0.3 10.5 -2.05 10.4 -3.25 9.2 -4.45 7.9 -4.4 6.2 L-4.0 -6.5 Q-3.95 -8.25 -2.95 -9.35 -1.9 -10.55 -0.2 -10.5 1.45 -10.45 2.5 -9.15 3.4 -8.0 3.4 -6.2" fill="#f5b87a" fill-rule="evenodd" stroke="none"/>
    </g>
    <g id="shape2" transform="matrix(1.0, 0.0, 0.0, 1.0, 5.45, 11.3)">
      <path d="M3.15 -9.1 Q4.35 -7.85 4.3 -6.1 L3.95 6.55 Q3.85 8.3 2.9 9.4 1.8 10.6 0.1 10.55 -1.55 10.5 -2.55 9.25 -3.5 8.05 -3.45 6.25 L-4.55 -6.35 Q-4.5 -8.05 -3.0 -9.25 -1.55 -10.5 0.25 -10.4 1.95 -10.35 3.15 -9.1 Z" fill="none" stroke="#000000" stroke-linecap="round" stroke-linejoin="round" stroke-width="1.8"/>
    </g>
    <g id="sprite2" transform="matrix(1.0, 0.0, 0.0, 1.0, 6.4, 12.1)">
      <use height="19.35" transform="matrix(0.9431, 0.0, 0.0, 0.9431, -5.4484, -8.7009)" width="10.55" xlink:href="#sprite3"/>
      <use height="20.0" transform="matrix(1.0, 0.0, 0.0, 1.0, -6.4, -9.6)" width="11.7" xlink:href="#shape4"/>
      <use height="11.15" transform="matrix(0.9431, 0.0, 0.0, 0.9431, -3.8956, -11.2285)" width="10.7" xlink:href="#sprite4"/>
      <use height="12.3" transform="matrix(1.0, 0.0, 0.0, 1.0, -4.8, -12.1)" width="11.9" xlink:href="#shape6"/>
    </g>
    <g id="sprite3" transform="matrix(1.0, 0.0, 0.0, 1.0, 5.3, 9.65)">
      <use height="19.35" transform="matrix(1.0, 0.0, 0.0, 1.0, -5.3, -9.65)" width="10.55" xlink:href="#shape3"/>
    </g>
    <g id="shape3" transform="matrix(1.0, 0.0, 0.0, 1.0, 5.3, 9.65)">
      <path d="M1.65 -9.15 Q2.7 -9.9 3.75 -9.55 4.8 -9.25 5.15 -8.0 5.55 -6.75 4.0 0.3 L2.4 6.65 Q1.9 8.55 0.55 9.25 L-2.55 9.45 Q-4.2 8.9 -4.95 7.4 -5.65 6.0 -4.9 4.25 L-2.4 -1.8 Q0.55 -8.35 1.65 -9.15" fill="#f5b87a" fill-rule="evenodd" stroke="none"/>
    </g>
    <g id="shape4" transform="matrix(1.0, 0.0, 0.0, 1.0, 6.4, 9.6)">
      <path d="M1.05 -8.2 Q0.05 -7.45 -2.75 -1.25 L-5.15 4.4 Q-5.85 6.1 -5.2 7.4 -4.45 8.8 -2.9 9.3 L0.0 9.1 Q1.25 8.45 1.75 6.7 L3.25 0.7 Q4.7 -5.95 4.35 -7.15 4.0 -8.3 3.0 -8.55 2.05 -8.95 1.05 -8.2 Z" fill="none" stroke="#000000" stroke-linecap="round" stroke-linejoin="round" stroke-width="1.8"/>
    </g>
    <g id="sprite4" transform="matrix(1.0, 0.0, 0.0, 1.0, 5.35, 5.65)">
      <use height="11.15" transform="matrix(1.0, 0.0, 0.0, 1.0, -5.35, -5.65)" width="10.7" xlink:href="#shape5"/>
    </g>
    <g id="shape5" transform="matrix(1.0, 0.0, 0.0, 1.0, 5.35, 5.65)">
      <path d="M5.35 -3.75 Q5.45 1.85 4.95 5.5 L-5.35 1.85 -0.15 -5.55 Q3.0 -6.1 5.35 -3.75" fill="#ffffff" fill-rule="evenodd" stroke="none"/>
    </g>
    <g id="shape6" transform="matrix(1.0, 0.0, 0.0, 1.0, 4.8, 12.1)">
      <path d="M1.0 -11.1 L-3.9 -4.15 5.8 -0.7 Q6.25 -4.2 6.2 -9.45 4.05 -11.6 1.0 -11.1 Z" fill="none" stroke="#000000" stroke-linecap="round" stroke-linejoin="round" stroke-width="1.8"/>
    </g>
    <g id="sprite5" transform="matrix(1.0, 0.0, 0.0, 1.0, 13.5, 16.15)">
      <use height="21.6" transform="matrix(1.0, 0.0, 0.0, 1.0, -12.1, -15.25)" width="25.0" xlink:href="#sprite6"/>
      <use height="10.2" transform="matrix(1.0, 0.0, 0.0, 1.0, -12.6, 5.1)" width="26.05" xlink:href="#sprite7"/>
      <use height="32.3" transform="matrix(1.0, 0.0, 0.0, 1.0, -13.5, -16.15)" width="27.85" xlink:href="#shape10"/>
    </g>
    <g id="sprite6" transform="matrix(1.0, 0.0, 0.0, 1.0, 12.5, 10.8)">
      <use height="21.6" transform="matrix(1.0, 0.0, 0.0, 1.0, -12.5, -10.8)" width="25.0" xlink:href="#shape7"/>
    </g>
    <g id="shape7" transform="matrix(1.0, 0.0, 0.0, 1.0, 12.5, 10.8)">
      <path d="M-9.6 -5.3 L-7.45 -10.8 7.25 -10.8 Q11.65 -1.55 12.5 9.55 0.0 12.05 -12.5 9.55 -12.35 6.55 -11.85 3.6 -11.1 -0.95 -9.6 -5.3" fill="#f5b87a" fill-rule="evenodd" stroke="none"/>
    </g>
    <g id="sprite7" transform="matrix(1.0, 0.0, 0.0, 1.0, 13.0, 5.05)">
      <use height="10.05" transform="matrix(1.0, 0.0, 0.0, 1.0, -13.0, -5.05)" width="26.05" xlink:href="#sprite8"/>
      <use height="9.3" transform="matrix(1.0, 0.0, 0.0, 1.0, -10.9, -4.15)" width="21.5" xlink:href="#shape9"/>
    </g>
    <g id="sprite8" transform="matrix(1.0, 0.0, 0.0, 1.0, 13.0, 5.05)">
      <use height="10.05" transform="matrix(1.0, 0.0, 0.0, 1.0, -13.0, -5.05)" width="26.05" xlink:href="#shape8"/>
    </g>
    <g id="shape8" transform="matrix(1.0, 0.0, 0.0, 1.0, 13.0, 5.05)">
      <path d="M7.0 -0.55 L6.65 0.45 5.9 3.8 5.55 3.95 2.0 5.0 1.45 2.6 1.05 1.25 Q0.3 -0.4 -0.65 -0.4 -1.6 -0.4 -2.25 1.25 L-2.6 2.25 -3.15 4.75 -5.5 3.95 -6.3 3.6 -6.95 0.8 -7.35 -0.55 Q-8.1 -2.2 -9.05 -2.2 -10.0 -2.2 -10.65 -0.55 L-10.9 0.15 Q-12.05 -1.2 -13.0 -3.0 L-12.5 -5.05 -6.7 -4.15 -6.25 -2.1 -5.9 -1.1 Q-5.25 0.55 -4.3 0.55 -3.35 0.55 -2.6 -1.1 L-2.2 -2.45 -1.9 -3.85 1.0 -3.8 1.4 -2.1 1.75 -1.1 Q2.4 0.55 3.35 0.55 4.3 0.55 5.05 -1.1 L5.45 -2.45 5.85 -4.05 12.5 -5.05 13.05 -3.0 Q11.95 -1.0 10.6 0.5 L10.3 -0.55 Q9.55 -2.2 8.6 -2.2 7.65 -2.2 7.0 -0.55" fill="#e5d73c" fill-rule="evenodd" stroke="none"/>
    </g>
    <g id="shape9" transform="matrix(1.0, 0.0, 0.0, 1.0, 10.9, 4.15)">
      <path d="M7.0 -0.55 Q7.65 -2.2 8.6 -2.2 9.55 -2.2 10.3 -0.55 L10.6 0.5 Q8.55 2.75 5.9 3.8 L6.65 0.45 7.0 -0.55 M5.05 -1.1 Q4.3 0.55 3.35 0.55 2.4 0.55 1.75 -1.1 L1.4 -2.1 1.0 -3.8 5.85 -4.05 5.45 -2.45 5.05 -1.1 M1.05 1.25 L1.45 2.6 2.0 5.0 -3.15 4.75 -2.6 2.25 -2.25 1.25 Q-1.6 -0.4 -0.65 -0.4 0.3 -0.4 1.05 1.25 M-7.35 -0.55 L-6.95 0.8 -6.3 3.6 Q-8.9 2.45 -10.9 0.15 L-10.65 -0.55 Q-10.0 -2.2 -9.05 -2.2 -8.1 -2.2 -7.35 -0.55 M-2.2 -2.45 L-2.6 -1.1 Q-3.35 0.55 -4.3 0.55 -5.25 0.55 -5.9 -1.1 L-6.25 -2.1 -6.7 -4.15 -1.9 -3.85 -2.2 -2.45" fill="#000000" fill-rule="evenodd" stroke="none"/>
    </g>
    <g id="shape10" transform="matrix(1.0, 0.0, 0.0, 1.0, 13.5, 16.15)">
      <path d="M-7.05 -15.25 L7.65 -15.25 Q12.05 -6.0 12.9 5.1 L13.45 7.15 Q10.6 12.4 5.95 14.1 0.4 16.45 -5.1 14.1 -9.8 12.4 -12.6 7.15 L-12.1 5.1 Q-11.95 2.1 -11.45 -0.85 -10.7 -5.4 -9.2 -9.75 L-7.05 -15.25 M12.9 5.1 Q0.4 7.6 -12.1 5.1" fill="none" stroke="#000000" stroke-linecap="round" stroke-linejoin="round" stroke-width="1.8"/>
    </g>
    <g id="sprite9" transform="matrix(1.0, 0.0, 0.0, 1.0, 15.9, 12.15)">
      <use height="22.45" transform="matrix(1.0, 0.0, 0.0, 1.0, -15.0, -11.25)" width="30.0" xlink:href="#sprite10"/>
      <use height="24.25" transform="matrix(1.0, 0.0, 0.0, 1.0, -15.9, -12.15)" width="31.8" xlink:href="#shape12"/>
    </g>
    <g id="sprite10" transform="matrix(1.0, 0.0, 0.0, 1.0, 15.0, 11.25)">
      <use height="22.45" transform="matrix(1.0, 0.0, 0.0, 1.0, -15.0, -11.25)" width="30.0" xlink:href="#shape11"/>
    </g>
    <g id="shape11" transform="matrix(1.0, 0.0, 0.0, 1.0, 15.0, 11.25)">
      <path d="M9.55 -11.25 L10.25 -9.8 11.75 -4.9 12.3 -2.8 13.4 2.3 Q13.85 4.75 15.0 7.7 9.1 11.25 -0.55 11.2 -10.2 11.1 -15.0 9.35 -14.95 4.75 -14.45 2.3 L-13.4 -2.8 -12.85 -4.95 -11.3 -9.8 -10.6 -11.25 9.55 -11.25" fill="#ffffff" fill-rule="evenodd" stroke="none"/>
    </g>
    <g id="shape12" transform="matrix(1.0, 0.0, 0.0, 1.0, 15.9, 12.15)">
      <path d="M11.75 -4.9 L12.3 -2.8 13.4 2.3 Q13.85 4.75 15.0 7.7 9.1 11.25 -0.55 11.2 -10.2 11.1 -15.0 9.35 -14.95 4.75 -14.45 2.3 L-13.4 -2.8 -12.85 -4.95 -11.3 -9.8 -10.6 -11.25 9.55 -11.25 10.25 -9.8 11.75 -4.9 6.55 2.15 -12.85 -4.95" fill="none" stroke="#000000" stroke-linecap="round" stroke-linejoin="round" stroke-width="1.8"/>
    </g>
    <g id="sprite11" transform="matrix(1.0, 0.0, 0.0, 1.0, 27.65, 26.75)">
      <use height="54.0" transform="matrix(1.0542, 0.0, 0.0, 1.0, -26.7498, -25.85)" width="53.5" xlink:href="#sprite12"/>
      <use height="55.8" transform="matrix(1.0, 0.0, 0.0, 1.0, -27.65, -26.75)" width="58.2" xlink:href="#shape14"/>
    </g>
    <g id="sprite12" transform="matrix(1.0, 0.0, 0.0, 1.0, 26.75, 27.0)">
      <use height="54.0" transform="matrix(1.0, 0.0, 0.0, 1.0, -26.75, -27.0)" width="53.5" xlink:href="#sprite13"/>
    </g>
    <g id="sprite13" transform="matrix(1.0, 0.0, 0.0, 1.0, 26.75, 27.0)">
      <use height="54.0" transform="matrix(1.0, 0.0, 0.0, 1.0, -26.75, -27.0)" width="53.5" xlink:href="#shape13"/>
    </g>
    <g id="shape13" transform="matrix(1.0, 0.0, 0.0, 1.0, 26.75, 27.0)">
      <path d="M26.75 -0.25 Q26.7 10.8 18.7 17.95 10.7 25.05 5.0 26.0 L-5.15 27.0 -13.9 26.5 Q-19.75 25.7 -22.5 22.7 -25.3 19.65 -25.2 15.9 L-24.9 9.8 Q-26.8 5.15 -26.75 -0.25 -26.8 -11.35 -18.95 -19.2 -11.1 -27.05 0.0 -27.0 11.05 -27.05 18.85 -19.2 26.7 -11.35 26.75 -0.25" fill="#f5b87a" fill-rule="evenodd" stroke="none"/>
    </g>
    <g id="shape14" transform="matrix(1.0, 0.0, 0.0, 1.0, 27.65, 26.75)">
      <path d="M21.35 -18.05 Q29.6 -10.2 29.65 0.9 29.6 11.95 21.2 19.1 12.75 26.2 6.7 27.15 L-4.0 28.15 -13.2 27.65 Q-19.4 26.85 -22.3 23.85 -25.2 20.8 -25.15 17.05 L-24.8 10.95 Q-26.8 6.3 -26.75 0.9 -26.8 -10.2 -18.55 -18.05 -10.25 -25.9 1.45 -25.85 13.1 -25.9 21.35 -18.05 Z" fill="none" stroke="#000000" stroke-linecap="round" stroke-linejoin="round" stroke-width="1.8"/>
    </g>
    <g id="sprite14" transform="matrix(1.0, 0.0, 0.0, 1.0, 10.65, 7.65)">
      <use height="13.55" transform="matrix(1.0, 0.0, 0.0, 1.0, -9.75, -6.75)" width="5.75" xlink:href="#sprite15"/>
      <use height="15.35" transform="matrix(1.0, 0.0, 0.0, 1.0, -10.65, -7.65)" width="25.6" xlink:href="#shape17"/>
    </g>
    <g id="sprite15" transform="matrix(1.0, 0.0, 0.0, 1.0, 2.85, 6.75)">
      <use height="13.55" transform="matrix(1.0, 0.0, 0.0, 1.0, -2.85, -6.75)" width="5.75" xlink:href="#sprite16"/>
      <use height="13.55" transform="matrix(1.0, 0.0, 0.0, 1.0, -2.85, -6.75)" width="5.75" xlink:href="#shape16"/>
    </g>
    <g id="sprite16" transform="matrix(1.0, 0.0, 0.0, 1.0, 2.85, 6.75)">
      <use height="13.55" transform="matrix(1.0, 0.0, 0.0, 1.0, -2.85, -6.75)" width="5.75" xlink:href="#shape15"/>
    </g>
    <g id="shape15" transform="matrix(1.0, 0.0, 0.0, 1.0, 2.85, 6.75)">
      <path d="M2.35 -4.5 L2.45 -4.35 Q3.35 -2.25 2.35 2.55 1.25 9.2 -1.4 5.5 -3.65 -0.05 -2.4 -5.6 0.25 -8.4 2.35 -4.5" fill="#00afcc" fill-rule="evenodd" stroke="none"/>
    </g>
    <g id="shape16" transform="matrix(1.0, 0.0, 0.0, 1.0, 2.85, 6.75)">
      <path d="M2.35 -4.5 L2.45 -4.35 Q3.35 -2.25 2.35 2.55 1.25 9.2 -1.4 5.5 -3.65 -0.05 -2.4 -5.6 0.25 -8.4 2.35 -4.5 M0.6 -0.1 Q0.15 -0.15 -0.2 -0.55 0.8 1.7 -0.35 4.05 L0.75 4.05 Q1.55 2.45 1.4 -0.55 1.05 -0.15 0.6 -0.1 M1.25 -1.4 L1.55 -2.5 1.25 -3.55 Q0.9 -4.0 0.45 -4.0 -0.05 -4.0 -0.35 -3.55 L-0.7 -2.5 Q-0.7 -1.85 -0.35 -1.4 -0.05 -0.95 0.45 -0.95 0.9 -0.95 1.25 -1.4" fill="#000000" fill-opacity="0.49803922" fill-rule="evenodd" stroke="none"/>
    </g>
    <g id="shape17" transform="matrix(1.0, 0.0, 0.0, 1.0, 10.65, 7.65)">
      <path d="M-9.3 -5.6 Q-10.55 -0.05 -8.3 5.5 -5.65 9.2 -4.55 2.55 -3.55 -2.25 -4.45 -4.35 L-4.55 -4.5 Q-6.65 -8.4 -9.3 -5.6 M14.05 -4.35 L-4.45 -4.35" fill="none" stroke="#000000" stroke-linecap="round" stroke-linejoin="round" stroke-width="1.8"/>
    </g>
    <g id="sprite17" transform="matrix(1.0, 0.0, 0.0, 1.0, 21.75, 28.3)">
      <use height="54.8" transform="matrix(1.0, 0.0, 0.0, 1.0, -21.2, -27.55)" width="48.9" xlink:href="#sprite18"/>
      <use height="56.3" transform="matrix(1.0, 0.0, 0.0, 1.0, -21.75, -28.3)" width="50.4" xlink:href="#shape19"/>
    </g>
    <g id="sprite18" transform="matrix(1.0, 0.0, 0.0, 1.0, 23.4, 27.4)">
      <use height="54.8" transform="matrix(1.0, 0.0, 0.0, 1.0, -23.4, -27.4)" width="48.9" xlink:href="#shape18"/>
    </g>
    <g id="shape18" transform="matrix(1.0, 0.0, 0.0, 1.0, 23.4, 27.4)">
      <path d="M25.5 -0.45 Q25.85 11.05 16.65 19.25 7.4 27.4 -3.95 27.4 L-19.7 26.3 -19.7 15.7 -19.0 15.7 Q-15.75 16.6 -13.2 14.85 -6.85 10.45 -6.25 4.4 L-6.25 4.35 -6.2 2.65 Q-6.2 -6.8 -13.2 -13.45 -17.7 -17.75 -23.4 -19.25 L-23.35 -19.4 Q-15.3 -27.4 -3.95 -27.4 7.4 -27.4 16.3 -19.65 25.15 -11.95 25.5 -0.45" fill="#000000" fill-rule="evenodd" stroke="none"/>
    </g>
    <g id="shape19" transform="matrix(1.0, 0.0, 0.0, 1.0, 21.75, 28.3)">
      <path d="M-16.8 15.55 Q-13.55 16.45 -11.0 14.7 -4.65 10.3 -4.05 4.25 L-4.05 4.2 -4.0 2.5 Q-4.0 -6.95 -11.0 -13.6 -15.5 -17.9 -21.0 -19.05 -13.1 -27.55 -1.75 -27.55 9.6 -27.55 18.75 -19.45 27.85 -11.35 27.9 0.15 27.95 11.65 18.8 19.45 9.6 27.25 -1.75 27.25 L-17.5 26.15 -17.5 15.55" fill="none" stroke="#000000" stroke-linecap="round" stroke-linejoin="round" stroke-width="1.5"/>
    </g>
    <g id="sprite19" transform="matrix(1.0, 0.0, 0.0, 1.0, -2.25, 7.75)">
      <use height="17.45" transform="matrix(1.0, 0.0, 0.0, 1.0, 2.25, -7.75)" width="10.1" xlink:href="#shape20"/>
    </g>
    <g id="shape20" transform="matrix(1.0, 0.0, 0.0, 1.0, -2.25, 7.75)">
      <path d="M3.75 8.85 L3.8 8.75 Q5.75 6.7 5.75 3.8 5.75 0.9 3.8 -1.2 L3.0 -1.9 7.4 -7.0 Q10.0 -5.15 11.5 -1.5 12.6 7.15 3.85 8.95 L3.75 8.85" fill="#000000" fill-rule="evenodd" stroke="none"/>
      <path d="M3.75 8.85 L3.8 8.75 Q5.75 6.7 5.75 3.8 5.75 0.9 3.8 -1.2 L3.0 -1.9 7.4 -7.0 Q10.0 -5.15 11.5 -1.5 12.6 7.15 3.85 8.95" fill="none" stroke="#000000" stroke-linecap="round" stroke-linejoin="round" stroke-width="1.5"/>
    </g>
  </defs>
</svg>
