<?xml version="1.0" encoding="UTF-8" standalone="no"?>
<svg xmlns:xlink="http://www.w3.org/1999/xlink" height="106.85px" width="84.2px" xmlns="http://www.w3.org/2000/svg">
  <g transform="matrix(1.0, 0.0, 0.0, 1.0, 42.35, 101.45)">
    <use height="14.8" transform="matrix(1.0442, 0.0, 0.0, 1.0439, -19.3889, -10.0429)" width="37.3" xlink:href="#shape0"/>
    <use height="22.4" transform="matrix(1.0006, 0.0, 0.0, 1.0, -15.5539, -22.55)" width="12.95" xlink:href="#sprite0"/>
    <use height="22.4" transform="matrix(-1.0006, 0.0, 0.0, 1.0, 14.0039, -22.6)" width="12.95" xlink:href="#sprite0"/>
    <use height="32.65" transform="matrix(1.0006, 0.0, 0.0, 1.0, -15.409, -38.15)" width="29.5" xlink:href="#sprite2"/>
    <use height="17.25" transform="matrix(1.0006, 0.0, 0.0, 1.0, -9.6554, -43.6)" width="18.75" xlink:href="#sprite7"/>
    <use height="25.4" transform="matrix(-0.1091, -0.9933, 0.9939, -0.1092, -22.7795, -31.0299)" width="34.7" xlink:href="#sprite8"/>
    <use height="25.4" transform="matrix(0.1091, -0.9933, -0.9939, -0.1092, 21.0795, -30.9799)" width="34.7" xlink:href="#sprite8"/>
    <use height="25.4" transform="matrix(-0.0264, -0.9989, 0.9995, -0.0264, -33.5857, -35.1829)" width="34.7" xlink:href="#sprite8"/>
    <use height="25.4" transform="matrix(0.04, -0.9985, -0.9991, -0.04, 31.6949, -35.0686)" width="34.7" xlink:href="#sprite8"/>
    <use height="43.4" transform="matrix(1.0006, 0.0, 0.0, 1.0, -24.9648, -73.65)" width="48.6" xlink:href="#sprite10"/>
    <use height="17.5" transform="matrix(1.0006, 0.0, 0.0, 1.0, -25.0146, -73.75)" width="47.9" xlink:href="#sprite12"/>
    <use height="8.3" transform="matrix(1.0, 0.0, 0.0, 1.0, 2.3, -51.15)" width="14.15" xlink:href="#morphshape0"/>
    <use height="13.2" transform="matrix(1.0, 0.0, 0.0, 1.0, 1.95, -58.35)" width="15.1" xlink:href="#morphshape1"/>
    <use height="25.4" transform="matrix(-0.9966, 0.0829, 0.0829, 0.996, 30.1881, -99.0378)" width="34.7" xlink:href="#sprite8"/>
    <use height="25.4" transform="matrix(0.9965, 0.0834, -0.0834, 0.996, -29.8805, -98.6462)" width="34.7" xlink:href="#sprite8"/>
    <use height="17.2" transform="matrix(0.9948, 0.1009, -0.1008, 0.9943, -39.3727, -85.954)" width="42.7" xlink:href="#sprite14"/>
    <use height="17.2" transform="matrix(-0.998, 0.0655, 0.0655, 0.9974, 39.8452, -85.4765)" width="42.7" xlink:href="#sprite14"/>
    <use height="29.4" transform="matrix(0.9988, 0.053, -0.053, 0.9982, -34.7998, -80.5517)" width="36.95" xlink:href="#sprite16"/>
    <use height="29.4" transform="matrix(-0.9988, 0.0529, 0.0529, 0.9982, 34.5007, -80.1006)" width="36.95" xlink:href="#sprite16"/>
    <use height="10.0" transform="matrix(1.0006, 0.0, 0.0, 1.0, -14.0082, -41.55)" width="27.0" xlink:href="#shape19"/>
    <use height="13.6" transform="matrix(1.0, 0.0, 0.0, 1.0, -18.7, -58.45)" width="14.9" xlink:href="#morphshape2"/>
    <use height="8.3" transform="matrix(1.0, 0.0, 0.0, 1.0, -18.15, -51.15)" width="14.15" xlink:href="#morphshape3"/>
    <use height="2.5" transform="matrix(1.0006, 0.0, 0.0, 1.0, 2.5001, -44.2)" width="2.5" xlink:href="#shape20"/>
    <use height="20.65" transform="matrix(0.7347, -0.67, 0.6701, 0.7346, -20.206, -25.8187)" width="13.2" xlink:href="#sprite18"/>
    <use height="20.65" transform="matrix(-0.7949, -0.6009, -0.6009, 0.7947, 18.8534, -26.4822)" width="13.2" xlink:href="#sprite18"/>
  </g>
  <defs>
    <g id="shape0" transform="matrix(1.0, 0.0, 0.0, 1.0, -31.9, -81.0)">
      <path d="M31.9 88.4 Q31.9 85.35 37.4 83.2 42.85 81.0 50.55 81.0 58.3 81.0 63.75 83.2 69.2 85.35 69.2 88.4 69.2 91.45 63.75 93.65 58.3 95.8 50.55 95.8 42.85 95.8 37.4 93.65 31.9 91.45 31.9 88.4 M50.7 83.65 Q46.1 83.65 42.85 84.9 39.65 86.2 39.65 87.95 39.65 89.7 42.85 91.0 46.1 92.3 50.7 92.3 55.3 92.3 58.55 91.0 61.8 89.7 61.8 87.95 61.8 86.2 58.55 84.9 55.3 83.65 50.7 83.65" fill="#000000" fill-opacity="0.2" fill-rule="evenodd" stroke="none"/>
      <path d="M50.7 83.65 Q55.3 83.65 58.55 84.9 61.8 86.2 61.8 87.95 61.8 89.7 58.55 91.0 55.3 92.3 50.7 92.3 46.1 92.3 42.85 91.0 39.65 89.7 39.65 87.95 39.65 86.2 42.85 84.9 46.1 83.65 50.7 83.65" fill="#000000" fill-opacity="0.4" fill-rule="evenodd" stroke="none"/>
    </g>
    <g id="sprite0" transform="matrix(1.0, 0.0, 0.0, 1.0, 6.45, 11.2)">
      <use height="20.6" transform="matrix(1.0, 0.0, 0.0, 1.0, -5.55, -10.3)" width="11.15" xlink:href="#sprite1"/>
      <use height="22.4" transform="matrix(1.0, 0.0, 0.0, 1.0, -6.45, -11.2)" width="12.95" xlink:href="#shape2"/>
    </g>
    <g id="sprite1" transform="matrix(1.0, 0.0, 0.0, 1.0, 5.55, 10.3)">
      <use height="20.6" transform="matrix(1.0, 0.0, 0.0, 1.0, -5.55, -10.3)" width="11.15" xlink:href="#shape1"/>
    </g>
    <g id="shape1" transform="matrix(1.0, 0.0, 0.0, 1.0, 5.55, 10.3)">
      <path d="M5.4 -5.05 L3.15 7.4 Q2.65 9.0 0.9 9.85 -0.85 10.65 -2.5 10.1 -4.2 9.6 -5.0 8.1 -5.85 6.55 -5.35 4.9 L-1.7 -7.25 Q-1.2 -8.9 0.05 -9.7 1.4 -10.6 3.05 -10.1 4.6 -9.65 5.25 -8.15 5.85 -6.75 5.4 -5.05" fill="#b88a5c" fill-rule="evenodd" stroke="none"/>
    </g>
    <g id="shape2" transform="matrix(1.0, 0.0, 0.0, 1.0, 6.45, 11.2)">
      <path d="M3.05 -10.1 Q4.6 -9.65 5.25 -8.15 5.85 -6.75 5.4 -5.05 L3.15 7.4 Q2.65 9.0 0.9 9.85 -0.85 10.65 -2.5 10.1 -4.2 9.6 -5.0 8.1 -5.85 6.55 -5.35 4.9 L-1.7 -7.25 Q-1.2 -8.9 0.05 -9.7 1.4 -10.6 3.05 -10.1" fill="#b88a5c" fill-rule="evenodd" stroke="none"/>
      <path d="M3.05 -10.1 Q4.6 -9.65 5.25 -8.15 5.85 -6.75 5.4 -5.05 L3.15 7.4 Q2.65 9.0 0.9 9.85 -0.85 10.65 -2.5 10.1 -4.2 9.6 -5.0 8.1 -5.85 6.55 -5.35 4.9 L-1.7 -7.25 Q-1.2 -8.9 0.05 -9.7 1.4 -10.6 3.05 -10.1 Z" fill="none" stroke="#000000" stroke-linecap="round" stroke-linejoin="round" stroke-width="1.8"/>
    </g>
    <g id="sprite2" transform="matrix(1.0, 0.0, 0.0, 1.0, 14.75, 16.3)">
      <use height="11.45" transform="matrix(1.0, 0.0, 0.0, 1.0, -13.85, 4.0)" width="27.7" xlink:href="#sprite3"/>
      <use height="11.25" transform="matrix(1.0, 0.0, 0.0, 1.0, -12.8, 3.65)" width="25.6" xlink:href="#sprite4"/>
      <use height="8.4" transform="matrix(1.0, 0.0, 0.0, 1.0, -11.6, 5.4)" width="23.15" xlink:href="#sprite5"/>
      <use height="32.65" transform="matrix(1.0, 0.0, 0.0, 1.0, -14.75, -16.3)" width="29.5" xlink:href="#shape6"/>
      <use height="2.5" transform="matrix(1.0, 0.0, 0.0, 1.0, -6.15, -5.55)" width="2.5" xlink:href="#sprite6"/>
      <use height="2.5" transform="matrix(1.0, 0.0, 0.0, 1.0, 3.3, -5.45)" width="2.5" xlink:href="#sprite6"/>
    </g>
    <g id="sprite3" transform="matrix(1.0, 0.0, 0.0, 1.0, 13.85, 5.7)">
      <use height="11.45" transform="matrix(1.0, 0.0, 0.0, 1.0, -13.85, -5.7)" width="27.7" xlink:href="#shape3"/>
    </g>
    <g id="shape3" transform="matrix(1.0, 0.0, 0.0, 1.0, 13.85, 5.7)">
      <path d="M4.0 -3.9 L3.95 -3.85 3.75 -4.2 2.85 -4.5 2.05 -4.2 Q1.65 -3.85 1.65 -3.3 L1.85 -2.65 1.5 -2.7 0.7 -2.4 Q0.3 -2.05 0.3 -1.5 0.3 -1.0 0.7 -0.7 1.0 -0.3 1.5 -0.3 L2.2 -0.5 1.95 0.2 2.05 0.65 2.35 1.05 Q2.65 1.4 3.15 1.4 3.7 1.4 4.05 1.05 L4.3 0.65 4.35 0.2 4.3 -0.1 4.45 0.0 Q4.75 0.35 5.25 0.35 L6.15 0.0 6.45 -0.85 6.15 -1.75 5.5 -2.05 5.7 -2.2 6.0 -3.0 5.7 -3.9 4.8 -4.2 4.0 -3.9 M-6.25 -1.8 L-6.55 -0.9 -6.25 -0.05 -5.35 0.3 Q-4.8 0.3 -4.5 -0.05 L-4.4 -0.15 -4.45 0.15 -4.35 0.65 -4.15 1.0 Q-3.75 1.35 -3.25 1.35 -2.7 1.35 -2.4 1.0 L-2.15 0.65 -2.05 0.15 -2.25 -0.55 -1.6 -0.35 Q-1.05 -0.35 -0.75 -0.75 -0.4 -1.05 -0.4 -1.55 -0.4 -2.1 -0.75 -2.45 L-1.6 -2.75 -1.9 -2.7 Q-1.75 -3.0 -1.75 -3.35 -1.75 -3.9 -2.1 -4.25 -2.4 -4.55 -2.95 -4.55 L-3.85 -4.25 -4.0 -3.9 -4.05 -3.95 Q-4.35 -4.25 -4.9 -4.25 L-5.8 -3.95 -6.1 -3.05 -5.8 -2.25 -5.6 -2.1 -6.25 -1.8 M8.85 -5.7 L8.65 -5.05 8.85 -4.4 8.5 -4.45 7.7 -4.15 Q7.3 -3.8 7.3 -3.25 7.3 -2.75 7.7 -2.45 8.0 -2.05 8.5 -2.05 L9.2 -2.25 8.95 -1.55 Q8.95 -1.0 9.35 -0.7 9.65 -0.35 10.15 -0.35 10.7 -0.35 11.05 -0.7 11.35 -1.0 11.35 -1.55 L11.3 -1.85 11.45 -1.75 Q11.75 -1.4 12.25 -1.4 L12.8 -1.5 13.85 2.45 11.6 3.7 11.3 3.05 10.65 2.75 10.85 2.6 11.15 1.8 10.85 0.9 10.45 0.65 9.95 0.6 9.5 0.65 9.15 0.9 9.1 0.95 8.95 0.65 8.9 0.6 Q8.55 0.3 8.0 0.3 7.5 0.3 7.2 0.6 L7.1 0.65 Q6.8 1.0 6.8 1.5 L7.0 2.15 6.65 2.1 Q6.15 2.1 5.85 2.4 5.45 2.75 5.45 3.3 5.45 3.8 5.85 4.1 6.15 4.5 6.65 4.5 L7.35 4.3 Q7.1 4.6 7.1 5.0 L7.1 5.15 2.55 5.75 -3.15 5.7 -7.2 5.2 -7.2 4.95 -7.4 4.25 -6.75 4.45 Q-6.2 4.45 -5.9 4.05 -5.55 3.75 -5.55 3.25 -5.55 2.7 -5.9 2.35 -6.2 2.05 -6.75 2.05 L-7.05 2.1 -6.9 1.45 Q-6.9 1.0 -7.15 0.65 L-7.25 0.55 Q-7.55 0.25 -8.1 0.25 -8.6 0.25 -9.0 0.55 L-9.05 0.65 -9.15 0.9 -9.2 0.85 -9.45 0.65 -10.05 0.55 -10.65 0.65 -10.95 0.85 -11.25 1.75 -10.95 2.55 -10.75 2.7 -11.4 3.0 -11.7 3.8 -13.85 2.65 -12.8 -1.5 -12.35 -1.45 Q-11.8 -1.45 -11.5 -1.8 L-11.4 -1.9 -11.45 -1.6 -11.15 -0.75 Q-10.75 -0.4 -10.25 -0.4 -9.7 -0.4 -9.4 -0.75 -9.05 -1.05 -9.05 -1.6 L-9.25 -2.3 -8.6 -2.1 Q-8.05 -2.1 -7.75 -2.5 -7.4 -2.8 -7.4 -3.3 -7.4 -3.85 -7.75 -4.2 -8.05 -4.5 -8.6 -4.5 L-8.9 -4.45 -8.75 -5.1 -8.9 -5.7 Q-0.05 -4.35 8.85 -5.7" fill="#e31709" fill-rule="evenodd" stroke="none"/>
    </g>
    <g id="sprite4" transform="matrix(1.0, 0.0, 0.0, 1.0, 12.8, 5.6)">
      <use height="11.25" transform="matrix(1.0, 0.0, 0.0, 1.0, -12.8, -5.6)" width="25.6" xlink:href="#shape4"/>
    </g>
    <g id="shape4" transform="matrix(1.0, 0.0, 0.0, 1.0, 12.8, 5.6)">
      <path d="M2.85 -1.65 L2.55 -1.7 2.7 -1.05 Q2.7 -0.65 2.5 -0.4 L3.15 -0.55 4.05 -0.25 4.05 -0.4 Q4.05 -0.9 4.45 -1.3 L4.55 -1.4 Q4.2 -1.45 4.0 -1.75 L3.75 -2.05 Q3.4 -1.65 2.85 -1.65 M3.95 -3.4 L4.0 -3.45 4.8 -3.75 5.7 -3.45 6.0 -2.55 5.7 -1.75 5.5 -1.6 6.15 -1.3 6.45 -0.4 6.15 0.45 5.25 0.8 Q4.75 0.8 4.45 0.45 L4.3 0.35 4.35 0.65 4.3 1.1 4.05 1.5 Q3.7 1.85 3.15 1.85 2.65 1.85 2.35 1.5 L2.05 1.1 1.95 0.65 2.2 -0.05 1.5 0.15 Q1.0 0.15 0.7 -0.25 0.3 -0.55 0.3 -1.05 0.3 -1.6 0.7 -1.95 L1.5 -2.25 1.85 -2.2 1.65 -2.85 Q1.65 -3.4 2.05 -3.75 L2.85 -4.05 3.75 -3.75 3.95 -3.4 M8.85 -5.25 L10.7 -5.55 10.75 -5.5 10.95 -5.15 11.0 -5.2 Q11.25 -5.5 11.65 -5.5 L12.8 -1.05 12.25 -0.95 Q11.75 -0.95 11.45 -1.3 L11.3 -1.4 11.35 -1.1 Q11.35 -0.55 11.05 -0.25 10.7 0.1 10.15 0.1 9.65 0.1 9.35 -0.25 8.95 -0.55 8.95 -1.1 L9.2 -1.8 8.5 -1.6 Q8.0 -1.6 7.7 -2.0 7.3 -2.3 7.3 -2.8 7.3 -3.35 7.7 -3.7 L8.5 -4.0 8.85 -3.95 8.65 -4.6 8.85 -5.25 M9.85 -3.4 L9.55 -3.45 9.7 -2.8 Q9.7 -2.4 9.5 -2.15 L10.15 -2.3 11.05 -2.0 11.05 -2.15 Q11.05 -2.65 11.45 -3.05 L11.55 -3.15 Q11.2 -3.2 11.0 -3.5 L10.75 -3.8 Q10.4 -3.4 9.85 -3.4 M10.65 3.2 L11.3 3.5 11.6 4.15 9.65 4.9 7.1 5.6 7.1 5.45 Q7.1 5.05 7.35 4.75 L6.65 4.95 Q6.15 4.95 5.85 4.55 5.45 4.25 5.45 3.75 5.45 3.2 5.85 2.85 6.15 2.55 6.65 2.55 L7.0 2.6 6.8 1.95 Q6.8 1.45 7.1 1.1 L7.2 1.05 Q7.5 0.75 8.0 0.75 8.55 0.75 8.9 1.05 L8.95 1.1 9.1 1.4 9.15 1.35 9.5 1.1 9.95 1.05 10.45 1.1 10.85 1.35 11.15 2.25 10.85 3.05 10.65 3.2 M9.15 3.05 L8.9 2.75 Q8.55 3.15 8.0 3.15 L7.7 3.1 7.85 3.75 7.65 4.4 8.3 4.25 Q8.85 4.25 9.2 4.55 L9.2 4.4 Q9.2 3.9 9.6 3.5 L9.7 3.4 9.15 3.05 M-11.05 -3.55 Q-11.3 -3.25 -11.6 -3.2 L-11.5 -3.1 Q-11.15 -2.7 -11.15 -2.2 L-11.15 -2.05 -10.25 -2.35 -9.6 -2.2 -9.8 -2.85 -9.65 -3.5 -9.95 -3.45 Q-10.45 -3.45 -10.85 -3.85 L-11.05 -3.55 M-11.0 -5.2 L-10.85 -5.55 -10.8 -5.6 -8.9 -5.25 -8.75 -4.65 -8.9 -4.0 -8.6 -4.05 Q-8.05 -4.05 -7.75 -3.75 -7.4 -3.4 -7.4 -2.85 -7.4 -2.35 -7.75 -2.05 -8.05 -1.65 -8.6 -1.65 L-9.25 -1.85 -9.05 -1.15 Q-9.05 -0.6 -9.4 -0.3 -9.7 0.05 -10.25 0.05 -10.75 0.05 -11.15 -0.3 L-11.45 -1.15 -11.4 -1.45 -11.5 -1.35 Q-11.8 -1.0 -12.35 -1.0 L-12.8 -1.05 -11.7 -5.55 Q-11.3 -5.5 -11.05 -5.25 L-11.0 -5.2 M-6.1 -2.6 L-5.8 -3.5 -4.9 -3.8 Q-4.35 -3.8 -4.05 -3.5 L-4.0 -3.45 -3.85 -3.8 -2.95 -4.1 Q-2.4 -4.1 -2.1 -3.8 -1.75 -3.45 -1.75 -2.9 -1.75 -2.55 -1.9 -2.25 L-1.6 -2.3 -0.75 -2.0 Q-0.4 -1.65 -0.4 -1.1 -0.4 -0.6 -0.75 -0.3 -1.05 0.1 -1.6 0.1 L-2.25 -0.1 -2.05 0.6 -2.15 1.1 -2.4 1.45 Q-2.7 1.8 -3.25 1.8 -3.75 1.8 -4.15 1.45 L-4.35 1.1 -4.45 0.6 -4.4 0.3 -4.5 0.4 Q-4.8 0.75 -5.35 0.75 L-6.25 0.4 -6.55 -0.45 -6.25 -1.35 -5.6 -1.65 -5.8 -1.8 -6.1 -2.6 M-2.95 -1.7 Q-3.45 -1.7 -3.85 -2.1 L-4.05 -1.8 Q-4.3 -1.5 -4.6 -1.45 L-4.5 -1.35 Q-4.15 -0.95 -4.15 -0.45 L-4.15 -0.3 -3.25 -0.6 -2.6 -0.45 -2.8 -1.1 -2.65 -1.75 -2.95 -1.7 M-5.9 2.8 Q-5.55 3.15 -5.55 3.7 -5.55 4.2 -5.9 4.5 -6.2 4.9 -6.75 4.9 L-7.4 4.7 -7.2 5.4 -7.2 5.65 -9.65 5.0 -11.7 4.25 -11.4 3.45 -10.75 3.15 -10.95 3.0 -11.25 2.2 -10.95 1.3 -10.65 1.1 -10.05 1.0 -9.45 1.1 -9.2 1.3 -9.15 1.35 -9.05 1.1 -9.0 1.0 Q-8.6 0.7 -8.1 0.7 -7.55 0.7 -7.25 1.0 L-7.15 1.1 Q-6.9 1.45 -6.9 1.9 L-7.05 2.55 -6.75 2.5 Q-6.2 2.5 -5.9 2.8 M-9.2 3.0 L-9.75 3.35 -9.65 3.45 Q-9.3 3.85 -9.3 4.35 L-9.3 4.5 Q-8.9 4.2 -8.4 4.2 L-7.75 4.35 -7.95 3.7 -7.8 3.05 -8.1 3.1 Q-8.6 3.1 -9.0 2.7 L-9.2 3.0" fill="#ffffff" fill-rule="evenodd" stroke="none"/>
    </g>
    <g id="sprite5" transform="matrix(1.0, 0.0, 0.0, 1.0, 11.6, 4.2)">
      <use height="8.4" transform="matrix(1.0, 0.0, 0.0, 1.0, -11.6, -4.2)" width="23.15" xlink:href="#shape5"/>
    </g>
    <g id="shape5" transform="matrix(1.0, 0.0, 0.0, 1.0, 11.6, 4.2)">
      <path d="M4.55 -1.75 L4.45 -1.65 Q4.05 -1.25 4.05 -0.75 L4.05 -0.6 3.15 -0.9 2.5 -0.75 Q2.7 -1.0 2.7 -1.4 L2.55 -2.05 2.85 -2.0 Q3.4 -2.0 3.75 -2.4 L4.0 -2.1 Q4.2 -1.8 4.55 -1.75 M9.7 -3.15 L9.55 -3.8 9.85 -3.75 Q10.4 -3.75 10.75 -4.15 L11.0 -3.85 Q11.2 -3.55 11.55 -3.5 L11.45 -3.4 Q11.05 -3.0 11.05 -2.5 L11.05 -2.35 10.15 -2.65 9.5 -2.5 Q9.7 -2.75 9.7 -3.15 M9.15 2.7 L9.7 3.05 9.6 3.15 Q9.2 3.55 9.2 4.05 L9.2 4.2 Q8.85 3.9 8.3 3.9 L7.65 4.05 7.85 3.4 7.7 2.75 8.0 2.8 Q8.55 2.8 8.9 2.4 L9.15 2.7 M-9.2 2.65 L-9.0 2.35 Q-8.6 2.75 -8.1 2.75 L-7.8 2.7 -7.95 3.35 -7.75 4.0 -8.4 3.85 Q-8.9 3.85 -9.3 4.15 L-9.3 4.0 Q-9.3 3.5 -9.65 3.1 L-9.75 3.0 -9.2 2.65 M-2.95 -2.05 L-2.65 -2.1 -2.8 -1.45 -2.6 -0.8 -3.25 -0.95 -4.15 -0.65 -4.15 -0.8 Q-4.15 -1.3 -4.5 -1.7 L-4.6 -1.8 Q-4.3 -1.85 -4.05 -2.15 L-3.85 -2.45 Q-3.45 -2.05 -2.95 -2.05 M-11.05 -3.9 L-10.85 -4.2 Q-10.45 -3.8 -9.95 -3.8 L-9.65 -3.85 -9.8 -3.2 -9.6 -2.55 -10.25 -2.7 -11.15 -2.4 -11.15 -2.55 Q-11.15 -3.05 -11.5 -3.45 L-11.6 -3.55 Q-11.3 -3.6 -11.05 -3.9" fill="#0099cc" fill-rule="evenodd" stroke="none"/>
    </g>
    <g id="shape6" transform="matrix(1.0, 0.0, 0.0, 1.0, 14.75, 16.3)">
      <path d="M-6.95 -15.4 L6.7 -15.4 11.6 3.5 10.7 3.7 8.85 4.0 Q-0.05 5.35 -8.9 4.0 L-10.8 3.65 -11.65 3.5 -6.95 -15.4" fill="#b88a5c" fill-rule="evenodd" stroke="none"/>
      <path d="M-6.95 -15.4 L-11.65 3.5 -10.8 3.65 -8.9 4.0 Q-0.05 5.35 8.85 4.0 L10.7 3.7 11.6 3.5 6.7 -15.4 -6.95 -15.4 M-11.65 3.5 L-13.85 12.35 -11.7 13.5 -9.65 14.25 -7.2 14.9 0.0 15.45 7.1 14.85 9.65 14.15 11.6 13.4 13.85 12.15 11.6 3.5" fill="none" stroke="#000000" stroke-linecap="round" stroke-linejoin="round" stroke-width="1.8"/>
      <path d="M-0.25 11.9 L-0.25 15.2" fill="none" stroke="#000000" stroke-linecap="round" stroke-linejoin="round" stroke-width="1.8"/>
    </g>
    <g id="sprite6" transform="matrix(1.0, 0.0, 0.0, 1.0, 1.25, 1.25)">
      <use height="2.5" transform="matrix(1.0, 0.0, 0.0, 1.0, -1.25, -1.25)" width="2.5" xlink:href="#shape7"/>
    </g>
    <g id="shape7" transform="matrix(1.0, 0.0, 0.0, 1.0, 1.25, 1.25)">
      <path d="M0.85 -0.9 Q1.25 -0.5 1.25 0.0 1.25 0.5 0.85 0.85 0.5 1.25 0.0 1.25 -0.5 1.25 -0.9 0.85 -1.25 0.5 -1.25 0.0 L-0.9 -0.9 Q-0.5 -1.25 0.0 -1.25 0.5 -1.25 0.85 -0.9" fill="#000000" fill-opacity="0.4" fill-rule="evenodd" stroke="none"/>
    </g>
    <g id="sprite7" transform="matrix(1.0, 0.0, 0.0, 1.0, 8.85, 8.45)">
      <use height="17.25" transform="matrix(1.0, 0.0, 0.0, 1.0, -8.85, -8.45)" width="18.75" xlink:href="#shape8"/>
    </g>
    <g id="shape8" transform="matrix(1.0, 0.0, 0.0, 1.0, 8.85, 8.45)">
      <path d="M3.0 -7.25 Q5.1 -6.7 6.8 -5.1 8.7 -3.25 9.1 -0.8 L9.15 -0.4 9.15 0.35 Q9.15 1.9 8.6 3.3 8.0 4.65 6.8 5.8 4.4 8.05 1.05 8.05 L-1.05 7.8 -1.9 7.5 Q-4.05 7.05 -5.75 5.45 -7.65 3.6 -8.0 1.15 L-8.1 0.0 Q-8.1 -3.2 -5.75 -5.45 -3.35 -7.7 0.05 -7.7 L2.15 -7.45 3.0 -7.25 Z" fill="none" stroke="#ffffff" stroke-linecap="round" stroke-linejoin="round" stroke-width="1.5"/>
    </g>
    <g id="sprite8" transform="matrix(1.0, 0.0, 0.0, 1.0, 17.35, 12.7)">
      <use height="23.6" transform="matrix(1.0, 0.0, 0.0, 1.0, -16.45, -11.8)" width="32.9" xlink:href="#sprite9"/>
      <use height="25.4" transform="matrix(1.0, 0.0, 0.0, 1.0, -17.35, -12.7)" width="34.7" xlink:href="#shape10"/>
    </g>
    <g id="sprite9" transform="matrix(1.0, 0.0, 0.0, 1.0, 16.45, 11.8)">
      <use height="23.6" transform="matrix(1.0, 0.0, 0.0, 1.0, -16.45, -11.8)" width="32.9" xlink:href="#shape9"/>
    </g>
    <g id="shape9" transform="matrix(1.0, 0.0, 0.0, 1.0, 16.45, 11.8)">
      <path d="M-16.45 -6.2 Q-16.45 -8.55 -14.85 -10.15 -13.25 -11.75 -10.9 -11.75 L-10.0 -11.75 Q4.85 -9.1 16.25 7.85 L16.45 9.05 Q16.45 10.2 15.65 11.0 14.85 11.8 13.7 11.8 L12.55 11.6 12.1 11.35 Q2.4 2.15 -12.2 -1.1 -13.95 -1.3 -14.85 -2.2 -16.45 -3.85 -16.45 -6.2" fill="#ff9900" fill-rule="evenodd" stroke="none"/>
    </g>
    <g id="shape10" transform="matrix(1.0, 0.0, 0.0, 1.0, 17.35, 12.7)">
      <path d="M-14.85 -2.2 Q-16.45 -3.85 -16.45 -6.2 -16.45 -8.55 -14.85 -10.15 -13.25 -11.75 -10.9 -11.75 L-10.0 -11.75 Q4.85 -9.1 16.25 7.85 L16.45 9.05 Q16.45 10.2 15.65 11.0 14.85 11.8 13.7 11.8 L12.55 11.6 12.1 11.35 Q2.4 2.15 -12.2 -1.1 -13.95 -1.3 -14.85 -2.2" fill="#3d250c" fill-rule="evenodd" stroke="none"/>
      <path d="M-14.85 -2.2 Q-16.45 -3.85 -16.45 -6.2 -16.45 -8.55 -14.85 -10.15 -13.25 -11.75 -10.9 -11.75 L-10.0 -11.75 Q4.85 -9.1 16.25 7.85 L16.45 9.05 Q16.45 10.2 15.65 11.0 14.85 11.8 13.7 11.8 L12.55 11.6 12.1 11.35 Q2.4 2.15 -12.2 -1.1 -13.95 -1.3 -14.85 -2.2 Z" fill="none" stroke="#000000" stroke-linecap="round" stroke-linejoin="round" stroke-width="1.8"/>
    </g>
    <g id="sprite10" transform="matrix(1.0, 0.0, 0.0, 1.0, 24.3, 21.7)">
      <use height="41.6" transform="matrix(1.0, 0.0, 0.0, 1.0, -23.4, -20.8)" width="46.8" xlink:href="#sprite11"/>
      <use height="43.4" transform="matrix(1.0, 0.0, 0.0, 1.0, -24.3, -21.7)" width="48.6" xlink:href="#shape12"/>
    </g>
    <g id="sprite11" transform="matrix(1.0, 0.0, 0.0, 1.0, 23.4, 20.8)">
      <use height="41.6" transform="matrix(1.0, 0.0, 0.0, 1.0, -23.4, -20.8)" width="46.8" xlink:href="#shape11"/>
    </g>
    <g id="shape11" transform="matrix(1.0, 0.0, 0.0, 1.0, 23.4, 20.8)">
      <path d="M16.55 -14.7 Q23.4 -8.6 23.4 0.0 23.4 8.6 16.55 14.7 9.7 20.8 0.0 20.8 -9.7 20.8 -16.55 14.7 -23.4 8.6 -23.4 0.0 -23.4 -8.6 -16.55 -14.7 -9.7 -20.8 0.0 -20.8 9.7 -20.8 16.55 -14.7" fill="#ecb57f" fill-rule="evenodd" stroke="none"/>
    </g>
    <g id="shape12" transform="matrix(1.0, 0.0, 0.0, 1.0, 24.3, 21.7)">
      <path d="M16.55 -14.7 Q23.4 -8.6 23.4 0.0 23.4 8.6 16.55 14.7 9.7 20.8 0.0 20.8 -9.7 20.8 -16.55 14.7 -23.4 8.6 -23.4 0.0 -23.4 -8.6 -16.55 -14.7 -9.7 -20.8 0.0 -20.8 9.7 -20.8 16.55 -14.7" fill="#b88a5c" fill-rule="evenodd" stroke="none"/>
      <path d="M16.55 -14.7 Q23.4 -8.6 23.4 0.0 23.4 8.6 16.55 14.7 9.7 20.8 0.0 20.8 -9.7 20.8 -16.55 14.7 -23.4 8.6 -23.4 0.0 -23.4 -8.6 -16.55 -14.7 -9.7 -20.8 0.0 -20.8 9.7 -20.8 16.55 -14.7 Z" fill="none" stroke="#000000" stroke-linecap="round" stroke-linejoin="round" stroke-width="1.8"/>
    </g>
    <g id="sprite12" transform="matrix(1.0, 0.0, 0.0, 1.0, 23.95, 8.75)">
      <use height="15.7" transform="matrix(1.0, 0.0, 0.0, 1.0, -23.05, -7.85)" width="46.1" xlink:href="#sprite13"/>
      <use height="17.5" transform="matrix(1.0, 0.0, 0.0, 1.0, -23.95, -8.75)" width="47.9" xlink:href="#shape14"/>
    </g>
    <g id="sprite13" transform="matrix(1.0, 0.0, 0.0, 1.0, 23.05, 7.85)">
      <use height="15.7" transform="matrix(1.0, 0.0, 0.0, 1.0, -23.05, -7.85)" width="46.1" xlink:href="#shape13"/>
    </g>
    <g id="shape13" transform="matrix(1.0, 0.0, 0.0, 1.0, 23.05, 7.85)">
      <path d="M23.05 -7.85 L23.05 7.85 -23.05 7.85 -23.05 -7.85 23.05 -7.85" fill="#e31709" fill-rule="evenodd" stroke="none"/>
    </g>
    <g id="shape14" transform="matrix(1.0, 0.0, 0.0, 1.0, 23.95, 8.75)">
      <path d="M-23.05 7.85 L-23.05 -7.85 23.05 -7.85 23.05 7.85 -23.05 7.85 Z" fill="none" stroke="#000000" stroke-linecap="round" stroke-linejoin="round" stroke-width="1.8"/>
    </g>
    <g id="morphshape0" transform="matrix(1.0, 0.0, 0.0, 1.0, -2.3, 51.15)">
      <path d="M3.2 -45.8 Q9.2 -48.85 15.55 -45.8" fill="none" stroke="#000000" stroke-linecap="round" stroke-linejoin="round" stroke-width="1.8"/>
    </g>
    <g id="morphshape1" transform="matrix(1.0, 0.0, 0.0, 1.0, -1.95, 58.35)">
      <path d="M2.7 -48.6 L16.3 -54.9" fill="none" stroke="#000000" stroke-linecap="round" stroke-linejoin="round" stroke-width="1.5"/>
    </g>
    <g id="sprite14" transform="matrix(1.0, 0.0, 0.0, 1.0, 21.35, 8.6)">
      <use height="15.4" transform="matrix(1.0, 0.0, 0.0, 1.0, -20.45, -7.7)" width="40.9" xlink:href="#sprite15"/>
      <use height="17.2" transform="matrix(1.0, 0.0, 0.0, 1.0, -21.35, -8.6)" width="42.7" xlink:href="#shape16"/>
    </g>
    <g id="sprite15" transform="matrix(1.0, 0.0, 0.0, 1.0, 20.45, 7.7)">
      <use height="15.4" transform="matrix(1.0, 0.0, 0.0, 1.0, -20.45, -7.7)" width="40.9" xlink:href="#shape15"/>
    </g>
    <g id="shape15" transform="matrix(1.0, 0.0, 0.0, 1.0, 20.45, 7.7)">
      <path d="M19.85 -3.2 Q20.6 -2.2 20.45 -0.95 20.25 0.3 19.25 1.1 L18.15 1.65 17.6 1.75 Q2.9 0.05 -12.05 6.95 -13.75 7.85 -15.15 7.7 -17.65 7.35 -19.2 5.3 -20.75 3.2 -20.4 0.75 -20.05 -1.75 -18.0 -3.3 L-17.2 -3.9 Q-2.4 -11.45 18.85 -4.05 L19.85 -3.2" fill="#ff9900" fill-rule="evenodd" stroke="none"/>
    </g>
    <g id="shape16" transform="matrix(1.0, 0.0, 0.0, 1.0, 21.35, 8.6)">
      <path d="M20.45 -0.95 Q20.25 0.3 19.25 1.1 L18.15 1.65 17.6 1.75 Q2.9 0.05 -12.05 6.95 -13.75 7.85 -15.15 7.7 -17.65 7.35 -19.2 5.3 -20.75 3.2 -20.4 0.75 -20.05 -1.75 -18.0 -3.3 L-17.2 -3.9 Q-2.4 -11.45 18.85 -4.05 L19.85 -3.2 Q20.6 -2.2 20.45 -0.95" fill="#3d250c" fill-rule="evenodd" stroke="none"/>
      <path d="M20.45 -0.95 Q20.25 0.3 19.25 1.1 L18.15 1.65 17.6 1.75 Q2.9 0.05 -12.05 6.95 -13.75 7.85 -15.15 7.7 -17.65 7.35 -19.2 5.3 -20.75 3.2 -20.4 0.75 -20.05 -1.75 -18.0 -3.3 L-17.2 -3.9 Q-2.4 -11.45 18.85 -4.05 L19.85 -3.2 Q20.6 -2.2 20.45 -0.95 Z" fill="none" stroke="#000000" stroke-linecap="round" stroke-linejoin="round" stroke-width="1.8"/>
    </g>
    <g id="sprite16" transform="matrix(1.0, 0.0, 0.0, 1.0, 18.45, 14.7)">
      <use height="27.6" transform="matrix(1.0, 0.0, 0.0, 1.0, -17.55, -13.8)" width="35.15" xlink:href="#sprite17"/>
      <use height="29.4" transform="matrix(1.0, 0.0, 0.0, 1.0, -18.45, -14.7)" width="36.95" xlink:href="#shape18"/>
    </g>
    <g id="sprite17" transform="matrix(1.0, 0.0, 0.0, 1.0, 17.55, 13.8)">
      <use height="27.6" transform="matrix(1.0, 0.0, 0.0, 1.0, -17.55, -13.8)" width="35.15" xlink:href="#shape17"/>
    </g>
    <g id="shape17" transform="matrix(1.0, 0.0, 0.0, 1.0, 17.55, 13.8)">
      <path d="M15.7 -13.5 Q16.9 -13.05 17.4 -11.85 17.85 -10.7 17.35 -9.5 17.1 -8.9 16.65 -8.45 L16.25 -8.1 Q2.75 -2.25 -6.8 11.15 -7.75 12.8 -9.05 13.35 -11.4 14.25 -13.8 13.3 -16.15 12.3 -17.1 9.95 -18.05 7.6 -17.05 5.25 L-16.6 4.35 Q-7.6 -9.55 14.45 -13.8 L15.7 -13.5" fill="#3d250c" fill-rule="evenodd" stroke="none"/>
    </g>
    <g id="shape18" transform="matrix(1.0, 0.0, 0.0, 1.0, 18.45, 14.7)">
      <path d="M16.65 -8.45 L16.25 -8.1 Q2.75 -2.25 -6.8 11.15 -7.75 12.8 -9.05 13.35 -11.4 14.25 -13.8 13.3 -16.15 12.3 -17.1 9.95 -18.05 7.6 -17.05 5.25 L-16.6 4.35 Q-7.6 -9.55 14.45 -13.8 L15.7 -13.5 Q16.9 -13.05 17.4 -11.85 17.85 -10.7 17.35 -9.5 17.1 -8.9 16.65 -8.45 Z" fill="none" stroke="#000000" stroke-linecap="round" stroke-linejoin="round" stroke-width="1.8"/>
    </g>
    <g id="shape19" transform="matrix(1.0, 0.0, 0.0, 1.0, 13.5, 4.95)">
      <path d="M10.9 0.75 Q7.85 2.75 4.7 3.6 0.55 4.65 -3.7 3.75 -6.85 3.1 -10.1 1.35 L-11.35 0.65 Q-14.6 -3.0 -9.5 -4.0 -0.2 -1.45 7.15 -3.5 14.45 -5.6 12.0 0.0 L10.9 0.75 9.45 -1.5 10.9 0.75 M-8.75 -1.0 L-10.1 1.35 -8.75 -1.0 M-3.4 0.75 L-3.7 3.75 -3.4 0.75 M4.7 3.6 L3.7 0.65 4.7 3.6" fill="#ffffff" fill-rule="evenodd" stroke="none"/>
      <path d="M10.9 0.75 Q7.85 2.75 4.7 3.6 0.55 4.65 -3.7 3.75 -6.85 3.1 -10.1 1.35 L-11.35 0.65 Q-14.6 -3.0 -9.5 -4.0 -0.2 -1.45 7.15 -3.5 14.45 -5.6 12.0 0.0 L10.9 0.75 9.45 -1.5 M3.7 0.65 L4.7 3.6 M-3.7 3.75 L-3.4 0.75 M-10.1 1.35 L-8.75 -1.0" fill="none" stroke="#000000" stroke-linecap="round" stroke-linejoin="round" stroke-width="1.8"/>
    </g>
    <g id="morphshape2" transform="matrix(1.0, 0.0, 0.0, 1.0, 18.7, 58.45)">
      <path d="M-17.95 -55.0 L-4.55 -48.3" fill="none" stroke="#000000" stroke-linecap="round" stroke-linejoin="round" stroke-width="1.5"/>
    </g>
    <g id="morphshape3" transform="matrix(1.0, 0.0, 0.0, 1.0, 18.15, 51.15)">
      <path d="M-17.25 -45.8 Q-10.6 -49.15 -4.9 -45.8" fill="none" stroke="#000000" stroke-linecap="round" stroke-linejoin="round" stroke-width="1.8"/>
    </g>
    <g id="shape20" transform="matrix(1.0, 0.0, 0.0, 1.0, -0.15, 1.25)">
      <path d="M1.4 -1.25 L2.25 -0.9 Q2.65 -0.5 2.65 0.0 2.65 0.5 2.25 0.85 1.9 1.25 1.4 1.25 0.9 1.25 0.5 0.85 0.15 0.5 0.15 0.0 0.15 -0.5 0.5 -0.9 0.9 -1.25 1.4 -1.25" fill="#ffffff" fill-rule="evenodd" stroke="none"/>
    </g>
    <g id="sprite18" transform="matrix(1.0, 0.0, 0.0, 1.0, 6.95, 9.7)">
      <use height="17.65" transform="matrix(1.068, 0.0, 0.0, 1.068, -6.0638, -8.7983)" width="10.7" xlink:href="#sprite19"/>
      <use height="20.65" transform="matrix(1.0, 0.0, 0.0, 1.0, -6.95, -9.7)" width="13.2" xlink:href="#shape22"/>
    </g>
    <g id="sprite19" transform="matrix(1.0, 0.0, 0.0, 1.0, 5.35, 8.8)">
      <use height="17.65" transform="matrix(1.0, 0.0, 0.0, 1.0, -5.35, -8.8)" width="10.7" xlink:href="#shape21"/>
    </g>
    <g id="shape21" transform="matrix(1.0, 0.0, 0.0, 1.0, 5.35, 8.8)">
      <path d="M4.1 -8.65 Q5.05 -8.25 5.3 -7.05 5.55 -5.85 3.65 0.55 L1.75 6.3 Q1.15 8.0 -0.1 8.55 -1.55 9.15 -3.05 8.55 -4.55 7.9 -5.15 6.5 -5.65 5.15 -4.85 3.55 L-2.1 -1.85 Q1.05 -7.75 2.1 -8.4 3.15 -9.05 4.1 -8.65" fill="#b88a5c" fill-rule="evenodd" stroke="none"/>
    </g>
    <g id="shape22" transform="matrix(1.0, 0.0, 0.0, 1.0, 6.95, 9.7)">
      <path d="M1.9 -8.35 Q0.8 -7.65 -2.6 -1.35 L-4.9 3.1 Q-2.1 5.7 2.0 6.0 L3.55 1.2 Q5.6 -5.65 5.3 -6.95 5.05 -8.25 4.05 -8.65 3.0 -9.1 1.9 -8.35 M-4.9 3.1 L-5.55 4.4 Q-6.4 6.15 -5.85 7.55 -5.2 9.05 -3.6 9.7 L-0.45 9.75 Q0.9 9.15 1.55 7.35 L2.0 6.0" fill="none" stroke="#000000" stroke-linecap="round" stroke-linejoin="round" stroke-width="1.8"/>
    </g>
  </defs>
</svg>
